G04 #@! TF.GenerationSoftware,KiCad,Pcbnew,(5.1.9)-1*
G04 #@! TF.CreationDate,2021-05-31T18:46:20+02:00*
G04 #@! TF.ProjectId,xiao-simple,7869616f-2d73-4696-9d70-6c652e6b6963,rev?*
G04 #@! TF.SameCoordinates,Original*
G04 #@! TF.FileFunction,Legend,Top*
G04 #@! TF.FilePolarity,Positive*
%FSLAX46Y46*%
G04 Gerber Fmt 4.6, Leading zero omitted, Abs format (unit mm)*
G04 Created by KiCad (PCBNEW (5.1.9)-1) date 2021-05-31 18:46:20*
%MOMM*%
%LPD*%
G01*
G04 APERTURE LIST*
%ADD10C,0.200000*%
%ADD11C,0.120000*%
%ADD12C,0.150000*%
%ADD13C,0.100000*%
%ADD14C,0.250000*%
%ADD15C,0.010000*%
%ADD16C,0.127000*%
%ADD17C,0.066040*%
%ADD18C,0.101600*%
G04 APERTURE END LIST*
D10*
X81369285Y-122396190D02*
X81369285Y-121443809D01*
X80803809Y-109309285D02*
X81756190Y-109309285D01*
X81280000Y-109785476D02*
X81280000Y-108833095D01*
X131470904Y-125025476D02*
X130756619Y-125025476D01*
X131113761Y-125025476D02*
X131113761Y-123775476D01*
X130994714Y-123954047D01*
X130875666Y-124073095D01*
X130756619Y-124132619D01*
X132244714Y-123775476D02*
X132363761Y-123775476D01*
X132482809Y-123835000D01*
X132542333Y-123894523D01*
X132601857Y-124013571D01*
X132661380Y-124251666D01*
X132661380Y-124549285D01*
X132601857Y-124787380D01*
X132542333Y-124906428D01*
X132482809Y-124965952D01*
X132363761Y-125025476D01*
X132244714Y-125025476D01*
X132125666Y-124965952D01*
X132066142Y-124906428D01*
X132006619Y-124787380D01*
X131947095Y-124549285D01*
X131947095Y-124251666D01*
X132006619Y-124013571D01*
X132066142Y-123894523D01*
X132125666Y-123835000D01*
X132244714Y-123775476D01*
X133197095Y-125025476D02*
X133197095Y-123775476D01*
X133911380Y-125025476D02*
X133375666Y-124311190D01*
X133911380Y-123775476D02*
X133197095Y-124489761D01*
X131343904Y-130232476D02*
X130629619Y-130232476D01*
X130986761Y-130232476D02*
X130986761Y-128982476D01*
X130867714Y-129161047D01*
X130748666Y-129280095D01*
X130629619Y-129339619D01*
X132117714Y-128982476D02*
X132236761Y-128982476D01*
X132355809Y-129042000D01*
X132415333Y-129101523D01*
X132474857Y-129220571D01*
X132534380Y-129458666D01*
X132534380Y-129756285D01*
X132474857Y-129994380D01*
X132415333Y-130113428D01*
X132355809Y-130172952D01*
X132236761Y-130232476D01*
X132117714Y-130232476D01*
X131998666Y-130172952D01*
X131939142Y-130113428D01*
X131879619Y-129994380D01*
X131820095Y-129756285D01*
X131820095Y-129458666D01*
X131879619Y-129220571D01*
X131939142Y-129101523D01*
X131998666Y-129042000D01*
X132117714Y-128982476D01*
X133070095Y-130232476D02*
X133070095Y-128982476D01*
X133784380Y-130232476D02*
X133248666Y-129518190D01*
X133784380Y-128982476D02*
X133070095Y-129696761D01*
X155346904Y-130232476D02*
X154632619Y-130232476D01*
X154989761Y-130232476D02*
X154989761Y-128982476D01*
X154870714Y-129161047D01*
X154751666Y-129280095D01*
X154632619Y-129339619D01*
X156120714Y-128982476D02*
X156239761Y-128982476D01*
X156358809Y-129042000D01*
X156418333Y-129101523D01*
X156477857Y-129220571D01*
X156537380Y-129458666D01*
X156537380Y-129756285D01*
X156477857Y-129994380D01*
X156418333Y-130113428D01*
X156358809Y-130172952D01*
X156239761Y-130232476D01*
X156120714Y-130232476D01*
X156001666Y-130172952D01*
X155942142Y-130113428D01*
X155882619Y-129994380D01*
X155823095Y-129756285D01*
X155823095Y-129458666D01*
X155882619Y-129220571D01*
X155942142Y-129101523D01*
X156001666Y-129042000D01*
X156120714Y-128982476D01*
X157073095Y-130232476D02*
X157073095Y-128982476D01*
X157787380Y-130232476D02*
X157251666Y-129518190D01*
X157787380Y-128982476D02*
X157073095Y-129696761D01*
X155346904Y-125152476D02*
X154632619Y-125152476D01*
X154989761Y-125152476D02*
X154989761Y-123902476D01*
X154870714Y-124081047D01*
X154751666Y-124200095D01*
X154632619Y-124259619D01*
X156120714Y-123902476D02*
X156239761Y-123902476D01*
X156358809Y-123962000D01*
X156418333Y-124021523D01*
X156477857Y-124140571D01*
X156537380Y-124378666D01*
X156537380Y-124676285D01*
X156477857Y-124914380D01*
X156418333Y-125033428D01*
X156358809Y-125092952D01*
X156239761Y-125152476D01*
X156120714Y-125152476D01*
X156001666Y-125092952D01*
X155942142Y-125033428D01*
X155882619Y-124914380D01*
X155823095Y-124676285D01*
X155823095Y-124378666D01*
X155882619Y-124140571D01*
X155942142Y-124021523D01*
X156001666Y-123962000D01*
X156120714Y-123902476D01*
X157073095Y-125152476D02*
X157073095Y-123902476D01*
X157787380Y-125152476D02*
X157251666Y-124438190D01*
X157787380Y-123902476D02*
X157073095Y-124616761D01*
D11*
X102362000Y-122301000D02*
X100711000Y-122301000D01*
X102362000Y-131064000D02*
X100711000Y-131064000D01*
X102362000Y-125349000D02*
X100711000Y-125349000D01*
X102362000Y-133477000D02*
X102362000Y-119761000D01*
X102362000Y-127889000D02*
X100711000Y-127889000D01*
X100711000Y-133477000D02*
X102362000Y-133477000D01*
X100711000Y-119761000D02*
X100711000Y-133477000D01*
X102362000Y-119761000D02*
X100711000Y-119761000D01*
D12*
X102052380Y-130706666D02*
X101052380Y-130706666D01*
X101052380Y-130325714D01*
X101100000Y-130230476D01*
X101147619Y-130182857D01*
X101242857Y-130135238D01*
X101385714Y-130135238D01*
X101480952Y-130182857D01*
X101528571Y-130230476D01*
X101576190Y-130325714D01*
X101576190Y-130706666D01*
X101766666Y-129754285D02*
X101766666Y-129278095D01*
X102052380Y-129849523D02*
X101052380Y-129516190D01*
X102052380Y-129182857D01*
X101052380Y-128944761D02*
X101052380Y-128278095D01*
X102052380Y-128706666D01*
X101052380Y-132683190D02*
X101290476Y-132683190D01*
X101195238Y-132921285D02*
X101290476Y-132683190D01*
X101195238Y-132445095D01*
X101480952Y-132826047D02*
X101290476Y-132683190D01*
X101480952Y-132540333D01*
X102052380Y-131540333D02*
X102052380Y-132111761D01*
X102052380Y-131826047D02*
X101052380Y-131826047D01*
X101195238Y-131921285D01*
X101290476Y-132016523D01*
X101338095Y-132111761D01*
X101052380Y-127095190D02*
X101290476Y-127095190D01*
X101195238Y-127333285D02*
X101290476Y-127095190D01*
X101195238Y-126857095D01*
X101480952Y-127238047D02*
X101290476Y-127095190D01*
X101480952Y-126952333D01*
X101052380Y-126571380D02*
X101052380Y-125952333D01*
X101433333Y-126285666D01*
X101433333Y-126142809D01*
X101480952Y-126047571D01*
X101528571Y-125999952D01*
X101623809Y-125952333D01*
X101861904Y-125952333D01*
X101957142Y-125999952D01*
X102004761Y-126047571D01*
X102052380Y-126142809D01*
X102052380Y-126428523D01*
X102004761Y-126523761D01*
X101957142Y-126571380D01*
X102052380Y-125063095D02*
X101052380Y-125063095D01*
X101052380Y-124682142D01*
X101100000Y-124586904D01*
X101147619Y-124539285D01*
X101242857Y-124491666D01*
X101385714Y-124491666D01*
X101480952Y-124539285D01*
X101528571Y-124586904D01*
X101576190Y-124682142D01*
X101576190Y-125063095D01*
X101528571Y-123729761D02*
X101576190Y-123586904D01*
X101623809Y-123539285D01*
X101719047Y-123491666D01*
X101861904Y-123491666D01*
X101957142Y-123539285D01*
X102004761Y-123586904D01*
X102052380Y-123682142D01*
X102052380Y-124063095D01*
X101052380Y-124063095D01*
X101052380Y-123729761D01*
X101100000Y-123634523D01*
X101147619Y-123586904D01*
X101242857Y-123539285D01*
X101338095Y-123539285D01*
X101433333Y-123586904D01*
X101480952Y-123634523D01*
X101528571Y-123729761D01*
X101528571Y-124063095D01*
X102052380Y-123015476D02*
X102052380Y-122825000D01*
X102004761Y-122729761D01*
X101957142Y-122682142D01*
X101814285Y-122586904D01*
X101623809Y-122539285D01*
X101242857Y-122539285D01*
X101147619Y-122586904D01*
X101100000Y-122634523D01*
X101052380Y-122729761D01*
X101052380Y-122920238D01*
X101100000Y-123015476D01*
X101147619Y-123063095D01*
X101242857Y-123110714D01*
X101480952Y-123110714D01*
X101576190Y-123063095D01*
X101623809Y-123015476D01*
X101671428Y-122920238D01*
X101671428Y-122729761D01*
X101623809Y-122634523D01*
X101576190Y-122586904D01*
X101480952Y-122539285D01*
X101052380Y-121507190D02*
X101290476Y-121507190D01*
X101195238Y-121745285D02*
X101290476Y-121507190D01*
X101195238Y-121269095D01*
X101480952Y-121650047D02*
X101290476Y-121507190D01*
X101480952Y-121364333D01*
X101052380Y-120411952D02*
X101052380Y-120888142D01*
X101528571Y-120935761D01*
X101480952Y-120888142D01*
X101433333Y-120792904D01*
X101433333Y-120554809D01*
X101480952Y-120459571D01*
X101528571Y-120411952D01*
X101623809Y-120364333D01*
X101861904Y-120364333D01*
X101957142Y-120411952D01*
X102004761Y-120459571D01*
X102052380Y-120554809D01*
X102052380Y-120792904D01*
X102004761Y-120888142D01*
X101957142Y-120935761D01*
D10*
X88265238Y-133935476D02*
X89098571Y-135185476D01*
X89098571Y-133935476D02*
X88265238Y-135185476D01*
X89574761Y-135185476D02*
X89574761Y-133935476D01*
X90110476Y-134828333D02*
X90705714Y-134828333D01*
X89991428Y-135185476D02*
X90408095Y-133935476D01*
X90824761Y-135185476D01*
X91479523Y-133935476D02*
X91717619Y-133935476D01*
X91836666Y-133995000D01*
X91955714Y-134114047D01*
X92015238Y-134352142D01*
X92015238Y-134768809D01*
X91955714Y-135006904D01*
X91836666Y-135125952D01*
X91717619Y-135185476D01*
X91479523Y-135185476D01*
X91360476Y-135125952D01*
X91241428Y-135006904D01*
X91181904Y-134768809D01*
X91181904Y-134352142D01*
X91241428Y-134114047D01*
X91360476Y-133995000D01*
X91479523Y-133935476D01*
X85229523Y-132585952D02*
X85408095Y-132645476D01*
X85705714Y-132645476D01*
X85824761Y-132585952D01*
X85884285Y-132526428D01*
X85943809Y-132407380D01*
X85943809Y-132288333D01*
X85884285Y-132169285D01*
X85824761Y-132109761D01*
X85705714Y-132050238D01*
X85467619Y-131990714D01*
X85348571Y-131931190D01*
X85289047Y-131871666D01*
X85229523Y-131752619D01*
X85229523Y-131633571D01*
X85289047Y-131514523D01*
X85348571Y-131455000D01*
X85467619Y-131395476D01*
X85765238Y-131395476D01*
X85943809Y-131455000D01*
X86479523Y-131990714D02*
X86896190Y-131990714D01*
X87074761Y-132645476D02*
X86479523Y-132645476D01*
X86479523Y-131395476D01*
X87074761Y-131395476D01*
X87610476Y-131990714D02*
X88027142Y-131990714D01*
X88205714Y-132645476D02*
X87610476Y-132645476D01*
X87610476Y-131395476D01*
X88205714Y-131395476D01*
X88741428Y-131990714D02*
X89158095Y-131990714D01*
X89336666Y-132645476D02*
X88741428Y-132645476D01*
X88741428Y-131395476D01*
X89336666Y-131395476D01*
X89872380Y-132645476D02*
X89872380Y-131395476D01*
X90170000Y-131395476D01*
X90348571Y-131455000D01*
X90467619Y-131574047D01*
X90527142Y-131693095D01*
X90586666Y-131931190D01*
X90586666Y-132109761D01*
X90527142Y-132347857D01*
X90467619Y-132466904D01*
X90348571Y-132585952D01*
X90170000Y-132645476D01*
X89872380Y-132645476D01*
X91122380Y-131395476D02*
X91122380Y-132407380D01*
X91181904Y-132526428D01*
X91241428Y-132585952D01*
X91360476Y-132645476D01*
X91598571Y-132645476D01*
X91717619Y-132585952D01*
X91777142Y-132526428D01*
X91836666Y-132407380D01*
X91836666Y-131395476D01*
X92431904Y-132645476D02*
X92431904Y-131395476D01*
X93027142Y-132645476D02*
X93027142Y-131395476D01*
X93741428Y-132645476D01*
X93741428Y-131395476D01*
X94574761Y-131395476D02*
X94812857Y-131395476D01*
X94931904Y-131455000D01*
X95050952Y-131574047D01*
X95110476Y-131812142D01*
X95110476Y-132228809D01*
X95050952Y-132466904D01*
X94931904Y-132585952D01*
X94812857Y-132645476D01*
X94574761Y-132645476D01*
X94455714Y-132585952D01*
X94336666Y-132466904D01*
X94277142Y-132228809D01*
X94277142Y-131812142D01*
X94336666Y-131574047D01*
X94455714Y-131455000D01*
X94574761Y-131395476D01*
D13*
X106934047Y-134389761D02*
X106934047Y-134437380D01*
X106981666Y-134294523D02*
X106981666Y-134437380D01*
X107029285Y-134199285D02*
X107029285Y-134437380D01*
X107076904Y-134104047D02*
X107076904Y-134437380D01*
X107124523Y-134056428D02*
X107124523Y-134437380D01*
X107172142Y-133961190D02*
X107172142Y-134437380D01*
X107219761Y-133865952D02*
X107219761Y-134437380D01*
X107267380Y-133770714D02*
X107267380Y-134437380D01*
X107315000Y-133675476D02*
X107315000Y-134437380D01*
X107362619Y-133770714D02*
X107362619Y-134437380D01*
X107410238Y-133865952D02*
X107410238Y-134437380D01*
X107457857Y-133961190D02*
X107457857Y-134437380D01*
X107505476Y-134056428D02*
X107505476Y-134437380D01*
X107553095Y-134104047D02*
X107553095Y-134437380D01*
X107600714Y-134199285D02*
X107600714Y-134437380D01*
X107648333Y-134294523D02*
X107648333Y-134437380D01*
X107695952Y-134437380D02*
X107315000Y-133723095D01*
X106934047Y-134437380D01*
X107695952Y-134389761D02*
X107695952Y-134437380D01*
X107315000Y-133675476D02*
X107743571Y-134437380D01*
X106886428Y-134437380D01*
X107315000Y-133675476D01*
X106934047Y-125499761D02*
X106934047Y-125547380D01*
X106981666Y-125404523D02*
X106981666Y-125547380D01*
X107029285Y-125309285D02*
X107029285Y-125547380D01*
X107076904Y-125214047D02*
X107076904Y-125547380D01*
X107124523Y-125166428D02*
X107124523Y-125547380D01*
X107172142Y-125071190D02*
X107172142Y-125547380D01*
X107219761Y-124975952D02*
X107219761Y-125547380D01*
X107267380Y-124880714D02*
X107267380Y-125547380D01*
X107315000Y-124785476D02*
X107315000Y-125547380D01*
X107362619Y-124880714D02*
X107362619Y-125547380D01*
X107410238Y-124975952D02*
X107410238Y-125547380D01*
X107457857Y-125071190D02*
X107457857Y-125547380D01*
X107505476Y-125166428D02*
X107505476Y-125547380D01*
X107553095Y-125214047D02*
X107553095Y-125547380D01*
X107600714Y-125309285D02*
X107600714Y-125547380D01*
X107648333Y-125404523D02*
X107648333Y-125547380D01*
X107695952Y-125547380D02*
X107315000Y-124833095D01*
X106934047Y-125547380D01*
X107695952Y-125499761D02*
X107695952Y-125547380D01*
X107315000Y-124785476D02*
X107743571Y-125547380D01*
X106886428Y-125547380D01*
X107315000Y-124785476D01*
D10*
X104685714Y-141565000D02*
X104685714Y-141148333D01*
X105340476Y-140969761D02*
X105340476Y-141565000D01*
X104090476Y-141565000D01*
X104090476Y-140969761D01*
X104090476Y-140553095D02*
X105340476Y-139719761D01*
X104090476Y-139719761D02*
X105340476Y-140553095D01*
X104090476Y-139422142D02*
X104090476Y-138707857D01*
X105340476Y-139065000D02*
X104090476Y-139065000D01*
X105340476Y-137576904D02*
X104745238Y-137993571D01*
X105340476Y-138291190D02*
X104090476Y-138291190D01*
X104090476Y-137815000D01*
X104150000Y-137695952D01*
X104209523Y-137636428D01*
X104328571Y-137576904D01*
X104507142Y-137576904D01*
X104626190Y-137636428D01*
X104685714Y-137695952D01*
X104745238Y-137815000D01*
X104745238Y-138291190D01*
X104983333Y-137100714D02*
X104983333Y-136505476D01*
X105340476Y-137219761D02*
X104090476Y-136803095D01*
X105340476Y-136386428D01*
X108377619Y-134530714D02*
X108794285Y-134530714D01*
X108972857Y-135185476D02*
X108377619Y-135185476D01*
X108377619Y-133935476D01*
X108972857Y-133935476D01*
X109508571Y-135185476D02*
X109508571Y-133935476D01*
X110222857Y-135185476D01*
X110222857Y-133935476D01*
X111532380Y-135066428D02*
X111472857Y-135125952D01*
X111294285Y-135185476D01*
X111175238Y-135185476D01*
X110996666Y-135125952D01*
X110877619Y-135006904D01*
X110818095Y-134887857D01*
X110758571Y-134649761D01*
X110758571Y-134471190D01*
X110818095Y-134233095D01*
X110877619Y-134114047D01*
X110996666Y-133995000D01*
X111175238Y-133935476D01*
X111294285Y-133935476D01*
X111472857Y-133995000D01*
X111532380Y-134054523D01*
X112306190Y-133935476D02*
X112544285Y-133935476D01*
X112663333Y-133995000D01*
X112782380Y-134114047D01*
X112841904Y-134352142D01*
X112841904Y-134768809D01*
X112782380Y-135006904D01*
X112663333Y-135125952D01*
X112544285Y-135185476D01*
X112306190Y-135185476D01*
X112187142Y-135125952D01*
X112068095Y-135006904D01*
X112008571Y-134768809D01*
X112008571Y-134352142D01*
X112068095Y-134114047D01*
X112187142Y-133995000D01*
X112306190Y-133935476D01*
X113377619Y-135185476D02*
X113377619Y-133935476D01*
X113675238Y-133935476D01*
X113853809Y-133995000D01*
X113972857Y-134114047D01*
X114032380Y-134233095D01*
X114091904Y-134471190D01*
X114091904Y-134649761D01*
X114032380Y-134887857D01*
X113972857Y-135006904D01*
X113853809Y-135125952D01*
X113675238Y-135185476D01*
X113377619Y-135185476D01*
X114627619Y-134530714D02*
X115044285Y-134530714D01*
X115222857Y-135185476D02*
X114627619Y-135185476D01*
X114627619Y-133935476D01*
X115222857Y-133935476D01*
X116472857Y-135185476D02*
X116056190Y-134590238D01*
X115758571Y-135185476D02*
X115758571Y-133935476D01*
X116234761Y-133935476D01*
X116353809Y-133995000D01*
X116413333Y-134054523D01*
X116472857Y-134173571D01*
X116472857Y-134352142D01*
X116413333Y-134471190D01*
X116353809Y-134530714D01*
X116234761Y-134590238D01*
X115758571Y-134590238D01*
X108377619Y-125640714D02*
X108794285Y-125640714D01*
X108972857Y-126295476D02*
X108377619Y-126295476D01*
X108377619Y-125045476D01*
X108972857Y-125045476D01*
X109508571Y-126295476D02*
X109508571Y-125045476D01*
X110222857Y-126295476D01*
X110222857Y-125045476D01*
X110818095Y-126295476D02*
X110818095Y-125045476D01*
X111115714Y-125045476D01*
X111294285Y-125105000D01*
X111413333Y-125224047D01*
X111472857Y-125343095D01*
X111532380Y-125581190D01*
X111532380Y-125759761D01*
X111472857Y-125997857D01*
X111413333Y-126116904D01*
X111294285Y-126235952D01*
X111115714Y-126295476D01*
X110818095Y-126295476D01*
X112008571Y-126235952D02*
X112187142Y-126295476D01*
X112484761Y-126295476D01*
X112603809Y-126235952D01*
X112663333Y-126176428D01*
X112722857Y-126057380D01*
X112722857Y-125938333D01*
X112663333Y-125819285D01*
X112603809Y-125759761D01*
X112484761Y-125700238D01*
X112246666Y-125640714D01*
X112127619Y-125581190D01*
X112068095Y-125521666D01*
X112008571Y-125402619D01*
X112008571Y-125283571D01*
X112068095Y-125164523D01*
X112127619Y-125105000D01*
X112246666Y-125045476D01*
X112544285Y-125045476D01*
X112722857Y-125105000D01*
X113080000Y-125045476D02*
X113794285Y-125045476D01*
X113437142Y-126295476D02*
X113437142Y-125045476D01*
X114449047Y-125045476D02*
X114687142Y-125045476D01*
X114806190Y-125105000D01*
X114925238Y-125224047D01*
X114984761Y-125462142D01*
X114984761Y-125878809D01*
X114925238Y-126116904D01*
X114806190Y-126235952D01*
X114687142Y-126295476D01*
X114449047Y-126295476D01*
X114330000Y-126235952D01*
X114210952Y-126116904D01*
X114151428Y-125878809D01*
X114151428Y-125462142D01*
X114210952Y-125224047D01*
X114330000Y-125105000D01*
X114449047Y-125045476D01*
X115520476Y-126295476D02*
X115520476Y-125045476D01*
X115996666Y-125045476D01*
X116115714Y-125105000D01*
X116175238Y-125164523D01*
X116234761Y-125283571D01*
X116234761Y-125462142D01*
X116175238Y-125581190D01*
X116115714Y-125640714D01*
X115996666Y-125700238D01*
X115520476Y-125700238D01*
X105280952Y-115133095D02*
X105340476Y-114954523D01*
X105340476Y-114656904D01*
X105280952Y-114537857D01*
X105221428Y-114478333D01*
X105102380Y-114418809D01*
X104983333Y-114418809D01*
X104864285Y-114478333D01*
X104804761Y-114537857D01*
X104745238Y-114656904D01*
X104685714Y-114895000D01*
X104626190Y-115014047D01*
X104566666Y-115073571D01*
X104447619Y-115133095D01*
X104328571Y-115133095D01*
X104209523Y-115073571D01*
X104150000Y-115014047D01*
X104090476Y-114895000D01*
X104090476Y-114597380D01*
X104150000Y-114418809D01*
X104685714Y-113883095D02*
X104685714Y-113466428D01*
X105340476Y-113287857D02*
X105340476Y-113883095D01*
X104090476Y-113883095D01*
X104090476Y-113287857D01*
X105340476Y-112037857D02*
X104745238Y-112454523D01*
X105340476Y-112752142D02*
X104090476Y-112752142D01*
X104090476Y-112275952D01*
X104150000Y-112156904D01*
X104209523Y-112097380D01*
X104328571Y-112037857D01*
X104507142Y-112037857D01*
X104626190Y-112097380D01*
X104685714Y-112156904D01*
X104745238Y-112275952D01*
X104745238Y-112752142D01*
X104090476Y-111680714D02*
X105340476Y-111264047D01*
X104090476Y-110847380D01*
X104090476Y-110192619D02*
X104090476Y-109954523D01*
X104150000Y-109835476D01*
X104269047Y-109716428D01*
X104507142Y-109656904D01*
X104923809Y-109656904D01*
X105161904Y-109716428D01*
X105280952Y-109835476D01*
X105340476Y-109954523D01*
X105340476Y-110192619D01*
X105280952Y-110311666D01*
X105161904Y-110430714D01*
X104923809Y-110490238D01*
X104507142Y-110490238D01*
X104269047Y-110430714D01*
X104150000Y-110311666D01*
X104090476Y-110192619D01*
X131515000Y-117345952D02*
X131693571Y-117405476D01*
X131991190Y-117405476D01*
X132110238Y-117345952D01*
X132169761Y-117286428D01*
X132229285Y-117167380D01*
X132229285Y-117048333D01*
X132169761Y-116929285D01*
X132110238Y-116869761D01*
X131991190Y-116810238D01*
X131753095Y-116750714D01*
X131634047Y-116691190D01*
X131574523Y-116631666D01*
X131515000Y-116512619D01*
X131515000Y-116393571D01*
X131574523Y-116274523D01*
X131634047Y-116215000D01*
X131753095Y-116155476D01*
X132050714Y-116155476D01*
X132229285Y-116215000D01*
X132765000Y-116750714D02*
X133181666Y-116750714D01*
X133360238Y-117405476D02*
X132765000Y-117405476D01*
X132765000Y-116155476D01*
X133360238Y-116155476D01*
X134491190Y-117405476D02*
X133895952Y-117405476D01*
X133895952Y-116155476D01*
X134907857Y-116750714D02*
X135324523Y-116750714D01*
X135503095Y-117405476D02*
X134907857Y-117405476D01*
X134907857Y-116155476D01*
X135503095Y-116155476D01*
X136753095Y-117286428D02*
X136693571Y-117345952D01*
X136515000Y-117405476D01*
X136395952Y-117405476D01*
X136217380Y-117345952D01*
X136098333Y-117226904D01*
X136038809Y-117107857D01*
X135979285Y-116869761D01*
X135979285Y-116691190D01*
X136038809Y-116453095D01*
X136098333Y-116334047D01*
X136217380Y-116215000D01*
X136395952Y-116155476D01*
X136515000Y-116155476D01*
X136693571Y-116215000D01*
X136753095Y-116274523D01*
X137110238Y-116155476D02*
X137824523Y-116155476D01*
X137467380Y-117405476D02*
X137467380Y-116155476D01*
X138479285Y-116155476D02*
X138717380Y-116155476D01*
X138836428Y-116215000D01*
X138955476Y-116334047D01*
X139015000Y-116572142D01*
X139015000Y-116988809D01*
X138955476Y-117226904D01*
X138836428Y-117345952D01*
X138717380Y-117405476D01*
X138479285Y-117405476D01*
X138360238Y-117345952D01*
X138241190Y-117226904D01*
X138181666Y-116988809D01*
X138181666Y-116572142D01*
X138241190Y-116334047D01*
X138360238Y-116215000D01*
X138479285Y-116155476D01*
X140265000Y-117405476D02*
X139848333Y-116810238D01*
X139550714Y-117405476D02*
X139550714Y-116155476D01*
X140026904Y-116155476D01*
X140145952Y-116215000D01*
X140205476Y-116274523D01*
X140265000Y-116393571D01*
X140265000Y-116572142D01*
X140205476Y-116691190D01*
X140145952Y-116750714D01*
X140026904Y-116810238D01*
X139550714Y-116810238D01*
X158621190Y-116215000D02*
X158502142Y-116155476D01*
X158323571Y-116155476D01*
X158145000Y-116215000D01*
X158025952Y-116334047D01*
X157966428Y-116453095D01*
X157906904Y-116691190D01*
X157906904Y-116869761D01*
X157966428Y-117107857D01*
X158025952Y-117226904D01*
X158145000Y-117345952D01*
X158323571Y-117405476D01*
X158442619Y-117405476D01*
X158621190Y-117345952D01*
X158680714Y-117286428D01*
X158680714Y-116869761D01*
X158442619Y-116869761D01*
X159216428Y-116750714D02*
X159633095Y-116750714D01*
X159811666Y-117405476D02*
X159216428Y-117405476D01*
X159216428Y-116155476D01*
X159811666Y-116155476D01*
X160287857Y-117048333D02*
X160883095Y-117048333D01*
X160168809Y-117405476D02*
X160585476Y-116155476D01*
X161002142Y-117405476D01*
X162133095Y-117405476D02*
X161716428Y-116810238D01*
X161418809Y-117405476D02*
X161418809Y-116155476D01*
X161895000Y-116155476D01*
X162014047Y-116215000D01*
X162073571Y-116274523D01*
X162133095Y-116393571D01*
X162133095Y-116572142D01*
X162073571Y-116691190D01*
X162014047Y-116750714D01*
X161895000Y-116810238D01*
X161418809Y-116810238D01*
D12*
X156922500Y-139485714D02*
X157160595Y-140152380D01*
X157398690Y-139485714D01*
X158303452Y-140152380D02*
X157732023Y-140152380D01*
X158017738Y-140152380D02*
X158017738Y-139152380D01*
X157922500Y-139295238D01*
X157827261Y-139390476D01*
X157732023Y-139438095D01*
X158732023Y-140057142D02*
X158779642Y-140104761D01*
X158732023Y-140152380D01*
X158684404Y-140104761D01*
X158732023Y-140057142D01*
X158732023Y-140152380D01*
X159398690Y-139152380D02*
X159493928Y-139152380D01*
X159589166Y-139200000D01*
X159636785Y-139247619D01*
X159684404Y-139342857D01*
X159732023Y-139533333D01*
X159732023Y-139771428D01*
X159684404Y-139961904D01*
X159636785Y-140057142D01*
X159589166Y-140104761D01*
X159493928Y-140152380D01*
X159398690Y-140152380D01*
X159303452Y-140104761D01*
X159255833Y-140057142D01*
X159208214Y-139961904D01*
X159160595Y-139771428D01*
X159160595Y-139533333D01*
X159208214Y-139342857D01*
X159255833Y-139247619D01*
X159303452Y-139200000D01*
X159398690Y-139152380D01*
D14*
X138006428Y-139592857D02*
X138506428Y-139592857D01*
X138720714Y-140378571D02*
X138006428Y-140378571D01*
X138006428Y-138878571D01*
X138720714Y-138878571D01*
X140220714Y-140378571D02*
X139720714Y-139664285D01*
X139363571Y-140378571D02*
X139363571Y-138878571D01*
X139935000Y-138878571D01*
X140077857Y-138950000D01*
X140149285Y-139021428D01*
X140220714Y-139164285D01*
X140220714Y-139378571D01*
X140149285Y-139521428D01*
X140077857Y-139592857D01*
X139935000Y-139664285D01*
X139363571Y-139664285D01*
X141720714Y-140235714D02*
X141649285Y-140307142D01*
X141435000Y-140378571D01*
X141292142Y-140378571D01*
X141077857Y-140307142D01*
X140935000Y-140164285D01*
X140863571Y-140021428D01*
X140792142Y-139735714D01*
X140792142Y-139521428D01*
X140863571Y-139235714D01*
X140935000Y-139092857D01*
X141077857Y-138950000D01*
X141292142Y-138878571D01*
X141435000Y-138878571D01*
X141649285Y-138950000D01*
X141720714Y-139021428D01*
X142863571Y-139592857D02*
X142363571Y-139592857D01*
X142363571Y-140378571D02*
X142363571Y-138878571D01*
X143077857Y-138878571D01*
X144792142Y-139592857D02*
X145292142Y-139592857D01*
X145506428Y-140378571D02*
X144792142Y-140378571D01*
X144792142Y-138878571D01*
X145506428Y-138878571D01*
X146006428Y-138878571D02*
X147006428Y-138878571D01*
X146006428Y-140378571D01*
X147006428Y-140378571D01*
X149220714Y-139592857D02*
X149435000Y-139664285D01*
X149506428Y-139735714D01*
X149577857Y-139878571D01*
X149577857Y-140092857D01*
X149506428Y-140235714D01*
X149435000Y-140307142D01*
X149292142Y-140378571D01*
X148720714Y-140378571D01*
X148720714Y-138878571D01*
X149220714Y-138878571D01*
X149363571Y-138950000D01*
X149435000Y-139021428D01*
X149506428Y-139164285D01*
X149506428Y-139307142D01*
X149435000Y-139450000D01*
X149363571Y-139521428D01*
X149220714Y-139592857D01*
X148720714Y-139592857D01*
X150506428Y-138878571D02*
X150792142Y-138878571D01*
X150935000Y-138950000D01*
X151077857Y-139092857D01*
X151149285Y-139378571D01*
X151149285Y-139878571D01*
X151077857Y-140164285D01*
X150935000Y-140307142D01*
X150792142Y-140378571D01*
X150506428Y-140378571D01*
X150363571Y-140307142D01*
X150220714Y-140164285D01*
X150149285Y-139878571D01*
X150149285Y-139378571D01*
X150220714Y-139092857D01*
X150363571Y-138950000D01*
X150506428Y-138878571D01*
X151720714Y-139950000D02*
X152435000Y-139950000D01*
X151577857Y-140378571D02*
X152077857Y-138878571D01*
X152577857Y-140378571D01*
X153935000Y-140378571D02*
X153435000Y-139664285D01*
X153077857Y-140378571D02*
X153077857Y-138878571D01*
X153649285Y-138878571D01*
X153792142Y-138950000D01*
X153863571Y-139021428D01*
X153935000Y-139164285D01*
X153935000Y-139378571D01*
X153863571Y-139521428D01*
X153792142Y-139592857D01*
X153649285Y-139664285D01*
X153077857Y-139664285D01*
X154577857Y-140378571D02*
X154577857Y-138878571D01*
X154935000Y-138878571D01*
X155149285Y-138950000D01*
X155292142Y-139092857D01*
X155363571Y-139235714D01*
X155435000Y-139521428D01*
X155435000Y-139735714D01*
X155363571Y-140021428D01*
X155292142Y-140164285D01*
X155149285Y-140307142D01*
X154935000Y-140378571D01*
X154577857Y-140378571D01*
D11*
X106370000Y-126790000D02*
X106370000Y-128040000D01*
X107620000Y-126790000D02*
X106370000Y-126790000D01*
X116020000Y-132290000D02*
X111720000Y-132290000D01*
X116020000Y-129340000D02*
X116020000Y-132290000D01*
X116770000Y-129340000D02*
X116020000Y-129340000D01*
X107420000Y-132290000D02*
X111720000Y-132290000D01*
X107420000Y-129340000D02*
X107420000Y-132290000D01*
X106670000Y-129340000D02*
X107420000Y-129340000D01*
X116770000Y-127090000D02*
X114970000Y-127090000D01*
X116770000Y-127840000D02*
X116770000Y-127090000D01*
X114970000Y-127840000D02*
X116770000Y-127840000D01*
X114970000Y-127090000D02*
X114970000Y-127840000D01*
X108470000Y-127090000D02*
X106670000Y-127090000D01*
X108470000Y-127840000D02*
X108470000Y-127090000D01*
X106670000Y-127840000D02*
X108470000Y-127840000D01*
X106670000Y-127090000D02*
X106670000Y-127840000D01*
X113470000Y-127090000D02*
X109970000Y-127090000D01*
X113470000Y-127840000D02*
X113470000Y-127090000D01*
X109970000Y-127840000D02*
X113470000Y-127840000D01*
X109970000Y-127090000D02*
X109970000Y-127840000D01*
X116780000Y-127080000D02*
X106660000Y-127080000D01*
X116780000Y-133050000D02*
X116780000Y-127080000D01*
X106660000Y-133050000D02*
X116780000Y-133050000D01*
X106660000Y-127080000D02*
X106660000Y-133050000D01*
D15*
G36*
X131226114Y-139783961D02*
G01*
X131240481Y-139785862D01*
X131256017Y-139790103D01*
X131275053Y-139797563D01*
X131299921Y-139809119D01*
X131332952Y-139825649D01*
X131361927Y-139840521D01*
X131421615Y-139872027D01*
X131471360Y-139900201D01*
X131513903Y-139926970D01*
X131551984Y-139954263D01*
X131588344Y-139984006D01*
X131625722Y-140018127D01*
X131654895Y-140046577D01*
X131691491Y-140084572D01*
X131734390Y-140131765D01*
X131781956Y-140186155D01*
X131832555Y-140245736D01*
X131884552Y-140308507D01*
X131936313Y-140372461D01*
X131986201Y-140435597D01*
X132032584Y-140495911D01*
X132073825Y-140551398D01*
X132108290Y-140600056D01*
X132117068Y-140613027D01*
X132171930Y-140702598D01*
X132213995Y-140787788D01*
X132243258Y-140868531D01*
X132259717Y-140944762D01*
X132263369Y-141016416D01*
X132254209Y-141083428D01*
X132232234Y-141145733D01*
X132197442Y-141203265D01*
X132150805Y-141255047D01*
X132119811Y-141281446D01*
X132087351Y-141303150D01*
X132050750Y-141321378D01*
X132007334Y-141337348D01*
X131954429Y-141352280D01*
X131918675Y-141360869D01*
X131873566Y-141371385D01*
X131838633Y-141380244D01*
X131810627Y-141388683D01*
X131786304Y-141397939D01*
X131762416Y-141409248D01*
X131735717Y-141423847D01*
X131702960Y-141442972D01*
X131702706Y-141443122D01*
X131667350Y-141463353D01*
X131635571Y-141479666D01*
X131604042Y-141493358D01*
X131569440Y-141505721D01*
X131528437Y-141518051D01*
X131477709Y-141531643D01*
X131470661Y-141533458D01*
X131395583Y-141551091D01*
X131330775Y-141562461D01*
X131274289Y-141567572D01*
X131224180Y-141566426D01*
X131178500Y-141559027D01*
X131135301Y-141545378D01*
X131109375Y-141534002D01*
X131076899Y-141516632D01*
X131046064Y-141496179D01*
X131015339Y-141471185D01*
X130983197Y-141440192D01*
X130948107Y-141401740D01*
X130908540Y-141354373D01*
X130870030Y-141305732D01*
X130831969Y-141258467D01*
X130797956Y-141220565D01*
X130765091Y-141189544D01*
X130730477Y-141162925D01*
X130691214Y-141138226D01*
X130645243Y-141113397D01*
X130616200Y-141098736D01*
X130593696Y-141087797D01*
X130579363Y-141081339D01*
X130574832Y-141080117D01*
X130576469Y-141081508D01*
X130626733Y-141119254D01*
X130681998Y-141164495D01*
X130738603Y-141214079D01*
X130792885Y-141264849D01*
X130816864Y-141288538D01*
X130871566Y-141345388D01*
X130915530Y-141394916D01*
X130949237Y-141437715D01*
X130973166Y-141474378D01*
X130983073Y-141493772D01*
X130999583Y-141545889D01*
X131003804Y-141598948D01*
X130996111Y-141650646D01*
X130976882Y-141698679D01*
X130946491Y-141740744D01*
X130942035Y-141745358D01*
X130925133Y-141761100D01*
X130906959Y-141775012D01*
X130885464Y-141788135D01*
X130858601Y-141801512D01*
X130824321Y-141816184D01*
X130780577Y-141833192D01*
X130739431Y-141848437D01*
X130646687Y-141883047D01*
X130565370Y-141915017D01*
X130493636Y-141945235D01*
X130429642Y-141974589D01*
X130371544Y-142003965D01*
X130317501Y-142034250D01*
X130265669Y-142066333D01*
X130214205Y-142101101D01*
X130213224Y-142101790D01*
X130146807Y-142146006D01*
X130088094Y-142179969D01*
X130037391Y-142203514D01*
X129999946Y-142215419D01*
X129959664Y-142221049D01*
X129915533Y-142221452D01*
X129874122Y-142216773D01*
X129855160Y-142212174D01*
X129824262Y-142197607D01*
X129792146Y-142174106D01*
X129763115Y-142145306D01*
X129742960Y-142117470D01*
X129732585Y-142096216D01*
X129721196Y-142067800D01*
X129711246Y-142038344D01*
X129711179Y-142038122D01*
X129704401Y-142013691D01*
X129700297Y-141992353D01*
X129698511Y-141969830D01*
X129698658Y-141946018D01*
X129832969Y-141946018D01*
X129834804Y-141978606D01*
X129842493Y-142004931D01*
X129856238Y-142027135D01*
X129863248Y-142035101D01*
X129894766Y-142061753D01*
X129927279Y-142075542D01*
X129962495Y-142076733D01*
X130002125Y-142065592D01*
X130017108Y-142058947D01*
X130040167Y-142046514D01*
X130069838Y-142028545D01*
X130101759Y-142007758D01*
X130123513Y-141992694D01*
X130175667Y-141956335D01*
X130222126Y-141926087D01*
X130267596Y-141899098D01*
X130316782Y-141872517D01*
X130348547Y-141856324D01*
X130389546Y-141836823D01*
X130440527Y-141814247D01*
X130498437Y-141789840D01*
X130560224Y-141764844D01*
X130622836Y-141740503D01*
X130683221Y-141718060D01*
X130720012Y-141705015D01*
X130765921Y-141688299D01*
X130800301Y-141673682D01*
X130824991Y-141660120D01*
X130841826Y-141646567D01*
X130852643Y-141631980D01*
X130854373Y-141628582D01*
X130863289Y-141602654D01*
X130862860Y-141578307D01*
X130852883Y-141550209D01*
X130851266Y-141546808D01*
X130838043Y-141525336D01*
X130816367Y-141496875D01*
X130788112Y-141463483D01*
X130755154Y-141427218D01*
X130719369Y-141390135D01*
X130682630Y-141354293D01*
X130646814Y-141321749D01*
X130643568Y-141318939D01*
X130610462Y-141291236D01*
X130572501Y-141260825D01*
X130531966Y-141229404D01*
X130491137Y-141198671D01*
X130452296Y-141170324D01*
X130417724Y-141146060D01*
X130389701Y-141127577D01*
X130374182Y-141118438D01*
X130337232Y-141106006D01*
X130298685Y-141106977D01*
X130258888Y-141121161D01*
X130218183Y-141148368D01*
X130176916Y-141188411D01*
X130135431Y-141241098D01*
X130125957Y-141254892D01*
X130093155Y-141305509D01*
X130058075Y-141362604D01*
X130022789Y-141422588D01*
X129989366Y-141481874D01*
X129959878Y-141536872D01*
X129937825Y-141580973D01*
X129908167Y-141646852D01*
X129884880Y-141707537D01*
X129866034Y-141768768D01*
X129849693Y-141836284D01*
X129846049Y-141853487D01*
X129836785Y-141905026D01*
X129832969Y-141946018D01*
X129698658Y-141946018D01*
X129698684Y-141941843D01*
X129700259Y-141907690D01*
X129708872Y-141824905D01*
X129725963Y-141740716D01*
X129751958Y-141654055D01*
X129787286Y-141563856D01*
X129832375Y-141469052D01*
X129887653Y-141368575D01*
X129953546Y-141261358D01*
X129968875Y-141237730D01*
X130006277Y-141181860D01*
X130038775Y-141136393D01*
X130067844Y-141099577D01*
X130094956Y-141069656D01*
X130107718Y-141057779D01*
X130543376Y-141057779D01*
X130545047Y-141061615D01*
X130551959Y-141068985D01*
X130555933Y-141067473D01*
X130556000Y-141066514D01*
X130551124Y-141060707D01*
X130548074Y-141058588D01*
X130543376Y-141057779D01*
X130107718Y-141057779D01*
X130121585Y-141044874D01*
X130148157Y-141024223D01*
X130206067Y-140989557D01*
X130263559Y-140968324D01*
X130320229Y-140960547D01*
X130375674Y-140966244D01*
X130429491Y-140985436D01*
X130467495Y-141007965D01*
X130479718Y-141016325D01*
X130483965Y-141018197D01*
X130479844Y-141012465D01*
X130466959Y-140998007D01*
X130462095Y-140992649D01*
X130433167Y-140957163D01*
X130414593Y-140924445D01*
X130404705Y-140890635D01*
X130401977Y-140855163D01*
X130542270Y-140855163D01*
X130546028Y-140867255D01*
X130557898Y-140881901D01*
X130578777Y-140899803D01*
X130609560Y-140921668D01*
X130651142Y-140948199D01*
X130691357Y-140972412D01*
X130750087Y-141007759D01*
X130798696Y-141038722D01*
X130839322Y-141067092D01*
X130874107Y-141094664D01*
X130905190Y-141123230D01*
X130934710Y-141154582D01*
X130964807Y-141190515D01*
X130989720Y-141222431D01*
X131035135Y-141280307D01*
X131074703Y-141327143D01*
X131109425Y-141363805D01*
X131140298Y-141391155D01*
X131168322Y-141410056D01*
X131194495Y-141421373D01*
X131219815Y-141425968D01*
X131225324Y-141426163D01*
X131242484Y-141425270D01*
X131269649Y-141422623D01*
X131303266Y-141418618D01*
X131339777Y-141413646D01*
X131344531Y-141412953D01*
X131403558Y-141403693D01*
X131452184Y-141394386D01*
X131493699Y-141383906D01*
X131531389Y-141371127D01*
X131568542Y-141354923D01*
X131608446Y-141334170D01*
X131654388Y-141307742D01*
X131657810Y-141305713D01*
X131686445Y-141289267D01*
X131713078Y-141275498D01*
X131740449Y-141263341D01*
X131771301Y-141251730D01*
X131808373Y-141239599D01*
X131854406Y-141225883D01*
X131887131Y-141216545D01*
X131946397Y-141198401D01*
X131993749Y-141180338D01*
X132030939Y-141161137D01*
X132059721Y-141139581D01*
X132081848Y-141114452D01*
X132099074Y-141084535D01*
X132107997Y-141063221D01*
X132116161Y-141036956D01*
X132120018Y-141010491D01*
X132120351Y-140977785D01*
X132120065Y-140970000D01*
X132118054Y-140940758D01*
X132113896Y-140917000D01*
X132106142Y-140893325D01*
X132093345Y-140864334D01*
X132089664Y-140856611D01*
X132065548Y-140811287D01*
X132032221Y-140756550D01*
X131989631Y-140692328D01*
X131937727Y-140618550D01*
X131876457Y-140535143D01*
X131805772Y-140442035D01*
X131725620Y-140339154D01*
X131689755Y-140293811D01*
X131641155Y-140233460D01*
X131599205Y-140183316D01*
X131562823Y-140142237D01*
X131530932Y-140109081D01*
X131502451Y-140082709D01*
X131476300Y-140061978D01*
X131460027Y-140050980D01*
X131441785Y-140040350D01*
X131414118Y-140025310D01*
X131379969Y-140007410D01*
X131342283Y-139988202D01*
X131315986Y-139975109D01*
X131274556Y-139954815D01*
X131243174Y-139940359D01*
X131219538Y-139931579D01*
X131201348Y-139928315D01*
X131186301Y-139930403D01*
X131172096Y-139937683D01*
X131156432Y-139949993D01*
X131141836Y-139962880D01*
X131121374Y-139982698D01*
X131094261Y-140011295D01*
X131062258Y-140046598D01*
X131027126Y-140086537D01*
X130990627Y-140129040D01*
X130954523Y-140172036D01*
X130920576Y-140213454D01*
X130890546Y-140251221D01*
X130866196Y-140283266D01*
X130851080Y-140304763D01*
X130832843Y-140333852D01*
X130810488Y-140371713D01*
X130786014Y-140414832D01*
X130761422Y-140459692D01*
X130741706Y-140496980D01*
X130717443Y-140542433D01*
X130690353Y-140590918D01*
X130662795Y-140638356D01*
X130637129Y-140680664D01*
X130620274Y-140706978D01*
X130591186Y-140751718D01*
X130569642Y-140787027D01*
X130554860Y-140814388D01*
X130546058Y-140835287D01*
X130542454Y-140851210D01*
X130542270Y-140855163D01*
X130401977Y-140855163D01*
X130401833Y-140853298D01*
X130403596Y-140823027D01*
X130409736Y-140793867D01*
X130421308Y-140763326D01*
X130439362Y-140728913D01*
X130464952Y-140688136D01*
X130482576Y-140662156D01*
X130502131Y-140632578D01*
X130525561Y-140595152D01*
X130550267Y-140554134D01*
X130573650Y-140513783D01*
X130579604Y-140503190D01*
X130628819Y-140416145D01*
X130673852Y-140339399D01*
X130716201Y-140270747D01*
X130757360Y-140207988D01*
X130798827Y-140148919D01*
X130842097Y-140091335D01*
X130888666Y-140033035D01*
X130940032Y-139971816D01*
X130942282Y-139969187D01*
X130991785Y-139913621D01*
X131035863Y-139869186D01*
X131075768Y-139835017D01*
X131112752Y-139810247D01*
X131148064Y-139794010D01*
X131182958Y-139785441D01*
X131210584Y-139783523D01*
X131226114Y-139783961D01*
G37*
X131226114Y-139783961D02*
X131240481Y-139785862D01*
X131256017Y-139790103D01*
X131275053Y-139797563D01*
X131299921Y-139809119D01*
X131332952Y-139825649D01*
X131361927Y-139840521D01*
X131421615Y-139872027D01*
X131471360Y-139900201D01*
X131513903Y-139926970D01*
X131551984Y-139954263D01*
X131588344Y-139984006D01*
X131625722Y-140018127D01*
X131654895Y-140046577D01*
X131691491Y-140084572D01*
X131734390Y-140131765D01*
X131781956Y-140186155D01*
X131832555Y-140245736D01*
X131884552Y-140308507D01*
X131936313Y-140372461D01*
X131986201Y-140435597D01*
X132032584Y-140495911D01*
X132073825Y-140551398D01*
X132108290Y-140600056D01*
X132117068Y-140613027D01*
X132171930Y-140702598D01*
X132213995Y-140787788D01*
X132243258Y-140868531D01*
X132259717Y-140944762D01*
X132263369Y-141016416D01*
X132254209Y-141083428D01*
X132232234Y-141145733D01*
X132197442Y-141203265D01*
X132150805Y-141255047D01*
X132119811Y-141281446D01*
X132087351Y-141303150D01*
X132050750Y-141321378D01*
X132007334Y-141337348D01*
X131954429Y-141352280D01*
X131918675Y-141360869D01*
X131873566Y-141371385D01*
X131838633Y-141380244D01*
X131810627Y-141388683D01*
X131786304Y-141397939D01*
X131762416Y-141409248D01*
X131735717Y-141423847D01*
X131702960Y-141442972D01*
X131702706Y-141443122D01*
X131667350Y-141463353D01*
X131635571Y-141479666D01*
X131604042Y-141493358D01*
X131569440Y-141505721D01*
X131528437Y-141518051D01*
X131477709Y-141531643D01*
X131470661Y-141533458D01*
X131395583Y-141551091D01*
X131330775Y-141562461D01*
X131274289Y-141567572D01*
X131224180Y-141566426D01*
X131178500Y-141559027D01*
X131135301Y-141545378D01*
X131109375Y-141534002D01*
X131076899Y-141516632D01*
X131046064Y-141496179D01*
X131015339Y-141471185D01*
X130983197Y-141440192D01*
X130948107Y-141401740D01*
X130908540Y-141354373D01*
X130870030Y-141305732D01*
X130831969Y-141258467D01*
X130797956Y-141220565D01*
X130765091Y-141189544D01*
X130730477Y-141162925D01*
X130691214Y-141138226D01*
X130645243Y-141113397D01*
X130616200Y-141098736D01*
X130593696Y-141087797D01*
X130579363Y-141081339D01*
X130574832Y-141080117D01*
X130576469Y-141081508D01*
X130626733Y-141119254D01*
X130681998Y-141164495D01*
X130738603Y-141214079D01*
X130792885Y-141264849D01*
X130816864Y-141288538D01*
X130871566Y-141345388D01*
X130915530Y-141394916D01*
X130949237Y-141437715D01*
X130973166Y-141474378D01*
X130983073Y-141493772D01*
X130999583Y-141545889D01*
X131003804Y-141598948D01*
X130996111Y-141650646D01*
X130976882Y-141698679D01*
X130946491Y-141740744D01*
X130942035Y-141745358D01*
X130925133Y-141761100D01*
X130906959Y-141775012D01*
X130885464Y-141788135D01*
X130858601Y-141801512D01*
X130824321Y-141816184D01*
X130780577Y-141833192D01*
X130739431Y-141848437D01*
X130646687Y-141883047D01*
X130565370Y-141915017D01*
X130493636Y-141945235D01*
X130429642Y-141974589D01*
X130371544Y-142003965D01*
X130317501Y-142034250D01*
X130265669Y-142066333D01*
X130214205Y-142101101D01*
X130213224Y-142101790D01*
X130146807Y-142146006D01*
X130088094Y-142179969D01*
X130037391Y-142203514D01*
X129999946Y-142215419D01*
X129959664Y-142221049D01*
X129915533Y-142221452D01*
X129874122Y-142216773D01*
X129855160Y-142212174D01*
X129824262Y-142197607D01*
X129792146Y-142174106D01*
X129763115Y-142145306D01*
X129742960Y-142117470D01*
X129732585Y-142096216D01*
X129721196Y-142067800D01*
X129711246Y-142038344D01*
X129711179Y-142038122D01*
X129704401Y-142013691D01*
X129700297Y-141992353D01*
X129698511Y-141969830D01*
X129698658Y-141946018D01*
X129832969Y-141946018D01*
X129834804Y-141978606D01*
X129842493Y-142004931D01*
X129856238Y-142027135D01*
X129863248Y-142035101D01*
X129894766Y-142061753D01*
X129927279Y-142075542D01*
X129962495Y-142076733D01*
X130002125Y-142065592D01*
X130017108Y-142058947D01*
X130040167Y-142046514D01*
X130069838Y-142028545D01*
X130101759Y-142007758D01*
X130123513Y-141992694D01*
X130175667Y-141956335D01*
X130222126Y-141926087D01*
X130267596Y-141899098D01*
X130316782Y-141872517D01*
X130348547Y-141856324D01*
X130389546Y-141836823D01*
X130440527Y-141814247D01*
X130498437Y-141789840D01*
X130560224Y-141764844D01*
X130622836Y-141740503D01*
X130683221Y-141718060D01*
X130720012Y-141705015D01*
X130765921Y-141688299D01*
X130800301Y-141673682D01*
X130824991Y-141660120D01*
X130841826Y-141646567D01*
X130852643Y-141631980D01*
X130854373Y-141628582D01*
X130863289Y-141602654D01*
X130862860Y-141578307D01*
X130852883Y-141550209D01*
X130851266Y-141546808D01*
X130838043Y-141525336D01*
X130816367Y-141496875D01*
X130788112Y-141463483D01*
X130755154Y-141427218D01*
X130719369Y-141390135D01*
X130682630Y-141354293D01*
X130646814Y-141321749D01*
X130643568Y-141318939D01*
X130610462Y-141291236D01*
X130572501Y-141260825D01*
X130531966Y-141229404D01*
X130491137Y-141198671D01*
X130452296Y-141170324D01*
X130417724Y-141146060D01*
X130389701Y-141127577D01*
X130374182Y-141118438D01*
X130337232Y-141106006D01*
X130298685Y-141106977D01*
X130258888Y-141121161D01*
X130218183Y-141148368D01*
X130176916Y-141188411D01*
X130135431Y-141241098D01*
X130125957Y-141254892D01*
X130093155Y-141305509D01*
X130058075Y-141362604D01*
X130022789Y-141422588D01*
X129989366Y-141481874D01*
X129959878Y-141536872D01*
X129937825Y-141580973D01*
X129908167Y-141646852D01*
X129884880Y-141707537D01*
X129866034Y-141768768D01*
X129849693Y-141836284D01*
X129846049Y-141853487D01*
X129836785Y-141905026D01*
X129832969Y-141946018D01*
X129698658Y-141946018D01*
X129698684Y-141941843D01*
X129700259Y-141907690D01*
X129708872Y-141824905D01*
X129725963Y-141740716D01*
X129751958Y-141654055D01*
X129787286Y-141563856D01*
X129832375Y-141469052D01*
X129887653Y-141368575D01*
X129953546Y-141261358D01*
X129968875Y-141237730D01*
X130006277Y-141181860D01*
X130038775Y-141136393D01*
X130067844Y-141099577D01*
X130094956Y-141069656D01*
X130107718Y-141057779D01*
X130543376Y-141057779D01*
X130545047Y-141061615D01*
X130551959Y-141068985D01*
X130555933Y-141067473D01*
X130556000Y-141066514D01*
X130551124Y-141060707D01*
X130548074Y-141058588D01*
X130543376Y-141057779D01*
X130107718Y-141057779D01*
X130121585Y-141044874D01*
X130148157Y-141024223D01*
X130206067Y-140989557D01*
X130263559Y-140968324D01*
X130320229Y-140960547D01*
X130375674Y-140966244D01*
X130429491Y-140985436D01*
X130467495Y-141007965D01*
X130479718Y-141016325D01*
X130483965Y-141018197D01*
X130479844Y-141012465D01*
X130466959Y-140998007D01*
X130462095Y-140992649D01*
X130433167Y-140957163D01*
X130414593Y-140924445D01*
X130404705Y-140890635D01*
X130401977Y-140855163D01*
X130542270Y-140855163D01*
X130546028Y-140867255D01*
X130557898Y-140881901D01*
X130578777Y-140899803D01*
X130609560Y-140921668D01*
X130651142Y-140948199D01*
X130691357Y-140972412D01*
X130750087Y-141007759D01*
X130798696Y-141038722D01*
X130839322Y-141067092D01*
X130874107Y-141094664D01*
X130905190Y-141123230D01*
X130934710Y-141154582D01*
X130964807Y-141190515D01*
X130989720Y-141222431D01*
X131035135Y-141280307D01*
X131074703Y-141327143D01*
X131109425Y-141363805D01*
X131140298Y-141391155D01*
X131168322Y-141410056D01*
X131194495Y-141421373D01*
X131219815Y-141425968D01*
X131225324Y-141426163D01*
X131242484Y-141425270D01*
X131269649Y-141422623D01*
X131303266Y-141418618D01*
X131339777Y-141413646D01*
X131344531Y-141412953D01*
X131403558Y-141403693D01*
X131452184Y-141394386D01*
X131493699Y-141383906D01*
X131531389Y-141371127D01*
X131568542Y-141354923D01*
X131608446Y-141334170D01*
X131654388Y-141307742D01*
X131657810Y-141305713D01*
X131686445Y-141289267D01*
X131713078Y-141275498D01*
X131740449Y-141263341D01*
X131771301Y-141251730D01*
X131808373Y-141239599D01*
X131854406Y-141225883D01*
X131887131Y-141216545D01*
X131946397Y-141198401D01*
X131993749Y-141180338D01*
X132030939Y-141161137D01*
X132059721Y-141139581D01*
X132081848Y-141114452D01*
X132099074Y-141084535D01*
X132107997Y-141063221D01*
X132116161Y-141036956D01*
X132120018Y-141010491D01*
X132120351Y-140977785D01*
X132120065Y-140970000D01*
X132118054Y-140940758D01*
X132113896Y-140917000D01*
X132106142Y-140893325D01*
X132093345Y-140864334D01*
X132089664Y-140856611D01*
X132065548Y-140811287D01*
X132032221Y-140756550D01*
X131989631Y-140692328D01*
X131937727Y-140618550D01*
X131876457Y-140535143D01*
X131805772Y-140442035D01*
X131725620Y-140339154D01*
X131689755Y-140293811D01*
X131641155Y-140233460D01*
X131599205Y-140183316D01*
X131562823Y-140142237D01*
X131530932Y-140109081D01*
X131502451Y-140082709D01*
X131476300Y-140061978D01*
X131460027Y-140050980D01*
X131441785Y-140040350D01*
X131414118Y-140025310D01*
X131379969Y-140007410D01*
X131342283Y-139988202D01*
X131315986Y-139975109D01*
X131274556Y-139954815D01*
X131243174Y-139940359D01*
X131219538Y-139931579D01*
X131201348Y-139928315D01*
X131186301Y-139930403D01*
X131172096Y-139937683D01*
X131156432Y-139949993D01*
X131141836Y-139962880D01*
X131121374Y-139982698D01*
X131094261Y-140011295D01*
X131062258Y-140046598D01*
X131027126Y-140086537D01*
X130990627Y-140129040D01*
X130954523Y-140172036D01*
X130920576Y-140213454D01*
X130890546Y-140251221D01*
X130866196Y-140283266D01*
X130851080Y-140304763D01*
X130832843Y-140333852D01*
X130810488Y-140371713D01*
X130786014Y-140414832D01*
X130761422Y-140459692D01*
X130741706Y-140496980D01*
X130717443Y-140542433D01*
X130690353Y-140590918D01*
X130662795Y-140638356D01*
X130637129Y-140680664D01*
X130620274Y-140706978D01*
X130591186Y-140751718D01*
X130569642Y-140787027D01*
X130554860Y-140814388D01*
X130546058Y-140835287D01*
X130542454Y-140851210D01*
X130542270Y-140855163D01*
X130401977Y-140855163D01*
X130401833Y-140853298D01*
X130403596Y-140823027D01*
X130409736Y-140793867D01*
X130421308Y-140763326D01*
X130439362Y-140728913D01*
X130464952Y-140688136D01*
X130482576Y-140662156D01*
X130502131Y-140632578D01*
X130525561Y-140595152D01*
X130550267Y-140554134D01*
X130573650Y-140513783D01*
X130579604Y-140503190D01*
X130628819Y-140416145D01*
X130673852Y-140339399D01*
X130716201Y-140270747D01*
X130757360Y-140207988D01*
X130798827Y-140148919D01*
X130842097Y-140091335D01*
X130888666Y-140033035D01*
X130940032Y-139971816D01*
X130942282Y-139969187D01*
X130991785Y-139913621D01*
X131035863Y-139869186D01*
X131075768Y-139835017D01*
X131112752Y-139810247D01*
X131148064Y-139794010D01*
X131182958Y-139785441D01*
X131210584Y-139783523D01*
X131226114Y-139783961D01*
G36*
X132451108Y-138772285D02*
G01*
X132494427Y-138780318D01*
X132537868Y-138794822D01*
X132583628Y-138816712D01*
X132633903Y-138846901D01*
X132690890Y-138886305D01*
X132697837Y-138891370D01*
X132772906Y-138946549D01*
X132837999Y-138994991D01*
X132894390Y-139037831D01*
X132943352Y-139076202D01*
X132986158Y-139111240D01*
X133024083Y-139144079D01*
X133058398Y-139175854D01*
X133090378Y-139207699D01*
X133121296Y-139240749D01*
X133152425Y-139276140D01*
X133185038Y-139315005D01*
X133216255Y-139353325D01*
X133292812Y-139451869D01*
X133358259Y-139544347D01*
X133413129Y-139631971D01*
X133457954Y-139715950D01*
X133493267Y-139797495D01*
X133519601Y-139877816D01*
X133537489Y-139958125D01*
X133547463Y-140039632D01*
X133550119Y-140111892D01*
X133547153Y-140183326D01*
X133537587Y-140246999D01*
X133520470Y-140304506D01*
X133494857Y-140357440D01*
X133459797Y-140407393D01*
X133414344Y-140455961D01*
X133357550Y-140504735D01*
X133288466Y-140555310D01*
X133284783Y-140557838D01*
X133244535Y-140586140D01*
X133199451Y-140619034D01*
X133154828Y-140652591D01*
X133115960Y-140682886D01*
X133113162Y-140685128D01*
X133070630Y-140718894D01*
X133034124Y-140746705D01*
X133000612Y-140770520D01*
X132967065Y-140792298D01*
X132930454Y-140814001D01*
X132887749Y-140837589D01*
X132835920Y-140865021D01*
X132831702Y-140867224D01*
X132773467Y-140897532D01*
X132725806Y-140922069D01*
X132687191Y-140941554D01*
X132656095Y-140956700D01*
X132630990Y-140968226D01*
X132610350Y-140976845D01*
X132592646Y-140983276D01*
X132576351Y-140988233D01*
X132569847Y-140989973D01*
X132528448Y-140997796D01*
X132488262Y-141000204D01*
X132453433Y-140997155D01*
X132433540Y-140991358D01*
X132412059Y-140980568D01*
X132393074Y-140967375D01*
X132375823Y-140950426D01*
X132359544Y-140928364D01*
X132343472Y-140899835D01*
X132326845Y-140863485D01*
X132308900Y-140817958D01*
X132288874Y-140761899D01*
X132266005Y-140693954D01*
X132265909Y-140693663D01*
X132233736Y-140599396D01*
X132203101Y-140516911D01*
X132173060Y-140444486D01*
X132142672Y-140380397D01*
X132110992Y-140322923D01*
X132077080Y-140270342D01*
X132039992Y-140220931D01*
X131998786Y-140172968D01*
X131956963Y-140129176D01*
X131859667Y-140038668D01*
X131758601Y-139959350D01*
X131650378Y-139888686D01*
X131589162Y-139853986D01*
X131534381Y-139820708D01*
X131488287Y-139785155D01*
X131452211Y-139748603D01*
X131427479Y-139712328D01*
X131418218Y-139689845D01*
X131408997Y-139642408D01*
X131409317Y-139627266D01*
X131551410Y-139627266D01*
X131555706Y-139646651D01*
X131569254Y-139666617D01*
X131593033Y-139688055D01*
X131628021Y-139711859D01*
X131671936Y-139737150D01*
X131797232Y-139812768D01*
X131914030Y-139898390D01*
X132021654Y-139993327D01*
X132119427Y-140096890D01*
X132206673Y-140208388D01*
X132282715Y-140327135D01*
X132321128Y-140398476D01*
X132340630Y-140438797D01*
X132356903Y-140476486D01*
X132371101Y-140514892D01*
X132384378Y-140557361D01*
X132397887Y-140607241D01*
X132410072Y-140656544D01*
X132424389Y-140713634D01*
X132437279Y-140759171D01*
X132449430Y-140795171D01*
X132461528Y-140823648D01*
X132474262Y-140846616D01*
X132475672Y-140848803D01*
X132485637Y-140858323D01*
X132500183Y-140861590D01*
X132520889Y-140858285D01*
X132549335Y-140848089D01*
X132587098Y-140830684D01*
X132601729Y-140823377D01*
X132670528Y-140788536D01*
X132728497Y-140759085D01*
X132777043Y-140734191D01*
X132817570Y-140713018D01*
X132851487Y-140694731D01*
X132880199Y-140678495D01*
X132905112Y-140663473D01*
X132927634Y-140648832D01*
X132949170Y-140633736D01*
X132971127Y-140617350D01*
X132994911Y-140598838D01*
X133021928Y-140577365D01*
X133039208Y-140563566D01*
X133073337Y-140537115D01*
X133113865Y-140506933D01*
X133155678Y-140476768D01*
X133193069Y-140450771D01*
X133251157Y-140410027D01*
X133297998Y-140373367D01*
X133334687Y-140338863D01*
X133362319Y-140304583D01*
X133381989Y-140268598D01*
X133394792Y-140228978D01*
X133401823Y-140183794D01*
X133404177Y-140131115D01*
X133403359Y-140080181D01*
X133398314Y-140009466D01*
X133387656Y-139941888D01*
X133370704Y-139875956D01*
X133346777Y-139810177D01*
X133315195Y-139743059D01*
X133275277Y-139673111D01*
X133226343Y-139598840D01*
X133167712Y-139518754D01*
X133118827Y-139456298D01*
X133081109Y-139409698D01*
X133047058Y-139369051D01*
X133015047Y-139332855D01*
X132983447Y-139299604D01*
X132950629Y-139267796D01*
X132914964Y-139235926D01*
X132874825Y-139202491D01*
X132828582Y-139165986D01*
X132774607Y-139124909D01*
X132711271Y-139077754D01*
X132699262Y-139068883D01*
X132645329Y-139029365D01*
X132600689Y-138997431D01*
X132563840Y-138972182D01*
X132533281Y-138952718D01*
X132507511Y-138938139D01*
X132485027Y-138927546D01*
X132464328Y-138920039D01*
X132443913Y-138914717D01*
X132440904Y-138914077D01*
X132394480Y-138910535D01*
X132341498Y-138917256D01*
X132284022Y-138933813D01*
X132227594Y-138958038D01*
X132199518Y-138972765D01*
X132172602Y-138988789D01*
X132145000Y-139007504D01*
X132114866Y-139030303D01*
X132080354Y-139058579D01*
X132039618Y-139093727D01*
X131993417Y-139134800D01*
X131957143Y-139166923D01*
X131914904Y-139203656D01*
X131871392Y-139240954D01*
X131831301Y-139274771D01*
X131822567Y-139282038D01*
X131765675Y-139330368D01*
X131718546Y-139373093D01*
X131679371Y-139411996D01*
X131646341Y-139448862D01*
X131621448Y-139480325D01*
X131596680Y-139516812D01*
X131575962Y-139553672D01*
X131560744Y-139587858D01*
X131552481Y-139616322D01*
X131551410Y-139627266D01*
X131409317Y-139627266D01*
X131410006Y-139594795D01*
X131421653Y-139545606D01*
X131444347Y-139493442D01*
X131478497Y-139436903D01*
X131501533Y-139404480D01*
X131525756Y-139373227D01*
X131551924Y-139342427D01*
X131581537Y-139310582D01*
X131616098Y-139276194D01*
X131657110Y-139237763D01*
X131706074Y-139193791D01*
X131759649Y-139146972D01*
X131799572Y-139112387D01*
X131840876Y-139076568D01*
X131880807Y-139041905D01*
X131916612Y-139010791D01*
X131945537Y-138985615D01*
X131951865Y-138980097D01*
X132033213Y-138914098D01*
X132111460Y-138860937D01*
X132187346Y-138820271D01*
X132261610Y-138791758D01*
X132334993Y-138775055D01*
X132405715Y-138769811D01*
X132451108Y-138772285D01*
G37*
X132451108Y-138772285D02*
X132494427Y-138780318D01*
X132537868Y-138794822D01*
X132583628Y-138816712D01*
X132633903Y-138846901D01*
X132690890Y-138886305D01*
X132697837Y-138891370D01*
X132772906Y-138946549D01*
X132837999Y-138994991D01*
X132894390Y-139037831D01*
X132943352Y-139076202D01*
X132986158Y-139111240D01*
X133024083Y-139144079D01*
X133058398Y-139175854D01*
X133090378Y-139207699D01*
X133121296Y-139240749D01*
X133152425Y-139276140D01*
X133185038Y-139315005D01*
X133216255Y-139353325D01*
X133292812Y-139451869D01*
X133358259Y-139544347D01*
X133413129Y-139631971D01*
X133457954Y-139715950D01*
X133493267Y-139797495D01*
X133519601Y-139877816D01*
X133537489Y-139958125D01*
X133547463Y-140039632D01*
X133550119Y-140111892D01*
X133547153Y-140183326D01*
X133537587Y-140246999D01*
X133520470Y-140304506D01*
X133494857Y-140357440D01*
X133459797Y-140407393D01*
X133414344Y-140455961D01*
X133357550Y-140504735D01*
X133288466Y-140555310D01*
X133284783Y-140557838D01*
X133244535Y-140586140D01*
X133199451Y-140619034D01*
X133154828Y-140652591D01*
X133115960Y-140682886D01*
X133113162Y-140685128D01*
X133070630Y-140718894D01*
X133034124Y-140746705D01*
X133000612Y-140770520D01*
X132967065Y-140792298D01*
X132930454Y-140814001D01*
X132887749Y-140837589D01*
X132835920Y-140865021D01*
X132831702Y-140867224D01*
X132773467Y-140897532D01*
X132725806Y-140922069D01*
X132687191Y-140941554D01*
X132656095Y-140956700D01*
X132630990Y-140968226D01*
X132610350Y-140976845D01*
X132592646Y-140983276D01*
X132576351Y-140988233D01*
X132569847Y-140989973D01*
X132528448Y-140997796D01*
X132488262Y-141000204D01*
X132453433Y-140997155D01*
X132433540Y-140991358D01*
X132412059Y-140980568D01*
X132393074Y-140967375D01*
X132375823Y-140950426D01*
X132359544Y-140928364D01*
X132343472Y-140899835D01*
X132326845Y-140863485D01*
X132308900Y-140817958D01*
X132288874Y-140761899D01*
X132266005Y-140693954D01*
X132265909Y-140693663D01*
X132233736Y-140599396D01*
X132203101Y-140516911D01*
X132173060Y-140444486D01*
X132142672Y-140380397D01*
X132110992Y-140322923D01*
X132077080Y-140270342D01*
X132039992Y-140220931D01*
X131998786Y-140172968D01*
X131956963Y-140129176D01*
X131859667Y-140038668D01*
X131758601Y-139959350D01*
X131650378Y-139888686D01*
X131589162Y-139853986D01*
X131534381Y-139820708D01*
X131488287Y-139785155D01*
X131452211Y-139748603D01*
X131427479Y-139712328D01*
X131418218Y-139689845D01*
X131408997Y-139642408D01*
X131409317Y-139627266D01*
X131551410Y-139627266D01*
X131555706Y-139646651D01*
X131569254Y-139666617D01*
X131593033Y-139688055D01*
X131628021Y-139711859D01*
X131671936Y-139737150D01*
X131797232Y-139812768D01*
X131914030Y-139898390D01*
X132021654Y-139993327D01*
X132119427Y-140096890D01*
X132206673Y-140208388D01*
X132282715Y-140327135D01*
X132321128Y-140398476D01*
X132340630Y-140438797D01*
X132356903Y-140476486D01*
X132371101Y-140514892D01*
X132384378Y-140557361D01*
X132397887Y-140607241D01*
X132410072Y-140656544D01*
X132424389Y-140713634D01*
X132437279Y-140759171D01*
X132449430Y-140795171D01*
X132461528Y-140823648D01*
X132474262Y-140846616D01*
X132475672Y-140848803D01*
X132485637Y-140858323D01*
X132500183Y-140861590D01*
X132520889Y-140858285D01*
X132549335Y-140848089D01*
X132587098Y-140830684D01*
X132601729Y-140823377D01*
X132670528Y-140788536D01*
X132728497Y-140759085D01*
X132777043Y-140734191D01*
X132817570Y-140713018D01*
X132851487Y-140694731D01*
X132880199Y-140678495D01*
X132905112Y-140663473D01*
X132927634Y-140648832D01*
X132949170Y-140633736D01*
X132971127Y-140617350D01*
X132994911Y-140598838D01*
X133021928Y-140577365D01*
X133039208Y-140563566D01*
X133073337Y-140537115D01*
X133113865Y-140506933D01*
X133155678Y-140476768D01*
X133193069Y-140450771D01*
X133251157Y-140410027D01*
X133297998Y-140373367D01*
X133334687Y-140338863D01*
X133362319Y-140304583D01*
X133381989Y-140268598D01*
X133394792Y-140228978D01*
X133401823Y-140183794D01*
X133404177Y-140131115D01*
X133403359Y-140080181D01*
X133398314Y-140009466D01*
X133387656Y-139941888D01*
X133370704Y-139875956D01*
X133346777Y-139810177D01*
X133315195Y-139743059D01*
X133275277Y-139673111D01*
X133226343Y-139598840D01*
X133167712Y-139518754D01*
X133118827Y-139456298D01*
X133081109Y-139409698D01*
X133047058Y-139369051D01*
X133015047Y-139332855D01*
X132983447Y-139299604D01*
X132950629Y-139267796D01*
X132914964Y-139235926D01*
X132874825Y-139202491D01*
X132828582Y-139165986D01*
X132774607Y-139124909D01*
X132711271Y-139077754D01*
X132699262Y-139068883D01*
X132645329Y-139029365D01*
X132600689Y-138997431D01*
X132563840Y-138972182D01*
X132533281Y-138952718D01*
X132507511Y-138938139D01*
X132485027Y-138927546D01*
X132464328Y-138920039D01*
X132443913Y-138914717D01*
X132440904Y-138914077D01*
X132394480Y-138910535D01*
X132341498Y-138917256D01*
X132284022Y-138933813D01*
X132227594Y-138958038D01*
X132199518Y-138972765D01*
X132172602Y-138988789D01*
X132145000Y-139007504D01*
X132114866Y-139030303D01*
X132080354Y-139058579D01*
X132039618Y-139093727D01*
X131993417Y-139134800D01*
X131957143Y-139166923D01*
X131914904Y-139203656D01*
X131871392Y-139240954D01*
X131831301Y-139274771D01*
X131822567Y-139282038D01*
X131765675Y-139330368D01*
X131718546Y-139373093D01*
X131679371Y-139411996D01*
X131646341Y-139448862D01*
X131621448Y-139480325D01*
X131596680Y-139516812D01*
X131575962Y-139553672D01*
X131560744Y-139587858D01*
X131552481Y-139616322D01*
X131551410Y-139627266D01*
X131409317Y-139627266D01*
X131410006Y-139594795D01*
X131421653Y-139545606D01*
X131444347Y-139493442D01*
X131478497Y-139436903D01*
X131501533Y-139404480D01*
X131525756Y-139373227D01*
X131551924Y-139342427D01*
X131581537Y-139310582D01*
X131616098Y-139276194D01*
X131657110Y-139237763D01*
X131706074Y-139193791D01*
X131759649Y-139146972D01*
X131799572Y-139112387D01*
X131840876Y-139076568D01*
X131880807Y-139041905D01*
X131916612Y-139010791D01*
X131945537Y-138985615D01*
X131951865Y-138980097D01*
X132033213Y-138914098D01*
X132111460Y-138860937D01*
X132187346Y-138820271D01*
X132261610Y-138791758D01*
X132334993Y-138775055D01*
X132405715Y-138769811D01*
X132451108Y-138772285D01*
G36*
X135793036Y-138876939D02*
G01*
X135870311Y-138883926D01*
X135910594Y-138889960D01*
X135944026Y-138896502D01*
X135987256Y-138905934D01*
X136038348Y-138917755D01*
X136095371Y-138931465D01*
X136156389Y-138946562D01*
X136219469Y-138962547D01*
X136282678Y-138978917D01*
X136344080Y-138995174D01*
X136401744Y-139010815D01*
X136453733Y-139025340D01*
X136498116Y-139038248D01*
X136532958Y-139049039D01*
X136556008Y-139057087D01*
X136644809Y-139097912D01*
X136724080Y-139147363D01*
X136795686Y-139206532D01*
X136858776Y-139272205D01*
X136910887Y-139339828D01*
X136951648Y-139408496D01*
X136980686Y-139477308D01*
X136997628Y-139545357D01*
X137002103Y-139611742D01*
X136993738Y-139675559D01*
X136991911Y-139682786D01*
X136968243Y-139746478D01*
X136932419Y-139808492D01*
X136886002Y-139867667D01*
X136830558Y-139922840D01*
X136767650Y-139972851D01*
X136698842Y-140016536D01*
X136625698Y-140052735D01*
X136549782Y-140080286D01*
X136472659Y-140098026D01*
X136425459Y-140103551D01*
X136398484Y-140104861D01*
X136374020Y-140104992D01*
X136360243Y-140104190D01*
X136300136Y-140095121D01*
X136235034Y-140082122D01*
X136163622Y-140064837D01*
X136084585Y-140042908D01*
X135996612Y-140015981D01*
X135898386Y-139983697D01*
X135831648Y-139960796D01*
X135731437Y-139926058D01*
X135642942Y-139895734D01*
X135564977Y-139869542D01*
X135496358Y-139847202D01*
X135435899Y-139828430D01*
X135382415Y-139812945D01*
X135334720Y-139800465D01*
X135291629Y-139790708D01*
X135251957Y-139783392D01*
X135214518Y-139778236D01*
X135178127Y-139774956D01*
X135141598Y-139773272D01*
X135103747Y-139772901D01*
X135063388Y-139773562D01*
X135046474Y-139774045D01*
X134982939Y-139776806D01*
X134927101Y-139781228D01*
X134874619Y-139787955D01*
X134821149Y-139797630D01*
X134762349Y-139810894D01*
X134712675Y-139823445D01*
X134646178Y-139841751D01*
X134585575Y-139860736D01*
X134526346Y-139882015D01*
X134463965Y-139907204D01*
X134400324Y-139935032D01*
X134329972Y-139965619D01*
X134268971Y-139989638D01*
X134214948Y-140007665D01*
X134165526Y-140020275D01*
X134118333Y-140028044D01*
X134070993Y-140031547D01*
X134021133Y-140031360D01*
X134005594Y-140030684D01*
X133921246Y-140021439D01*
X133846956Y-140002849D01*
X133782724Y-139974917D01*
X133728550Y-139937641D01*
X133684437Y-139891022D01*
X133652008Y-139838406D01*
X133629055Y-139784537D01*
X133616469Y-139736151D01*
X133614652Y-139706169D01*
X133756400Y-139706169D01*
X133756413Y-139706326D01*
X133765879Y-139749537D01*
X133785572Y-139790127D01*
X133813143Y-139823641D01*
X133822498Y-139831573D01*
X133866220Y-139857561D01*
X133919328Y-139876452D01*
X133979274Y-139887938D01*
X134043510Y-139891709D01*
X134109487Y-139887457D01*
X134174658Y-139874871D01*
X134176174Y-139874468D01*
X134192023Y-139869065D01*
X134217516Y-139859025D01*
X134249853Y-139845509D01*
X134286234Y-139829678D01*
X134311081Y-139818534D01*
X134444801Y-139762606D01*
X134578307Y-139716146D01*
X134710265Y-139679437D01*
X134839344Y-139652758D01*
X134964210Y-139636392D01*
X135083532Y-139630619D01*
X135182907Y-139634526D01*
X135252467Y-139642020D01*
X135321627Y-139652903D01*
X135392619Y-139667727D01*
X135467676Y-139687047D01*
X135549030Y-139711416D01*
X135638913Y-139741389D01*
X135697783Y-139762263D01*
X135808580Y-139801935D01*
X135907645Y-139836592D01*
X135995943Y-139866452D01*
X136074434Y-139891734D01*
X136144081Y-139912657D01*
X136205847Y-139929439D01*
X136260693Y-139942299D01*
X136309583Y-139951455D01*
X136353477Y-139957126D01*
X136393340Y-139959532D01*
X136430132Y-139958889D01*
X136464816Y-139955418D01*
X136498354Y-139949337D01*
X136509620Y-139946725D01*
X136570960Y-139926001D01*
X136632531Y-139894632D01*
X136691688Y-139854702D01*
X136745783Y-139808295D01*
X136792171Y-139757497D01*
X136828206Y-139704390D01*
X136835927Y-139689703D01*
X136852510Y-139641497D01*
X136858085Y-139589438D01*
X136852486Y-139537855D01*
X136842932Y-139507021D01*
X136810226Y-139442447D01*
X136765798Y-139379719D01*
X136711656Y-139320910D01*
X136649806Y-139268088D01*
X136582254Y-139223324D01*
X136552459Y-139207321D01*
X136523320Y-139193291D01*
X136493914Y-139180425D01*
X136462828Y-139168325D01*
X136428649Y-139156591D01*
X136389964Y-139144824D01*
X136345359Y-139132625D01*
X136293422Y-139119596D01*
X136232739Y-139105336D01*
X136161897Y-139089447D01*
X136079484Y-139071530D01*
X136047145Y-139064599D01*
X135973202Y-139049038D01*
X135910500Y-139036520D01*
X135856941Y-139026841D01*
X135810424Y-139019796D01*
X135768851Y-139015183D01*
X135730122Y-139012796D01*
X135692139Y-139012433D01*
X135652802Y-139013887D01*
X135610013Y-139016957D01*
X135582456Y-139019428D01*
X135533506Y-139023888D01*
X135476220Y-139028864D01*
X135415959Y-139033906D01*
X135358084Y-139038562D01*
X135323648Y-139041215D01*
X135203397Y-139051922D01*
X135090230Y-139065671D01*
X134982185Y-139083019D01*
X134877303Y-139104519D01*
X134773622Y-139130726D01*
X134669181Y-139162196D01*
X134562019Y-139199483D01*
X134450175Y-139243142D01*
X134331689Y-139293728D01*
X134204598Y-139351795D01*
X134172648Y-139366883D01*
X134082649Y-139410711D01*
X134005107Y-139450946D01*
X133939382Y-139488111D01*
X133884835Y-139522728D01*
X133840824Y-139555319D01*
X133806709Y-139586406D01*
X133781850Y-139616513D01*
X133765606Y-139646161D01*
X133757336Y-139675872D01*
X133756400Y-139706169D01*
X133614652Y-139706169D01*
X133613696Y-139690410D01*
X133617117Y-139659459D01*
X133631496Y-139606744D01*
X133656028Y-139556341D01*
X133691274Y-139507700D01*
X133737796Y-139460273D01*
X133796154Y-139413507D01*
X133866910Y-139366852D01*
X133950623Y-139319760D01*
X133977442Y-139305923D01*
X134165547Y-139214864D01*
X134347598Y-139135402D01*
X134523391Y-139067616D01*
X134692724Y-139011585D01*
X134837086Y-138971853D01*
X134913066Y-138954075D01*
X134985507Y-138939465D01*
X135058099Y-138927458D01*
X135134532Y-138917488D01*
X135218496Y-138908990D01*
X135281506Y-138903785D01*
X135333979Y-138899627D01*
X135391432Y-138894848D01*
X135448847Y-138889878D01*
X135501206Y-138885149D01*
X135533027Y-138882131D01*
X135620670Y-138875964D01*
X135708581Y-138874260D01*
X135793036Y-138876939D01*
G37*
X135793036Y-138876939D02*
X135870311Y-138883926D01*
X135910594Y-138889960D01*
X135944026Y-138896502D01*
X135987256Y-138905934D01*
X136038348Y-138917755D01*
X136095371Y-138931465D01*
X136156389Y-138946562D01*
X136219469Y-138962547D01*
X136282678Y-138978917D01*
X136344080Y-138995174D01*
X136401744Y-139010815D01*
X136453733Y-139025340D01*
X136498116Y-139038248D01*
X136532958Y-139049039D01*
X136556008Y-139057087D01*
X136644809Y-139097912D01*
X136724080Y-139147363D01*
X136795686Y-139206532D01*
X136858776Y-139272205D01*
X136910887Y-139339828D01*
X136951648Y-139408496D01*
X136980686Y-139477308D01*
X136997628Y-139545357D01*
X137002103Y-139611742D01*
X136993738Y-139675559D01*
X136991911Y-139682786D01*
X136968243Y-139746478D01*
X136932419Y-139808492D01*
X136886002Y-139867667D01*
X136830558Y-139922840D01*
X136767650Y-139972851D01*
X136698842Y-140016536D01*
X136625698Y-140052735D01*
X136549782Y-140080286D01*
X136472659Y-140098026D01*
X136425459Y-140103551D01*
X136398484Y-140104861D01*
X136374020Y-140104992D01*
X136360243Y-140104190D01*
X136300136Y-140095121D01*
X136235034Y-140082122D01*
X136163622Y-140064837D01*
X136084585Y-140042908D01*
X135996612Y-140015981D01*
X135898386Y-139983697D01*
X135831648Y-139960796D01*
X135731437Y-139926058D01*
X135642942Y-139895734D01*
X135564977Y-139869542D01*
X135496358Y-139847202D01*
X135435899Y-139828430D01*
X135382415Y-139812945D01*
X135334720Y-139800465D01*
X135291629Y-139790708D01*
X135251957Y-139783392D01*
X135214518Y-139778236D01*
X135178127Y-139774956D01*
X135141598Y-139773272D01*
X135103747Y-139772901D01*
X135063388Y-139773562D01*
X135046474Y-139774045D01*
X134982939Y-139776806D01*
X134927101Y-139781228D01*
X134874619Y-139787955D01*
X134821149Y-139797630D01*
X134762349Y-139810894D01*
X134712675Y-139823445D01*
X134646178Y-139841751D01*
X134585575Y-139860736D01*
X134526346Y-139882015D01*
X134463965Y-139907204D01*
X134400324Y-139935032D01*
X134329972Y-139965619D01*
X134268971Y-139989638D01*
X134214948Y-140007665D01*
X134165526Y-140020275D01*
X134118333Y-140028044D01*
X134070993Y-140031547D01*
X134021133Y-140031360D01*
X134005594Y-140030684D01*
X133921246Y-140021439D01*
X133846956Y-140002849D01*
X133782724Y-139974917D01*
X133728550Y-139937641D01*
X133684437Y-139891022D01*
X133652008Y-139838406D01*
X133629055Y-139784537D01*
X133616469Y-139736151D01*
X133614652Y-139706169D01*
X133756400Y-139706169D01*
X133756413Y-139706326D01*
X133765879Y-139749537D01*
X133785572Y-139790127D01*
X133813143Y-139823641D01*
X133822498Y-139831573D01*
X133866220Y-139857561D01*
X133919328Y-139876452D01*
X133979274Y-139887938D01*
X134043510Y-139891709D01*
X134109487Y-139887457D01*
X134174658Y-139874871D01*
X134176174Y-139874468D01*
X134192023Y-139869065D01*
X134217516Y-139859025D01*
X134249853Y-139845509D01*
X134286234Y-139829678D01*
X134311081Y-139818534D01*
X134444801Y-139762606D01*
X134578307Y-139716146D01*
X134710265Y-139679437D01*
X134839344Y-139652758D01*
X134964210Y-139636392D01*
X135083532Y-139630619D01*
X135182907Y-139634526D01*
X135252467Y-139642020D01*
X135321627Y-139652903D01*
X135392619Y-139667727D01*
X135467676Y-139687047D01*
X135549030Y-139711416D01*
X135638913Y-139741389D01*
X135697783Y-139762263D01*
X135808580Y-139801935D01*
X135907645Y-139836592D01*
X135995943Y-139866452D01*
X136074434Y-139891734D01*
X136144081Y-139912657D01*
X136205847Y-139929439D01*
X136260693Y-139942299D01*
X136309583Y-139951455D01*
X136353477Y-139957126D01*
X136393340Y-139959532D01*
X136430132Y-139958889D01*
X136464816Y-139955418D01*
X136498354Y-139949337D01*
X136509620Y-139946725D01*
X136570960Y-139926001D01*
X136632531Y-139894632D01*
X136691688Y-139854702D01*
X136745783Y-139808295D01*
X136792171Y-139757497D01*
X136828206Y-139704390D01*
X136835927Y-139689703D01*
X136852510Y-139641497D01*
X136858085Y-139589438D01*
X136852486Y-139537855D01*
X136842932Y-139507021D01*
X136810226Y-139442447D01*
X136765798Y-139379719D01*
X136711656Y-139320910D01*
X136649806Y-139268088D01*
X136582254Y-139223324D01*
X136552459Y-139207321D01*
X136523320Y-139193291D01*
X136493914Y-139180425D01*
X136462828Y-139168325D01*
X136428649Y-139156591D01*
X136389964Y-139144824D01*
X136345359Y-139132625D01*
X136293422Y-139119596D01*
X136232739Y-139105336D01*
X136161897Y-139089447D01*
X136079484Y-139071530D01*
X136047145Y-139064599D01*
X135973202Y-139049038D01*
X135910500Y-139036520D01*
X135856941Y-139026841D01*
X135810424Y-139019796D01*
X135768851Y-139015183D01*
X135730122Y-139012796D01*
X135692139Y-139012433D01*
X135652802Y-139013887D01*
X135610013Y-139016957D01*
X135582456Y-139019428D01*
X135533506Y-139023888D01*
X135476220Y-139028864D01*
X135415959Y-139033906D01*
X135358084Y-139038562D01*
X135323648Y-139041215D01*
X135203397Y-139051922D01*
X135090230Y-139065671D01*
X134982185Y-139083019D01*
X134877303Y-139104519D01*
X134773622Y-139130726D01*
X134669181Y-139162196D01*
X134562019Y-139199483D01*
X134450175Y-139243142D01*
X134331689Y-139293728D01*
X134204598Y-139351795D01*
X134172648Y-139366883D01*
X134082649Y-139410711D01*
X134005107Y-139450946D01*
X133939382Y-139488111D01*
X133884835Y-139522728D01*
X133840824Y-139555319D01*
X133806709Y-139586406D01*
X133781850Y-139616513D01*
X133765606Y-139646161D01*
X133757336Y-139675872D01*
X133756400Y-139706169D01*
X133614652Y-139706169D01*
X133613696Y-139690410D01*
X133617117Y-139659459D01*
X133631496Y-139606744D01*
X133656028Y-139556341D01*
X133691274Y-139507700D01*
X133737796Y-139460273D01*
X133796154Y-139413507D01*
X133866910Y-139366852D01*
X133950623Y-139319760D01*
X133977442Y-139305923D01*
X134165547Y-139214864D01*
X134347598Y-139135402D01*
X134523391Y-139067616D01*
X134692724Y-139011585D01*
X134837086Y-138971853D01*
X134913066Y-138954075D01*
X134985507Y-138939465D01*
X135058099Y-138927458D01*
X135134532Y-138917488D01*
X135218496Y-138908990D01*
X135281506Y-138903785D01*
X135333979Y-138899627D01*
X135391432Y-138894848D01*
X135448847Y-138889878D01*
X135501206Y-138885149D01*
X135533027Y-138882131D01*
X135620670Y-138875964D01*
X135708581Y-138874260D01*
X135793036Y-138876939D01*
G36*
X135083816Y-136589357D02*
G01*
X135144472Y-136597493D01*
X135205542Y-136611817D01*
X135268825Y-136632954D01*
X135336118Y-136661530D01*
X135409220Y-136698169D01*
X135489930Y-136743498D01*
X135514639Y-136758132D01*
X135582155Y-136801380D01*
X135637957Y-136843797D01*
X135683817Y-136887132D01*
X135721505Y-136933135D01*
X135752792Y-136983556D01*
X135762979Y-137003432D01*
X135791756Y-137077428D01*
X135809499Y-137157170D01*
X135816152Y-137240155D01*
X135811655Y-137323880D01*
X135795952Y-137405843D01*
X135773818Y-137472088D01*
X135740379Y-137544395D01*
X135696931Y-137622864D01*
X135644737Y-137705818D01*
X135585057Y-137791579D01*
X135519153Y-137878467D01*
X135448286Y-137964804D01*
X135373719Y-138048912D01*
X135296713Y-138129113D01*
X135235941Y-138187714D01*
X135190964Y-138229205D01*
X135147714Y-138268341D01*
X135104978Y-138306106D01*
X135061543Y-138343482D01*
X135016193Y-138381455D01*
X134967715Y-138421006D01*
X134914894Y-138463120D01*
X134856518Y-138508780D01*
X134791371Y-138558969D01*
X134718239Y-138614672D01*
X134635910Y-138676872D01*
X134583213Y-138716501D01*
X134506225Y-138774366D01*
X134438986Y-138825053D01*
X134380240Y-138869588D01*
X134328727Y-138908999D01*
X134283189Y-138944312D01*
X134242369Y-138976556D01*
X134205007Y-139006755D01*
X134169847Y-139035939D01*
X134135629Y-139065133D01*
X134101095Y-139095365D01*
X134064988Y-139127661D01*
X134026049Y-139163049D01*
X133983020Y-139202556D01*
X133946780Y-139235994D01*
X133898846Y-139279661D01*
X133858494Y-139314890D01*
X133823794Y-139343143D01*
X133792816Y-139365882D01*
X133763630Y-139384571D01*
X133734307Y-139400673D01*
X133720702Y-139407393D01*
X133696077Y-139418724D01*
X133676104Y-139426051D01*
X133656229Y-139430348D01*
X133631896Y-139432585D01*
X133598551Y-139433737D01*
X133597135Y-139433770D01*
X133554262Y-139433727D01*
X133520377Y-139431031D01*
X133490917Y-139425249D01*
X133482276Y-139422852D01*
X133414008Y-139397575D01*
X133350933Y-139364078D01*
X133295024Y-139323837D01*
X133248255Y-139278327D01*
X133212601Y-139229023D01*
X133205528Y-139216027D01*
X133191964Y-139176885D01*
X133186036Y-139130516D01*
X133187098Y-139102757D01*
X133327240Y-139102757D01*
X133328673Y-139137636D01*
X133343455Y-139171555D01*
X133371216Y-139204040D01*
X133411585Y-139234619D01*
X133446108Y-139254113D01*
X133502124Y-139279095D01*
X133551411Y-139293461D01*
X133595716Y-139297398D01*
X133636783Y-139291094D01*
X133669836Y-139278130D01*
X133686522Y-139269217D01*
X133703796Y-139258609D01*
X133722829Y-139245342D01*
X133744793Y-139228448D01*
X133770859Y-139206963D01*
X133802198Y-139179919D01*
X133839982Y-139146352D01*
X133885382Y-139105296D01*
X133939569Y-139055783D01*
X133940378Y-139055041D01*
X133979991Y-139018866D01*
X134016296Y-138986098D01*
X134050553Y-138955723D01*
X134084022Y-138926724D01*
X134117962Y-138898083D01*
X134153633Y-138868784D01*
X134192295Y-138837812D01*
X134235208Y-138804149D01*
X134283631Y-138766778D01*
X134338824Y-138724684D01*
X134402047Y-138676849D01*
X134474559Y-138622258D01*
X134505385Y-138599099D01*
X134598058Y-138529317D01*
X134680652Y-138466676D01*
X134754231Y-138410295D01*
X134819861Y-138359294D01*
X134878605Y-138312794D01*
X134931529Y-138269916D01*
X134979698Y-138229780D01*
X135024176Y-138191506D01*
X135066028Y-138154214D01*
X135106319Y-138117025D01*
X135146114Y-138079060D01*
X135186477Y-138039438D01*
X135203820Y-138022127D01*
X135298533Y-137923316D01*
X135382140Y-137827573D01*
X135456252Y-137732783D01*
X135522480Y-137636834D01*
X135582433Y-137537612D01*
X135606933Y-137492946D01*
X135636923Y-137430855D01*
X135657548Y-137373582D01*
X135670012Y-137317178D01*
X135674926Y-137269838D01*
X135673398Y-137193533D01*
X135659524Y-137123226D01*
X135633336Y-137058982D01*
X135594865Y-137000864D01*
X135544141Y-136948936D01*
X135504402Y-136918386D01*
X135457169Y-136887815D01*
X135403090Y-136856137D01*
X135345718Y-136825189D01*
X135288604Y-136796810D01*
X135235301Y-136772837D01*
X135189360Y-136755108D01*
X135187826Y-136754588D01*
X135152259Y-136743024D01*
X135124535Y-136735462D01*
X135099661Y-136731036D01*
X135072644Y-136728877D01*
X135038491Y-136728118D01*
X135035324Y-136728092D01*
X134985338Y-136729280D01*
X134947065Y-136734062D01*
X134918835Y-136742968D01*
X134898978Y-136756526D01*
X134885824Y-136775267D01*
X134885687Y-136775553D01*
X134879610Y-136792252D01*
X134872221Y-136818426D01*
X134864596Y-136850029D01*
X134859682Y-136873277D01*
X134851869Y-136908334D01*
X134841942Y-136944268D01*
X134829305Y-136982515D01*
X134813363Y-137024508D01*
X134793519Y-137071681D01*
X134769177Y-137125468D01*
X134739741Y-137187303D01*
X134704614Y-137258621D01*
X134674835Y-137317892D01*
X134632680Y-137400644D01*
X134595130Y-137472893D01*
X134561069Y-137536613D01*
X134529378Y-137593781D01*
X134498939Y-137646374D01*
X134468635Y-137696366D01*
X134437348Y-137745734D01*
X134404932Y-137795000D01*
X134316463Y-137922397D01*
X134223216Y-138046641D01*
X134123771Y-138169394D01*
X134016713Y-138292319D01*
X133900625Y-138417076D01*
X133774088Y-138545328D01*
X133720014Y-138598190D01*
X133639135Y-138677724D01*
X133568752Y-138749645D01*
X133508378Y-138814576D01*
X133457528Y-138873143D01*
X133415715Y-138925971D01*
X133382452Y-138973684D01*
X133357253Y-139016909D01*
X133339631Y-139056268D01*
X133329100Y-139092389D01*
X133327240Y-139102757D01*
X133187098Y-139102757D01*
X133187923Y-139081224D01*
X133197804Y-139033310D01*
X133197904Y-139032982D01*
X133212803Y-138991876D01*
X133233171Y-138948843D01*
X133259573Y-138903184D01*
X133292576Y-138854199D01*
X133332746Y-138801189D01*
X133380649Y-138743454D01*
X133436850Y-138680294D01*
X133501916Y-138611011D01*
X133576414Y-138534904D01*
X133660907Y-138451274D01*
X133696896Y-138416271D01*
X133787950Y-138326679D01*
X133869666Y-138242997D01*
X133943809Y-138163055D01*
X134012141Y-138084685D01*
X134076426Y-138005717D01*
X134138430Y-137923982D01*
X134199914Y-137837311D01*
X134262643Y-137743534D01*
X134328380Y-137640484D01*
X134330595Y-137636942D01*
X134413716Y-137501017D01*
X134487146Y-137374743D01*
X134550910Y-137258070D01*
X134605033Y-137150947D01*
X134649539Y-137053324D01*
X134684454Y-136965150D01*
X134709802Y-136886376D01*
X134719832Y-136846331D01*
X134738442Y-136776565D01*
X134761216Y-136719271D01*
X134789201Y-136673550D01*
X134823442Y-136638502D01*
X134864985Y-136613230D01*
X134914876Y-136596833D01*
X134974161Y-136588413D01*
X135021776Y-136586784D01*
X135083816Y-136589357D01*
G37*
X135083816Y-136589357D02*
X135144472Y-136597493D01*
X135205542Y-136611817D01*
X135268825Y-136632954D01*
X135336118Y-136661530D01*
X135409220Y-136698169D01*
X135489930Y-136743498D01*
X135514639Y-136758132D01*
X135582155Y-136801380D01*
X135637957Y-136843797D01*
X135683817Y-136887132D01*
X135721505Y-136933135D01*
X135752792Y-136983556D01*
X135762979Y-137003432D01*
X135791756Y-137077428D01*
X135809499Y-137157170D01*
X135816152Y-137240155D01*
X135811655Y-137323880D01*
X135795952Y-137405843D01*
X135773818Y-137472088D01*
X135740379Y-137544395D01*
X135696931Y-137622864D01*
X135644737Y-137705818D01*
X135585057Y-137791579D01*
X135519153Y-137878467D01*
X135448286Y-137964804D01*
X135373719Y-138048912D01*
X135296713Y-138129113D01*
X135235941Y-138187714D01*
X135190964Y-138229205D01*
X135147714Y-138268341D01*
X135104978Y-138306106D01*
X135061543Y-138343482D01*
X135016193Y-138381455D01*
X134967715Y-138421006D01*
X134914894Y-138463120D01*
X134856518Y-138508780D01*
X134791371Y-138558969D01*
X134718239Y-138614672D01*
X134635910Y-138676872D01*
X134583213Y-138716501D01*
X134506225Y-138774366D01*
X134438986Y-138825053D01*
X134380240Y-138869588D01*
X134328727Y-138908999D01*
X134283189Y-138944312D01*
X134242369Y-138976556D01*
X134205007Y-139006755D01*
X134169847Y-139035939D01*
X134135629Y-139065133D01*
X134101095Y-139095365D01*
X134064988Y-139127661D01*
X134026049Y-139163049D01*
X133983020Y-139202556D01*
X133946780Y-139235994D01*
X133898846Y-139279661D01*
X133858494Y-139314890D01*
X133823794Y-139343143D01*
X133792816Y-139365882D01*
X133763630Y-139384571D01*
X133734307Y-139400673D01*
X133720702Y-139407393D01*
X133696077Y-139418724D01*
X133676104Y-139426051D01*
X133656229Y-139430348D01*
X133631896Y-139432585D01*
X133598551Y-139433737D01*
X133597135Y-139433770D01*
X133554262Y-139433727D01*
X133520377Y-139431031D01*
X133490917Y-139425249D01*
X133482276Y-139422852D01*
X133414008Y-139397575D01*
X133350933Y-139364078D01*
X133295024Y-139323837D01*
X133248255Y-139278327D01*
X133212601Y-139229023D01*
X133205528Y-139216027D01*
X133191964Y-139176885D01*
X133186036Y-139130516D01*
X133187098Y-139102757D01*
X133327240Y-139102757D01*
X133328673Y-139137636D01*
X133343455Y-139171555D01*
X133371216Y-139204040D01*
X133411585Y-139234619D01*
X133446108Y-139254113D01*
X133502124Y-139279095D01*
X133551411Y-139293461D01*
X133595716Y-139297398D01*
X133636783Y-139291094D01*
X133669836Y-139278130D01*
X133686522Y-139269217D01*
X133703796Y-139258609D01*
X133722829Y-139245342D01*
X133744793Y-139228448D01*
X133770859Y-139206963D01*
X133802198Y-139179919D01*
X133839982Y-139146352D01*
X133885382Y-139105296D01*
X133939569Y-139055783D01*
X133940378Y-139055041D01*
X133979991Y-139018866D01*
X134016296Y-138986098D01*
X134050553Y-138955723D01*
X134084022Y-138926724D01*
X134117962Y-138898083D01*
X134153633Y-138868784D01*
X134192295Y-138837812D01*
X134235208Y-138804149D01*
X134283631Y-138766778D01*
X134338824Y-138724684D01*
X134402047Y-138676849D01*
X134474559Y-138622258D01*
X134505385Y-138599099D01*
X134598058Y-138529317D01*
X134680652Y-138466676D01*
X134754231Y-138410295D01*
X134819861Y-138359294D01*
X134878605Y-138312794D01*
X134931529Y-138269916D01*
X134979698Y-138229780D01*
X135024176Y-138191506D01*
X135066028Y-138154214D01*
X135106319Y-138117025D01*
X135146114Y-138079060D01*
X135186477Y-138039438D01*
X135203820Y-138022127D01*
X135298533Y-137923316D01*
X135382140Y-137827573D01*
X135456252Y-137732783D01*
X135522480Y-137636834D01*
X135582433Y-137537612D01*
X135606933Y-137492946D01*
X135636923Y-137430855D01*
X135657548Y-137373582D01*
X135670012Y-137317178D01*
X135674926Y-137269838D01*
X135673398Y-137193533D01*
X135659524Y-137123226D01*
X135633336Y-137058982D01*
X135594865Y-137000864D01*
X135544141Y-136948936D01*
X135504402Y-136918386D01*
X135457169Y-136887815D01*
X135403090Y-136856137D01*
X135345718Y-136825189D01*
X135288604Y-136796810D01*
X135235301Y-136772837D01*
X135189360Y-136755108D01*
X135187826Y-136754588D01*
X135152259Y-136743024D01*
X135124535Y-136735462D01*
X135099661Y-136731036D01*
X135072644Y-136728877D01*
X135038491Y-136728118D01*
X135035324Y-136728092D01*
X134985338Y-136729280D01*
X134947065Y-136734062D01*
X134918835Y-136742968D01*
X134898978Y-136756526D01*
X134885824Y-136775267D01*
X134885687Y-136775553D01*
X134879610Y-136792252D01*
X134872221Y-136818426D01*
X134864596Y-136850029D01*
X134859682Y-136873277D01*
X134851869Y-136908334D01*
X134841942Y-136944268D01*
X134829305Y-136982515D01*
X134813363Y-137024508D01*
X134793519Y-137071681D01*
X134769177Y-137125468D01*
X134739741Y-137187303D01*
X134704614Y-137258621D01*
X134674835Y-137317892D01*
X134632680Y-137400644D01*
X134595130Y-137472893D01*
X134561069Y-137536613D01*
X134529378Y-137593781D01*
X134498939Y-137646374D01*
X134468635Y-137696366D01*
X134437348Y-137745734D01*
X134404932Y-137795000D01*
X134316463Y-137922397D01*
X134223216Y-138046641D01*
X134123771Y-138169394D01*
X134016713Y-138292319D01*
X133900625Y-138417076D01*
X133774088Y-138545328D01*
X133720014Y-138598190D01*
X133639135Y-138677724D01*
X133568752Y-138749645D01*
X133508378Y-138814576D01*
X133457528Y-138873143D01*
X133415715Y-138925971D01*
X133382452Y-138973684D01*
X133357253Y-139016909D01*
X133339631Y-139056268D01*
X133329100Y-139092389D01*
X133327240Y-139102757D01*
X133187098Y-139102757D01*
X133187923Y-139081224D01*
X133197804Y-139033310D01*
X133197904Y-139032982D01*
X133212803Y-138991876D01*
X133233171Y-138948843D01*
X133259573Y-138903184D01*
X133292576Y-138854199D01*
X133332746Y-138801189D01*
X133380649Y-138743454D01*
X133436850Y-138680294D01*
X133501916Y-138611011D01*
X133576414Y-138534904D01*
X133660907Y-138451274D01*
X133696896Y-138416271D01*
X133787950Y-138326679D01*
X133869666Y-138242997D01*
X133943809Y-138163055D01*
X134012141Y-138084685D01*
X134076426Y-138005717D01*
X134138430Y-137923982D01*
X134199914Y-137837311D01*
X134262643Y-137743534D01*
X134328380Y-137640484D01*
X134330595Y-137636942D01*
X134413716Y-137501017D01*
X134487146Y-137374743D01*
X134550910Y-137258070D01*
X134605033Y-137150947D01*
X134649539Y-137053324D01*
X134684454Y-136965150D01*
X134709802Y-136886376D01*
X134719832Y-136846331D01*
X134738442Y-136776565D01*
X134761216Y-136719271D01*
X134789201Y-136673550D01*
X134823442Y-136638502D01*
X134864985Y-136613230D01*
X134914876Y-136596833D01*
X134974161Y-136588413D01*
X135021776Y-136586784D01*
X135083816Y-136589357D01*
G36*
X133277919Y-135909202D02*
G01*
X133349238Y-135915992D01*
X133415114Y-135929902D01*
X133480672Y-135952257D01*
X133531323Y-135974693D01*
X133616798Y-136022718D01*
X133693895Y-136080419D01*
X133761736Y-136146764D01*
X133819446Y-136220721D01*
X133866148Y-136301260D01*
X133900965Y-136387349D01*
X133910962Y-136421548D01*
X133923981Y-136491640D01*
X133929015Y-136570530D01*
X133926070Y-136655853D01*
X133915149Y-136745238D01*
X133910385Y-136772135D01*
X133889435Y-136875480D01*
X133864302Y-136987550D01*
X133835985Y-137104358D01*
X133805482Y-137221915D01*
X133773793Y-137336232D01*
X133743840Y-137437097D01*
X133730844Y-137478676D01*
X133714775Y-137529117D01*
X133696090Y-137587054D01*
X133675245Y-137651119D01*
X133652698Y-137719943D01*
X133628904Y-137792161D01*
X133604323Y-137866404D01*
X133579409Y-137941305D01*
X133554620Y-138015497D01*
X133530414Y-138087611D01*
X133507246Y-138156282D01*
X133485574Y-138220140D01*
X133465855Y-138277819D01*
X133448546Y-138327951D01*
X133434103Y-138369169D01*
X133422984Y-138400105D01*
X133415645Y-138419392D01*
X133415497Y-138419754D01*
X133378888Y-138504205D01*
X133342865Y-138576151D01*
X133306237Y-138636702D01*
X133267808Y-138686966D01*
X133226385Y-138728054D01*
X133180776Y-138761073D01*
X133129786Y-138787135D01*
X133072222Y-138807347D01*
X133006891Y-138822818D01*
X132975864Y-138828331D01*
X132919548Y-138835331D01*
X132865569Y-138837946D01*
X132817038Y-138836208D01*
X132777069Y-138830149D01*
X132762964Y-138826112D01*
X132703941Y-138798718D01*
X132652350Y-138760639D01*
X132609030Y-138713231D01*
X132574818Y-138657849D01*
X132550553Y-138595852D01*
X132537073Y-138528596D01*
X132535932Y-138484919D01*
X132675662Y-138484919D01*
X132681500Y-138538993D01*
X132697825Y-138589622D01*
X132723361Y-138634225D01*
X132756831Y-138670224D01*
X132773351Y-138682418D01*
X132787963Y-138691503D01*
X132800289Y-138697125D01*
X132813997Y-138699872D01*
X132832755Y-138700332D01*
X132860231Y-138699089D01*
X132872892Y-138698343D01*
X132908633Y-138695452D01*
X132945180Y-138691259D01*
X132976479Y-138686499D01*
X132986162Y-138684603D01*
X133018102Y-138676585D01*
X133052314Y-138666309D01*
X133071625Y-138659603D01*
X133101464Y-138645782D01*
X133129300Y-138627036D01*
X133155693Y-138602409D01*
X133181203Y-138570949D01*
X133206390Y-138531700D01*
X133231814Y-138483709D01*
X133258035Y-138426020D01*
X133285612Y-138357679D01*
X133315105Y-138277733D01*
X133343234Y-138196595D01*
X133362073Y-138141187D01*
X133383110Y-138079647D01*
X133404753Y-138016611D01*
X133425409Y-137956718D01*
X133443486Y-137904604D01*
X133445544Y-137898699D01*
X133476312Y-137808593D01*
X133507851Y-137712728D01*
X133539713Y-137612678D01*
X133571449Y-137510022D01*
X133602612Y-137406335D01*
X133632751Y-137303195D01*
X133661420Y-137202179D01*
X133688170Y-137104863D01*
X133712552Y-137012823D01*
X133734119Y-136927637D01*
X133752421Y-136850881D01*
X133767010Y-136784133D01*
X133776324Y-136735491D01*
X133787764Y-136643511D01*
X133788404Y-136559019D01*
X133777937Y-136480648D01*
X133756058Y-136407034D01*
X133722460Y-136336812D01*
X133676839Y-136268617D01*
X133669658Y-136259385D01*
X133611587Y-136195873D01*
X133546745Y-136142922D01*
X133476418Y-136101064D01*
X133401892Y-136070826D01*
X133324452Y-136052740D01*
X133245385Y-136047334D01*
X133171513Y-136054153D01*
X133089700Y-136072191D01*
X133017766Y-136096284D01*
X132956365Y-136126063D01*
X132906153Y-136161158D01*
X132867785Y-136201198D01*
X132845140Y-136238485D01*
X132836136Y-136258150D01*
X132830180Y-136274259D01*
X132828079Y-136288594D01*
X132830641Y-136302936D01*
X132838673Y-136319065D01*
X132852982Y-136338764D01*
X132874374Y-136363812D01*
X132903659Y-136395992D01*
X132928883Y-136423281D01*
X132960167Y-136462845D01*
X132991944Y-136513595D01*
X133023109Y-136573077D01*
X133052553Y-136638840D01*
X133079169Y-136708434D01*
X133101851Y-136779405D01*
X133117801Y-136841604D01*
X133123353Y-136867931D01*
X133127454Y-136892106D01*
X133130308Y-136916953D01*
X133132121Y-136945294D01*
X133133096Y-136979953D01*
X133133438Y-137023750D01*
X133133422Y-137057027D01*
X133131963Y-137132568D01*
X133127600Y-137202266D01*
X133119802Y-137269101D01*
X133108039Y-137336049D01*
X133091779Y-137406088D01*
X133070493Y-137482195D01*
X133043649Y-137567346D01*
X133041018Y-137575325D01*
X133020742Y-137633922D01*
X132996026Y-137700934D01*
X132967860Y-137773985D01*
X132937236Y-137850698D01*
X132905147Y-137928698D01*
X132872584Y-138005609D01*
X132840538Y-138079054D01*
X132810002Y-138146657D01*
X132781966Y-138206043D01*
X132757423Y-138254836D01*
X132757365Y-138254946D01*
X132729684Y-138308890D01*
X132708635Y-138353377D01*
X132693465Y-138390525D01*
X132683421Y-138422451D01*
X132677751Y-138451274D01*
X132675703Y-138479111D01*
X132675662Y-138484919D01*
X132535932Y-138484919D01*
X132535214Y-138457460D01*
X132538320Y-138423746D01*
X132544085Y-138391190D01*
X132553299Y-138357567D01*
X132566751Y-138320651D01*
X132585231Y-138278214D01*
X132609530Y-138228030D01*
X132632621Y-138182865D01*
X132651906Y-138143757D01*
X132674885Y-138093899D01*
X132700662Y-138035483D01*
X132728342Y-137970702D01*
X132757030Y-137901745D01*
X132785832Y-137830804D01*
X132813852Y-137760072D01*
X132840195Y-137691738D01*
X132863967Y-137627994D01*
X132884272Y-137571032D01*
X132892917Y-137545561D01*
X132926731Y-137435940D01*
X132954312Y-137329871D01*
X132975470Y-137228646D01*
X132990018Y-137133555D01*
X132997763Y-137045890D01*
X132998518Y-136966941D01*
X132992092Y-136898000D01*
X132989906Y-136885406D01*
X132971183Y-136810624D01*
X132942292Y-136729331D01*
X132903928Y-136643411D01*
X132891063Y-136617767D01*
X132873241Y-136584430D01*
X132856511Y-136556928D01*
X132838184Y-136531589D01*
X132815571Y-136504737D01*
X132785982Y-136472699D01*
X132781192Y-136467655D01*
X132750260Y-136433893D01*
X132724548Y-136403293D01*
X132705749Y-136377971D01*
X132696204Y-136361582D01*
X132686038Y-136322943D01*
X132685809Y-136278309D01*
X132694809Y-136230352D01*
X132712329Y-136181746D01*
X132737658Y-136135164D01*
X132766282Y-136097476D01*
X132815354Y-136051423D01*
X132875246Y-136010328D01*
X132943680Y-135975029D01*
X133018378Y-135946365D01*
X133097063Y-135925173D01*
X133177457Y-135912291D01*
X133257284Y-135908558D01*
X133277919Y-135909202D01*
G37*
X133277919Y-135909202D02*
X133349238Y-135915992D01*
X133415114Y-135929902D01*
X133480672Y-135952257D01*
X133531323Y-135974693D01*
X133616798Y-136022718D01*
X133693895Y-136080419D01*
X133761736Y-136146764D01*
X133819446Y-136220721D01*
X133866148Y-136301260D01*
X133900965Y-136387349D01*
X133910962Y-136421548D01*
X133923981Y-136491640D01*
X133929015Y-136570530D01*
X133926070Y-136655853D01*
X133915149Y-136745238D01*
X133910385Y-136772135D01*
X133889435Y-136875480D01*
X133864302Y-136987550D01*
X133835985Y-137104358D01*
X133805482Y-137221915D01*
X133773793Y-137336232D01*
X133743840Y-137437097D01*
X133730844Y-137478676D01*
X133714775Y-137529117D01*
X133696090Y-137587054D01*
X133675245Y-137651119D01*
X133652698Y-137719943D01*
X133628904Y-137792161D01*
X133604323Y-137866404D01*
X133579409Y-137941305D01*
X133554620Y-138015497D01*
X133530414Y-138087611D01*
X133507246Y-138156282D01*
X133485574Y-138220140D01*
X133465855Y-138277819D01*
X133448546Y-138327951D01*
X133434103Y-138369169D01*
X133422984Y-138400105D01*
X133415645Y-138419392D01*
X133415497Y-138419754D01*
X133378888Y-138504205D01*
X133342865Y-138576151D01*
X133306237Y-138636702D01*
X133267808Y-138686966D01*
X133226385Y-138728054D01*
X133180776Y-138761073D01*
X133129786Y-138787135D01*
X133072222Y-138807347D01*
X133006891Y-138822818D01*
X132975864Y-138828331D01*
X132919548Y-138835331D01*
X132865569Y-138837946D01*
X132817038Y-138836208D01*
X132777069Y-138830149D01*
X132762964Y-138826112D01*
X132703941Y-138798718D01*
X132652350Y-138760639D01*
X132609030Y-138713231D01*
X132574818Y-138657849D01*
X132550553Y-138595852D01*
X132537073Y-138528596D01*
X132535932Y-138484919D01*
X132675662Y-138484919D01*
X132681500Y-138538993D01*
X132697825Y-138589622D01*
X132723361Y-138634225D01*
X132756831Y-138670224D01*
X132773351Y-138682418D01*
X132787963Y-138691503D01*
X132800289Y-138697125D01*
X132813997Y-138699872D01*
X132832755Y-138700332D01*
X132860231Y-138699089D01*
X132872892Y-138698343D01*
X132908633Y-138695452D01*
X132945180Y-138691259D01*
X132976479Y-138686499D01*
X132986162Y-138684603D01*
X133018102Y-138676585D01*
X133052314Y-138666309D01*
X133071625Y-138659603D01*
X133101464Y-138645782D01*
X133129300Y-138627036D01*
X133155693Y-138602409D01*
X133181203Y-138570949D01*
X133206390Y-138531700D01*
X133231814Y-138483709D01*
X133258035Y-138426020D01*
X133285612Y-138357679D01*
X133315105Y-138277733D01*
X133343234Y-138196595D01*
X133362073Y-138141187D01*
X133383110Y-138079647D01*
X133404753Y-138016611D01*
X133425409Y-137956718D01*
X133443486Y-137904604D01*
X133445544Y-137898699D01*
X133476312Y-137808593D01*
X133507851Y-137712728D01*
X133539713Y-137612678D01*
X133571449Y-137510022D01*
X133602612Y-137406335D01*
X133632751Y-137303195D01*
X133661420Y-137202179D01*
X133688170Y-137104863D01*
X133712552Y-137012823D01*
X133734119Y-136927637D01*
X133752421Y-136850881D01*
X133767010Y-136784133D01*
X133776324Y-136735491D01*
X133787764Y-136643511D01*
X133788404Y-136559019D01*
X133777937Y-136480648D01*
X133756058Y-136407034D01*
X133722460Y-136336812D01*
X133676839Y-136268617D01*
X133669658Y-136259385D01*
X133611587Y-136195873D01*
X133546745Y-136142922D01*
X133476418Y-136101064D01*
X133401892Y-136070826D01*
X133324452Y-136052740D01*
X133245385Y-136047334D01*
X133171513Y-136054153D01*
X133089700Y-136072191D01*
X133017766Y-136096284D01*
X132956365Y-136126063D01*
X132906153Y-136161158D01*
X132867785Y-136201198D01*
X132845140Y-136238485D01*
X132836136Y-136258150D01*
X132830180Y-136274259D01*
X132828079Y-136288594D01*
X132830641Y-136302936D01*
X132838673Y-136319065D01*
X132852982Y-136338764D01*
X132874374Y-136363812D01*
X132903659Y-136395992D01*
X132928883Y-136423281D01*
X132960167Y-136462845D01*
X132991944Y-136513595D01*
X133023109Y-136573077D01*
X133052553Y-136638840D01*
X133079169Y-136708434D01*
X133101851Y-136779405D01*
X133117801Y-136841604D01*
X133123353Y-136867931D01*
X133127454Y-136892106D01*
X133130308Y-136916953D01*
X133132121Y-136945294D01*
X133133096Y-136979953D01*
X133133438Y-137023750D01*
X133133422Y-137057027D01*
X133131963Y-137132568D01*
X133127600Y-137202266D01*
X133119802Y-137269101D01*
X133108039Y-137336049D01*
X133091779Y-137406088D01*
X133070493Y-137482195D01*
X133043649Y-137567346D01*
X133041018Y-137575325D01*
X133020742Y-137633922D01*
X132996026Y-137700934D01*
X132967860Y-137773985D01*
X132937236Y-137850698D01*
X132905147Y-137928698D01*
X132872584Y-138005609D01*
X132840538Y-138079054D01*
X132810002Y-138146657D01*
X132781966Y-138206043D01*
X132757423Y-138254836D01*
X132757365Y-138254946D01*
X132729684Y-138308890D01*
X132708635Y-138353377D01*
X132693465Y-138390525D01*
X132683421Y-138422451D01*
X132677751Y-138451274D01*
X132675703Y-138479111D01*
X132675662Y-138484919D01*
X132535932Y-138484919D01*
X132535214Y-138457460D01*
X132538320Y-138423746D01*
X132544085Y-138391190D01*
X132553299Y-138357567D01*
X132566751Y-138320651D01*
X132585231Y-138278214D01*
X132609530Y-138228030D01*
X132632621Y-138182865D01*
X132651906Y-138143757D01*
X132674885Y-138093899D01*
X132700662Y-138035483D01*
X132728342Y-137970702D01*
X132757030Y-137901745D01*
X132785832Y-137830804D01*
X132813852Y-137760072D01*
X132840195Y-137691738D01*
X132863967Y-137627994D01*
X132884272Y-137571032D01*
X132892917Y-137545561D01*
X132926731Y-137435940D01*
X132954312Y-137329871D01*
X132975470Y-137228646D01*
X132990018Y-137133555D01*
X132997763Y-137045890D01*
X132998518Y-136966941D01*
X132992092Y-136898000D01*
X132989906Y-136885406D01*
X132971183Y-136810624D01*
X132942292Y-136729331D01*
X132903928Y-136643411D01*
X132891063Y-136617767D01*
X132873241Y-136584430D01*
X132856511Y-136556928D01*
X132838184Y-136531589D01*
X132815571Y-136504737D01*
X132785982Y-136472699D01*
X132781192Y-136467655D01*
X132750260Y-136433893D01*
X132724548Y-136403293D01*
X132705749Y-136377971D01*
X132696204Y-136361582D01*
X132686038Y-136322943D01*
X132685809Y-136278309D01*
X132694809Y-136230352D01*
X132712329Y-136181746D01*
X132737658Y-136135164D01*
X132766282Y-136097476D01*
X132815354Y-136051423D01*
X132875246Y-136010328D01*
X132943680Y-135975029D01*
X133018378Y-135946365D01*
X133097063Y-135925173D01*
X133177457Y-135912291D01*
X133257284Y-135908558D01*
X133277919Y-135909202D01*
D11*
X105470000Y-120209000D02*
X102810000Y-120209000D01*
X105470000Y-130429000D02*
X105470000Y-120209000D01*
X102810000Y-130429000D02*
X102810000Y-120209000D01*
X105470000Y-130429000D02*
X102810000Y-130429000D01*
X105470000Y-131699000D02*
X105470000Y-133029000D01*
X105470000Y-133029000D02*
X104140000Y-133029000D01*
D16*
X166370000Y-119380000D02*
X146050000Y-119380000D01*
X166370000Y-134620000D02*
X166370000Y-119380000D01*
X146050000Y-134620000D02*
X166370000Y-134620000D01*
X146050000Y-119380000D02*
X146050000Y-134620000D01*
X142240000Y-119380000D02*
X121920000Y-119380000D01*
X142240000Y-134620000D02*
X142240000Y-119380000D01*
X121920000Y-134620000D02*
X142240000Y-134620000D01*
X121920000Y-119380000D02*
X121920000Y-134620000D01*
D11*
X77470000Y-110490000D02*
X77470000Y-120650000D01*
X85090000Y-110490000D02*
X77470000Y-110490000D01*
X85090000Y-120650000D02*
X85090000Y-110490000D01*
X77470000Y-120650000D02*
X85090000Y-120650000D01*
X78740000Y-120650000D02*
X78740000Y-110490000D01*
D16*
X79070200Y-142265400D02*
X80010000Y-142265400D01*
X99397820Y-142265400D02*
X97790000Y-142265400D01*
X99397820Y-124467620D02*
X97790000Y-124467620D01*
X78399640Y-124467620D02*
X80010000Y-124467620D01*
D17*
X81617820Y-135915400D02*
X81617820Y-130835400D01*
X81617820Y-130835400D02*
X79077820Y-130835400D01*
X79077820Y-135915400D02*
X79077820Y-130835400D01*
X81617820Y-135915400D02*
X79077820Y-135915400D01*
X98762820Y-135915400D02*
X98762820Y-130200400D01*
X98762820Y-130200400D02*
X96222820Y-130200400D01*
X96222820Y-135915400D02*
X96222820Y-130200400D01*
X98762820Y-135915400D02*
X96222820Y-135915400D01*
X80982820Y-138582400D02*
X80982820Y-136804400D01*
X80982820Y-136804400D02*
X78315820Y-136804400D01*
X78315820Y-138582400D02*
X78315820Y-136804400D01*
X80982820Y-138582400D02*
X78315820Y-138582400D01*
X85049360Y-138582400D02*
X85049360Y-136804400D01*
X85049360Y-136804400D02*
X82379820Y-136804400D01*
X82379820Y-138582400D02*
X82379820Y-136804400D01*
X85049360Y-138582400D02*
X82379820Y-138582400D01*
X85049360Y-129946400D02*
X85049360Y-128168400D01*
X85049360Y-128168400D02*
X82379820Y-128168400D01*
X82379820Y-129946400D02*
X82379820Y-128168400D01*
X85049360Y-129946400D02*
X82379820Y-129946400D01*
X80982820Y-129946400D02*
X80982820Y-128168400D01*
X80982820Y-128168400D02*
X78315820Y-128168400D01*
X78315820Y-129946400D02*
X78315820Y-128168400D01*
X80982820Y-129946400D02*
X78315820Y-129946400D01*
D16*
X99397820Y-142265400D02*
X99397820Y-124467620D01*
X78399640Y-124467620D02*
X78399640Y-141594840D01*
X78399640Y-141594840D02*
X79070200Y-142265400D01*
X76974700Y-137866120D02*
X76974700Y-128871980D01*
X76974700Y-128871980D02*
X84328000Y-128871980D01*
X84328000Y-128871980D02*
X84328000Y-137871200D01*
X84328000Y-137871200D02*
X76974700Y-137871200D01*
D13*
X80010000Y-142748000D02*
G75*
G03*
X80010000Y-142748000I-254000J0D01*
G01*
D11*
X91790000Y-118731000D02*
X91790000Y-119989000D01*
X93630000Y-118731000D02*
X93630000Y-119989000D01*
X99790000Y-116151000D02*
X98280000Y-116151000D01*
X99790000Y-112450000D02*
X98280000Y-112450000D01*
X98280000Y-109180000D02*
X98280000Y-119420000D01*
X99790000Y-119420000D02*
X95149000Y-119420000D01*
X99790000Y-109180000D02*
X95149000Y-109180000D01*
X95149000Y-109180000D02*
X95149000Y-119420000D01*
X99790000Y-109180000D02*
X99790000Y-119420000D01*
X135350000Y-125830000D02*
X135350000Y-125500000D01*
X128810000Y-125830000D02*
X135350000Y-125830000D01*
X128810000Y-125500000D02*
X128810000Y-125830000D01*
X135350000Y-123090000D02*
X135350000Y-123420000D01*
X128810000Y-123090000D02*
X135350000Y-123090000D01*
X128810000Y-123420000D02*
X128810000Y-123090000D01*
X159480000Y-125830000D02*
X159480000Y-125500000D01*
X152940000Y-125830000D02*
X159480000Y-125830000D01*
X152940000Y-125500000D02*
X152940000Y-125830000D01*
X159480000Y-123090000D02*
X159480000Y-123420000D01*
X152940000Y-123090000D02*
X159480000Y-123090000D01*
X152940000Y-123420000D02*
X152940000Y-123090000D01*
X128810000Y-128170000D02*
X128810000Y-128500000D01*
X135350000Y-128170000D02*
X128810000Y-128170000D01*
X135350000Y-128500000D02*
X135350000Y-128170000D01*
X128810000Y-130910000D02*
X128810000Y-130580000D01*
X135350000Y-130910000D02*
X128810000Y-130910000D01*
X135350000Y-130580000D02*
X135350000Y-130910000D01*
X152940000Y-128170000D02*
X152940000Y-128500000D01*
X159480000Y-128170000D02*
X152940000Y-128170000D01*
X159480000Y-128500000D02*
X159480000Y-128170000D01*
X152940000Y-130910000D02*
X152940000Y-130580000D01*
X159480000Y-130910000D02*
X152940000Y-130910000D01*
X159480000Y-130580000D02*
X159480000Y-130910000D01*
X129520000Y-109300000D02*
X129520000Y-115270000D01*
X129520000Y-115270000D02*
X142140000Y-115270000D01*
X142140000Y-115270000D02*
X142140000Y-109300000D01*
X142140000Y-109300000D02*
X129520000Y-109300000D01*
X132830000Y-109310000D02*
X132830000Y-110060000D01*
X132830000Y-110060000D02*
X138830000Y-110060000D01*
X138830000Y-110060000D02*
X138830000Y-109310000D01*
X138830000Y-109310000D02*
X132830000Y-109310000D01*
X129530000Y-109310000D02*
X129530000Y-110060000D01*
X129530000Y-110060000D02*
X131330000Y-110060000D01*
X131330000Y-110060000D02*
X131330000Y-109310000D01*
X131330000Y-109310000D02*
X129530000Y-109310000D01*
X140330000Y-109310000D02*
X140330000Y-110060000D01*
X140330000Y-110060000D02*
X142130000Y-110060000D01*
X142130000Y-110060000D02*
X142130000Y-109310000D01*
X142130000Y-109310000D02*
X140330000Y-109310000D01*
X129530000Y-111560000D02*
X130280000Y-111560000D01*
X130280000Y-111560000D02*
X130280000Y-114510000D01*
X130280000Y-114510000D02*
X135830000Y-114510000D01*
X142130000Y-111560000D02*
X141380000Y-111560000D01*
X141380000Y-111560000D02*
X141380000Y-114510000D01*
X141380000Y-114510000D02*
X135830000Y-114510000D01*
X130480000Y-109010000D02*
X129230000Y-109010000D01*
X129230000Y-109010000D02*
X129230000Y-110260000D01*
X153360000Y-109010000D02*
X153360000Y-110260000D01*
X154610000Y-109010000D02*
X153360000Y-109010000D01*
X165510000Y-114510000D02*
X159960000Y-114510000D01*
X165510000Y-111560000D02*
X165510000Y-114510000D01*
X166260000Y-111560000D02*
X165510000Y-111560000D01*
X154410000Y-114510000D02*
X159960000Y-114510000D01*
X154410000Y-111560000D02*
X154410000Y-114510000D01*
X153660000Y-111560000D02*
X154410000Y-111560000D01*
X166260000Y-109310000D02*
X164460000Y-109310000D01*
X166260000Y-110060000D02*
X166260000Y-109310000D01*
X164460000Y-110060000D02*
X166260000Y-110060000D01*
X164460000Y-109310000D02*
X164460000Y-110060000D01*
X155460000Y-109310000D02*
X153660000Y-109310000D01*
X155460000Y-110060000D02*
X155460000Y-109310000D01*
X153660000Y-110060000D02*
X155460000Y-110060000D01*
X153660000Y-109310000D02*
X153660000Y-110060000D01*
X162960000Y-109310000D02*
X156960000Y-109310000D01*
X162960000Y-110060000D02*
X162960000Y-109310000D01*
X156960000Y-110060000D02*
X162960000Y-110060000D01*
X156960000Y-109310000D02*
X156960000Y-110060000D01*
X166270000Y-109300000D02*
X153650000Y-109300000D01*
X166270000Y-115270000D02*
X166270000Y-109300000D01*
X153650000Y-115270000D02*
X166270000Y-115270000D01*
X153650000Y-109300000D02*
X153650000Y-115270000D01*
X106370000Y-117900000D02*
X106370000Y-119150000D01*
X107620000Y-117900000D02*
X106370000Y-117900000D01*
X116020000Y-123400000D02*
X111720000Y-123400000D01*
X116020000Y-120450000D02*
X116020000Y-123400000D01*
X116770000Y-120450000D02*
X116020000Y-120450000D01*
X107420000Y-123400000D02*
X111720000Y-123400000D01*
X107420000Y-120450000D02*
X107420000Y-123400000D01*
X106670000Y-120450000D02*
X107420000Y-120450000D01*
X116770000Y-118200000D02*
X114970000Y-118200000D01*
X116770000Y-118950000D02*
X116770000Y-118200000D01*
X114970000Y-118950000D02*
X116770000Y-118950000D01*
X114970000Y-118200000D02*
X114970000Y-118950000D01*
X108470000Y-118200000D02*
X106670000Y-118200000D01*
X108470000Y-118950000D02*
X108470000Y-118200000D01*
X106670000Y-118950000D02*
X108470000Y-118950000D01*
X106670000Y-118200000D02*
X106670000Y-118950000D01*
X113470000Y-118200000D02*
X109970000Y-118200000D01*
X113470000Y-118950000D02*
X113470000Y-118200000D01*
X109970000Y-118950000D02*
X113470000Y-118950000D01*
X109970000Y-118200000D02*
X109970000Y-118950000D01*
X116780000Y-118190000D02*
X106660000Y-118190000D01*
X116780000Y-124160000D02*
X116780000Y-118190000D01*
X106660000Y-124160000D02*
X116780000Y-124160000D01*
X106660000Y-118190000D02*
X106660000Y-124160000D01*
X106370000Y-135680000D02*
X106370000Y-136930000D01*
X107620000Y-135680000D02*
X106370000Y-135680000D01*
X116020000Y-141180000D02*
X111720000Y-141180000D01*
X116020000Y-138230000D02*
X116020000Y-141180000D01*
X116770000Y-138230000D02*
X116020000Y-138230000D01*
X107420000Y-141180000D02*
X111720000Y-141180000D01*
X107420000Y-138230000D02*
X107420000Y-141180000D01*
X106670000Y-138230000D02*
X107420000Y-138230000D01*
X116770000Y-135980000D02*
X114970000Y-135980000D01*
X116770000Y-136730000D02*
X116770000Y-135980000D01*
X114970000Y-136730000D02*
X116770000Y-136730000D01*
X114970000Y-135980000D02*
X114970000Y-136730000D01*
X108470000Y-135980000D02*
X106670000Y-135980000D01*
X108470000Y-136730000D02*
X108470000Y-135980000D01*
X106670000Y-136730000D02*
X108470000Y-136730000D01*
X106670000Y-135980000D02*
X106670000Y-136730000D01*
X113470000Y-135980000D02*
X109970000Y-135980000D01*
X113470000Y-136730000D02*
X113470000Y-135980000D01*
X109970000Y-136730000D02*
X113470000Y-136730000D01*
X109970000Y-135980000D02*
X109970000Y-136730000D01*
X116780000Y-135970000D02*
X106660000Y-135970000D01*
X116780000Y-141940000D02*
X116780000Y-135970000D01*
X106660000Y-141940000D02*
X116780000Y-141940000D01*
X106660000Y-135970000D02*
X106660000Y-141940000D01*
X106450000Y-109010000D02*
X106450000Y-110260000D01*
X107700000Y-109010000D02*
X106450000Y-109010000D01*
X116100000Y-114510000D02*
X111800000Y-114510000D01*
X116100000Y-111560000D02*
X116100000Y-114510000D01*
X116850000Y-111560000D02*
X116100000Y-111560000D01*
X107500000Y-114510000D02*
X111800000Y-114510000D01*
X107500000Y-111560000D02*
X107500000Y-114510000D01*
X106750000Y-111560000D02*
X107500000Y-111560000D01*
X116850000Y-109310000D02*
X115050000Y-109310000D01*
X116850000Y-110060000D02*
X116850000Y-109310000D01*
X115050000Y-110060000D02*
X116850000Y-110060000D01*
X115050000Y-109310000D02*
X115050000Y-110060000D01*
X108550000Y-109310000D02*
X106750000Y-109310000D01*
X108550000Y-110060000D02*
X108550000Y-109310000D01*
X106750000Y-110060000D02*
X108550000Y-110060000D01*
X106750000Y-109310000D02*
X106750000Y-110060000D01*
X113550000Y-109310000D02*
X110050000Y-109310000D01*
X113550000Y-110060000D02*
X113550000Y-109310000D01*
X110050000Y-110060000D02*
X113550000Y-110060000D01*
X110050000Y-109310000D02*
X110050000Y-110060000D01*
X116860000Y-109300000D02*
X106740000Y-109300000D01*
X116860000Y-115270000D02*
X116860000Y-109300000D01*
X106740000Y-115270000D02*
X116860000Y-115270000D01*
X106740000Y-109300000D02*
X106740000Y-115270000D01*
X119660302Y-110315000D02*
X119660302Y-111115000D01*
X119260302Y-110715000D02*
X120060302Y-110715000D01*
X127751000Y-112497000D02*
X127751000Y-113563000D01*
X127711000Y-112262000D02*
X127711000Y-113798000D01*
X127671000Y-112082000D02*
X127671000Y-113978000D01*
X127631000Y-111932000D02*
X127631000Y-114128000D01*
X127591000Y-111801000D02*
X127591000Y-114259000D01*
X127551000Y-111684000D02*
X127551000Y-114376000D01*
X127511000Y-111577000D02*
X127511000Y-114483000D01*
X127471000Y-111478000D02*
X127471000Y-114582000D01*
X127431000Y-111385000D02*
X127431000Y-114675000D01*
X127391000Y-111299000D02*
X127391000Y-114761000D01*
X127351000Y-111217000D02*
X127351000Y-114843000D01*
X127311000Y-111140000D02*
X127311000Y-114920000D01*
X127271000Y-111066000D02*
X127271000Y-114994000D01*
X127231000Y-110996000D02*
X127231000Y-115064000D01*
X127191000Y-110928000D02*
X127191000Y-115132000D01*
X127151000Y-110864000D02*
X127151000Y-115196000D01*
X127111000Y-110802000D02*
X127111000Y-115258000D01*
X127071000Y-110743000D02*
X127071000Y-115317000D01*
X127031000Y-110685000D02*
X127031000Y-115375000D01*
X126991000Y-110630000D02*
X126991000Y-115430000D01*
X126951000Y-110576000D02*
X126951000Y-115484000D01*
X126911000Y-110525000D02*
X126911000Y-115535000D01*
X126871000Y-110474000D02*
X126871000Y-115586000D01*
X126831000Y-110426000D02*
X126831000Y-115634000D01*
X126791000Y-110379000D02*
X126791000Y-115681000D01*
X126751000Y-110333000D02*
X126751000Y-115727000D01*
X126711000Y-110289000D02*
X126711000Y-115771000D01*
X126671000Y-110246000D02*
X126671000Y-115814000D01*
X126631000Y-110204000D02*
X126631000Y-115856000D01*
X126591000Y-110163000D02*
X126591000Y-115897000D01*
X126551000Y-110123000D02*
X126551000Y-115937000D01*
X126511000Y-110085000D02*
X126511000Y-115975000D01*
X126471000Y-110047000D02*
X126471000Y-116013000D01*
X126431000Y-114070000D02*
X126431000Y-116049000D01*
X126431000Y-110011000D02*
X126431000Y-111990000D01*
X126391000Y-114070000D02*
X126391000Y-116085000D01*
X126391000Y-109975000D02*
X126391000Y-111990000D01*
X126351000Y-114070000D02*
X126351000Y-116120000D01*
X126351000Y-109940000D02*
X126351000Y-111990000D01*
X126311000Y-114070000D02*
X126311000Y-116154000D01*
X126311000Y-109906000D02*
X126311000Y-111990000D01*
X126271000Y-114070000D02*
X126271000Y-116186000D01*
X126271000Y-109874000D02*
X126271000Y-111990000D01*
X126231000Y-114070000D02*
X126231000Y-116219000D01*
X126231000Y-109841000D02*
X126231000Y-111990000D01*
X126191000Y-114070000D02*
X126191000Y-116250000D01*
X126191000Y-109810000D02*
X126191000Y-111990000D01*
X126151000Y-114070000D02*
X126151000Y-116280000D01*
X126151000Y-109780000D02*
X126151000Y-111990000D01*
X126111000Y-114070000D02*
X126111000Y-116310000D01*
X126111000Y-109750000D02*
X126111000Y-111990000D01*
X126071000Y-114070000D02*
X126071000Y-116339000D01*
X126071000Y-109721000D02*
X126071000Y-111990000D01*
X126031000Y-114070000D02*
X126031000Y-116368000D01*
X126031000Y-109692000D02*
X126031000Y-111990000D01*
X125991000Y-114070000D02*
X125991000Y-116395000D01*
X125991000Y-109665000D02*
X125991000Y-111990000D01*
X125951000Y-114070000D02*
X125951000Y-116422000D01*
X125951000Y-109638000D02*
X125951000Y-111990000D01*
X125911000Y-114070000D02*
X125911000Y-116448000D01*
X125911000Y-109612000D02*
X125911000Y-111990000D01*
X125871000Y-114070000D02*
X125871000Y-116474000D01*
X125871000Y-109586000D02*
X125871000Y-111990000D01*
X125831000Y-114070000D02*
X125831000Y-116499000D01*
X125831000Y-109561000D02*
X125831000Y-111990000D01*
X125791000Y-114070000D02*
X125791000Y-116523000D01*
X125791000Y-109537000D02*
X125791000Y-111990000D01*
X125751000Y-114070000D02*
X125751000Y-116547000D01*
X125751000Y-109513000D02*
X125751000Y-111990000D01*
X125711000Y-114070000D02*
X125711000Y-116570000D01*
X125711000Y-109490000D02*
X125711000Y-111990000D01*
X125671000Y-114070000D02*
X125671000Y-116592000D01*
X125671000Y-109468000D02*
X125671000Y-111990000D01*
X125631000Y-114070000D02*
X125631000Y-116614000D01*
X125631000Y-109446000D02*
X125631000Y-111990000D01*
X125591000Y-114070000D02*
X125591000Y-116636000D01*
X125591000Y-109424000D02*
X125591000Y-111990000D01*
X125551000Y-114070000D02*
X125551000Y-116657000D01*
X125551000Y-109403000D02*
X125551000Y-111990000D01*
X125511000Y-114070000D02*
X125511000Y-116677000D01*
X125511000Y-109383000D02*
X125511000Y-111990000D01*
X125471000Y-114070000D02*
X125471000Y-116696000D01*
X125471000Y-109364000D02*
X125471000Y-111990000D01*
X125431000Y-114070000D02*
X125431000Y-116716000D01*
X125431000Y-109344000D02*
X125431000Y-111990000D01*
X125391000Y-114070000D02*
X125391000Y-116734000D01*
X125391000Y-109326000D02*
X125391000Y-111990000D01*
X125351000Y-114070000D02*
X125351000Y-116752000D01*
X125351000Y-109308000D02*
X125351000Y-111990000D01*
X125311000Y-114070000D02*
X125311000Y-116770000D01*
X125311000Y-109290000D02*
X125311000Y-111990000D01*
X125271000Y-114070000D02*
X125271000Y-116787000D01*
X125271000Y-109273000D02*
X125271000Y-111990000D01*
X125231000Y-114070000D02*
X125231000Y-116804000D01*
X125231000Y-109256000D02*
X125231000Y-111990000D01*
X125191000Y-114070000D02*
X125191000Y-116820000D01*
X125191000Y-109240000D02*
X125191000Y-111990000D01*
X125151000Y-114070000D02*
X125151000Y-116835000D01*
X125151000Y-109225000D02*
X125151000Y-111990000D01*
X125111000Y-114070000D02*
X125111000Y-116851000D01*
X125111000Y-109209000D02*
X125111000Y-111990000D01*
X125071000Y-114070000D02*
X125071000Y-116865000D01*
X125071000Y-109195000D02*
X125071000Y-111990000D01*
X125031000Y-114070000D02*
X125031000Y-116880000D01*
X125031000Y-109180000D02*
X125031000Y-111990000D01*
X124991000Y-114070000D02*
X124991000Y-116893000D01*
X124991000Y-109167000D02*
X124991000Y-111990000D01*
X124951000Y-114070000D02*
X124951000Y-116907000D01*
X124951000Y-109153000D02*
X124951000Y-111990000D01*
X124911000Y-114070000D02*
X124911000Y-116919000D01*
X124911000Y-109141000D02*
X124911000Y-111990000D01*
X124871000Y-114070000D02*
X124871000Y-116932000D01*
X124871000Y-109128000D02*
X124871000Y-111990000D01*
X124831000Y-114070000D02*
X124831000Y-116944000D01*
X124831000Y-109116000D02*
X124831000Y-111990000D01*
X124791000Y-114070000D02*
X124791000Y-116955000D01*
X124791000Y-109105000D02*
X124791000Y-111990000D01*
X124751000Y-114070000D02*
X124751000Y-116966000D01*
X124751000Y-109094000D02*
X124751000Y-111990000D01*
X124711000Y-114070000D02*
X124711000Y-116977000D01*
X124711000Y-109083000D02*
X124711000Y-111990000D01*
X124671000Y-114070000D02*
X124671000Y-116987000D01*
X124671000Y-109073000D02*
X124671000Y-111990000D01*
X124631000Y-114070000D02*
X124631000Y-116997000D01*
X124631000Y-109063000D02*
X124631000Y-111990000D01*
X124591000Y-114070000D02*
X124591000Y-117006000D01*
X124591000Y-109054000D02*
X124591000Y-111990000D01*
X124551000Y-114070000D02*
X124551000Y-117015000D01*
X124551000Y-109045000D02*
X124551000Y-111990000D01*
X124511000Y-114070000D02*
X124511000Y-117024000D01*
X124511000Y-109036000D02*
X124511000Y-111990000D01*
X124471000Y-114070000D02*
X124471000Y-117032000D01*
X124471000Y-109028000D02*
X124471000Y-111990000D01*
X124431000Y-114070000D02*
X124431000Y-117040000D01*
X124431000Y-109020000D02*
X124431000Y-111990000D01*
X124391000Y-114070000D02*
X124391000Y-117047000D01*
X124391000Y-109013000D02*
X124391000Y-111990000D01*
X124350000Y-109006000D02*
X124350000Y-117054000D01*
X124310000Y-109000000D02*
X124310000Y-117060000D01*
X124270000Y-108993000D02*
X124270000Y-117067000D01*
X124230000Y-108988000D02*
X124230000Y-117072000D01*
X124190000Y-108982000D02*
X124190000Y-117078000D01*
X124150000Y-108978000D02*
X124150000Y-117082000D01*
X124110000Y-108973000D02*
X124110000Y-117087000D01*
X124070000Y-108969000D02*
X124070000Y-117091000D01*
X124030000Y-108965000D02*
X124030000Y-117095000D01*
X123990000Y-108962000D02*
X123990000Y-117098000D01*
X123950000Y-108959000D02*
X123950000Y-117101000D01*
X123910000Y-108956000D02*
X123910000Y-117104000D01*
X123870000Y-108954000D02*
X123870000Y-117106000D01*
X123830000Y-108953000D02*
X123830000Y-117107000D01*
X123790000Y-108951000D02*
X123790000Y-117109000D01*
X123750000Y-108950000D02*
X123750000Y-117110000D01*
X123710000Y-108950000D02*
X123710000Y-117110000D01*
X123670000Y-108950000D02*
X123670000Y-117110000D01*
X127790000Y-113030000D02*
G75*
G03*
X127790000Y-113030000I-4120000J0D01*
G01*
X143790302Y-110315000D02*
X143790302Y-111115000D01*
X143390302Y-110715000D02*
X144190302Y-110715000D01*
X151881000Y-112497000D02*
X151881000Y-113563000D01*
X151841000Y-112262000D02*
X151841000Y-113798000D01*
X151801000Y-112082000D02*
X151801000Y-113978000D01*
X151761000Y-111932000D02*
X151761000Y-114128000D01*
X151721000Y-111801000D02*
X151721000Y-114259000D01*
X151681000Y-111684000D02*
X151681000Y-114376000D01*
X151641000Y-111577000D02*
X151641000Y-114483000D01*
X151601000Y-111478000D02*
X151601000Y-114582000D01*
X151561000Y-111385000D02*
X151561000Y-114675000D01*
X151521000Y-111299000D02*
X151521000Y-114761000D01*
X151481000Y-111217000D02*
X151481000Y-114843000D01*
X151441000Y-111140000D02*
X151441000Y-114920000D01*
X151401000Y-111066000D02*
X151401000Y-114994000D01*
X151361000Y-110996000D02*
X151361000Y-115064000D01*
X151321000Y-110928000D02*
X151321000Y-115132000D01*
X151281000Y-110864000D02*
X151281000Y-115196000D01*
X151241000Y-110802000D02*
X151241000Y-115258000D01*
X151201000Y-110743000D02*
X151201000Y-115317000D01*
X151161000Y-110685000D02*
X151161000Y-115375000D01*
X151121000Y-110630000D02*
X151121000Y-115430000D01*
X151081000Y-110576000D02*
X151081000Y-115484000D01*
X151041000Y-110525000D02*
X151041000Y-115535000D01*
X151001000Y-110474000D02*
X151001000Y-115586000D01*
X150961000Y-110426000D02*
X150961000Y-115634000D01*
X150921000Y-110379000D02*
X150921000Y-115681000D01*
X150881000Y-110333000D02*
X150881000Y-115727000D01*
X150841000Y-110289000D02*
X150841000Y-115771000D01*
X150801000Y-110246000D02*
X150801000Y-115814000D01*
X150761000Y-110204000D02*
X150761000Y-115856000D01*
X150721000Y-110163000D02*
X150721000Y-115897000D01*
X150681000Y-110123000D02*
X150681000Y-115937000D01*
X150641000Y-110085000D02*
X150641000Y-115975000D01*
X150601000Y-110047000D02*
X150601000Y-116013000D01*
X150561000Y-114070000D02*
X150561000Y-116049000D01*
X150561000Y-110011000D02*
X150561000Y-111990000D01*
X150521000Y-114070000D02*
X150521000Y-116085000D01*
X150521000Y-109975000D02*
X150521000Y-111990000D01*
X150481000Y-114070000D02*
X150481000Y-116120000D01*
X150481000Y-109940000D02*
X150481000Y-111990000D01*
X150441000Y-114070000D02*
X150441000Y-116154000D01*
X150441000Y-109906000D02*
X150441000Y-111990000D01*
X150401000Y-114070000D02*
X150401000Y-116186000D01*
X150401000Y-109874000D02*
X150401000Y-111990000D01*
X150361000Y-114070000D02*
X150361000Y-116219000D01*
X150361000Y-109841000D02*
X150361000Y-111990000D01*
X150321000Y-114070000D02*
X150321000Y-116250000D01*
X150321000Y-109810000D02*
X150321000Y-111990000D01*
X150281000Y-114070000D02*
X150281000Y-116280000D01*
X150281000Y-109780000D02*
X150281000Y-111990000D01*
X150241000Y-114070000D02*
X150241000Y-116310000D01*
X150241000Y-109750000D02*
X150241000Y-111990000D01*
X150201000Y-114070000D02*
X150201000Y-116339000D01*
X150201000Y-109721000D02*
X150201000Y-111990000D01*
X150161000Y-114070000D02*
X150161000Y-116368000D01*
X150161000Y-109692000D02*
X150161000Y-111990000D01*
X150121000Y-114070000D02*
X150121000Y-116395000D01*
X150121000Y-109665000D02*
X150121000Y-111990000D01*
X150081000Y-114070000D02*
X150081000Y-116422000D01*
X150081000Y-109638000D02*
X150081000Y-111990000D01*
X150041000Y-114070000D02*
X150041000Y-116448000D01*
X150041000Y-109612000D02*
X150041000Y-111990000D01*
X150001000Y-114070000D02*
X150001000Y-116474000D01*
X150001000Y-109586000D02*
X150001000Y-111990000D01*
X149961000Y-114070000D02*
X149961000Y-116499000D01*
X149961000Y-109561000D02*
X149961000Y-111990000D01*
X149921000Y-114070000D02*
X149921000Y-116523000D01*
X149921000Y-109537000D02*
X149921000Y-111990000D01*
X149881000Y-114070000D02*
X149881000Y-116547000D01*
X149881000Y-109513000D02*
X149881000Y-111990000D01*
X149841000Y-114070000D02*
X149841000Y-116570000D01*
X149841000Y-109490000D02*
X149841000Y-111990000D01*
X149801000Y-114070000D02*
X149801000Y-116592000D01*
X149801000Y-109468000D02*
X149801000Y-111990000D01*
X149761000Y-114070000D02*
X149761000Y-116614000D01*
X149761000Y-109446000D02*
X149761000Y-111990000D01*
X149721000Y-114070000D02*
X149721000Y-116636000D01*
X149721000Y-109424000D02*
X149721000Y-111990000D01*
X149681000Y-114070000D02*
X149681000Y-116657000D01*
X149681000Y-109403000D02*
X149681000Y-111990000D01*
X149641000Y-114070000D02*
X149641000Y-116677000D01*
X149641000Y-109383000D02*
X149641000Y-111990000D01*
X149601000Y-114070000D02*
X149601000Y-116696000D01*
X149601000Y-109364000D02*
X149601000Y-111990000D01*
X149561000Y-114070000D02*
X149561000Y-116716000D01*
X149561000Y-109344000D02*
X149561000Y-111990000D01*
X149521000Y-114070000D02*
X149521000Y-116734000D01*
X149521000Y-109326000D02*
X149521000Y-111990000D01*
X149481000Y-114070000D02*
X149481000Y-116752000D01*
X149481000Y-109308000D02*
X149481000Y-111990000D01*
X149441000Y-114070000D02*
X149441000Y-116770000D01*
X149441000Y-109290000D02*
X149441000Y-111990000D01*
X149401000Y-114070000D02*
X149401000Y-116787000D01*
X149401000Y-109273000D02*
X149401000Y-111990000D01*
X149361000Y-114070000D02*
X149361000Y-116804000D01*
X149361000Y-109256000D02*
X149361000Y-111990000D01*
X149321000Y-114070000D02*
X149321000Y-116820000D01*
X149321000Y-109240000D02*
X149321000Y-111990000D01*
X149281000Y-114070000D02*
X149281000Y-116835000D01*
X149281000Y-109225000D02*
X149281000Y-111990000D01*
X149241000Y-114070000D02*
X149241000Y-116851000D01*
X149241000Y-109209000D02*
X149241000Y-111990000D01*
X149201000Y-114070000D02*
X149201000Y-116865000D01*
X149201000Y-109195000D02*
X149201000Y-111990000D01*
X149161000Y-114070000D02*
X149161000Y-116880000D01*
X149161000Y-109180000D02*
X149161000Y-111990000D01*
X149121000Y-114070000D02*
X149121000Y-116893000D01*
X149121000Y-109167000D02*
X149121000Y-111990000D01*
X149081000Y-114070000D02*
X149081000Y-116907000D01*
X149081000Y-109153000D02*
X149081000Y-111990000D01*
X149041000Y-114070000D02*
X149041000Y-116919000D01*
X149041000Y-109141000D02*
X149041000Y-111990000D01*
X149001000Y-114070000D02*
X149001000Y-116932000D01*
X149001000Y-109128000D02*
X149001000Y-111990000D01*
X148961000Y-114070000D02*
X148961000Y-116944000D01*
X148961000Y-109116000D02*
X148961000Y-111990000D01*
X148921000Y-114070000D02*
X148921000Y-116955000D01*
X148921000Y-109105000D02*
X148921000Y-111990000D01*
X148881000Y-114070000D02*
X148881000Y-116966000D01*
X148881000Y-109094000D02*
X148881000Y-111990000D01*
X148841000Y-114070000D02*
X148841000Y-116977000D01*
X148841000Y-109083000D02*
X148841000Y-111990000D01*
X148801000Y-114070000D02*
X148801000Y-116987000D01*
X148801000Y-109073000D02*
X148801000Y-111990000D01*
X148761000Y-114070000D02*
X148761000Y-116997000D01*
X148761000Y-109063000D02*
X148761000Y-111990000D01*
X148721000Y-114070000D02*
X148721000Y-117006000D01*
X148721000Y-109054000D02*
X148721000Y-111990000D01*
X148681000Y-114070000D02*
X148681000Y-117015000D01*
X148681000Y-109045000D02*
X148681000Y-111990000D01*
X148641000Y-114070000D02*
X148641000Y-117024000D01*
X148641000Y-109036000D02*
X148641000Y-111990000D01*
X148601000Y-114070000D02*
X148601000Y-117032000D01*
X148601000Y-109028000D02*
X148601000Y-111990000D01*
X148561000Y-114070000D02*
X148561000Y-117040000D01*
X148561000Y-109020000D02*
X148561000Y-111990000D01*
X148521000Y-114070000D02*
X148521000Y-117047000D01*
X148521000Y-109013000D02*
X148521000Y-111990000D01*
X148480000Y-109006000D02*
X148480000Y-117054000D01*
X148440000Y-109000000D02*
X148440000Y-117060000D01*
X148400000Y-108993000D02*
X148400000Y-117067000D01*
X148360000Y-108988000D02*
X148360000Y-117072000D01*
X148320000Y-108982000D02*
X148320000Y-117078000D01*
X148280000Y-108978000D02*
X148280000Y-117082000D01*
X148240000Y-108973000D02*
X148240000Y-117087000D01*
X148200000Y-108969000D02*
X148200000Y-117091000D01*
X148160000Y-108965000D02*
X148160000Y-117095000D01*
X148120000Y-108962000D02*
X148120000Y-117098000D01*
X148080000Y-108959000D02*
X148080000Y-117101000D01*
X148040000Y-108956000D02*
X148040000Y-117104000D01*
X148000000Y-108954000D02*
X148000000Y-117106000D01*
X147960000Y-108953000D02*
X147960000Y-117107000D01*
X147920000Y-108951000D02*
X147920000Y-117109000D01*
X147880000Y-108950000D02*
X147880000Y-117110000D01*
X147840000Y-108950000D02*
X147840000Y-117110000D01*
X147800000Y-108950000D02*
X147800000Y-117110000D01*
X151920000Y-113030000D02*
G75*
G03*
X151920000Y-113030000I-4120000J0D01*
G01*
X86710000Y-118731000D02*
X86710000Y-119989000D01*
X88550000Y-118731000D02*
X88550000Y-119989000D01*
D12*
X117776666Y-127087380D02*
X117776666Y-127801666D01*
X117729047Y-127944523D01*
X117633809Y-128039761D01*
X117490952Y-128087380D01*
X117395714Y-128087380D01*
X118205238Y-127182619D02*
X118252857Y-127135000D01*
X118348095Y-127087380D01*
X118586190Y-127087380D01*
X118681428Y-127135000D01*
X118729047Y-127182619D01*
X118776666Y-127277857D01*
X118776666Y-127373095D01*
X118729047Y-127515952D01*
X118157619Y-128087380D01*
X118776666Y-128087380D01*
X103679666Y-133945380D02*
X103679666Y-134659666D01*
X103632047Y-134802523D01*
X103536809Y-134897761D01*
X103393952Y-134945380D01*
X103298714Y-134945380D01*
X104584428Y-133945380D02*
X104393952Y-133945380D01*
X104298714Y-133993000D01*
X104251095Y-134040619D01*
X104155857Y-134183476D01*
X104108238Y-134373952D01*
X104108238Y-134754904D01*
X104155857Y-134850142D01*
X104203476Y-134897761D01*
X104298714Y-134945380D01*
X104489190Y-134945380D01*
X104584428Y-134897761D01*
X104632047Y-134850142D01*
X104679666Y-134754904D01*
X104679666Y-134516809D01*
X104632047Y-134421571D01*
X104584428Y-134373952D01*
X104489190Y-134326333D01*
X104298714Y-134326333D01*
X104203476Y-134373952D01*
X104155857Y-134421571D01*
X104108238Y-134516809D01*
X164973095Y-117562380D02*
X164973095Y-118371904D01*
X165020714Y-118467142D01*
X165068333Y-118514761D01*
X165163571Y-118562380D01*
X165354047Y-118562380D01*
X165449285Y-118514761D01*
X165496904Y-118467142D01*
X165544523Y-118371904D01*
X165544523Y-117562380D01*
X165925476Y-117562380D02*
X166544523Y-117562380D01*
X166211190Y-117943333D01*
X166354047Y-117943333D01*
X166449285Y-117990952D01*
X166496904Y-118038571D01*
X166544523Y-118133809D01*
X166544523Y-118371904D01*
X166496904Y-118467142D01*
X166449285Y-118514761D01*
X166354047Y-118562380D01*
X166068333Y-118562380D01*
X165973095Y-118514761D01*
X165925476Y-118467142D01*
X119888095Y-119467380D02*
X119888095Y-120276904D01*
X119935714Y-120372142D01*
X119983333Y-120419761D01*
X120078571Y-120467380D01*
X120269047Y-120467380D01*
X120364285Y-120419761D01*
X120411904Y-120372142D01*
X120459523Y-120276904D01*
X120459523Y-119467380D01*
X121364285Y-119800714D02*
X121364285Y-120467380D01*
X121126190Y-119419761D02*
X120888095Y-120134047D01*
X121507142Y-120134047D01*
X86026666Y-109307380D02*
X86026666Y-110021666D01*
X85979047Y-110164523D01*
X85883809Y-110259761D01*
X85740952Y-110307380D01*
X85645714Y-110307380D01*
X86979047Y-109307380D02*
X86502857Y-109307380D01*
X86455238Y-109783571D01*
X86502857Y-109735952D01*
X86598095Y-109688333D01*
X86836190Y-109688333D01*
X86931428Y-109735952D01*
X86979047Y-109783571D01*
X87026666Y-109878809D01*
X87026666Y-110116904D01*
X86979047Y-110212142D01*
X86931428Y-110259761D01*
X86836190Y-110307380D01*
X86598095Y-110307380D01*
X86502857Y-110259761D01*
X86455238Y-110212142D01*
D18*
X78062666Y-123338166D02*
X78062666Y-124057833D01*
X78105000Y-124142500D01*
X78147333Y-124184833D01*
X78232000Y-124227166D01*
X78401333Y-124227166D01*
X78486000Y-124184833D01*
X78528333Y-124142500D01*
X78570666Y-124057833D01*
X78570666Y-123338166D01*
X79459666Y-124227166D02*
X78951666Y-124227166D01*
X79205666Y-124227166D02*
X79205666Y-123338166D01*
X79121000Y-123465166D01*
X79036333Y-123549833D01*
X78951666Y-123592166D01*
D12*
X92543333Y-116562142D02*
X92495714Y-116609761D01*
X92352857Y-116657380D01*
X92257619Y-116657380D01*
X92114761Y-116609761D01*
X92019523Y-116514523D01*
X91971904Y-116419285D01*
X91924285Y-116228809D01*
X91924285Y-116085952D01*
X91971904Y-115895476D01*
X92019523Y-115800238D01*
X92114761Y-115705000D01*
X92257619Y-115657380D01*
X92352857Y-115657380D01*
X92495714Y-115705000D01*
X92543333Y-115752619D01*
X92924285Y-115752619D02*
X92971904Y-115705000D01*
X93067142Y-115657380D01*
X93305238Y-115657380D01*
X93400476Y-115705000D01*
X93448095Y-115752619D01*
X93495714Y-115847857D01*
X93495714Y-115943095D01*
X93448095Y-116085952D01*
X92876666Y-116657380D01*
X93495714Y-116657380D01*
X100203095Y-109307380D02*
X100203095Y-110116904D01*
X100250714Y-110212142D01*
X100298333Y-110259761D01*
X100393571Y-110307380D01*
X100584047Y-110307380D01*
X100679285Y-110259761D01*
X100726904Y-110212142D01*
X100774523Y-110116904D01*
X100774523Y-109307380D01*
X101203095Y-109402619D02*
X101250714Y-109355000D01*
X101345952Y-109307380D01*
X101584047Y-109307380D01*
X101679285Y-109355000D01*
X101726904Y-109402619D01*
X101774523Y-109497857D01*
X101774523Y-109593095D01*
X101726904Y-109735952D01*
X101155476Y-110307380D01*
X101774523Y-110307380D01*
X138263333Y-124912380D02*
X137930000Y-124436190D01*
X137691904Y-124912380D02*
X137691904Y-123912380D01*
X138072857Y-123912380D01*
X138168095Y-123960000D01*
X138215714Y-124007619D01*
X138263333Y-124102857D01*
X138263333Y-124245714D01*
X138215714Y-124340952D01*
X138168095Y-124388571D01*
X138072857Y-124436190D01*
X137691904Y-124436190D01*
X139120476Y-124245714D02*
X139120476Y-124912380D01*
X138882380Y-123864761D02*
X138644285Y-124579047D01*
X139263333Y-124579047D01*
X162393333Y-124912380D02*
X162060000Y-124436190D01*
X161821904Y-124912380D02*
X161821904Y-123912380D01*
X162202857Y-123912380D01*
X162298095Y-123960000D01*
X162345714Y-124007619D01*
X162393333Y-124102857D01*
X162393333Y-124245714D01*
X162345714Y-124340952D01*
X162298095Y-124388571D01*
X162202857Y-124436190D01*
X161821904Y-124436190D01*
X162726666Y-123912380D02*
X163345714Y-123912380D01*
X163012380Y-124293333D01*
X163155238Y-124293333D01*
X163250476Y-124340952D01*
X163298095Y-124388571D01*
X163345714Y-124483809D01*
X163345714Y-124721904D01*
X163298095Y-124817142D01*
X163250476Y-124864761D01*
X163155238Y-124912380D01*
X162869523Y-124912380D01*
X162774285Y-124864761D01*
X162726666Y-124817142D01*
X138263333Y-129992380D02*
X137930000Y-129516190D01*
X137691904Y-129992380D02*
X137691904Y-128992380D01*
X138072857Y-128992380D01*
X138168095Y-129040000D01*
X138215714Y-129087619D01*
X138263333Y-129182857D01*
X138263333Y-129325714D01*
X138215714Y-129420952D01*
X138168095Y-129468571D01*
X138072857Y-129516190D01*
X137691904Y-129516190D01*
X138644285Y-129087619D02*
X138691904Y-129040000D01*
X138787142Y-128992380D01*
X139025238Y-128992380D01*
X139120476Y-129040000D01*
X139168095Y-129087619D01*
X139215714Y-129182857D01*
X139215714Y-129278095D01*
X139168095Y-129420952D01*
X138596666Y-129992380D01*
X139215714Y-129992380D01*
X162393333Y-129992380D02*
X162060000Y-129516190D01*
X161821904Y-129992380D02*
X161821904Y-128992380D01*
X162202857Y-128992380D01*
X162298095Y-129040000D01*
X162345714Y-129087619D01*
X162393333Y-129182857D01*
X162393333Y-129325714D01*
X162345714Y-129420952D01*
X162298095Y-129468571D01*
X162202857Y-129516190D01*
X161821904Y-129516190D01*
X163345714Y-129992380D02*
X162774285Y-129992380D01*
X163060000Y-129992380D02*
X163060000Y-128992380D01*
X162964761Y-129135238D01*
X162869523Y-129230476D01*
X162774285Y-129278095D01*
X127936666Y-109307380D02*
X127936666Y-110021666D01*
X127889047Y-110164523D01*
X127793809Y-110259761D01*
X127650952Y-110307380D01*
X127555714Y-110307380D01*
X128555714Y-109735952D02*
X128460476Y-109688333D01*
X128412857Y-109640714D01*
X128365238Y-109545476D01*
X128365238Y-109497857D01*
X128412857Y-109402619D01*
X128460476Y-109355000D01*
X128555714Y-109307380D01*
X128746190Y-109307380D01*
X128841428Y-109355000D01*
X128889047Y-109402619D01*
X128936666Y-109497857D01*
X128936666Y-109545476D01*
X128889047Y-109640714D01*
X128841428Y-109688333D01*
X128746190Y-109735952D01*
X128555714Y-109735952D01*
X128460476Y-109783571D01*
X128412857Y-109831190D01*
X128365238Y-109926428D01*
X128365238Y-110116904D01*
X128412857Y-110212142D01*
X128460476Y-110259761D01*
X128555714Y-110307380D01*
X128746190Y-110307380D01*
X128841428Y-110259761D01*
X128889047Y-110212142D01*
X128936666Y-110116904D01*
X128936666Y-109926428D01*
X128889047Y-109831190D01*
X128841428Y-109783571D01*
X128746190Y-109735952D01*
X152066666Y-109307380D02*
X152066666Y-110021666D01*
X152019047Y-110164523D01*
X151923809Y-110259761D01*
X151780952Y-110307380D01*
X151685714Y-110307380D01*
X152447619Y-109307380D02*
X153114285Y-109307380D01*
X152685714Y-110307380D01*
X117776666Y-118197380D02*
X117776666Y-118911666D01*
X117729047Y-119054523D01*
X117633809Y-119149761D01*
X117490952Y-119197380D01*
X117395714Y-119197380D01*
X118681428Y-118530714D02*
X118681428Y-119197380D01*
X118443333Y-118149761D02*
X118205238Y-118864047D01*
X118824285Y-118864047D01*
X117776666Y-135977380D02*
X117776666Y-136691666D01*
X117729047Y-136834523D01*
X117633809Y-136929761D01*
X117490952Y-136977380D01*
X117395714Y-136977380D01*
X118157619Y-135977380D02*
X118776666Y-135977380D01*
X118443333Y-136358333D01*
X118586190Y-136358333D01*
X118681428Y-136405952D01*
X118729047Y-136453571D01*
X118776666Y-136548809D01*
X118776666Y-136786904D01*
X118729047Y-136882142D01*
X118681428Y-136929761D01*
X118586190Y-136977380D01*
X118300476Y-136977380D01*
X118205238Y-136929761D01*
X118157619Y-136882142D01*
X117776666Y-109307380D02*
X117776666Y-110021666D01*
X117729047Y-110164523D01*
X117633809Y-110259761D01*
X117490952Y-110307380D01*
X117395714Y-110307380D01*
X118776666Y-110307380D02*
X118205238Y-110307380D01*
X118490952Y-110307380D02*
X118490952Y-109307380D01*
X118395714Y-109450238D01*
X118300476Y-109545476D01*
X118205238Y-109593095D01*
X127468333Y-117197142D02*
X127420714Y-117244761D01*
X127277857Y-117292380D01*
X127182619Y-117292380D01*
X127039761Y-117244761D01*
X126944523Y-117149523D01*
X126896904Y-117054285D01*
X126849285Y-116863809D01*
X126849285Y-116720952D01*
X126896904Y-116530476D01*
X126944523Y-116435238D01*
X127039761Y-116340000D01*
X127182619Y-116292380D01*
X127277857Y-116292380D01*
X127420714Y-116340000D01*
X127468333Y-116387619D01*
X128325476Y-116625714D02*
X128325476Y-117292380D01*
X128087380Y-116244761D02*
X127849285Y-116959047D01*
X128468333Y-116959047D01*
X151598333Y-117197142D02*
X151550714Y-117244761D01*
X151407857Y-117292380D01*
X151312619Y-117292380D01*
X151169761Y-117244761D01*
X151074523Y-117149523D01*
X151026904Y-117054285D01*
X150979285Y-116863809D01*
X150979285Y-116720952D01*
X151026904Y-116530476D01*
X151074523Y-116435238D01*
X151169761Y-116340000D01*
X151312619Y-116292380D01*
X151407857Y-116292380D01*
X151550714Y-116340000D01*
X151598333Y-116387619D01*
X151931666Y-116292380D02*
X152550714Y-116292380D01*
X152217380Y-116673333D01*
X152360238Y-116673333D01*
X152455476Y-116720952D01*
X152503095Y-116768571D01*
X152550714Y-116863809D01*
X152550714Y-117101904D01*
X152503095Y-117197142D01*
X152455476Y-117244761D01*
X152360238Y-117292380D01*
X152074523Y-117292380D01*
X151979285Y-117244761D01*
X151931666Y-117197142D01*
X87463333Y-116562142D02*
X87415714Y-116609761D01*
X87272857Y-116657380D01*
X87177619Y-116657380D01*
X87034761Y-116609761D01*
X86939523Y-116514523D01*
X86891904Y-116419285D01*
X86844285Y-116228809D01*
X86844285Y-116085952D01*
X86891904Y-115895476D01*
X86939523Y-115800238D01*
X87034761Y-115705000D01*
X87177619Y-115657380D01*
X87272857Y-115657380D01*
X87415714Y-115705000D01*
X87463333Y-115752619D01*
X88415714Y-116657380D02*
X87844285Y-116657380D01*
X88130000Y-116657380D02*
X88130000Y-115657380D01*
X88034761Y-115800238D01*
X87939523Y-115895476D01*
X87844285Y-115943095D01*
M02*
