M48
INCH,TZ
T1C0.0236
T2C0.0315
T3C0.0374
T4C0.0394
T5C0.0400
T6C0.0433
T7C0.0598
%
G90
G05
T1
X34500Y-50250
X39250Y-47750
X49500Y-48250
X51200Y-49850
X58678Y-49850
T2
X34500Y-46500
X34500Y-47484
X36500Y-46500
X36500Y-47484
X48000Y-44500
X49378Y-44500
X50500Y-49000
X50500Y-51000
X53500Y-49000
X53500Y-51000
X57500Y-44500
X58878Y-44500
X60000Y-49000
X60000Y-51000
X63000Y-49000
X63000Y-51000
T3
X43000Y-47500
X43000Y-51000
X43000Y-54500
X43031Y-44000
X43984Y-47500
X43984Y-51000
X43984Y-54500
X44016Y-44000
X44969Y-47500
X44969Y-51000
X44969Y-54500
X45000Y-44000
X52000Y-44000
X52984Y-44000
X53969Y-44000
X54953Y-44000
X61500Y-44000
X62484Y-44000
X63469Y-44000
X64453Y-44000
T4
X32000Y-49500
X32000Y-55500
X33000Y-49500
X33000Y-55500
X34000Y-49500
X34000Y-55500
X35000Y-49500
X35000Y-55500
X36000Y-49500
X36000Y-55500
X37000Y-49500
X37000Y-55500
X38000Y-49500
X38000Y-55500
X41000Y-47850
X41000Y-48850
X41000Y-49850
X41000Y-50850
X41000Y-51850
T5
X48500Y-47500
X48500Y-50500
X48500Y-51500
X48500Y-52500
X49150Y-51000
X49500Y-47500
X49500Y-52500
X50500Y-47500
X50500Y-52500
X51500Y-47500
X51500Y-52500
X52500Y-47500
X52500Y-52500
X53500Y-47500
X53500Y-52500
X54500Y-47500
X54500Y-52500
X55500Y-47500
X55500Y-52500
X58000Y-47500
X58000Y-50500
X58000Y-51500
X58000Y-52500
X58650Y-51000
X59000Y-47500
X59000Y-52500
X60000Y-47500
X60000Y-52500
X61000Y-47500
X61000Y-52500
X62000Y-47500
X62000Y-52500
X63000Y-47500
X63000Y-52500
X64000Y-47500
X64000Y-52500
X65000Y-47500
X65000Y-52500
T6
X38000Y-44000
X38000Y-45000
X38000Y-46000
T7
X32000Y-44500
X32000Y-46500
T0
M30
