G04 #@! TF.GenerationSoftware,KiCad,Pcbnew,(5.1.9)-1*
G04 #@! TF.CreationDate,2021-06-02T16:44:23+02:00*
G04 #@! TF.ProjectId,ercf-ez-board,65726366-2d65-47a2-9d62-6f6172642e6b,v1.1*
G04 #@! TF.SameCoordinates,Original*
G04 #@! TF.FileFunction,Copper,L2,Bot*
G04 #@! TF.FilePolarity,Positive*
%FSLAX46Y46*%
G04 Gerber Fmt 4.6, Leading zero omitted, Abs format (unit mm)*
G04 Created by KiCad (PCBNEW (5.1.9)-1) date 2021-06-02 16:44:23*
%MOMM*%
%LPD*%
G01*
G04 APERTURE LIST*
G04 #@! TA.AperFunction,EtchedComponent*
%ADD10C,0.100000*%
G04 #@! TD*
G04 #@! TA.AperFunction,SMDPad,CuDef*
%ADD11C,0.100000*%
G04 #@! TD*
G04 #@! TA.AperFunction,ComponentPad*
%ADD12C,0.100000*%
G04 #@! TD*
G04 #@! TA.AperFunction,ComponentPad*
%ADD13O,1.700000X1.700000*%
G04 #@! TD*
G04 #@! TA.AperFunction,ComponentPad*
%ADD14R,1.700000X1.700000*%
G04 #@! TD*
G04 #@! TA.AperFunction,ComponentPad*
%ADD15C,3.000000*%
G04 #@! TD*
G04 #@! TA.AperFunction,ComponentPad*
%ADD16R,3.000000X3.000000*%
G04 #@! TD*
G04 #@! TA.AperFunction,ComponentPad*
%ADD17R,1.524000X1.524000*%
G04 #@! TD*
G04 #@! TA.AperFunction,ComponentPad*
%ADD18C,1.524000*%
G04 #@! TD*
G04 #@! TA.AperFunction,ComponentPad*
%ADD19O,1.700000X1.950000*%
G04 #@! TD*
G04 #@! TA.AperFunction,ComponentPad*
%ADD20C,1.600000*%
G04 #@! TD*
G04 #@! TA.AperFunction,ComponentPad*
%ADD21R,2.000000X1.905000*%
G04 #@! TD*
G04 #@! TA.AperFunction,ComponentPad*
%ADD22O,2.000000X1.905000*%
G04 #@! TD*
G04 #@! TA.AperFunction,ComponentPad*
%ADD23O,1.600000X1.600000*%
G04 #@! TD*
G04 #@! TA.AperFunction,ComponentPad*
%ADD24R,1.600000X1.600000*%
G04 #@! TD*
G04 #@! TA.AperFunction,ViaPad*
%ADD25C,1.000000*%
G04 #@! TD*
G04 #@! TA.AperFunction,Conductor*
%ADD26C,0.600000*%
G04 #@! TD*
G04 #@! TA.AperFunction,Conductor*
%ADD27C,0.250000*%
G04 #@! TD*
G04 #@! TA.AperFunction,Conductor*
%ADD28C,0.254000*%
G04 #@! TD*
G04 #@! TA.AperFunction,Conductor*
%ADD29C,0.100000*%
G04 #@! TD*
G04 APERTURE END LIST*
D10*
G36*
X130510000Y-131314000D02*
G01*
X130510000Y-130814000D01*
X131110000Y-130814000D01*
X131110000Y-131314000D01*
X130510000Y-131314000D01*
G37*
G36*
X154640000Y-131314000D02*
G01*
X154640000Y-130814000D01*
X155240000Y-130814000D01*
X155240000Y-131314000D01*
X154640000Y-131314000D01*
G37*
G04 #@! TA.AperFunction,SMDPad,CuDef*
D11*
G36*
X130060000Y-130914000D02*
G01*
X130060000Y-130414000D01*
X130060602Y-130414000D01*
X130060602Y-130389466D01*
X130065412Y-130340635D01*
X130074984Y-130292510D01*
X130089228Y-130245555D01*
X130108005Y-130200222D01*
X130131136Y-130156949D01*
X130158396Y-130116150D01*
X130189524Y-130078221D01*
X130224221Y-130043524D01*
X130262150Y-130012396D01*
X130302949Y-129985136D01*
X130346222Y-129962005D01*
X130391555Y-129943228D01*
X130438510Y-129928984D01*
X130486635Y-129919412D01*
X130535466Y-129914602D01*
X130560000Y-129914602D01*
X130560000Y-129914000D01*
X131060000Y-129914000D01*
X131060000Y-129914602D01*
X131084534Y-129914602D01*
X131133365Y-129919412D01*
X131181490Y-129928984D01*
X131228445Y-129943228D01*
X131273778Y-129962005D01*
X131317051Y-129985136D01*
X131357850Y-130012396D01*
X131395779Y-130043524D01*
X131430476Y-130078221D01*
X131461604Y-130116150D01*
X131488864Y-130156949D01*
X131511995Y-130200222D01*
X131530772Y-130245555D01*
X131545016Y-130292510D01*
X131554588Y-130340635D01*
X131559398Y-130389466D01*
X131559398Y-130414000D01*
X131560000Y-130414000D01*
X131560000Y-130914000D01*
X130060000Y-130914000D01*
G37*
G04 #@! TD.AperFunction*
G04 #@! TA.AperFunction,SMDPad,CuDef*
G36*
X131559398Y-131714000D02*
G01*
X131559398Y-131738534D01*
X131554588Y-131787365D01*
X131545016Y-131835490D01*
X131530772Y-131882445D01*
X131511995Y-131927778D01*
X131488864Y-131971051D01*
X131461604Y-132011850D01*
X131430476Y-132049779D01*
X131395779Y-132084476D01*
X131357850Y-132115604D01*
X131317051Y-132142864D01*
X131273778Y-132165995D01*
X131228445Y-132184772D01*
X131181490Y-132199016D01*
X131133365Y-132208588D01*
X131084534Y-132213398D01*
X131060000Y-132213398D01*
X131060000Y-132214000D01*
X130560000Y-132214000D01*
X130560000Y-132213398D01*
X130535466Y-132213398D01*
X130486635Y-132208588D01*
X130438510Y-132199016D01*
X130391555Y-132184772D01*
X130346222Y-132165995D01*
X130302949Y-132142864D01*
X130262150Y-132115604D01*
X130224221Y-132084476D01*
X130189524Y-132049779D01*
X130158396Y-132011850D01*
X130131136Y-131971051D01*
X130108005Y-131927778D01*
X130089228Y-131882445D01*
X130074984Y-131835490D01*
X130065412Y-131787365D01*
X130060602Y-131738534D01*
X130060602Y-131714000D01*
X130060000Y-131714000D01*
X130060000Y-131214000D01*
X131560000Y-131214000D01*
X131560000Y-131714000D01*
X131559398Y-131714000D01*
G37*
G04 #@! TD.AperFunction*
G04 #@! TA.AperFunction,SMDPad,CuDef*
G36*
X132600602Y-130414000D02*
G01*
X132600602Y-130389466D01*
X132605412Y-130340635D01*
X132614984Y-130292510D01*
X132629228Y-130245555D01*
X132648005Y-130200222D01*
X132671136Y-130156949D01*
X132698396Y-130116150D01*
X132729524Y-130078221D01*
X132764221Y-130043524D01*
X132802150Y-130012396D01*
X132842949Y-129985136D01*
X132886222Y-129962005D01*
X132931555Y-129943228D01*
X132978510Y-129928984D01*
X133026635Y-129919412D01*
X133075466Y-129914602D01*
X133100000Y-129914602D01*
X133100000Y-129914000D01*
X133600000Y-129914000D01*
X133600000Y-129914602D01*
X133624534Y-129914602D01*
X133673365Y-129919412D01*
X133721490Y-129928984D01*
X133768445Y-129943228D01*
X133813778Y-129962005D01*
X133857051Y-129985136D01*
X133897850Y-130012396D01*
X133935779Y-130043524D01*
X133970476Y-130078221D01*
X134001604Y-130116150D01*
X134028864Y-130156949D01*
X134051995Y-130200222D01*
X134070772Y-130245555D01*
X134085016Y-130292510D01*
X134094588Y-130340635D01*
X134099398Y-130389466D01*
X134099398Y-130414000D01*
X134100000Y-130414000D01*
X134100000Y-130914000D01*
X132600000Y-130914000D01*
X132600000Y-130414000D01*
X132600602Y-130414000D01*
G37*
G04 #@! TD.AperFunction*
G04 #@! TA.AperFunction,SMDPad,CuDef*
G36*
X134100000Y-131214000D02*
G01*
X134100000Y-131714000D01*
X134099398Y-131714000D01*
X134099398Y-131738534D01*
X134094588Y-131787365D01*
X134085016Y-131835490D01*
X134070772Y-131882445D01*
X134051995Y-131927778D01*
X134028864Y-131971051D01*
X134001604Y-132011850D01*
X133970476Y-132049779D01*
X133935779Y-132084476D01*
X133897850Y-132115604D01*
X133857051Y-132142864D01*
X133813778Y-132165995D01*
X133768445Y-132184772D01*
X133721490Y-132199016D01*
X133673365Y-132208588D01*
X133624534Y-132213398D01*
X133600000Y-132213398D01*
X133600000Y-132214000D01*
X133100000Y-132214000D01*
X133100000Y-132213398D01*
X133075466Y-132213398D01*
X133026635Y-132208588D01*
X132978510Y-132199016D01*
X132931555Y-132184772D01*
X132886222Y-132165995D01*
X132842949Y-132142864D01*
X132802150Y-132115604D01*
X132764221Y-132084476D01*
X132729524Y-132049779D01*
X132698396Y-132011850D01*
X132671136Y-131971051D01*
X132648005Y-131927778D01*
X132629228Y-131882445D01*
X132614984Y-131835490D01*
X132605412Y-131787365D01*
X132600602Y-131738534D01*
X132600602Y-131714000D01*
X132600000Y-131714000D01*
X132600000Y-131214000D01*
X134100000Y-131214000D01*
G37*
G04 #@! TD.AperFunction*
G04 #@! TA.AperFunction,SMDPad,CuDef*
G36*
X155689398Y-131714000D02*
G01*
X155689398Y-131738534D01*
X155684588Y-131787365D01*
X155675016Y-131835490D01*
X155660772Y-131882445D01*
X155641995Y-131927778D01*
X155618864Y-131971051D01*
X155591604Y-132011850D01*
X155560476Y-132049779D01*
X155525779Y-132084476D01*
X155487850Y-132115604D01*
X155447051Y-132142864D01*
X155403778Y-132165995D01*
X155358445Y-132184772D01*
X155311490Y-132199016D01*
X155263365Y-132208588D01*
X155214534Y-132213398D01*
X155190000Y-132213398D01*
X155190000Y-132214000D01*
X154690000Y-132214000D01*
X154690000Y-132213398D01*
X154665466Y-132213398D01*
X154616635Y-132208588D01*
X154568510Y-132199016D01*
X154521555Y-132184772D01*
X154476222Y-132165995D01*
X154432949Y-132142864D01*
X154392150Y-132115604D01*
X154354221Y-132084476D01*
X154319524Y-132049779D01*
X154288396Y-132011850D01*
X154261136Y-131971051D01*
X154238005Y-131927778D01*
X154219228Y-131882445D01*
X154204984Y-131835490D01*
X154195412Y-131787365D01*
X154190602Y-131738534D01*
X154190602Y-131714000D01*
X154190000Y-131714000D01*
X154190000Y-131214000D01*
X155690000Y-131214000D01*
X155690000Y-131714000D01*
X155689398Y-131714000D01*
G37*
G04 #@! TD.AperFunction*
G04 #@! TA.AperFunction,SMDPad,CuDef*
G36*
X154190000Y-130914000D02*
G01*
X154190000Y-130414000D01*
X154190602Y-130414000D01*
X154190602Y-130389466D01*
X154195412Y-130340635D01*
X154204984Y-130292510D01*
X154219228Y-130245555D01*
X154238005Y-130200222D01*
X154261136Y-130156949D01*
X154288396Y-130116150D01*
X154319524Y-130078221D01*
X154354221Y-130043524D01*
X154392150Y-130012396D01*
X154432949Y-129985136D01*
X154476222Y-129962005D01*
X154521555Y-129943228D01*
X154568510Y-129928984D01*
X154616635Y-129919412D01*
X154665466Y-129914602D01*
X154690000Y-129914602D01*
X154690000Y-129914000D01*
X155190000Y-129914000D01*
X155190000Y-129914602D01*
X155214534Y-129914602D01*
X155263365Y-129919412D01*
X155311490Y-129928984D01*
X155358445Y-129943228D01*
X155403778Y-129962005D01*
X155447051Y-129985136D01*
X155487850Y-130012396D01*
X155525779Y-130043524D01*
X155560476Y-130078221D01*
X155591604Y-130116150D01*
X155618864Y-130156949D01*
X155641995Y-130200222D01*
X155660772Y-130245555D01*
X155675016Y-130292510D01*
X155684588Y-130340635D01*
X155689398Y-130389466D01*
X155689398Y-130414000D01*
X155690000Y-130414000D01*
X155690000Y-130914000D01*
X154190000Y-130914000D01*
G37*
G04 #@! TD.AperFunction*
G04 #@! TA.AperFunction,SMDPad,CuDef*
G36*
X156730602Y-130414000D02*
G01*
X156730602Y-130389466D01*
X156735412Y-130340635D01*
X156744984Y-130292510D01*
X156759228Y-130245555D01*
X156778005Y-130200222D01*
X156801136Y-130156949D01*
X156828396Y-130116150D01*
X156859524Y-130078221D01*
X156894221Y-130043524D01*
X156932150Y-130012396D01*
X156972949Y-129985136D01*
X157016222Y-129962005D01*
X157061555Y-129943228D01*
X157108510Y-129928984D01*
X157156635Y-129919412D01*
X157205466Y-129914602D01*
X157230000Y-129914602D01*
X157230000Y-129914000D01*
X157730000Y-129914000D01*
X157730000Y-129914602D01*
X157754534Y-129914602D01*
X157803365Y-129919412D01*
X157851490Y-129928984D01*
X157898445Y-129943228D01*
X157943778Y-129962005D01*
X157987051Y-129985136D01*
X158027850Y-130012396D01*
X158065779Y-130043524D01*
X158100476Y-130078221D01*
X158131604Y-130116150D01*
X158158864Y-130156949D01*
X158181995Y-130200222D01*
X158200772Y-130245555D01*
X158215016Y-130292510D01*
X158224588Y-130340635D01*
X158229398Y-130389466D01*
X158229398Y-130414000D01*
X158230000Y-130414000D01*
X158230000Y-130914000D01*
X156730000Y-130914000D01*
X156730000Y-130414000D01*
X156730602Y-130414000D01*
G37*
G04 #@! TD.AperFunction*
G04 #@! TA.AperFunction,SMDPad,CuDef*
G36*
X158230000Y-131214000D02*
G01*
X158230000Y-131714000D01*
X158229398Y-131714000D01*
X158229398Y-131738534D01*
X158224588Y-131787365D01*
X158215016Y-131835490D01*
X158200772Y-131882445D01*
X158181995Y-131927778D01*
X158158864Y-131971051D01*
X158131604Y-132011850D01*
X158100476Y-132049779D01*
X158065779Y-132084476D01*
X158027850Y-132115604D01*
X157987051Y-132142864D01*
X157943778Y-132165995D01*
X157898445Y-132184772D01*
X157851490Y-132199016D01*
X157803365Y-132208588D01*
X157754534Y-132213398D01*
X157730000Y-132213398D01*
X157730000Y-132214000D01*
X157230000Y-132214000D01*
X157230000Y-132213398D01*
X157205466Y-132213398D01*
X157156635Y-132208588D01*
X157108510Y-132199016D01*
X157061555Y-132184772D01*
X157016222Y-132165995D01*
X156972949Y-132142864D01*
X156932150Y-132115604D01*
X156894221Y-132084476D01*
X156859524Y-132049779D01*
X156828396Y-132011850D01*
X156801136Y-131971051D01*
X156778005Y-131927778D01*
X156759228Y-131882445D01*
X156744984Y-131835490D01*
X156735412Y-131787365D01*
X156730602Y-131738534D01*
X156730602Y-131714000D01*
X156730000Y-131714000D01*
X156730000Y-131214000D01*
X158230000Y-131214000D01*
G37*
G04 #@! TD.AperFunction*
G04 #@! TA.AperFunction,ComponentPad*
D12*
G36*
X80214961Y-124196245D02*
G01*
X80217806Y-124186866D01*
X80222427Y-124178221D01*
X80228645Y-124170645D01*
X80736645Y-123662645D01*
X80744221Y-123656427D01*
X80752866Y-123651806D01*
X80762245Y-123648961D01*
X80772000Y-123648000D01*
X81788000Y-123648000D01*
X81797755Y-123648961D01*
X81807134Y-123651806D01*
X81815779Y-123656427D01*
X81823355Y-123662645D01*
X82331355Y-124170645D01*
X82337573Y-124178221D01*
X82342194Y-124186866D01*
X82345039Y-124196245D01*
X82346000Y-124206000D01*
X82346000Y-126238000D01*
X82345039Y-126247755D01*
X82342194Y-126257134D01*
X82337573Y-126265779D01*
X82331355Y-126273355D01*
X81823355Y-126781355D01*
X81815779Y-126787573D01*
X81807134Y-126792194D01*
X81797755Y-126795039D01*
X81788000Y-126796000D01*
X80772000Y-126796000D01*
X80762245Y-126795039D01*
X80752866Y-126792194D01*
X80744221Y-126787573D01*
X80736645Y-126781355D01*
X80228645Y-126273355D01*
X80222427Y-126265779D01*
X80217806Y-126257134D01*
X80214961Y-126247755D01*
X80214000Y-126238000D01*
X80214000Y-124206000D01*
X80214961Y-124196245D01*
G37*
G04 #@! TD.AperFunction*
G04 #@! TA.AperFunction,ComponentPad*
G36*
X85294961Y-124196245D02*
G01*
X85297806Y-124186866D01*
X85302427Y-124178221D01*
X85308645Y-124170645D01*
X85816645Y-123662645D01*
X85824221Y-123656427D01*
X85832866Y-123651806D01*
X85842245Y-123648961D01*
X85852000Y-123648000D01*
X86868000Y-123648000D01*
X86877755Y-123648961D01*
X86887134Y-123651806D01*
X86895779Y-123656427D01*
X86903355Y-123662645D01*
X87411355Y-124170645D01*
X87417573Y-124178221D01*
X87422194Y-124186866D01*
X87425039Y-124196245D01*
X87426000Y-124206000D01*
X87426000Y-126238000D01*
X87425039Y-126247755D01*
X87422194Y-126257134D01*
X87417573Y-126265779D01*
X87411355Y-126273355D01*
X86903355Y-126781355D01*
X86895779Y-126787573D01*
X86887134Y-126792194D01*
X86877755Y-126795039D01*
X86868000Y-126796000D01*
X85852000Y-126796000D01*
X85842245Y-126795039D01*
X85832866Y-126792194D01*
X85824221Y-126787573D01*
X85816645Y-126781355D01*
X85308645Y-126273355D01*
X85302427Y-126265779D01*
X85297806Y-126257134D01*
X85294961Y-126247755D01*
X85294000Y-126238000D01*
X85294000Y-124206000D01*
X85294961Y-124196245D01*
G37*
G04 #@! TD.AperFunction*
G04 #@! TA.AperFunction,ComponentPad*
G36*
X82754961Y-124196245D02*
G01*
X82757806Y-124186866D01*
X82762427Y-124178221D01*
X82768645Y-124170645D01*
X83276645Y-123662645D01*
X83284221Y-123656427D01*
X83292866Y-123651806D01*
X83302245Y-123648961D01*
X83312000Y-123648000D01*
X84328000Y-123648000D01*
X84337755Y-123648961D01*
X84347134Y-123651806D01*
X84355779Y-123656427D01*
X84363355Y-123662645D01*
X84871355Y-124170645D01*
X84877573Y-124178221D01*
X84882194Y-124186866D01*
X84885039Y-124196245D01*
X84886000Y-124206000D01*
X84886000Y-126238000D01*
X84885039Y-126247755D01*
X84882194Y-126257134D01*
X84877573Y-126265779D01*
X84871355Y-126273355D01*
X84363355Y-126781355D01*
X84355779Y-126787573D01*
X84347134Y-126792194D01*
X84337755Y-126795039D01*
X84328000Y-126796000D01*
X83312000Y-126796000D01*
X83302245Y-126795039D01*
X83292866Y-126792194D01*
X83284221Y-126787573D01*
X83276645Y-126781355D01*
X82768645Y-126273355D01*
X82762427Y-126265779D01*
X82757806Y-126257134D01*
X82754961Y-126247755D01*
X82754000Y-126238000D01*
X82754000Y-124206000D01*
X82754961Y-124196245D01*
G37*
G04 #@! TD.AperFunction*
G04 #@! TA.AperFunction,ComponentPad*
G36*
X87834961Y-124196245D02*
G01*
X87837806Y-124186866D01*
X87842427Y-124178221D01*
X87848645Y-124170645D01*
X88356645Y-123662645D01*
X88364221Y-123656427D01*
X88372866Y-123651806D01*
X88382245Y-123648961D01*
X88392000Y-123648000D01*
X89408000Y-123648000D01*
X89417755Y-123648961D01*
X89427134Y-123651806D01*
X89435779Y-123656427D01*
X89443355Y-123662645D01*
X89951355Y-124170645D01*
X89957573Y-124178221D01*
X89962194Y-124186866D01*
X89965039Y-124196245D01*
X89966000Y-124206000D01*
X89966000Y-126238000D01*
X89965039Y-126247755D01*
X89962194Y-126257134D01*
X89957573Y-126265779D01*
X89951355Y-126273355D01*
X89443355Y-126781355D01*
X89435779Y-126787573D01*
X89427134Y-126792194D01*
X89417755Y-126795039D01*
X89408000Y-126796000D01*
X88392000Y-126796000D01*
X88382245Y-126795039D01*
X88372866Y-126792194D01*
X88364221Y-126787573D01*
X88356645Y-126781355D01*
X87848645Y-126273355D01*
X87842427Y-126265779D01*
X87837806Y-126257134D01*
X87834961Y-126247755D01*
X87834000Y-126238000D01*
X87834000Y-124206000D01*
X87834961Y-124196245D01*
G37*
G04 #@! TD.AperFunction*
G04 #@! TA.AperFunction,ComponentPad*
G36*
X95454961Y-124196245D02*
G01*
X95457806Y-124186866D01*
X95462427Y-124178221D01*
X95468645Y-124170645D01*
X95976645Y-123662645D01*
X95984221Y-123656427D01*
X95992866Y-123651806D01*
X96002245Y-123648961D01*
X96012000Y-123648000D01*
X97028000Y-123648000D01*
X97037755Y-123648961D01*
X97047134Y-123651806D01*
X97055779Y-123656427D01*
X97063355Y-123662645D01*
X97571355Y-124170645D01*
X97577573Y-124178221D01*
X97582194Y-124186866D01*
X97585039Y-124196245D01*
X97586000Y-124206000D01*
X97586000Y-126238000D01*
X97585039Y-126247755D01*
X97582194Y-126257134D01*
X97577573Y-126265779D01*
X97571355Y-126273355D01*
X97063355Y-126781355D01*
X97055779Y-126787573D01*
X97047134Y-126792194D01*
X97037755Y-126795039D01*
X97028000Y-126796000D01*
X96012000Y-126796000D01*
X96002245Y-126795039D01*
X95992866Y-126792194D01*
X95984221Y-126787573D01*
X95976645Y-126781355D01*
X95468645Y-126273355D01*
X95462427Y-126265779D01*
X95457806Y-126257134D01*
X95454961Y-126247755D01*
X95454000Y-126238000D01*
X95454000Y-124206000D01*
X95454961Y-124196245D01*
G37*
G04 #@! TD.AperFunction*
G04 #@! TA.AperFunction,ComponentPad*
G36*
X92914961Y-124196245D02*
G01*
X92917806Y-124186866D01*
X92922427Y-124178221D01*
X92928645Y-124170645D01*
X93436645Y-123662645D01*
X93444221Y-123656427D01*
X93452866Y-123651806D01*
X93462245Y-123648961D01*
X93472000Y-123648000D01*
X94488000Y-123648000D01*
X94497755Y-123648961D01*
X94507134Y-123651806D01*
X94515779Y-123656427D01*
X94523355Y-123662645D01*
X95031355Y-124170645D01*
X95037573Y-124178221D01*
X95042194Y-124186866D01*
X95045039Y-124196245D01*
X95046000Y-124206000D01*
X95046000Y-126238000D01*
X95045039Y-126247755D01*
X95042194Y-126257134D01*
X95037573Y-126265779D01*
X95031355Y-126273355D01*
X94523355Y-126781355D01*
X94515779Y-126787573D01*
X94507134Y-126792194D01*
X94497755Y-126795039D01*
X94488000Y-126796000D01*
X93472000Y-126796000D01*
X93462245Y-126795039D01*
X93452866Y-126792194D01*
X93444221Y-126787573D01*
X93436645Y-126781355D01*
X92928645Y-126273355D01*
X92922427Y-126265779D01*
X92917806Y-126257134D01*
X92914961Y-126247755D01*
X92914000Y-126238000D01*
X92914000Y-124206000D01*
X92914961Y-124196245D01*
G37*
G04 #@! TD.AperFunction*
G04 #@! TA.AperFunction,ComponentPad*
G36*
X90374961Y-124196245D02*
G01*
X90377806Y-124186866D01*
X90382427Y-124178221D01*
X90388645Y-124170645D01*
X90896645Y-123662645D01*
X90904221Y-123656427D01*
X90912866Y-123651806D01*
X90922245Y-123648961D01*
X90932000Y-123648000D01*
X91948000Y-123648000D01*
X91957755Y-123648961D01*
X91967134Y-123651806D01*
X91975779Y-123656427D01*
X91983355Y-123662645D01*
X92491355Y-124170645D01*
X92497573Y-124178221D01*
X92502194Y-124186866D01*
X92505039Y-124196245D01*
X92506000Y-124206000D01*
X92506000Y-126238000D01*
X92505039Y-126247755D01*
X92502194Y-126257134D01*
X92497573Y-126265779D01*
X92491355Y-126273355D01*
X91983355Y-126781355D01*
X91975779Y-126787573D01*
X91967134Y-126792194D01*
X91957755Y-126795039D01*
X91948000Y-126796000D01*
X90932000Y-126796000D01*
X90922245Y-126795039D01*
X90912866Y-126792194D01*
X90904221Y-126787573D01*
X90896645Y-126781355D01*
X90388645Y-126273355D01*
X90382427Y-126265779D01*
X90377806Y-126257134D01*
X90374961Y-126247755D01*
X90374000Y-126238000D01*
X90374000Y-124206000D01*
X90374961Y-124196245D01*
G37*
G04 #@! TD.AperFunction*
G04 #@! TA.AperFunction,ComponentPad*
G36*
X95454961Y-140452245D02*
G01*
X95457806Y-140442866D01*
X95462427Y-140434221D01*
X95468645Y-140426645D01*
X95976645Y-139918645D01*
X95984221Y-139912427D01*
X95992866Y-139907806D01*
X96002245Y-139904961D01*
X96012000Y-139904000D01*
X97028000Y-139904000D01*
X97037755Y-139904961D01*
X97047134Y-139907806D01*
X97055779Y-139912427D01*
X97063355Y-139918645D01*
X97571355Y-140426645D01*
X97577573Y-140434221D01*
X97582194Y-140442866D01*
X97585039Y-140452245D01*
X97586000Y-140462000D01*
X97586000Y-142494000D01*
X97585039Y-142503755D01*
X97582194Y-142513134D01*
X97577573Y-142521779D01*
X97571355Y-142529355D01*
X97063355Y-143037355D01*
X97055779Y-143043573D01*
X97047134Y-143048194D01*
X97037755Y-143051039D01*
X97028000Y-143052000D01*
X96012000Y-143052000D01*
X96002245Y-143051039D01*
X95992866Y-143048194D01*
X95984221Y-143043573D01*
X95976645Y-143037355D01*
X95468645Y-142529355D01*
X95462427Y-142521779D01*
X95457806Y-142513134D01*
X95454961Y-142503755D01*
X95454000Y-142494000D01*
X95454000Y-140462000D01*
X95454961Y-140452245D01*
G37*
G04 #@! TD.AperFunction*
G04 #@! TA.AperFunction,ComponentPad*
G36*
X92914961Y-140452245D02*
G01*
X92917806Y-140442866D01*
X92922427Y-140434221D01*
X92928645Y-140426645D01*
X93436645Y-139918645D01*
X93444221Y-139912427D01*
X93452866Y-139907806D01*
X93462245Y-139904961D01*
X93472000Y-139904000D01*
X94488000Y-139904000D01*
X94497755Y-139904961D01*
X94507134Y-139907806D01*
X94515779Y-139912427D01*
X94523355Y-139918645D01*
X95031355Y-140426645D01*
X95037573Y-140434221D01*
X95042194Y-140442866D01*
X95045039Y-140452245D01*
X95046000Y-140462000D01*
X95046000Y-142494000D01*
X95045039Y-142503755D01*
X95042194Y-142513134D01*
X95037573Y-142521779D01*
X95031355Y-142529355D01*
X94523355Y-143037355D01*
X94515779Y-143043573D01*
X94507134Y-143048194D01*
X94497755Y-143051039D01*
X94488000Y-143052000D01*
X93472000Y-143052000D01*
X93462245Y-143051039D01*
X93452866Y-143048194D01*
X93444221Y-143043573D01*
X93436645Y-143037355D01*
X92928645Y-142529355D01*
X92922427Y-142521779D01*
X92917806Y-142513134D01*
X92914961Y-142503755D01*
X92914000Y-142494000D01*
X92914000Y-140462000D01*
X92914961Y-140452245D01*
G37*
G04 #@! TD.AperFunction*
G04 #@! TA.AperFunction,ComponentPad*
G36*
X90374961Y-140452245D02*
G01*
X90377806Y-140442866D01*
X90382427Y-140434221D01*
X90388645Y-140426645D01*
X90896645Y-139918645D01*
X90904221Y-139912427D01*
X90912866Y-139907806D01*
X90922245Y-139904961D01*
X90932000Y-139904000D01*
X91948000Y-139904000D01*
X91957755Y-139904961D01*
X91967134Y-139907806D01*
X91975779Y-139912427D01*
X91983355Y-139918645D01*
X92491355Y-140426645D01*
X92497573Y-140434221D01*
X92502194Y-140442866D01*
X92505039Y-140452245D01*
X92506000Y-140462000D01*
X92506000Y-142494000D01*
X92505039Y-142503755D01*
X92502194Y-142513134D01*
X92497573Y-142521779D01*
X92491355Y-142529355D01*
X91983355Y-143037355D01*
X91975779Y-143043573D01*
X91967134Y-143048194D01*
X91957755Y-143051039D01*
X91948000Y-143052000D01*
X90932000Y-143052000D01*
X90922245Y-143051039D01*
X90912866Y-143048194D01*
X90904221Y-143043573D01*
X90896645Y-143037355D01*
X90388645Y-142529355D01*
X90382427Y-142521779D01*
X90377806Y-142513134D01*
X90374961Y-142503755D01*
X90374000Y-142494000D01*
X90374000Y-140462000D01*
X90374961Y-140452245D01*
G37*
G04 #@! TD.AperFunction*
G04 #@! TA.AperFunction,ComponentPad*
G36*
X80214961Y-140452245D02*
G01*
X80217806Y-140442866D01*
X80222427Y-140434221D01*
X80228645Y-140426645D01*
X80736645Y-139918645D01*
X80744221Y-139912427D01*
X80752866Y-139907806D01*
X80762245Y-139904961D01*
X80772000Y-139904000D01*
X81788000Y-139904000D01*
X81797755Y-139904961D01*
X81807134Y-139907806D01*
X81815779Y-139912427D01*
X81823355Y-139918645D01*
X82331355Y-140426645D01*
X82337573Y-140434221D01*
X82342194Y-140442866D01*
X82345039Y-140452245D01*
X82346000Y-140462000D01*
X82346000Y-142494000D01*
X82345039Y-142503755D01*
X82342194Y-142513134D01*
X82337573Y-142521779D01*
X82331355Y-142529355D01*
X81823355Y-143037355D01*
X81815779Y-143043573D01*
X81807134Y-143048194D01*
X81797755Y-143051039D01*
X81788000Y-143052000D01*
X80772000Y-143052000D01*
X80762245Y-143051039D01*
X80752866Y-143048194D01*
X80744221Y-143043573D01*
X80736645Y-143037355D01*
X80228645Y-142529355D01*
X80222427Y-142521779D01*
X80217806Y-142513134D01*
X80214961Y-142503755D01*
X80214000Y-142494000D01*
X80214000Y-140462000D01*
X80214961Y-140452245D01*
G37*
G04 #@! TD.AperFunction*
G04 #@! TA.AperFunction,ComponentPad*
G36*
X82754961Y-140452245D02*
G01*
X82757806Y-140442866D01*
X82762427Y-140434221D01*
X82768645Y-140426645D01*
X83276645Y-139918645D01*
X83284221Y-139912427D01*
X83292866Y-139907806D01*
X83302245Y-139904961D01*
X83312000Y-139904000D01*
X84328000Y-139904000D01*
X84337755Y-139904961D01*
X84347134Y-139907806D01*
X84355779Y-139912427D01*
X84363355Y-139918645D01*
X84871355Y-140426645D01*
X84877573Y-140434221D01*
X84882194Y-140442866D01*
X84885039Y-140452245D01*
X84886000Y-140462000D01*
X84886000Y-142494000D01*
X84885039Y-142503755D01*
X84882194Y-142513134D01*
X84877573Y-142521779D01*
X84871355Y-142529355D01*
X84363355Y-143037355D01*
X84355779Y-143043573D01*
X84347134Y-143048194D01*
X84337755Y-143051039D01*
X84328000Y-143052000D01*
X83312000Y-143052000D01*
X83302245Y-143051039D01*
X83292866Y-143048194D01*
X83284221Y-143043573D01*
X83276645Y-143037355D01*
X82768645Y-142529355D01*
X82762427Y-142521779D01*
X82757806Y-142513134D01*
X82754961Y-142503755D01*
X82754000Y-142494000D01*
X82754000Y-140462000D01*
X82754961Y-140452245D01*
G37*
G04 #@! TD.AperFunction*
G04 #@! TA.AperFunction,ComponentPad*
G36*
X85294961Y-140452245D02*
G01*
X85297806Y-140442866D01*
X85302427Y-140434221D01*
X85308645Y-140426645D01*
X85816645Y-139918645D01*
X85824221Y-139912427D01*
X85832866Y-139907806D01*
X85842245Y-139904961D01*
X85852000Y-139904000D01*
X86868000Y-139904000D01*
X86877755Y-139904961D01*
X86887134Y-139907806D01*
X86895779Y-139912427D01*
X86903355Y-139918645D01*
X87411355Y-140426645D01*
X87417573Y-140434221D01*
X87422194Y-140442866D01*
X87425039Y-140452245D01*
X87426000Y-140462000D01*
X87426000Y-142494000D01*
X87425039Y-142503755D01*
X87422194Y-142513134D01*
X87417573Y-142521779D01*
X87411355Y-142529355D01*
X86903355Y-143037355D01*
X86895779Y-143043573D01*
X86887134Y-143048194D01*
X86877755Y-143051039D01*
X86868000Y-143052000D01*
X85852000Y-143052000D01*
X85842245Y-143051039D01*
X85832866Y-143048194D01*
X85824221Y-143043573D01*
X85816645Y-143037355D01*
X85308645Y-142529355D01*
X85302427Y-142521779D01*
X85297806Y-142513134D01*
X85294961Y-142503755D01*
X85294000Y-142494000D01*
X85294000Y-140462000D01*
X85294961Y-140452245D01*
G37*
G04 #@! TD.AperFunction*
G04 #@! TA.AperFunction,ComponentPad*
G36*
X87834961Y-140452245D02*
G01*
X87837806Y-140442866D01*
X87842427Y-140434221D01*
X87848645Y-140426645D01*
X88356645Y-139918645D01*
X88364221Y-139912427D01*
X88372866Y-139907806D01*
X88382245Y-139904961D01*
X88392000Y-139904000D01*
X89408000Y-139904000D01*
X89417755Y-139904961D01*
X89427134Y-139907806D01*
X89435779Y-139912427D01*
X89443355Y-139918645D01*
X89951355Y-140426645D01*
X89957573Y-140434221D01*
X89962194Y-140442866D01*
X89965039Y-140452245D01*
X89966000Y-140462000D01*
X89966000Y-142494000D01*
X89965039Y-142503755D01*
X89962194Y-142513134D01*
X89957573Y-142521779D01*
X89951355Y-142529355D01*
X89443355Y-143037355D01*
X89435779Y-143043573D01*
X89427134Y-143048194D01*
X89417755Y-143051039D01*
X89408000Y-143052000D01*
X88392000Y-143052000D01*
X88382245Y-143051039D01*
X88372866Y-143048194D01*
X88364221Y-143043573D01*
X88356645Y-143037355D01*
X87848645Y-142529355D01*
X87842427Y-142521779D01*
X87837806Y-142513134D01*
X87834961Y-142503755D01*
X87834000Y-142494000D01*
X87834000Y-140462000D01*
X87834961Y-140452245D01*
G37*
G04 #@! TD.AperFunction*
D13*
X104140000Y-121539000D03*
X104140000Y-124079000D03*
X104140000Y-126619000D03*
X104140000Y-129159000D03*
D14*
X104140000Y-131699000D03*
D15*
X81280000Y-113030000D03*
D16*
X81280000Y-118110000D03*
D17*
X140970000Y-133350000D03*
D18*
X138430000Y-133350000D03*
X135890000Y-133350000D03*
X133350000Y-133350000D03*
X130810000Y-133350000D03*
X128270000Y-133350000D03*
X125730000Y-133350000D03*
X123190000Y-133350000D03*
D17*
X123190000Y-120650000D03*
D18*
X125730000Y-120650000D03*
X128270000Y-120650000D03*
X130810000Y-120650000D03*
X133350000Y-120650000D03*
X135890000Y-120650000D03*
X138430000Y-120650000D03*
X140970000Y-120650000D03*
X123190000Y-130810000D03*
X123190000Y-128270000D03*
X124841000Y-129540000D03*
D17*
X165100000Y-133350000D03*
D18*
X162560000Y-133350000D03*
X160020000Y-133350000D03*
X157480000Y-133350000D03*
X154940000Y-133350000D03*
X152400000Y-133350000D03*
X149860000Y-133350000D03*
X147320000Y-133350000D03*
D17*
X147320000Y-120650000D03*
D18*
X149860000Y-120650000D03*
X152400000Y-120650000D03*
X154940000Y-120650000D03*
X157480000Y-120650000D03*
X160020000Y-120650000D03*
X162560000Y-120650000D03*
X165100000Y-120650000D03*
X147320000Y-130810000D03*
X147320000Y-128270000D03*
X148971000Y-129540000D03*
D19*
X114220000Y-129540000D03*
X111720000Y-129540000D03*
G04 #@! TA.AperFunction,ComponentPad*
G36*
G01*
X108370000Y-130265000D02*
X108370000Y-128815000D01*
G75*
G02*
X108620000Y-128565000I250000J0D01*
G01*
X109820000Y-128565000D01*
G75*
G02*
X110070000Y-128815000I0J-250000D01*
G01*
X110070000Y-130265000D01*
G75*
G02*
X109820000Y-130515000I-250000J0D01*
G01*
X108620000Y-130515000D01*
G75*
G02*
X108370000Y-130265000I0J250000D01*
G01*
G37*
G04 #@! TD.AperFunction*
D20*
X92710000Y-118110000D03*
X92710000Y-120610000D03*
D21*
X96520000Y-111760000D03*
D22*
X96520000Y-114300000D03*
X96520000Y-116840000D03*
D23*
X135890000Y-124460000D03*
D20*
X128270000Y-124460000D03*
D23*
X160020000Y-124460000D03*
D20*
X152400000Y-124460000D03*
D23*
X128270000Y-129540000D03*
D20*
X135890000Y-129540000D03*
D23*
X152400000Y-129540000D03*
D20*
X160020000Y-129540000D03*
G04 #@! TA.AperFunction,ComponentPad*
G36*
G01*
X131230000Y-112485000D02*
X131230000Y-111035000D01*
G75*
G02*
X131480000Y-110785000I250000J0D01*
G01*
X132680000Y-110785000D01*
G75*
G02*
X132930000Y-111035000I0J-250000D01*
G01*
X132930000Y-112485000D01*
G75*
G02*
X132680000Y-112735000I-250000J0D01*
G01*
X131480000Y-112735000D01*
G75*
G02*
X131230000Y-112485000I0J250000D01*
G01*
G37*
G04 #@! TD.AperFunction*
D19*
X134580000Y-111760000D03*
X137080000Y-111760000D03*
X139580000Y-111760000D03*
X163710000Y-111760000D03*
X161210000Y-111760000D03*
X158710000Y-111760000D03*
G04 #@! TA.AperFunction,ComponentPad*
G36*
G01*
X155360000Y-112485000D02*
X155360000Y-111035000D01*
G75*
G02*
X155610000Y-110785000I250000J0D01*
G01*
X156810000Y-110785000D01*
G75*
G02*
X157060000Y-111035000I0J-250000D01*
G01*
X157060000Y-112485000D01*
G75*
G02*
X156810000Y-112735000I-250000J0D01*
G01*
X155610000Y-112735000D01*
G75*
G02*
X155360000Y-112485000I0J250000D01*
G01*
G37*
G04 #@! TD.AperFunction*
X114220000Y-120650000D03*
X111720000Y-120650000D03*
G04 #@! TA.AperFunction,ComponentPad*
G36*
G01*
X108370000Y-121375000D02*
X108370000Y-119925000D01*
G75*
G02*
X108620000Y-119675000I250000J0D01*
G01*
X109820000Y-119675000D01*
G75*
G02*
X110070000Y-119925000I0J-250000D01*
G01*
X110070000Y-121375000D01*
G75*
G02*
X109820000Y-121625000I-250000J0D01*
G01*
X108620000Y-121625000D01*
G75*
G02*
X108370000Y-121375000I0J250000D01*
G01*
G37*
G04 #@! TD.AperFunction*
X114220000Y-138430000D03*
X111720000Y-138430000D03*
G04 #@! TA.AperFunction,ComponentPad*
G36*
G01*
X108370000Y-139155000D02*
X108370000Y-137705000D01*
G75*
G02*
X108620000Y-137455000I250000J0D01*
G01*
X109820000Y-137455000D01*
G75*
G02*
X110070000Y-137705000I0J-250000D01*
G01*
X110070000Y-139155000D01*
G75*
G02*
X109820000Y-139405000I-250000J0D01*
G01*
X108620000Y-139405000D01*
G75*
G02*
X108370000Y-139155000I0J250000D01*
G01*
G37*
G04 #@! TD.AperFunction*
X114300000Y-111760000D03*
X111800000Y-111760000D03*
G04 #@! TA.AperFunction,ComponentPad*
G36*
G01*
X108450000Y-112485000D02*
X108450000Y-111035000D01*
G75*
G02*
X108700000Y-110785000I250000J0D01*
G01*
X109900000Y-110785000D01*
G75*
G02*
X110150000Y-111035000I0J-250000D01*
G01*
X110150000Y-112485000D01*
G75*
G02*
X109900000Y-112735000I-250000J0D01*
G01*
X108700000Y-112735000D01*
G75*
G02*
X108450000Y-112485000I0J250000D01*
G01*
G37*
G04 #@! TD.AperFunction*
D20*
X125420000Y-113030000D03*
D24*
X121920000Y-113030000D03*
D20*
X149550000Y-113030000D03*
D24*
X146050000Y-113030000D03*
D20*
X87630000Y-120610000D03*
X87630000Y-118110000D03*
D25*
X140970000Y-124460000D03*
X165100000Y-124460000D03*
D26*
X114220000Y-137964202D02*
X114220000Y-138430000D01*
D27*
X91440000Y-125730000D02*
X91440000Y-123190000D01*
X100584000Y-122936000D02*
X91694000Y-122936000D01*
X101600000Y-121920000D02*
X100584000Y-122936000D01*
X91440000Y-123190000D02*
X91694000Y-122936000D01*
X109300000Y-111760000D02*
X102870000Y-111760000D01*
X102870000Y-111760000D02*
X101600000Y-113030000D01*
X101600000Y-113030000D02*
X101600000Y-121920000D01*
X125984000Y-126746000D02*
X125984000Y-130556000D01*
X128270000Y-124460000D02*
X125984000Y-126746000D01*
X123190000Y-133350000D02*
X125984000Y-130556000D01*
X88900000Y-140970000D02*
X88900000Y-139192000D01*
X88900000Y-139192000D02*
X90424000Y-137668000D01*
X90424000Y-137668000D02*
X99060000Y-137668000D01*
X99060000Y-137668000D02*
X101854000Y-140462000D01*
X123190000Y-134112000D02*
X123190000Y-133350000D01*
X116840000Y-140462000D02*
X123190000Y-134112000D01*
X101854000Y-140462000D02*
X116840000Y-140462000D01*
X149042001Y-126619000D02*
X154178000Y-126619000D01*
X154940000Y-127381000D02*
X154940000Y-130414000D01*
X154178000Y-126619000D02*
X154940000Y-127381000D01*
X149042001Y-126619000D02*
X132588000Y-126619000D01*
X133350000Y-127381000D02*
X132588000Y-126619000D01*
X133350000Y-130414000D02*
X133350000Y-127381000D01*
X130810000Y-127381010D02*
X130047990Y-126619000D01*
X130810000Y-130414000D02*
X130810000Y-127381010D01*
X132588000Y-126619000D02*
X130047990Y-126619000D01*
X157480000Y-127381000D02*
X156718000Y-126619000D01*
X157480000Y-130414000D02*
X157480000Y-127381000D01*
X149042001Y-126619000D02*
X156718000Y-126619000D01*
X132588000Y-126619000D02*
X130047990Y-126619000D01*
X124460705Y-133857295D02*
X124460705Y-133010533D01*
X117094000Y-141224000D02*
X124460705Y-133857295D01*
X101092000Y-141224000D02*
X117094000Y-141224000D01*
X101092000Y-141224000D02*
X98298000Y-138430000D01*
X91440000Y-140970000D02*
X91440000Y-139192000D01*
X91440000Y-139192000D02*
X92202000Y-138430000D01*
X92202000Y-138430000D02*
X98298000Y-138430000D01*
X127635000Y-126619000D02*
X130047990Y-126619000D01*
X126815010Y-127438990D02*
X127635000Y-126619000D01*
X126815010Y-130656228D02*
X126815010Y-127438990D01*
X124460705Y-133010533D02*
X126815010Y-130656228D01*
X124206000Y-135128000D02*
X117348000Y-141986000D01*
X136652000Y-135128000D02*
X124206000Y-135128000D01*
X117348000Y-141986000D02*
X100330000Y-141986000D01*
X138430000Y-133350000D02*
X136652000Y-135128000D01*
X100330000Y-141986000D02*
X97536000Y-139192000D01*
X93980000Y-140970000D02*
X93980000Y-139700000D01*
X94488000Y-139192000D02*
X97536000Y-139192000D01*
X93980000Y-139700000D02*
X94488000Y-139192000D01*
X97536000Y-142748000D02*
X96520000Y-141732000D01*
X117602000Y-142748000D02*
X97536000Y-142748000D01*
X140601430Y-136156430D02*
X124193570Y-136156430D01*
X140970000Y-133350000D02*
X140970000Y-135787860D01*
X140970000Y-135787860D02*
X140601430Y-136156430D01*
X124193570Y-136156430D02*
X117602000Y-142748000D01*
X164846000Y-133350000D02*
X165100000Y-133350000D01*
X104140000Y-126619000D02*
X105029000Y-125730000D01*
X123190000Y-128270000D02*
X120650000Y-125730000D01*
X105029000Y-125730000D02*
X120650000Y-125730000D01*
X157480000Y-131714000D02*
X157480000Y-133350000D01*
X154940000Y-131714000D02*
X154940000Y-133350000D01*
X133350000Y-131714000D02*
X133350000Y-133350000D01*
X130810000Y-131714000D02*
X130810000Y-133350000D01*
D28*
X165976204Y-108636815D02*
X166208226Y-108706867D01*
X166422222Y-108820650D01*
X166610041Y-108973832D01*
X166764530Y-109160577D01*
X166879801Y-109373769D01*
X166951472Y-109605300D01*
X166980001Y-109876734D01*
X166980000Y-126106684D01*
X157213958Y-126042854D01*
X157142276Y-125984026D01*
X157010247Y-125913454D01*
X156866986Y-125869997D01*
X156755333Y-125859000D01*
X156755322Y-125859000D01*
X156718000Y-125855324D01*
X156680678Y-125859000D01*
X154215322Y-125859000D01*
X154178000Y-125855324D01*
X154140678Y-125859000D01*
X152722317Y-125859000D01*
X152818574Y-125839853D01*
X153079727Y-125731680D01*
X153314759Y-125574637D01*
X153514637Y-125374759D01*
X153671680Y-125139727D01*
X153779853Y-124878574D01*
X153835000Y-124601335D01*
X153835000Y-124318665D01*
X158585000Y-124318665D01*
X158585000Y-124601335D01*
X158640147Y-124878574D01*
X158748320Y-125139727D01*
X158905363Y-125374759D01*
X159105241Y-125574637D01*
X159340273Y-125731680D01*
X159601426Y-125839853D01*
X159878665Y-125895000D01*
X160161335Y-125895000D01*
X160438574Y-125839853D01*
X160699727Y-125731680D01*
X160934759Y-125574637D01*
X161134637Y-125374759D01*
X161291680Y-125139727D01*
X161399853Y-124878574D01*
X161455000Y-124601335D01*
X161455000Y-124318665D01*
X161399853Y-124041426D01*
X161291680Y-123780273D01*
X161134637Y-123545241D01*
X160934759Y-123345363D01*
X160699727Y-123188320D01*
X160438574Y-123080147D01*
X160161335Y-123025000D01*
X159878665Y-123025000D01*
X159601426Y-123080147D01*
X159340273Y-123188320D01*
X159105241Y-123345363D01*
X158905363Y-123545241D01*
X158748320Y-123780273D01*
X158640147Y-124041426D01*
X158585000Y-124318665D01*
X153835000Y-124318665D01*
X153779853Y-124041426D01*
X153671680Y-123780273D01*
X153514637Y-123545241D01*
X153314759Y-123345363D01*
X153079727Y-123188320D01*
X152818574Y-123080147D01*
X152541335Y-123025000D01*
X152258665Y-123025000D01*
X151981426Y-123080147D01*
X151720273Y-123188320D01*
X151485241Y-123345363D01*
X151285363Y-123545241D01*
X151128320Y-123780273D01*
X151020147Y-124041426D01*
X150965000Y-124318665D01*
X150965000Y-124601335D01*
X151020147Y-124878574D01*
X151128320Y-125139727D01*
X151285363Y-125374759D01*
X151485241Y-125574637D01*
X151720273Y-125731680D01*
X151981426Y-125839853D01*
X152077683Y-125859000D01*
X136212317Y-125859000D01*
X136308574Y-125839853D01*
X136569727Y-125731680D01*
X136804759Y-125574637D01*
X137004637Y-125374759D01*
X137161680Y-125139727D01*
X137269853Y-124878574D01*
X137325000Y-124601335D01*
X137325000Y-124318665D01*
X137269853Y-124041426D01*
X137161680Y-123780273D01*
X137004637Y-123545241D01*
X136804759Y-123345363D01*
X136569727Y-123188320D01*
X136308574Y-123080147D01*
X136031335Y-123025000D01*
X135748665Y-123025000D01*
X135471426Y-123080147D01*
X135210273Y-123188320D01*
X134975241Y-123345363D01*
X134775363Y-123545241D01*
X134618320Y-123780273D01*
X134510147Y-124041426D01*
X134455000Y-124318665D01*
X134455000Y-124601335D01*
X134510147Y-124878574D01*
X134618320Y-125139727D01*
X134775363Y-125374759D01*
X134975241Y-125574637D01*
X135210273Y-125731680D01*
X135471426Y-125839853D01*
X135567683Y-125859000D01*
X132625322Y-125859000D01*
X132588000Y-125855324D01*
X132550678Y-125859000D01*
X130085312Y-125859000D01*
X130047990Y-125855324D01*
X130010668Y-125859000D01*
X129084370Y-125859000D01*
X128778830Y-125857003D01*
X128757096Y-125859000D01*
X128592317Y-125859000D01*
X128688574Y-125839853D01*
X128949727Y-125731680D01*
X129184759Y-125574637D01*
X129384637Y-125374759D01*
X129541680Y-125139727D01*
X129649853Y-124878574D01*
X129705000Y-124601335D01*
X129705000Y-124318665D01*
X129649853Y-124041426D01*
X129541680Y-123780273D01*
X129384637Y-123545241D01*
X129184759Y-123345363D01*
X128949727Y-123188320D01*
X128688574Y-123080147D01*
X128411335Y-123025000D01*
X128128665Y-123025000D01*
X127851426Y-123080147D01*
X127590273Y-123188320D01*
X127355241Y-123345363D01*
X127155363Y-123545241D01*
X126998320Y-123780273D01*
X126890147Y-124041426D01*
X126835000Y-124318665D01*
X126835000Y-124601335D01*
X126871312Y-124783886D01*
X125473003Y-126182196D01*
X125443999Y-126205999D01*
X125391474Y-126270001D01*
X125349026Y-126321724D01*
X125284549Y-126442351D01*
X125278454Y-126453754D01*
X125234997Y-126597015D01*
X125224000Y-126708668D01*
X125224000Y-126708678D01*
X125220324Y-126746000D01*
X125224000Y-126783323D01*
X125224000Y-128191815D01*
X124978592Y-128143000D01*
X124703408Y-128143000D01*
X124587000Y-128166155D01*
X124587000Y-128132408D01*
X124533314Y-127862510D01*
X124428005Y-127608273D01*
X124275120Y-127379465D01*
X124080535Y-127184880D01*
X123851727Y-127031995D01*
X123597490Y-126926686D01*
X123327592Y-126873000D01*
X123052408Y-126873000D01*
X122898430Y-126903628D01*
X121213804Y-125219003D01*
X121190001Y-125189999D01*
X121074276Y-125095026D01*
X120942247Y-125024454D01*
X120798986Y-124980997D01*
X120687333Y-124970000D01*
X120687322Y-124970000D01*
X120650000Y-124966324D01*
X120612678Y-124970000D01*
X105330647Y-124970000D01*
X105455990Y-124782411D01*
X105567932Y-124512158D01*
X105625000Y-124225260D01*
X105625000Y-123932740D01*
X105567932Y-123645842D01*
X105455990Y-123375589D01*
X105293475Y-123132368D01*
X105086632Y-122925525D01*
X104912240Y-122809000D01*
X105086632Y-122692475D01*
X105293475Y-122485632D01*
X105455990Y-122242411D01*
X105567932Y-121972158D01*
X105625000Y-121685260D01*
X105625000Y-121392740D01*
X105567932Y-121105842D01*
X105455990Y-120835589D01*
X105293475Y-120592368D01*
X105086632Y-120385525D01*
X104843411Y-120223010D01*
X104573158Y-120111068D01*
X104286260Y-120054000D01*
X103993740Y-120054000D01*
X103706842Y-120111068D01*
X103436589Y-120223010D01*
X103193368Y-120385525D01*
X102986525Y-120592368D01*
X102824010Y-120835589D01*
X102712068Y-121105842D01*
X102655000Y-121392740D01*
X102655000Y-121685260D01*
X102712068Y-121972158D01*
X102824010Y-122242411D01*
X102986525Y-122485632D01*
X103193368Y-122692475D01*
X103367760Y-122809000D01*
X103193368Y-122925525D01*
X102986525Y-123132368D01*
X102824010Y-123375589D01*
X102712068Y-123645842D01*
X102655000Y-123932740D01*
X102655000Y-124225260D01*
X102712068Y-124512158D01*
X102824010Y-124782411D01*
X102986525Y-125025632D01*
X103193368Y-125232475D01*
X103367760Y-125349000D01*
X103193368Y-125465525D01*
X102986525Y-125672368D01*
X102824010Y-125915589D01*
X102712068Y-126185842D01*
X102655000Y-126472740D01*
X102655000Y-126765260D01*
X102712068Y-127052158D01*
X102824010Y-127322411D01*
X102986525Y-127565632D01*
X103193368Y-127772475D01*
X103367760Y-127889000D01*
X103193368Y-128005525D01*
X102986525Y-128212368D01*
X102824010Y-128455589D01*
X102712068Y-128725842D01*
X102655000Y-129012740D01*
X102655000Y-129305260D01*
X102712068Y-129592158D01*
X102824010Y-129862411D01*
X102986525Y-130105632D01*
X103118380Y-130237487D01*
X103045820Y-130259498D01*
X102935506Y-130318463D01*
X102838815Y-130397815D01*
X102759463Y-130494506D01*
X102700498Y-130604820D01*
X102664188Y-130724518D01*
X102651928Y-130849000D01*
X102651928Y-132549000D01*
X102664188Y-132673482D01*
X102700498Y-132793180D01*
X102759463Y-132903494D01*
X102838815Y-133000185D01*
X102935506Y-133079537D01*
X103045820Y-133138502D01*
X103165518Y-133174812D01*
X103290000Y-133187072D01*
X104990000Y-133187072D01*
X105114482Y-133174812D01*
X105234180Y-133138502D01*
X105344494Y-133079537D01*
X105441185Y-133000185D01*
X105520537Y-132903494D01*
X105579502Y-132793180D01*
X105615812Y-132673482D01*
X105628072Y-132549000D01*
X105628072Y-130849000D01*
X105615812Y-130724518D01*
X105579502Y-130604820D01*
X105520537Y-130494506D01*
X105441185Y-130397815D01*
X105344494Y-130318463D01*
X105234180Y-130259498D01*
X105161620Y-130237487D01*
X105293475Y-130105632D01*
X105455990Y-129862411D01*
X105567932Y-129592158D01*
X105625000Y-129305260D01*
X105625000Y-129012740D01*
X105585667Y-128815000D01*
X107731928Y-128815000D01*
X107731928Y-130265000D01*
X107748992Y-130438254D01*
X107799528Y-130604850D01*
X107881595Y-130758386D01*
X107992038Y-130892962D01*
X108126614Y-131003405D01*
X108280150Y-131085472D01*
X108446746Y-131136008D01*
X108620000Y-131153072D01*
X109820000Y-131153072D01*
X109993254Y-131136008D01*
X110159850Y-131085472D01*
X110313386Y-131003405D01*
X110447962Y-130892962D01*
X110558405Y-130758386D01*
X110614714Y-130653039D01*
X110630951Y-130674429D01*
X110848807Y-130867496D01*
X111100142Y-131014352D01*
X111363110Y-131106476D01*
X111593000Y-130985155D01*
X111593000Y-129667000D01*
X111573000Y-129667000D01*
X111573000Y-129413000D01*
X111593000Y-129413000D01*
X111593000Y-128094845D01*
X111847000Y-128094845D01*
X111847000Y-129413000D01*
X111867000Y-129413000D01*
X111867000Y-129667000D01*
X111847000Y-129667000D01*
X111847000Y-130985155D01*
X112076890Y-131106476D01*
X112339858Y-131014352D01*
X112591193Y-130867496D01*
X112809049Y-130674429D01*
X112965538Y-130468278D01*
X112979294Y-130494014D01*
X113164866Y-130720134D01*
X113390987Y-130905706D01*
X113648967Y-131043599D01*
X113928890Y-131128513D01*
X114220000Y-131157185D01*
X114511111Y-131128513D01*
X114791034Y-131043599D01*
X115049014Y-130905706D01*
X115275134Y-130720134D01*
X115460706Y-130494014D01*
X115598599Y-130236033D01*
X115683513Y-129956110D01*
X115705000Y-129737949D01*
X115705000Y-129342050D01*
X115683513Y-129123889D01*
X115598599Y-128843966D01*
X115460706Y-128585986D01*
X115275134Y-128359866D01*
X115049013Y-128174294D01*
X114791033Y-128036401D01*
X114511110Y-127951487D01*
X114220000Y-127922815D01*
X113928889Y-127951487D01*
X113648966Y-128036401D01*
X113390986Y-128174294D01*
X113164866Y-128359866D01*
X112979294Y-128585987D01*
X112965538Y-128611722D01*
X112809049Y-128405571D01*
X112591193Y-128212504D01*
X112339858Y-128065648D01*
X112076890Y-127973524D01*
X111847000Y-128094845D01*
X111593000Y-128094845D01*
X111363110Y-127973524D01*
X111100142Y-128065648D01*
X110848807Y-128212504D01*
X110630951Y-128405571D01*
X110614714Y-128426961D01*
X110558405Y-128321614D01*
X110447962Y-128187038D01*
X110313386Y-128076595D01*
X110159850Y-127994528D01*
X109993254Y-127943992D01*
X109820000Y-127926928D01*
X108620000Y-127926928D01*
X108446746Y-127943992D01*
X108280150Y-127994528D01*
X108126614Y-128076595D01*
X107992038Y-128187038D01*
X107881595Y-128321614D01*
X107799528Y-128475150D01*
X107748992Y-128641746D01*
X107731928Y-128815000D01*
X105585667Y-128815000D01*
X105567932Y-128725842D01*
X105455990Y-128455589D01*
X105293475Y-128212368D01*
X105086632Y-128005525D01*
X104912240Y-127889000D01*
X105086632Y-127772475D01*
X105293475Y-127565632D01*
X105455990Y-127322411D01*
X105567932Y-127052158D01*
X105625000Y-126765260D01*
X105625000Y-126490000D01*
X120335199Y-126490000D01*
X121823628Y-127978430D01*
X121793000Y-128132408D01*
X121793000Y-128407592D01*
X121846686Y-128677490D01*
X121951995Y-128931727D01*
X122104880Y-129160535D01*
X122299465Y-129355120D01*
X122528273Y-129508005D01*
X122605515Y-129540000D01*
X122528273Y-129571995D01*
X122299465Y-129724880D01*
X122104880Y-129919465D01*
X121951995Y-130148273D01*
X121846686Y-130402510D01*
X121793000Y-130672408D01*
X121793000Y-130947592D01*
X121846686Y-131217490D01*
X121951995Y-131471727D01*
X122104880Y-131700535D01*
X122299465Y-131895120D01*
X122528273Y-132048005D01*
X122605515Y-132080000D01*
X122528273Y-132111995D01*
X122299465Y-132264880D01*
X122104880Y-132459465D01*
X121951995Y-132688273D01*
X121846686Y-132942510D01*
X121832571Y-133013469D01*
X115515986Y-139573000D01*
X115305609Y-139573000D01*
X115460706Y-139384014D01*
X115598599Y-139126033D01*
X115683513Y-138846110D01*
X115705000Y-138627949D01*
X115705000Y-138232050D01*
X115683513Y-138013889D01*
X115598599Y-137733966D01*
X115460706Y-137475986D01*
X115275134Y-137249866D01*
X115049013Y-137064294D01*
X114791033Y-136926401D01*
X114511110Y-136841487D01*
X114220000Y-136812815D01*
X113928889Y-136841487D01*
X113648966Y-136926401D01*
X113390986Y-137064294D01*
X113164866Y-137249866D01*
X112979294Y-137475987D01*
X112965538Y-137501722D01*
X112809049Y-137295571D01*
X112591193Y-137102504D01*
X112339858Y-136955648D01*
X112076890Y-136863524D01*
X111847000Y-136984845D01*
X111847000Y-138303000D01*
X111867000Y-138303000D01*
X111867000Y-138557000D01*
X111847000Y-138557000D01*
X111847000Y-138577000D01*
X111593000Y-138577000D01*
X111593000Y-138557000D01*
X111573000Y-138557000D01*
X111573000Y-138303000D01*
X111593000Y-138303000D01*
X111593000Y-136984845D01*
X111363110Y-136863524D01*
X111100142Y-136955648D01*
X110848807Y-137102504D01*
X110630951Y-137295571D01*
X110614714Y-137316961D01*
X110558405Y-137211614D01*
X110447962Y-137077038D01*
X110313386Y-136966595D01*
X110159850Y-136884528D01*
X109993254Y-136833992D01*
X109820000Y-136816928D01*
X108620000Y-136816928D01*
X108446746Y-136833992D01*
X108280150Y-136884528D01*
X108126614Y-136966595D01*
X107992038Y-137077038D01*
X107881595Y-137211614D01*
X107799528Y-137365150D01*
X107748992Y-137531746D01*
X107731928Y-137705000D01*
X107731928Y-139155000D01*
X107748992Y-139328254D01*
X107799528Y-139494850D01*
X107841300Y-139573000D01*
X102039802Y-139573000D01*
X99623804Y-137157003D01*
X99600001Y-137127999D01*
X99484276Y-137033026D01*
X99352247Y-136962454D01*
X99208986Y-136918997D01*
X99097333Y-136908000D01*
X99097322Y-136908000D01*
X99060000Y-136904324D01*
X99022678Y-136908000D01*
X90461322Y-136908000D01*
X90423999Y-136904324D01*
X90386676Y-136908000D01*
X90386667Y-136908000D01*
X90275014Y-136918997D01*
X90131753Y-136962454D01*
X89999724Y-137033026D01*
X89999722Y-137033027D01*
X89999723Y-137033027D01*
X89912996Y-137104201D01*
X89912992Y-137104205D01*
X89883999Y-137127999D01*
X89860205Y-137156992D01*
X88388998Y-138628201D01*
X88360000Y-138651999D01*
X88336202Y-138680997D01*
X88336201Y-138680998D01*
X88265026Y-138767724D01*
X88194454Y-138899754D01*
X88150998Y-139043015D01*
X88136324Y-139192000D01*
X88140001Y-139229332D01*
X88140001Y-139316944D01*
X88072073Y-139345081D01*
X88063428Y-139349702D01*
X87959411Y-139419208D01*
X87951835Y-139425426D01*
X87905460Y-139467460D01*
X87799920Y-139573000D01*
X87460080Y-139573000D01*
X87354540Y-139467460D01*
X87308165Y-139425426D01*
X87300589Y-139419208D01*
X87196572Y-139349702D01*
X87187927Y-139345081D01*
X87072351Y-139297208D01*
X87062972Y-139294363D01*
X86940311Y-139269963D01*
X86930556Y-139269002D01*
X86868000Y-139265928D01*
X85852000Y-139265928D01*
X85789444Y-139269002D01*
X85779689Y-139269963D01*
X85657028Y-139294363D01*
X85647649Y-139297208D01*
X85532073Y-139345081D01*
X85523428Y-139349702D01*
X85419411Y-139419208D01*
X85411835Y-139425426D01*
X85365460Y-139467460D01*
X85259920Y-139573000D01*
X84920080Y-139573000D01*
X84814540Y-139467460D01*
X84768165Y-139425426D01*
X84760589Y-139419208D01*
X84656572Y-139349702D01*
X84647927Y-139345081D01*
X84532351Y-139297208D01*
X84522972Y-139294363D01*
X84400311Y-139269963D01*
X84390556Y-139269002D01*
X84328000Y-139265928D01*
X83312000Y-139265928D01*
X83249444Y-139269002D01*
X83239689Y-139269963D01*
X83117028Y-139294363D01*
X83107649Y-139297208D01*
X82992073Y-139345081D01*
X82983428Y-139349702D01*
X82879411Y-139419208D01*
X82871835Y-139425426D01*
X82825460Y-139467460D01*
X82719920Y-139573000D01*
X82380080Y-139573000D01*
X82274540Y-139467460D01*
X82228165Y-139425426D01*
X82220589Y-139419208D01*
X82116572Y-139349702D01*
X82107927Y-139345081D01*
X81992351Y-139297208D01*
X81982972Y-139294363D01*
X81860311Y-139269963D01*
X81850556Y-139269002D01*
X81788000Y-139265928D01*
X80772000Y-139265928D01*
X80709444Y-139269002D01*
X80699689Y-139269963D01*
X80577028Y-139294363D01*
X80567649Y-139297208D01*
X80452073Y-139345081D01*
X80443428Y-139349702D01*
X80339411Y-139419208D01*
X80331835Y-139425426D01*
X80285460Y-139467460D01*
X80179920Y-139573000D01*
X77495000Y-139573000D01*
X77495000Y-124206000D01*
X79575928Y-124206000D01*
X79575928Y-126238000D01*
X79579002Y-126300556D01*
X79579963Y-126310311D01*
X79604363Y-126432972D01*
X79607208Y-126442351D01*
X79655081Y-126557927D01*
X79659702Y-126566572D01*
X79729208Y-126670589D01*
X79735426Y-126678165D01*
X79777460Y-126724540D01*
X80285460Y-127232540D01*
X80331835Y-127274574D01*
X80339411Y-127280792D01*
X80443428Y-127350298D01*
X80452073Y-127354919D01*
X80567649Y-127402792D01*
X80577028Y-127405637D01*
X80699689Y-127430037D01*
X80709444Y-127430998D01*
X80772000Y-127434072D01*
X81788000Y-127434072D01*
X81850556Y-127430998D01*
X81860311Y-127430037D01*
X81982972Y-127405637D01*
X81992351Y-127402792D01*
X82107927Y-127354919D01*
X82116572Y-127350298D01*
X82220589Y-127280792D01*
X82228165Y-127274574D01*
X82274540Y-127232540D01*
X82550000Y-126957080D01*
X82825460Y-127232540D01*
X82871835Y-127274574D01*
X82879411Y-127280792D01*
X82983428Y-127350298D01*
X82992073Y-127354919D01*
X83107649Y-127402792D01*
X83117028Y-127405637D01*
X83239689Y-127430037D01*
X83249444Y-127430998D01*
X83312000Y-127434072D01*
X84328000Y-127434072D01*
X84390556Y-127430998D01*
X84400311Y-127430037D01*
X84522972Y-127405637D01*
X84532351Y-127402792D01*
X84647927Y-127354919D01*
X84656572Y-127350298D01*
X84760589Y-127280792D01*
X84768165Y-127274574D01*
X84814540Y-127232540D01*
X85090000Y-126957080D01*
X85365460Y-127232540D01*
X85411835Y-127274574D01*
X85419411Y-127280792D01*
X85523428Y-127350298D01*
X85532073Y-127354919D01*
X85647649Y-127402792D01*
X85657028Y-127405637D01*
X85779689Y-127430037D01*
X85789444Y-127430998D01*
X85852000Y-127434072D01*
X86868000Y-127434072D01*
X86930556Y-127430998D01*
X86940311Y-127430037D01*
X87062972Y-127405637D01*
X87072351Y-127402792D01*
X87187927Y-127354919D01*
X87196572Y-127350298D01*
X87300589Y-127280792D01*
X87308165Y-127274574D01*
X87354540Y-127232540D01*
X87630000Y-126957080D01*
X87905460Y-127232540D01*
X87951835Y-127274574D01*
X87959411Y-127280792D01*
X88063428Y-127350298D01*
X88072073Y-127354919D01*
X88187649Y-127402792D01*
X88197028Y-127405637D01*
X88319689Y-127430037D01*
X88329444Y-127430998D01*
X88392000Y-127434072D01*
X89408000Y-127434072D01*
X89470556Y-127430998D01*
X89480311Y-127430037D01*
X89602972Y-127405637D01*
X89612351Y-127402792D01*
X89727927Y-127354919D01*
X89736572Y-127350298D01*
X89840589Y-127280792D01*
X89848165Y-127274574D01*
X89894540Y-127232540D01*
X90170000Y-126957080D01*
X90445460Y-127232540D01*
X90491835Y-127274574D01*
X90499411Y-127280792D01*
X90603428Y-127350298D01*
X90612073Y-127354919D01*
X90727649Y-127402792D01*
X90737028Y-127405637D01*
X90859689Y-127430037D01*
X90869444Y-127430998D01*
X90932000Y-127434072D01*
X91948000Y-127434072D01*
X92010556Y-127430998D01*
X92020311Y-127430037D01*
X92142972Y-127405637D01*
X92152351Y-127402792D01*
X92267927Y-127354919D01*
X92276572Y-127350298D01*
X92380589Y-127280792D01*
X92388165Y-127274574D01*
X92434540Y-127232540D01*
X92710000Y-126957080D01*
X92985460Y-127232540D01*
X93031835Y-127274574D01*
X93039411Y-127280792D01*
X93143428Y-127350298D01*
X93152073Y-127354919D01*
X93267649Y-127402792D01*
X93277028Y-127405637D01*
X93399689Y-127430037D01*
X93409444Y-127430998D01*
X93472000Y-127434072D01*
X94488000Y-127434072D01*
X94550556Y-127430998D01*
X94560311Y-127430037D01*
X94682972Y-127405637D01*
X94692351Y-127402792D01*
X94807927Y-127354919D01*
X94816572Y-127350298D01*
X94920589Y-127280792D01*
X94928165Y-127274574D01*
X94974540Y-127232540D01*
X95250000Y-126957080D01*
X95525460Y-127232540D01*
X95571835Y-127274574D01*
X95579411Y-127280792D01*
X95683428Y-127350298D01*
X95692073Y-127354919D01*
X95807649Y-127402792D01*
X95817028Y-127405637D01*
X95939689Y-127430037D01*
X95949444Y-127430998D01*
X96012000Y-127434072D01*
X97028000Y-127434072D01*
X97090556Y-127430998D01*
X97100311Y-127430037D01*
X97222972Y-127405637D01*
X97232351Y-127402792D01*
X97347927Y-127354919D01*
X97356572Y-127350298D01*
X97460589Y-127280792D01*
X97468165Y-127274574D01*
X97514540Y-127232540D01*
X98022540Y-126724540D01*
X98064574Y-126678165D01*
X98070792Y-126670589D01*
X98140298Y-126566572D01*
X98144919Y-126557927D01*
X98192792Y-126442351D01*
X98195637Y-126432972D01*
X98220037Y-126310311D01*
X98220998Y-126300556D01*
X98224072Y-126238000D01*
X98224072Y-124206000D01*
X98220998Y-124143444D01*
X98220037Y-124133689D01*
X98195637Y-124011028D01*
X98192792Y-124001649D01*
X98144919Y-123886073D01*
X98140298Y-123877428D01*
X98070792Y-123773411D01*
X98064574Y-123765835D01*
X98022540Y-123719460D01*
X97999080Y-123696000D01*
X100546678Y-123696000D01*
X100584000Y-123699676D01*
X100621322Y-123696000D01*
X100621333Y-123696000D01*
X100732986Y-123685003D01*
X100876247Y-123641546D01*
X101008276Y-123570974D01*
X101124001Y-123476001D01*
X101147804Y-123446998D01*
X102111003Y-122483799D01*
X102140001Y-122460001D01*
X102212057Y-122372201D01*
X102234974Y-122344277D01*
X102305546Y-122212247D01*
X102349003Y-122068986D01*
X102360000Y-121957333D01*
X102360000Y-121957323D01*
X102363676Y-121920000D01*
X102360000Y-121882678D01*
X102360000Y-119925000D01*
X107731928Y-119925000D01*
X107731928Y-121375000D01*
X107748992Y-121548254D01*
X107799528Y-121714850D01*
X107881595Y-121868386D01*
X107992038Y-122002962D01*
X108126614Y-122113405D01*
X108280150Y-122195472D01*
X108446746Y-122246008D01*
X108620000Y-122263072D01*
X109820000Y-122263072D01*
X109993254Y-122246008D01*
X110159850Y-122195472D01*
X110313386Y-122113405D01*
X110447962Y-122002962D01*
X110558405Y-121868386D01*
X110614714Y-121763039D01*
X110630951Y-121784429D01*
X110848807Y-121977496D01*
X111100142Y-122124352D01*
X111363110Y-122216476D01*
X111593000Y-122095155D01*
X111593000Y-120777000D01*
X111573000Y-120777000D01*
X111573000Y-120523000D01*
X111593000Y-120523000D01*
X111593000Y-119204845D01*
X111847000Y-119204845D01*
X111847000Y-120523000D01*
X111867000Y-120523000D01*
X111867000Y-120777000D01*
X111847000Y-120777000D01*
X111847000Y-122095155D01*
X112076890Y-122216476D01*
X112339858Y-122124352D01*
X112591193Y-121977496D01*
X112809049Y-121784429D01*
X112965538Y-121578278D01*
X112979294Y-121604014D01*
X113164866Y-121830134D01*
X113390987Y-122015706D01*
X113648967Y-122153599D01*
X113928890Y-122238513D01*
X114220000Y-122267185D01*
X114511111Y-122238513D01*
X114791034Y-122153599D01*
X115049014Y-122015706D01*
X115275134Y-121830134D01*
X115460706Y-121604014D01*
X115598599Y-121346033D01*
X115683513Y-121066110D01*
X115705000Y-120847949D01*
X115705000Y-120452050D01*
X115683513Y-120233889D01*
X115598599Y-119953966D01*
X115563340Y-119888000D01*
X121789928Y-119888000D01*
X121789928Y-121412000D01*
X121802188Y-121536482D01*
X121838498Y-121656180D01*
X121897463Y-121766494D01*
X121976815Y-121863185D01*
X122073506Y-121942537D01*
X122183820Y-122001502D01*
X122303518Y-122037812D01*
X122428000Y-122050072D01*
X123952000Y-122050072D01*
X124076482Y-122037812D01*
X124196180Y-122001502D01*
X124306494Y-121942537D01*
X124403185Y-121863185D01*
X124482537Y-121766494D01*
X124541502Y-121656180D01*
X124553822Y-121615565D01*
X124944040Y-121615565D01*
X125011020Y-121855656D01*
X125260048Y-121972756D01*
X125527135Y-122039023D01*
X125802017Y-122051910D01*
X126074133Y-122010922D01*
X126333023Y-121917636D01*
X126448980Y-121855656D01*
X126515960Y-121615565D01*
X125730000Y-120829605D01*
X124944040Y-121615565D01*
X124553822Y-121615565D01*
X124577812Y-121536482D01*
X124590072Y-121412000D01*
X124590072Y-121387317D01*
X124764435Y-121435960D01*
X125550395Y-120650000D01*
X125909605Y-120650000D01*
X126695565Y-121435960D01*
X126935656Y-121368980D01*
X126999485Y-121233240D01*
X127031995Y-121311727D01*
X127184880Y-121540535D01*
X127379465Y-121735120D01*
X127608273Y-121888005D01*
X127862510Y-121993314D01*
X128132408Y-122047000D01*
X128407592Y-122047000D01*
X128677490Y-121993314D01*
X128931727Y-121888005D01*
X129160535Y-121735120D01*
X129355120Y-121540535D01*
X129508005Y-121311727D01*
X129540000Y-121234485D01*
X129571995Y-121311727D01*
X129724880Y-121540535D01*
X129919465Y-121735120D01*
X130148273Y-121888005D01*
X130402510Y-121993314D01*
X130672408Y-122047000D01*
X130947592Y-122047000D01*
X131217490Y-121993314D01*
X131471727Y-121888005D01*
X131700535Y-121735120D01*
X131895120Y-121540535D01*
X132048005Y-121311727D01*
X132080000Y-121234485D01*
X132111995Y-121311727D01*
X132264880Y-121540535D01*
X132459465Y-121735120D01*
X132688273Y-121888005D01*
X132942510Y-121993314D01*
X133212408Y-122047000D01*
X133487592Y-122047000D01*
X133757490Y-121993314D01*
X134011727Y-121888005D01*
X134240535Y-121735120D01*
X134435120Y-121540535D01*
X134588005Y-121311727D01*
X134620000Y-121234485D01*
X134651995Y-121311727D01*
X134804880Y-121540535D01*
X134999465Y-121735120D01*
X135228273Y-121888005D01*
X135482510Y-121993314D01*
X135752408Y-122047000D01*
X136027592Y-122047000D01*
X136297490Y-121993314D01*
X136551727Y-121888005D01*
X136780535Y-121735120D01*
X136975120Y-121540535D01*
X137128005Y-121311727D01*
X137160000Y-121234485D01*
X137191995Y-121311727D01*
X137344880Y-121540535D01*
X137539465Y-121735120D01*
X137768273Y-121888005D01*
X138022510Y-121993314D01*
X138292408Y-122047000D01*
X138567592Y-122047000D01*
X138837490Y-121993314D01*
X139091727Y-121888005D01*
X139320535Y-121735120D01*
X139440090Y-121615565D01*
X140184040Y-121615565D01*
X140251020Y-121855656D01*
X140500048Y-121972756D01*
X140767135Y-122039023D01*
X141042017Y-122051910D01*
X141314133Y-122010922D01*
X141573023Y-121917636D01*
X141688980Y-121855656D01*
X141755960Y-121615565D01*
X140970000Y-120829605D01*
X140184040Y-121615565D01*
X139440090Y-121615565D01*
X139515120Y-121540535D01*
X139668005Y-121311727D01*
X139697692Y-121240057D01*
X139702364Y-121253023D01*
X139764344Y-121368980D01*
X140004435Y-121435960D01*
X140790395Y-120650000D01*
X141149605Y-120650000D01*
X141935565Y-121435960D01*
X142175656Y-121368980D01*
X142292756Y-121119952D01*
X142359023Y-120852865D01*
X142371910Y-120577983D01*
X142330922Y-120305867D01*
X142237636Y-120046977D01*
X142175656Y-119931020D01*
X142021451Y-119888000D01*
X145919928Y-119888000D01*
X145919928Y-121412000D01*
X145932188Y-121536482D01*
X145968498Y-121656180D01*
X146027463Y-121766494D01*
X146106815Y-121863185D01*
X146203506Y-121942537D01*
X146313820Y-122001502D01*
X146433518Y-122037812D01*
X146558000Y-122050072D01*
X148082000Y-122050072D01*
X148206482Y-122037812D01*
X148326180Y-122001502D01*
X148436494Y-121942537D01*
X148533185Y-121863185D01*
X148612537Y-121766494D01*
X148671502Y-121656180D01*
X148683822Y-121615565D01*
X149074040Y-121615565D01*
X149141020Y-121855656D01*
X149390048Y-121972756D01*
X149657135Y-122039023D01*
X149932017Y-122051910D01*
X150204133Y-122010922D01*
X150463023Y-121917636D01*
X150578980Y-121855656D01*
X150645960Y-121615565D01*
X149860000Y-120829605D01*
X149074040Y-121615565D01*
X148683822Y-121615565D01*
X148707812Y-121536482D01*
X148720072Y-121412000D01*
X148720072Y-121387317D01*
X148894435Y-121435960D01*
X149680395Y-120650000D01*
X150039605Y-120650000D01*
X150825565Y-121435960D01*
X151065656Y-121368980D01*
X151129485Y-121233240D01*
X151161995Y-121311727D01*
X151314880Y-121540535D01*
X151509465Y-121735120D01*
X151738273Y-121888005D01*
X151992510Y-121993314D01*
X152262408Y-122047000D01*
X152537592Y-122047000D01*
X152807490Y-121993314D01*
X153061727Y-121888005D01*
X153290535Y-121735120D01*
X153485120Y-121540535D01*
X153638005Y-121311727D01*
X153670000Y-121234485D01*
X153701995Y-121311727D01*
X153854880Y-121540535D01*
X154049465Y-121735120D01*
X154278273Y-121888005D01*
X154532510Y-121993314D01*
X154802408Y-122047000D01*
X155077592Y-122047000D01*
X155347490Y-121993314D01*
X155601727Y-121888005D01*
X155830535Y-121735120D01*
X156025120Y-121540535D01*
X156178005Y-121311727D01*
X156210000Y-121234485D01*
X156241995Y-121311727D01*
X156394880Y-121540535D01*
X156589465Y-121735120D01*
X156818273Y-121888005D01*
X157072510Y-121993314D01*
X157342408Y-122047000D01*
X157617592Y-122047000D01*
X157887490Y-121993314D01*
X158141727Y-121888005D01*
X158370535Y-121735120D01*
X158565120Y-121540535D01*
X158718005Y-121311727D01*
X158750000Y-121234485D01*
X158781995Y-121311727D01*
X158934880Y-121540535D01*
X159129465Y-121735120D01*
X159358273Y-121888005D01*
X159612510Y-121993314D01*
X159882408Y-122047000D01*
X160157592Y-122047000D01*
X160427490Y-121993314D01*
X160681727Y-121888005D01*
X160910535Y-121735120D01*
X161105120Y-121540535D01*
X161258005Y-121311727D01*
X161290000Y-121234485D01*
X161321995Y-121311727D01*
X161474880Y-121540535D01*
X161669465Y-121735120D01*
X161898273Y-121888005D01*
X162152510Y-121993314D01*
X162422408Y-122047000D01*
X162697592Y-122047000D01*
X162967490Y-121993314D01*
X163221727Y-121888005D01*
X163450535Y-121735120D01*
X163570090Y-121615565D01*
X164314040Y-121615565D01*
X164381020Y-121855656D01*
X164630048Y-121972756D01*
X164897135Y-122039023D01*
X165172017Y-122051910D01*
X165444133Y-122010922D01*
X165703023Y-121917636D01*
X165818980Y-121855656D01*
X165885960Y-121615565D01*
X165100000Y-120829605D01*
X164314040Y-121615565D01*
X163570090Y-121615565D01*
X163645120Y-121540535D01*
X163798005Y-121311727D01*
X163827692Y-121240057D01*
X163832364Y-121253023D01*
X163894344Y-121368980D01*
X164134435Y-121435960D01*
X164920395Y-120650000D01*
X165279605Y-120650000D01*
X166065565Y-121435960D01*
X166305656Y-121368980D01*
X166422756Y-121119952D01*
X166489023Y-120852865D01*
X166501910Y-120577983D01*
X166460922Y-120305867D01*
X166367636Y-120046977D01*
X166305656Y-119931020D01*
X166065565Y-119864040D01*
X165279605Y-120650000D01*
X164920395Y-120650000D01*
X164134435Y-119864040D01*
X163894344Y-119931020D01*
X163830515Y-120066760D01*
X163798005Y-119988273D01*
X163645120Y-119759465D01*
X163570090Y-119684435D01*
X164314040Y-119684435D01*
X165100000Y-120470395D01*
X165885960Y-119684435D01*
X165818980Y-119444344D01*
X165569952Y-119327244D01*
X165302865Y-119260977D01*
X165027983Y-119248090D01*
X164755867Y-119289078D01*
X164496977Y-119382364D01*
X164381020Y-119444344D01*
X164314040Y-119684435D01*
X163570090Y-119684435D01*
X163450535Y-119564880D01*
X163221727Y-119411995D01*
X162967490Y-119306686D01*
X162697592Y-119253000D01*
X162422408Y-119253000D01*
X162152510Y-119306686D01*
X161898273Y-119411995D01*
X161669465Y-119564880D01*
X161474880Y-119759465D01*
X161321995Y-119988273D01*
X161290000Y-120065515D01*
X161258005Y-119988273D01*
X161105120Y-119759465D01*
X160910535Y-119564880D01*
X160681727Y-119411995D01*
X160427490Y-119306686D01*
X160157592Y-119253000D01*
X159882408Y-119253000D01*
X159612510Y-119306686D01*
X159358273Y-119411995D01*
X159129465Y-119564880D01*
X158934880Y-119759465D01*
X158781995Y-119988273D01*
X158750000Y-120065515D01*
X158718005Y-119988273D01*
X158565120Y-119759465D01*
X158370535Y-119564880D01*
X158141727Y-119411995D01*
X157887490Y-119306686D01*
X157617592Y-119253000D01*
X157342408Y-119253000D01*
X157072510Y-119306686D01*
X156818273Y-119411995D01*
X156589465Y-119564880D01*
X156394880Y-119759465D01*
X156241995Y-119988273D01*
X156210000Y-120065515D01*
X156178005Y-119988273D01*
X156025120Y-119759465D01*
X155830535Y-119564880D01*
X155601727Y-119411995D01*
X155347490Y-119306686D01*
X155077592Y-119253000D01*
X154802408Y-119253000D01*
X154532510Y-119306686D01*
X154278273Y-119411995D01*
X154049465Y-119564880D01*
X153854880Y-119759465D01*
X153701995Y-119988273D01*
X153670000Y-120065515D01*
X153638005Y-119988273D01*
X153485120Y-119759465D01*
X153290535Y-119564880D01*
X153061727Y-119411995D01*
X152807490Y-119306686D01*
X152537592Y-119253000D01*
X152262408Y-119253000D01*
X151992510Y-119306686D01*
X151738273Y-119411995D01*
X151509465Y-119564880D01*
X151314880Y-119759465D01*
X151161995Y-119988273D01*
X151132308Y-120059943D01*
X151127636Y-120046977D01*
X151065656Y-119931020D01*
X150825565Y-119864040D01*
X150039605Y-120650000D01*
X149680395Y-120650000D01*
X148894435Y-119864040D01*
X148720072Y-119912683D01*
X148720072Y-119888000D01*
X148707812Y-119763518D01*
X148683823Y-119684435D01*
X149074040Y-119684435D01*
X149860000Y-120470395D01*
X150645960Y-119684435D01*
X150578980Y-119444344D01*
X150329952Y-119327244D01*
X150062865Y-119260977D01*
X149787983Y-119248090D01*
X149515867Y-119289078D01*
X149256977Y-119382364D01*
X149141020Y-119444344D01*
X149074040Y-119684435D01*
X148683823Y-119684435D01*
X148671502Y-119643820D01*
X148612537Y-119533506D01*
X148533185Y-119436815D01*
X148436494Y-119357463D01*
X148326180Y-119298498D01*
X148206482Y-119262188D01*
X148082000Y-119249928D01*
X146558000Y-119249928D01*
X146433518Y-119262188D01*
X146313820Y-119298498D01*
X146203506Y-119357463D01*
X146106815Y-119436815D01*
X146027463Y-119533506D01*
X145968498Y-119643820D01*
X145932188Y-119763518D01*
X145919928Y-119888000D01*
X142021451Y-119888000D01*
X141935565Y-119864040D01*
X141149605Y-120650000D01*
X140790395Y-120650000D01*
X140004435Y-119864040D01*
X139764344Y-119931020D01*
X139700515Y-120066760D01*
X139668005Y-119988273D01*
X139515120Y-119759465D01*
X139440090Y-119684435D01*
X140184040Y-119684435D01*
X140970000Y-120470395D01*
X141755960Y-119684435D01*
X141688980Y-119444344D01*
X141439952Y-119327244D01*
X141172865Y-119260977D01*
X140897983Y-119248090D01*
X140625867Y-119289078D01*
X140366977Y-119382364D01*
X140251020Y-119444344D01*
X140184040Y-119684435D01*
X139440090Y-119684435D01*
X139320535Y-119564880D01*
X139091727Y-119411995D01*
X138837490Y-119306686D01*
X138567592Y-119253000D01*
X138292408Y-119253000D01*
X138022510Y-119306686D01*
X137768273Y-119411995D01*
X137539465Y-119564880D01*
X137344880Y-119759465D01*
X137191995Y-119988273D01*
X137160000Y-120065515D01*
X137128005Y-119988273D01*
X136975120Y-119759465D01*
X136780535Y-119564880D01*
X136551727Y-119411995D01*
X136297490Y-119306686D01*
X136027592Y-119253000D01*
X135752408Y-119253000D01*
X135482510Y-119306686D01*
X135228273Y-119411995D01*
X134999465Y-119564880D01*
X134804880Y-119759465D01*
X134651995Y-119988273D01*
X134620000Y-120065515D01*
X134588005Y-119988273D01*
X134435120Y-119759465D01*
X134240535Y-119564880D01*
X134011727Y-119411995D01*
X133757490Y-119306686D01*
X133487592Y-119253000D01*
X133212408Y-119253000D01*
X132942510Y-119306686D01*
X132688273Y-119411995D01*
X132459465Y-119564880D01*
X132264880Y-119759465D01*
X132111995Y-119988273D01*
X132080000Y-120065515D01*
X132048005Y-119988273D01*
X131895120Y-119759465D01*
X131700535Y-119564880D01*
X131471727Y-119411995D01*
X131217490Y-119306686D01*
X130947592Y-119253000D01*
X130672408Y-119253000D01*
X130402510Y-119306686D01*
X130148273Y-119411995D01*
X129919465Y-119564880D01*
X129724880Y-119759465D01*
X129571995Y-119988273D01*
X129540000Y-120065515D01*
X129508005Y-119988273D01*
X129355120Y-119759465D01*
X129160535Y-119564880D01*
X128931727Y-119411995D01*
X128677490Y-119306686D01*
X128407592Y-119253000D01*
X128132408Y-119253000D01*
X127862510Y-119306686D01*
X127608273Y-119411995D01*
X127379465Y-119564880D01*
X127184880Y-119759465D01*
X127031995Y-119988273D01*
X127002308Y-120059943D01*
X126997636Y-120046977D01*
X126935656Y-119931020D01*
X126695565Y-119864040D01*
X125909605Y-120650000D01*
X125550395Y-120650000D01*
X124764435Y-119864040D01*
X124590072Y-119912683D01*
X124590072Y-119888000D01*
X124577812Y-119763518D01*
X124553823Y-119684435D01*
X124944040Y-119684435D01*
X125730000Y-120470395D01*
X126515960Y-119684435D01*
X126448980Y-119444344D01*
X126199952Y-119327244D01*
X125932865Y-119260977D01*
X125657983Y-119248090D01*
X125385867Y-119289078D01*
X125126977Y-119382364D01*
X125011020Y-119444344D01*
X124944040Y-119684435D01*
X124553823Y-119684435D01*
X124541502Y-119643820D01*
X124482537Y-119533506D01*
X124403185Y-119436815D01*
X124306494Y-119357463D01*
X124196180Y-119298498D01*
X124076482Y-119262188D01*
X123952000Y-119249928D01*
X122428000Y-119249928D01*
X122303518Y-119262188D01*
X122183820Y-119298498D01*
X122073506Y-119357463D01*
X121976815Y-119436815D01*
X121897463Y-119533506D01*
X121838498Y-119643820D01*
X121802188Y-119763518D01*
X121789928Y-119888000D01*
X115563340Y-119888000D01*
X115460706Y-119695986D01*
X115275134Y-119469866D01*
X115049013Y-119284294D01*
X114791033Y-119146401D01*
X114511110Y-119061487D01*
X114220000Y-119032815D01*
X113928889Y-119061487D01*
X113648966Y-119146401D01*
X113390986Y-119284294D01*
X113164866Y-119469866D01*
X112979294Y-119695987D01*
X112965538Y-119721722D01*
X112809049Y-119515571D01*
X112591193Y-119322504D01*
X112339858Y-119175648D01*
X112076890Y-119083524D01*
X111847000Y-119204845D01*
X111593000Y-119204845D01*
X111363110Y-119083524D01*
X111100142Y-119175648D01*
X110848807Y-119322504D01*
X110630951Y-119515571D01*
X110614714Y-119536961D01*
X110558405Y-119431614D01*
X110447962Y-119297038D01*
X110313386Y-119186595D01*
X110159850Y-119104528D01*
X109993254Y-119053992D01*
X109820000Y-119036928D01*
X108620000Y-119036928D01*
X108446746Y-119053992D01*
X108280150Y-119104528D01*
X108126614Y-119186595D01*
X107992038Y-119297038D01*
X107881595Y-119431614D01*
X107799528Y-119585150D01*
X107748992Y-119751746D01*
X107731928Y-119925000D01*
X102360000Y-119925000D01*
X102360000Y-113344801D01*
X103184802Y-112520000D01*
X107815375Y-112520000D01*
X107828992Y-112658254D01*
X107879528Y-112824850D01*
X107961595Y-112978386D01*
X108072038Y-113112962D01*
X108206614Y-113223405D01*
X108360150Y-113305472D01*
X108526746Y-113356008D01*
X108700000Y-113373072D01*
X109900000Y-113373072D01*
X110073254Y-113356008D01*
X110239850Y-113305472D01*
X110393386Y-113223405D01*
X110527962Y-113112962D01*
X110638405Y-112978386D01*
X110694714Y-112873039D01*
X110710951Y-112894429D01*
X110928807Y-113087496D01*
X111180142Y-113234352D01*
X111443110Y-113326476D01*
X111673000Y-113205155D01*
X111673000Y-111887000D01*
X111653000Y-111887000D01*
X111653000Y-111633000D01*
X111673000Y-111633000D01*
X111673000Y-110314845D01*
X111927000Y-110314845D01*
X111927000Y-111633000D01*
X111947000Y-111633000D01*
X111947000Y-111887000D01*
X111927000Y-111887000D01*
X111927000Y-113205155D01*
X112156890Y-113326476D01*
X112419858Y-113234352D01*
X112671193Y-113087496D01*
X112889049Y-112894429D01*
X113045538Y-112688278D01*
X113059294Y-112714014D01*
X113244866Y-112940134D01*
X113470987Y-113125706D01*
X113728967Y-113263599D01*
X114008890Y-113348513D01*
X114300000Y-113377185D01*
X114591111Y-113348513D01*
X114871034Y-113263599D01*
X115129014Y-113125706D01*
X115355134Y-112940134D01*
X115540706Y-112714014D01*
X115678599Y-112456033D01*
X115747165Y-112230000D01*
X120481928Y-112230000D01*
X120481928Y-113830000D01*
X120494188Y-113954482D01*
X120530498Y-114074180D01*
X120589463Y-114184494D01*
X120668815Y-114281185D01*
X120765506Y-114360537D01*
X120875820Y-114419502D01*
X120995518Y-114455812D01*
X121120000Y-114468072D01*
X122720000Y-114468072D01*
X122844482Y-114455812D01*
X122964180Y-114419502D01*
X123074494Y-114360537D01*
X123171185Y-114281185D01*
X123250537Y-114184494D01*
X123309502Y-114074180D01*
X123325117Y-114022702D01*
X124606903Y-114022702D01*
X124678486Y-114266671D01*
X124933996Y-114387571D01*
X125208184Y-114456300D01*
X125490512Y-114470217D01*
X125770130Y-114428787D01*
X126036292Y-114333603D01*
X126161514Y-114266671D01*
X126233097Y-114022702D01*
X125420000Y-113209605D01*
X124606903Y-114022702D01*
X123325117Y-114022702D01*
X123345812Y-113954482D01*
X123358072Y-113830000D01*
X123358072Y-113100512D01*
X123979783Y-113100512D01*
X124021213Y-113380130D01*
X124116397Y-113646292D01*
X124183329Y-113771514D01*
X124427298Y-113843097D01*
X125240395Y-113030000D01*
X125599605Y-113030000D01*
X126412702Y-113843097D01*
X126656671Y-113771514D01*
X126777571Y-113516004D01*
X126846300Y-113241816D01*
X126860217Y-112959488D01*
X126818787Y-112679870D01*
X126723603Y-112413708D01*
X126656671Y-112288486D01*
X126412702Y-112216903D01*
X125599605Y-113030000D01*
X125240395Y-113030000D01*
X124427298Y-112216903D01*
X124183329Y-112288486D01*
X124062429Y-112543996D01*
X123993700Y-112818184D01*
X123979783Y-113100512D01*
X123358072Y-113100512D01*
X123358072Y-112230000D01*
X123345812Y-112105518D01*
X123325118Y-112037298D01*
X124606903Y-112037298D01*
X125420000Y-112850395D01*
X126233097Y-112037298D01*
X126161514Y-111793329D01*
X125906004Y-111672429D01*
X125631816Y-111603700D01*
X125349488Y-111589783D01*
X125069870Y-111631213D01*
X124803708Y-111726397D01*
X124678486Y-111793329D01*
X124606903Y-112037298D01*
X123325118Y-112037298D01*
X123309502Y-111985820D01*
X123250537Y-111875506D01*
X123171185Y-111778815D01*
X123074494Y-111699463D01*
X122964180Y-111640498D01*
X122844482Y-111604188D01*
X122720000Y-111591928D01*
X121120000Y-111591928D01*
X120995518Y-111604188D01*
X120875820Y-111640498D01*
X120765506Y-111699463D01*
X120668815Y-111778815D01*
X120589463Y-111875506D01*
X120530498Y-111985820D01*
X120494188Y-112105518D01*
X120481928Y-112230000D01*
X115747165Y-112230000D01*
X115763513Y-112176110D01*
X115785000Y-111957949D01*
X115785000Y-111562050D01*
X115763513Y-111343889D01*
X115678599Y-111063966D01*
X115663117Y-111035000D01*
X130591928Y-111035000D01*
X130591928Y-112485000D01*
X130608992Y-112658254D01*
X130659528Y-112824850D01*
X130741595Y-112978386D01*
X130852038Y-113112962D01*
X130986614Y-113223405D01*
X131140150Y-113305472D01*
X131306746Y-113356008D01*
X131480000Y-113373072D01*
X132680000Y-113373072D01*
X132853254Y-113356008D01*
X133019850Y-113305472D01*
X133173386Y-113223405D01*
X133307962Y-113112962D01*
X133418405Y-112978386D01*
X133472777Y-112876663D01*
X133524866Y-112940134D01*
X133750987Y-113125706D01*
X134008967Y-113263599D01*
X134288890Y-113348513D01*
X134580000Y-113377185D01*
X134871111Y-113348513D01*
X135151034Y-113263599D01*
X135409014Y-113125706D01*
X135635134Y-112940134D01*
X135820706Y-112714014D01*
X135830000Y-112696626D01*
X135839294Y-112714014D01*
X136024866Y-112940134D01*
X136250987Y-113125706D01*
X136508967Y-113263599D01*
X136788890Y-113348513D01*
X137080000Y-113377185D01*
X137371111Y-113348513D01*
X137651034Y-113263599D01*
X137909014Y-113125706D01*
X138135134Y-112940134D01*
X138320706Y-112714014D01*
X138330000Y-112696626D01*
X138339294Y-112714014D01*
X138524866Y-112940134D01*
X138750987Y-113125706D01*
X139008967Y-113263599D01*
X139288890Y-113348513D01*
X139580000Y-113377185D01*
X139871111Y-113348513D01*
X140151034Y-113263599D01*
X140409014Y-113125706D01*
X140635134Y-112940134D01*
X140820706Y-112714014D01*
X140958599Y-112456033D01*
X141027165Y-112230000D01*
X144611928Y-112230000D01*
X144611928Y-113830000D01*
X144624188Y-113954482D01*
X144660498Y-114074180D01*
X144719463Y-114184494D01*
X144798815Y-114281185D01*
X144895506Y-114360537D01*
X145005820Y-114419502D01*
X145125518Y-114455812D01*
X145250000Y-114468072D01*
X146850000Y-114468072D01*
X146974482Y-114455812D01*
X147094180Y-114419502D01*
X147204494Y-114360537D01*
X147301185Y-114281185D01*
X147380537Y-114184494D01*
X147439502Y-114074180D01*
X147455117Y-114022702D01*
X148736903Y-114022702D01*
X148808486Y-114266671D01*
X149063996Y-114387571D01*
X149338184Y-114456300D01*
X149620512Y-114470217D01*
X149900130Y-114428787D01*
X150166292Y-114333603D01*
X150291514Y-114266671D01*
X150363097Y-114022702D01*
X149550000Y-113209605D01*
X148736903Y-114022702D01*
X147455117Y-114022702D01*
X147475812Y-113954482D01*
X147488072Y-113830000D01*
X147488072Y-113100512D01*
X148109783Y-113100512D01*
X148151213Y-113380130D01*
X148246397Y-113646292D01*
X148313329Y-113771514D01*
X148557298Y-113843097D01*
X149370395Y-113030000D01*
X149729605Y-113030000D01*
X150542702Y-113843097D01*
X150786671Y-113771514D01*
X150907571Y-113516004D01*
X150976300Y-113241816D01*
X150990217Y-112959488D01*
X150948787Y-112679870D01*
X150853603Y-112413708D01*
X150786671Y-112288486D01*
X150542702Y-112216903D01*
X149729605Y-113030000D01*
X149370395Y-113030000D01*
X148557298Y-112216903D01*
X148313329Y-112288486D01*
X148192429Y-112543996D01*
X148123700Y-112818184D01*
X148109783Y-113100512D01*
X147488072Y-113100512D01*
X147488072Y-112230000D01*
X147475812Y-112105518D01*
X147455118Y-112037298D01*
X148736903Y-112037298D01*
X149550000Y-112850395D01*
X150363097Y-112037298D01*
X150291514Y-111793329D01*
X150036004Y-111672429D01*
X149761816Y-111603700D01*
X149479488Y-111589783D01*
X149199870Y-111631213D01*
X148933708Y-111726397D01*
X148808486Y-111793329D01*
X148736903Y-112037298D01*
X147455118Y-112037298D01*
X147439502Y-111985820D01*
X147380537Y-111875506D01*
X147301185Y-111778815D01*
X147204494Y-111699463D01*
X147094180Y-111640498D01*
X146974482Y-111604188D01*
X146850000Y-111591928D01*
X145250000Y-111591928D01*
X145125518Y-111604188D01*
X145005820Y-111640498D01*
X144895506Y-111699463D01*
X144798815Y-111778815D01*
X144719463Y-111875506D01*
X144660498Y-111985820D01*
X144624188Y-112105518D01*
X144611928Y-112230000D01*
X141027165Y-112230000D01*
X141043513Y-112176110D01*
X141065000Y-111957949D01*
X141065000Y-111562050D01*
X141043513Y-111343889D01*
X140958599Y-111063966D01*
X140943117Y-111035000D01*
X154721928Y-111035000D01*
X154721928Y-112485000D01*
X154738992Y-112658254D01*
X154789528Y-112824850D01*
X154871595Y-112978386D01*
X154982038Y-113112962D01*
X155116614Y-113223405D01*
X155270150Y-113305472D01*
X155436746Y-113356008D01*
X155610000Y-113373072D01*
X156810000Y-113373072D01*
X156983254Y-113356008D01*
X157149850Y-113305472D01*
X157303386Y-113223405D01*
X157437962Y-113112962D01*
X157548405Y-112978386D01*
X157602777Y-112876663D01*
X157654866Y-112940134D01*
X157880987Y-113125706D01*
X158138967Y-113263599D01*
X158418890Y-113348513D01*
X158710000Y-113377185D01*
X159001111Y-113348513D01*
X159281034Y-113263599D01*
X159539014Y-113125706D01*
X159765134Y-112940134D01*
X159950706Y-112714014D01*
X159960000Y-112696626D01*
X159969294Y-112714014D01*
X160154866Y-112940134D01*
X160380987Y-113125706D01*
X160638967Y-113263599D01*
X160918890Y-113348513D01*
X161210000Y-113377185D01*
X161501111Y-113348513D01*
X161781034Y-113263599D01*
X162039014Y-113125706D01*
X162265134Y-112940134D01*
X162450706Y-112714014D01*
X162460000Y-112696626D01*
X162469294Y-112714014D01*
X162654866Y-112940134D01*
X162880987Y-113125706D01*
X163138967Y-113263599D01*
X163418890Y-113348513D01*
X163710000Y-113377185D01*
X164001111Y-113348513D01*
X164281034Y-113263599D01*
X164539014Y-113125706D01*
X164765134Y-112940134D01*
X164950706Y-112714014D01*
X165088599Y-112456033D01*
X165173513Y-112176110D01*
X165195000Y-111957949D01*
X165195000Y-111562050D01*
X165173513Y-111343889D01*
X165088599Y-111063966D01*
X164950706Y-110805986D01*
X164765134Y-110579866D01*
X164539013Y-110394294D01*
X164281033Y-110256401D01*
X164001110Y-110171487D01*
X163710000Y-110142815D01*
X163418889Y-110171487D01*
X163138966Y-110256401D01*
X162880986Y-110394294D01*
X162654866Y-110579866D01*
X162469294Y-110805987D01*
X162460000Y-110823374D01*
X162450706Y-110805986D01*
X162265134Y-110579866D01*
X162039013Y-110394294D01*
X161781033Y-110256401D01*
X161501110Y-110171487D01*
X161210000Y-110142815D01*
X160918889Y-110171487D01*
X160638966Y-110256401D01*
X160380986Y-110394294D01*
X160154866Y-110579866D01*
X159969294Y-110805987D01*
X159960000Y-110823374D01*
X159950706Y-110805986D01*
X159765134Y-110579866D01*
X159539013Y-110394294D01*
X159281033Y-110256401D01*
X159001110Y-110171487D01*
X158710000Y-110142815D01*
X158418889Y-110171487D01*
X158138966Y-110256401D01*
X157880986Y-110394294D01*
X157654866Y-110579866D01*
X157602777Y-110643337D01*
X157548405Y-110541614D01*
X157437962Y-110407038D01*
X157303386Y-110296595D01*
X157149850Y-110214528D01*
X156983254Y-110163992D01*
X156810000Y-110146928D01*
X155610000Y-110146928D01*
X155436746Y-110163992D01*
X155270150Y-110214528D01*
X155116614Y-110296595D01*
X154982038Y-110407038D01*
X154871595Y-110541614D01*
X154789528Y-110695150D01*
X154738992Y-110861746D01*
X154721928Y-111035000D01*
X140943117Y-111035000D01*
X140820706Y-110805986D01*
X140635134Y-110579866D01*
X140409013Y-110394294D01*
X140151033Y-110256401D01*
X139871110Y-110171487D01*
X139580000Y-110142815D01*
X139288889Y-110171487D01*
X139008966Y-110256401D01*
X138750986Y-110394294D01*
X138524866Y-110579866D01*
X138339294Y-110805987D01*
X138330000Y-110823374D01*
X138320706Y-110805986D01*
X138135134Y-110579866D01*
X137909013Y-110394294D01*
X137651033Y-110256401D01*
X137371110Y-110171487D01*
X137080000Y-110142815D01*
X136788889Y-110171487D01*
X136508966Y-110256401D01*
X136250986Y-110394294D01*
X136024866Y-110579866D01*
X135839294Y-110805987D01*
X135830000Y-110823374D01*
X135820706Y-110805986D01*
X135635134Y-110579866D01*
X135409013Y-110394294D01*
X135151033Y-110256401D01*
X134871110Y-110171487D01*
X134580000Y-110142815D01*
X134288889Y-110171487D01*
X134008966Y-110256401D01*
X133750986Y-110394294D01*
X133524866Y-110579866D01*
X133472777Y-110643337D01*
X133418405Y-110541614D01*
X133307962Y-110407038D01*
X133173386Y-110296595D01*
X133019850Y-110214528D01*
X132853254Y-110163992D01*
X132680000Y-110146928D01*
X131480000Y-110146928D01*
X131306746Y-110163992D01*
X131140150Y-110214528D01*
X130986614Y-110296595D01*
X130852038Y-110407038D01*
X130741595Y-110541614D01*
X130659528Y-110695150D01*
X130608992Y-110861746D01*
X130591928Y-111035000D01*
X115663117Y-111035000D01*
X115540706Y-110805986D01*
X115355134Y-110579866D01*
X115129013Y-110394294D01*
X114871033Y-110256401D01*
X114591110Y-110171487D01*
X114300000Y-110142815D01*
X114008889Y-110171487D01*
X113728966Y-110256401D01*
X113470986Y-110394294D01*
X113244866Y-110579866D01*
X113059294Y-110805987D01*
X113045538Y-110831722D01*
X112889049Y-110625571D01*
X112671193Y-110432504D01*
X112419858Y-110285648D01*
X112156890Y-110193524D01*
X111927000Y-110314845D01*
X111673000Y-110314845D01*
X111443110Y-110193524D01*
X111180142Y-110285648D01*
X110928807Y-110432504D01*
X110710951Y-110625571D01*
X110694714Y-110646961D01*
X110638405Y-110541614D01*
X110527962Y-110407038D01*
X110393386Y-110296595D01*
X110239850Y-110214528D01*
X110073254Y-110163992D01*
X109900000Y-110146928D01*
X108700000Y-110146928D01*
X108526746Y-110163992D01*
X108360150Y-110214528D01*
X108206614Y-110296595D01*
X108072038Y-110407038D01*
X107961595Y-110541614D01*
X107879528Y-110695150D01*
X107828992Y-110861746D01*
X107815375Y-111000000D01*
X102907322Y-111000000D01*
X102869999Y-110996324D01*
X102832676Y-111000000D01*
X102832667Y-111000000D01*
X102721014Y-111010997D01*
X102577753Y-111054454D01*
X102445724Y-111125026D01*
X102329999Y-111219999D01*
X102306201Y-111248997D01*
X101089003Y-112466196D01*
X101059999Y-112489999D01*
X101015685Y-112543996D01*
X100965026Y-112605724D01*
X100936948Y-112658254D01*
X100894454Y-112737754D01*
X100850997Y-112881015D01*
X100840000Y-112992668D01*
X100840000Y-112992678D01*
X100836324Y-113030000D01*
X100840000Y-113067322D01*
X100840001Y-121605197D01*
X100269199Y-122176000D01*
X91731322Y-122176000D01*
X91693999Y-122172324D01*
X91656676Y-122176000D01*
X91656667Y-122176000D01*
X91545014Y-122186997D01*
X91401753Y-122230454D01*
X91269724Y-122301026D01*
X91153999Y-122395999D01*
X91130196Y-122425003D01*
X90928998Y-122626201D01*
X90900000Y-122649999D01*
X90876202Y-122678997D01*
X90876201Y-122678998D01*
X90805026Y-122765724D01*
X90734454Y-122897754D01*
X90690998Y-123041015D01*
X90689419Y-123057043D01*
X90612073Y-123089081D01*
X90603428Y-123093702D01*
X90499411Y-123163208D01*
X90491835Y-123169426D01*
X90445460Y-123211460D01*
X90170000Y-123486920D01*
X89894540Y-123211460D01*
X89848165Y-123169426D01*
X89840589Y-123163208D01*
X89736572Y-123093702D01*
X89727927Y-123089081D01*
X89612351Y-123041208D01*
X89602972Y-123038363D01*
X89480311Y-123013963D01*
X89470556Y-123013002D01*
X89408000Y-123009928D01*
X88392000Y-123009928D01*
X88329444Y-123013002D01*
X88319689Y-123013963D01*
X88197028Y-123038363D01*
X88187649Y-123041208D01*
X88072073Y-123089081D01*
X88063428Y-123093702D01*
X87959411Y-123163208D01*
X87951835Y-123169426D01*
X87905460Y-123211460D01*
X87630000Y-123486920D01*
X87354540Y-123211460D01*
X87308165Y-123169426D01*
X87300589Y-123163208D01*
X87196572Y-123093702D01*
X87187927Y-123089081D01*
X87072351Y-123041208D01*
X87062972Y-123038363D01*
X86940311Y-123013963D01*
X86930556Y-123013002D01*
X86868000Y-123009928D01*
X85852000Y-123009928D01*
X85789444Y-123013002D01*
X85779689Y-123013963D01*
X85657028Y-123038363D01*
X85647649Y-123041208D01*
X85532073Y-123089081D01*
X85523428Y-123093702D01*
X85419411Y-123163208D01*
X85411835Y-123169426D01*
X85365460Y-123211460D01*
X85090000Y-123486920D01*
X84814540Y-123211460D01*
X84768165Y-123169426D01*
X84760589Y-123163208D01*
X84656572Y-123093702D01*
X84647927Y-123089081D01*
X84532351Y-123041208D01*
X84522972Y-123038363D01*
X84400311Y-123013963D01*
X84390556Y-123013002D01*
X84328000Y-123009928D01*
X83312000Y-123009928D01*
X83249444Y-123013002D01*
X83239689Y-123013963D01*
X83117028Y-123038363D01*
X83107649Y-123041208D01*
X82992073Y-123089081D01*
X82983428Y-123093702D01*
X82879411Y-123163208D01*
X82871835Y-123169426D01*
X82825460Y-123211460D01*
X82550000Y-123486920D01*
X82274540Y-123211460D01*
X82228165Y-123169426D01*
X82220589Y-123163208D01*
X82116572Y-123093702D01*
X82107927Y-123089081D01*
X81992351Y-123041208D01*
X81982972Y-123038363D01*
X81860311Y-123013963D01*
X81850556Y-123013002D01*
X81788000Y-123009928D01*
X80772000Y-123009928D01*
X80709444Y-123013002D01*
X80699689Y-123013963D01*
X80577028Y-123038363D01*
X80567649Y-123041208D01*
X80452073Y-123089081D01*
X80443428Y-123093702D01*
X80339411Y-123163208D01*
X80331835Y-123169426D01*
X80285460Y-123211460D01*
X79777460Y-123719460D01*
X79735426Y-123765835D01*
X79729208Y-123773411D01*
X79659702Y-123877428D01*
X79655081Y-123886073D01*
X79607208Y-124001649D01*
X79604363Y-124011028D01*
X79579963Y-124133689D01*
X79579002Y-124143444D01*
X79575928Y-124206000D01*
X77495000Y-124206000D01*
X77495000Y-121602702D01*
X86816903Y-121602702D01*
X86888486Y-121846671D01*
X87143996Y-121967571D01*
X87418184Y-122036300D01*
X87700512Y-122050217D01*
X87980130Y-122008787D01*
X88246292Y-121913603D01*
X88371514Y-121846671D01*
X88443097Y-121602702D01*
X91896903Y-121602702D01*
X91968486Y-121846671D01*
X92223996Y-121967571D01*
X92498184Y-122036300D01*
X92780512Y-122050217D01*
X93060130Y-122008787D01*
X93326292Y-121913603D01*
X93451514Y-121846671D01*
X93523097Y-121602702D01*
X92710000Y-120789605D01*
X91896903Y-121602702D01*
X88443097Y-121602702D01*
X87630000Y-120789605D01*
X86816903Y-121602702D01*
X77495000Y-121602702D01*
X77495000Y-120680512D01*
X86189783Y-120680512D01*
X86231213Y-120960130D01*
X86326397Y-121226292D01*
X86393329Y-121351514D01*
X86637298Y-121423097D01*
X87450395Y-120610000D01*
X87809605Y-120610000D01*
X88622702Y-121423097D01*
X88866671Y-121351514D01*
X88987571Y-121096004D01*
X89056300Y-120821816D01*
X89063265Y-120680512D01*
X91269783Y-120680512D01*
X91311213Y-120960130D01*
X91406397Y-121226292D01*
X91473329Y-121351514D01*
X91717298Y-121423097D01*
X92530395Y-120610000D01*
X92889605Y-120610000D01*
X93702702Y-121423097D01*
X93946671Y-121351514D01*
X94067571Y-121096004D01*
X94136300Y-120821816D01*
X94150217Y-120539488D01*
X94108787Y-120259870D01*
X94013603Y-119993708D01*
X93946671Y-119868486D01*
X93702702Y-119796903D01*
X92889605Y-120610000D01*
X92530395Y-120610000D01*
X91717298Y-119796903D01*
X91473329Y-119868486D01*
X91352429Y-120123996D01*
X91283700Y-120398184D01*
X91269783Y-120680512D01*
X89063265Y-120680512D01*
X89070217Y-120539488D01*
X89028787Y-120259870D01*
X88933603Y-119993708D01*
X88866671Y-119868486D01*
X88622702Y-119796903D01*
X87809605Y-120610000D01*
X87450395Y-120610000D01*
X86637298Y-119796903D01*
X86393329Y-119868486D01*
X86272429Y-120123996D01*
X86203700Y-120398184D01*
X86189783Y-120680512D01*
X77495000Y-120680512D01*
X77495000Y-119610000D01*
X79141928Y-119610000D01*
X79154188Y-119734482D01*
X79190498Y-119854180D01*
X79249463Y-119964494D01*
X79328815Y-120061185D01*
X79425506Y-120140537D01*
X79535820Y-120199502D01*
X79655518Y-120235812D01*
X79780000Y-120248072D01*
X80994250Y-120245000D01*
X81153000Y-120086250D01*
X81153000Y-118237000D01*
X81407000Y-118237000D01*
X81407000Y-120086250D01*
X81565750Y-120245000D01*
X82780000Y-120248072D01*
X82904482Y-120235812D01*
X83024180Y-120199502D01*
X83134494Y-120140537D01*
X83231185Y-120061185D01*
X83310537Y-119964494D01*
X83369502Y-119854180D01*
X83405812Y-119734482D01*
X83418072Y-119610000D01*
X83415000Y-118395750D01*
X83256250Y-118237000D01*
X81407000Y-118237000D01*
X81153000Y-118237000D01*
X79303750Y-118237000D01*
X79145000Y-118395750D01*
X79141928Y-119610000D01*
X77495000Y-119610000D01*
X77495000Y-116610000D01*
X79141928Y-116610000D01*
X79145000Y-117824250D01*
X79303750Y-117983000D01*
X81153000Y-117983000D01*
X81153000Y-116133750D01*
X81407000Y-116133750D01*
X81407000Y-117983000D01*
X83256250Y-117983000D01*
X83270585Y-117968665D01*
X86195000Y-117968665D01*
X86195000Y-118251335D01*
X86250147Y-118528574D01*
X86358320Y-118789727D01*
X86515363Y-119024759D01*
X86715241Y-119224637D01*
X86915869Y-119358692D01*
X86888486Y-119373329D01*
X86816903Y-119617298D01*
X87630000Y-120430395D01*
X88443097Y-119617298D01*
X88371514Y-119373329D01*
X88342659Y-119359676D01*
X88544759Y-119224637D01*
X88744637Y-119024759D01*
X88901680Y-118789727D01*
X89009853Y-118528574D01*
X89065000Y-118251335D01*
X89065000Y-117968665D01*
X91275000Y-117968665D01*
X91275000Y-118251335D01*
X91330147Y-118528574D01*
X91438320Y-118789727D01*
X91595363Y-119024759D01*
X91795241Y-119224637D01*
X91995869Y-119358692D01*
X91968486Y-119373329D01*
X91896903Y-119617298D01*
X92710000Y-120430395D01*
X93523097Y-119617298D01*
X93451514Y-119373329D01*
X93422659Y-119359676D01*
X93624759Y-119224637D01*
X93824637Y-119024759D01*
X93981680Y-118789727D01*
X94089853Y-118528574D01*
X94145000Y-118251335D01*
X94145000Y-117968665D01*
X94089853Y-117691426D01*
X93981680Y-117430273D01*
X93824637Y-117195241D01*
X93624759Y-116995363D01*
X93392242Y-116840000D01*
X94877319Y-116840000D01*
X94907970Y-117151204D01*
X94998745Y-117450449D01*
X95146155Y-117726235D01*
X95344537Y-117967963D01*
X95586265Y-118166345D01*
X95862051Y-118313755D01*
X96161296Y-118404530D01*
X96394514Y-118427500D01*
X96645486Y-118427500D01*
X96878704Y-118404530D01*
X97177949Y-118313755D01*
X97453735Y-118166345D01*
X97695463Y-117967963D01*
X97893845Y-117726235D01*
X98041255Y-117450449D01*
X98132030Y-117151204D01*
X98162681Y-116840000D01*
X98132030Y-116528796D01*
X98041255Y-116229551D01*
X97893845Y-115953765D01*
X97695463Y-115712037D01*
X97516101Y-115564837D01*
X97701315Y-115409437D01*
X97895969Y-115166923D01*
X98039571Y-114891094D01*
X98110563Y-114672980D01*
X97990594Y-114427000D01*
X96647000Y-114427000D01*
X96647000Y-114447000D01*
X96393000Y-114447000D01*
X96393000Y-114427000D01*
X95049406Y-114427000D01*
X94929437Y-114672980D01*
X95000429Y-114891094D01*
X95144031Y-115166923D01*
X95338685Y-115409437D01*
X95523899Y-115564837D01*
X95344537Y-115712037D01*
X95146155Y-115953765D01*
X94998745Y-116229551D01*
X94907970Y-116528796D01*
X94877319Y-116840000D01*
X93392242Y-116840000D01*
X93389727Y-116838320D01*
X93128574Y-116730147D01*
X92851335Y-116675000D01*
X92568665Y-116675000D01*
X92291426Y-116730147D01*
X92030273Y-116838320D01*
X91795241Y-116995363D01*
X91595363Y-117195241D01*
X91438320Y-117430273D01*
X91330147Y-117691426D01*
X91275000Y-117968665D01*
X89065000Y-117968665D01*
X89009853Y-117691426D01*
X88901680Y-117430273D01*
X88744637Y-117195241D01*
X88544759Y-116995363D01*
X88309727Y-116838320D01*
X88048574Y-116730147D01*
X87771335Y-116675000D01*
X87488665Y-116675000D01*
X87211426Y-116730147D01*
X86950273Y-116838320D01*
X86715241Y-116995363D01*
X86515363Y-117195241D01*
X86358320Y-117430273D01*
X86250147Y-117691426D01*
X86195000Y-117968665D01*
X83270585Y-117968665D01*
X83415000Y-117824250D01*
X83418072Y-116610000D01*
X83405812Y-116485518D01*
X83369502Y-116365820D01*
X83310537Y-116255506D01*
X83231185Y-116158815D01*
X83134494Y-116079463D01*
X83024180Y-116020498D01*
X82904482Y-115984188D01*
X82780000Y-115971928D01*
X81565750Y-115975000D01*
X81407000Y-116133750D01*
X81153000Y-116133750D01*
X80994250Y-115975000D01*
X79780000Y-115971928D01*
X79655518Y-115984188D01*
X79535820Y-116020498D01*
X79425506Y-116079463D01*
X79328815Y-116158815D01*
X79249463Y-116255506D01*
X79190498Y-116365820D01*
X79154188Y-116485518D01*
X79141928Y-116610000D01*
X77495000Y-116610000D01*
X77495000Y-112819721D01*
X79145000Y-112819721D01*
X79145000Y-113240279D01*
X79227047Y-113652756D01*
X79387988Y-114041302D01*
X79621637Y-114390983D01*
X79919017Y-114688363D01*
X80268698Y-114922012D01*
X80657244Y-115082953D01*
X81069721Y-115165000D01*
X81490279Y-115165000D01*
X81902756Y-115082953D01*
X82291302Y-114922012D01*
X82640983Y-114688363D01*
X82938363Y-114390983D01*
X83172012Y-114041302D01*
X83332953Y-113652756D01*
X83415000Y-113240279D01*
X83415000Y-112819721D01*
X83413041Y-112809872D01*
X87935000Y-112809872D01*
X87935000Y-113250128D01*
X88020890Y-113681925D01*
X88189369Y-114088669D01*
X88433962Y-114454729D01*
X88745271Y-114766038D01*
X89111331Y-115010631D01*
X89518075Y-115179110D01*
X89949872Y-115265000D01*
X90390128Y-115265000D01*
X90821925Y-115179110D01*
X91228669Y-115010631D01*
X91594729Y-114766038D01*
X91906038Y-114454729D01*
X92150631Y-114088669D01*
X92319110Y-113681925D01*
X92405000Y-113250128D01*
X92405000Y-112809872D01*
X92319110Y-112378075D01*
X92150631Y-111971331D01*
X91906038Y-111605271D01*
X91594729Y-111293962D01*
X91228669Y-111049369D01*
X90821925Y-110880890D01*
X90452970Y-110807500D01*
X94881928Y-110807500D01*
X94881928Y-112712500D01*
X94894188Y-112836982D01*
X94930498Y-112956680D01*
X94989463Y-113066994D01*
X95068815Y-113163685D01*
X95165506Y-113243037D01*
X95257219Y-113292059D01*
X95144031Y-113433077D01*
X95000429Y-113708906D01*
X94929437Y-113927020D01*
X95049406Y-114173000D01*
X96393000Y-114173000D01*
X96393000Y-114153000D01*
X96647000Y-114153000D01*
X96647000Y-114173000D01*
X97990594Y-114173000D01*
X98110563Y-113927020D01*
X98039571Y-113708906D01*
X97895969Y-113433077D01*
X97782781Y-113292059D01*
X97874494Y-113243037D01*
X97971185Y-113163685D01*
X98050537Y-113066994D01*
X98109502Y-112956680D01*
X98145812Y-112836982D01*
X98158072Y-112712500D01*
X98158072Y-110807500D01*
X98145812Y-110683018D01*
X98109502Y-110563320D01*
X98050537Y-110453006D01*
X97971185Y-110356315D01*
X97874494Y-110276963D01*
X97764180Y-110217998D01*
X97644482Y-110181688D01*
X97520000Y-110169428D01*
X95520000Y-110169428D01*
X95395518Y-110181688D01*
X95275820Y-110217998D01*
X95165506Y-110276963D01*
X95068815Y-110356315D01*
X94989463Y-110453006D01*
X94930498Y-110563320D01*
X94894188Y-110683018D01*
X94881928Y-110807500D01*
X90452970Y-110807500D01*
X90390128Y-110795000D01*
X89949872Y-110795000D01*
X89518075Y-110880890D01*
X89111331Y-111049369D01*
X88745271Y-111293962D01*
X88433962Y-111605271D01*
X88189369Y-111971331D01*
X88020890Y-112378075D01*
X87935000Y-112809872D01*
X83413041Y-112809872D01*
X83332953Y-112407244D01*
X83172012Y-112018698D01*
X82938363Y-111669017D01*
X82640983Y-111371637D01*
X82291302Y-111137988D01*
X81902756Y-110977047D01*
X81490279Y-110895000D01*
X81069721Y-110895000D01*
X80657244Y-110977047D01*
X80268698Y-111137988D01*
X79919017Y-111371637D01*
X79621637Y-111669017D01*
X79387988Y-112018698D01*
X79227047Y-112407244D01*
X79145000Y-112819721D01*
X77495000Y-112819721D01*
X77495000Y-109887277D01*
X77521815Y-109613796D01*
X77591867Y-109381774D01*
X77705650Y-109167778D01*
X77858832Y-108979959D01*
X78045577Y-108825470D01*
X78258769Y-108710199D01*
X78490300Y-108638528D01*
X78761725Y-108610000D01*
X165702723Y-108610000D01*
X165976204Y-108636815D01*
G04 #@! TA.AperFunction,Conductor*
D29*
G36*
X165976204Y-108636815D02*
G01*
X166208226Y-108706867D01*
X166422222Y-108820650D01*
X166610041Y-108973832D01*
X166764530Y-109160577D01*
X166879801Y-109373769D01*
X166951472Y-109605300D01*
X166980001Y-109876734D01*
X166980000Y-126106684D01*
X157213958Y-126042854D01*
X157142276Y-125984026D01*
X157010247Y-125913454D01*
X156866986Y-125869997D01*
X156755333Y-125859000D01*
X156755322Y-125859000D01*
X156718000Y-125855324D01*
X156680678Y-125859000D01*
X154215322Y-125859000D01*
X154178000Y-125855324D01*
X154140678Y-125859000D01*
X152722317Y-125859000D01*
X152818574Y-125839853D01*
X153079727Y-125731680D01*
X153314759Y-125574637D01*
X153514637Y-125374759D01*
X153671680Y-125139727D01*
X153779853Y-124878574D01*
X153835000Y-124601335D01*
X153835000Y-124318665D01*
X158585000Y-124318665D01*
X158585000Y-124601335D01*
X158640147Y-124878574D01*
X158748320Y-125139727D01*
X158905363Y-125374759D01*
X159105241Y-125574637D01*
X159340273Y-125731680D01*
X159601426Y-125839853D01*
X159878665Y-125895000D01*
X160161335Y-125895000D01*
X160438574Y-125839853D01*
X160699727Y-125731680D01*
X160934759Y-125574637D01*
X161134637Y-125374759D01*
X161291680Y-125139727D01*
X161399853Y-124878574D01*
X161455000Y-124601335D01*
X161455000Y-124318665D01*
X161399853Y-124041426D01*
X161291680Y-123780273D01*
X161134637Y-123545241D01*
X160934759Y-123345363D01*
X160699727Y-123188320D01*
X160438574Y-123080147D01*
X160161335Y-123025000D01*
X159878665Y-123025000D01*
X159601426Y-123080147D01*
X159340273Y-123188320D01*
X159105241Y-123345363D01*
X158905363Y-123545241D01*
X158748320Y-123780273D01*
X158640147Y-124041426D01*
X158585000Y-124318665D01*
X153835000Y-124318665D01*
X153779853Y-124041426D01*
X153671680Y-123780273D01*
X153514637Y-123545241D01*
X153314759Y-123345363D01*
X153079727Y-123188320D01*
X152818574Y-123080147D01*
X152541335Y-123025000D01*
X152258665Y-123025000D01*
X151981426Y-123080147D01*
X151720273Y-123188320D01*
X151485241Y-123345363D01*
X151285363Y-123545241D01*
X151128320Y-123780273D01*
X151020147Y-124041426D01*
X150965000Y-124318665D01*
X150965000Y-124601335D01*
X151020147Y-124878574D01*
X151128320Y-125139727D01*
X151285363Y-125374759D01*
X151485241Y-125574637D01*
X151720273Y-125731680D01*
X151981426Y-125839853D01*
X152077683Y-125859000D01*
X136212317Y-125859000D01*
X136308574Y-125839853D01*
X136569727Y-125731680D01*
X136804759Y-125574637D01*
X137004637Y-125374759D01*
X137161680Y-125139727D01*
X137269853Y-124878574D01*
X137325000Y-124601335D01*
X137325000Y-124318665D01*
X137269853Y-124041426D01*
X137161680Y-123780273D01*
X137004637Y-123545241D01*
X136804759Y-123345363D01*
X136569727Y-123188320D01*
X136308574Y-123080147D01*
X136031335Y-123025000D01*
X135748665Y-123025000D01*
X135471426Y-123080147D01*
X135210273Y-123188320D01*
X134975241Y-123345363D01*
X134775363Y-123545241D01*
X134618320Y-123780273D01*
X134510147Y-124041426D01*
X134455000Y-124318665D01*
X134455000Y-124601335D01*
X134510147Y-124878574D01*
X134618320Y-125139727D01*
X134775363Y-125374759D01*
X134975241Y-125574637D01*
X135210273Y-125731680D01*
X135471426Y-125839853D01*
X135567683Y-125859000D01*
X132625322Y-125859000D01*
X132588000Y-125855324D01*
X132550678Y-125859000D01*
X130085312Y-125859000D01*
X130047990Y-125855324D01*
X130010668Y-125859000D01*
X129084370Y-125859000D01*
X128778830Y-125857003D01*
X128757096Y-125859000D01*
X128592317Y-125859000D01*
X128688574Y-125839853D01*
X128949727Y-125731680D01*
X129184759Y-125574637D01*
X129384637Y-125374759D01*
X129541680Y-125139727D01*
X129649853Y-124878574D01*
X129705000Y-124601335D01*
X129705000Y-124318665D01*
X129649853Y-124041426D01*
X129541680Y-123780273D01*
X129384637Y-123545241D01*
X129184759Y-123345363D01*
X128949727Y-123188320D01*
X128688574Y-123080147D01*
X128411335Y-123025000D01*
X128128665Y-123025000D01*
X127851426Y-123080147D01*
X127590273Y-123188320D01*
X127355241Y-123345363D01*
X127155363Y-123545241D01*
X126998320Y-123780273D01*
X126890147Y-124041426D01*
X126835000Y-124318665D01*
X126835000Y-124601335D01*
X126871312Y-124783886D01*
X125473003Y-126182196D01*
X125443999Y-126205999D01*
X125391474Y-126270001D01*
X125349026Y-126321724D01*
X125284549Y-126442351D01*
X125278454Y-126453754D01*
X125234997Y-126597015D01*
X125224000Y-126708668D01*
X125224000Y-126708678D01*
X125220324Y-126746000D01*
X125224000Y-126783323D01*
X125224000Y-128191815D01*
X124978592Y-128143000D01*
X124703408Y-128143000D01*
X124587000Y-128166155D01*
X124587000Y-128132408D01*
X124533314Y-127862510D01*
X124428005Y-127608273D01*
X124275120Y-127379465D01*
X124080535Y-127184880D01*
X123851727Y-127031995D01*
X123597490Y-126926686D01*
X123327592Y-126873000D01*
X123052408Y-126873000D01*
X122898430Y-126903628D01*
X121213804Y-125219003D01*
X121190001Y-125189999D01*
X121074276Y-125095026D01*
X120942247Y-125024454D01*
X120798986Y-124980997D01*
X120687333Y-124970000D01*
X120687322Y-124970000D01*
X120650000Y-124966324D01*
X120612678Y-124970000D01*
X105330647Y-124970000D01*
X105455990Y-124782411D01*
X105567932Y-124512158D01*
X105625000Y-124225260D01*
X105625000Y-123932740D01*
X105567932Y-123645842D01*
X105455990Y-123375589D01*
X105293475Y-123132368D01*
X105086632Y-122925525D01*
X104912240Y-122809000D01*
X105086632Y-122692475D01*
X105293475Y-122485632D01*
X105455990Y-122242411D01*
X105567932Y-121972158D01*
X105625000Y-121685260D01*
X105625000Y-121392740D01*
X105567932Y-121105842D01*
X105455990Y-120835589D01*
X105293475Y-120592368D01*
X105086632Y-120385525D01*
X104843411Y-120223010D01*
X104573158Y-120111068D01*
X104286260Y-120054000D01*
X103993740Y-120054000D01*
X103706842Y-120111068D01*
X103436589Y-120223010D01*
X103193368Y-120385525D01*
X102986525Y-120592368D01*
X102824010Y-120835589D01*
X102712068Y-121105842D01*
X102655000Y-121392740D01*
X102655000Y-121685260D01*
X102712068Y-121972158D01*
X102824010Y-122242411D01*
X102986525Y-122485632D01*
X103193368Y-122692475D01*
X103367760Y-122809000D01*
X103193368Y-122925525D01*
X102986525Y-123132368D01*
X102824010Y-123375589D01*
X102712068Y-123645842D01*
X102655000Y-123932740D01*
X102655000Y-124225260D01*
X102712068Y-124512158D01*
X102824010Y-124782411D01*
X102986525Y-125025632D01*
X103193368Y-125232475D01*
X103367760Y-125349000D01*
X103193368Y-125465525D01*
X102986525Y-125672368D01*
X102824010Y-125915589D01*
X102712068Y-126185842D01*
X102655000Y-126472740D01*
X102655000Y-126765260D01*
X102712068Y-127052158D01*
X102824010Y-127322411D01*
X102986525Y-127565632D01*
X103193368Y-127772475D01*
X103367760Y-127889000D01*
X103193368Y-128005525D01*
X102986525Y-128212368D01*
X102824010Y-128455589D01*
X102712068Y-128725842D01*
X102655000Y-129012740D01*
X102655000Y-129305260D01*
X102712068Y-129592158D01*
X102824010Y-129862411D01*
X102986525Y-130105632D01*
X103118380Y-130237487D01*
X103045820Y-130259498D01*
X102935506Y-130318463D01*
X102838815Y-130397815D01*
X102759463Y-130494506D01*
X102700498Y-130604820D01*
X102664188Y-130724518D01*
X102651928Y-130849000D01*
X102651928Y-132549000D01*
X102664188Y-132673482D01*
X102700498Y-132793180D01*
X102759463Y-132903494D01*
X102838815Y-133000185D01*
X102935506Y-133079537D01*
X103045820Y-133138502D01*
X103165518Y-133174812D01*
X103290000Y-133187072D01*
X104990000Y-133187072D01*
X105114482Y-133174812D01*
X105234180Y-133138502D01*
X105344494Y-133079537D01*
X105441185Y-133000185D01*
X105520537Y-132903494D01*
X105579502Y-132793180D01*
X105615812Y-132673482D01*
X105628072Y-132549000D01*
X105628072Y-130849000D01*
X105615812Y-130724518D01*
X105579502Y-130604820D01*
X105520537Y-130494506D01*
X105441185Y-130397815D01*
X105344494Y-130318463D01*
X105234180Y-130259498D01*
X105161620Y-130237487D01*
X105293475Y-130105632D01*
X105455990Y-129862411D01*
X105567932Y-129592158D01*
X105625000Y-129305260D01*
X105625000Y-129012740D01*
X105585667Y-128815000D01*
X107731928Y-128815000D01*
X107731928Y-130265000D01*
X107748992Y-130438254D01*
X107799528Y-130604850D01*
X107881595Y-130758386D01*
X107992038Y-130892962D01*
X108126614Y-131003405D01*
X108280150Y-131085472D01*
X108446746Y-131136008D01*
X108620000Y-131153072D01*
X109820000Y-131153072D01*
X109993254Y-131136008D01*
X110159850Y-131085472D01*
X110313386Y-131003405D01*
X110447962Y-130892962D01*
X110558405Y-130758386D01*
X110614714Y-130653039D01*
X110630951Y-130674429D01*
X110848807Y-130867496D01*
X111100142Y-131014352D01*
X111363110Y-131106476D01*
X111593000Y-130985155D01*
X111593000Y-129667000D01*
X111573000Y-129667000D01*
X111573000Y-129413000D01*
X111593000Y-129413000D01*
X111593000Y-128094845D01*
X111847000Y-128094845D01*
X111847000Y-129413000D01*
X111867000Y-129413000D01*
X111867000Y-129667000D01*
X111847000Y-129667000D01*
X111847000Y-130985155D01*
X112076890Y-131106476D01*
X112339858Y-131014352D01*
X112591193Y-130867496D01*
X112809049Y-130674429D01*
X112965538Y-130468278D01*
X112979294Y-130494014D01*
X113164866Y-130720134D01*
X113390987Y-130905706D01*
X113648967Y-131043599D01*
X113928890Y-131128513D01*
X114220000Y-131157185D01*
X114511111Y-131128513D01*
X114791034Y-131043599D01*
X115049014Y-130905706D01*
X115275134Y-130720134D01*
X115460706Y-130494014D01*
X115598599Y-130236033D01*
X115683513Y-129956110D01*
X115705000Y-129737949D01*
X115705000Y-129342050D01*
X115683513Y-129123889D01*
X115598599Y-128843966D01*
X115460706Y-128585986D01*
X115275134Y-128359866D01*
X115049013Y-128174294D01*
X114791033Y-128036401D01*
X114511110Y-127951487D01*
X114220000Y-127922815D01*
X113928889Y-127951487D01*
X113648966Y-128036401D01*
X113390986Y-128174294D01*
X113164866Y-128359866D01*
X112979294Y-128585987D01*
X112965538Y-128611722D01*
X112809049Y-128405571D01*
X112591193Y-128212504D01*
X112339858Y-128065648D01*
X112076890Y-127973524D01*
X111847000Y-128094845D01*
X111593000Y-128094845D01*
X111363110Y-127973524D01*
X111100142Y-128065648D01*
X110848807Y-128212504D01*
X110630951Y-128405571D01*
X110614714Y-128426961D01*
X110558405Y-128321614D01*
X110447962Y-128187038D01*
X110313386Y-128076595D01*
X110159850Y-127994528D01*
X109993254Y-127943992D01*
X109820000Y-127926928D01*
X108620000Y-127926928D01*
X108446746Y-127943992D01*
X108280150Y-127994528D01*
X108126614Y-128076595D01*
X107992038Y-128187038D01*
X107881595Y-128321614D01*
X107799528Y-128475150D01*
X107748992Y-128641746D01*
X107731928Y-128815000D01*
X105585667Y-128815000D01*
X105567932Y-128725842D01*
X105455990Y-128455589D01*
X105293475Y-128212368D01*
X105086632Y-128005525D01*
X104912240Y-127889000D01*
X105086632Y-127772475D01*
X105293475Y-127565632D01*
X105455990Y-127322411D01*
X105567932Y-127052158D01*
X105625000Y-126765260D01*
X105625000Y-126490000D01*
X120335199Y-126490000D01*
X121823628Y-127978430D01*
X121793000Y-128132408D01*
X121793000Y-128407592D01*
X121846686Y-128677490D01*
X121951995Y-128931727D01*
X122104880Y-129160535D01*
X122299465Y-129355120D01*
X122528273Y-129508005D01*
X122605515Y-129540000D01*
X122528273Y-129571995D01*
X122299465Y-129724880D01*
X122104880Y-129919465D01*
X121951995Y-130148273D01*
X121846686Y-130402510D01*
X121793000Y-130672408D01*
X121793000Y-130947592D01*
X121846686Y-131217490D01*
X121951995Y-131471727D01*
X122104880Y-131700535D01*
X122299465Y-131895120D01*
X122528273Y-132048005D01*
X122605515Y-132080000D01*
X122528273Y-132111995D01*
X122299465Y-132264880D01*
X122104880Y-132459465D01*
X121951995Y-132688273D01*
X121846686Y-132942510D01*
X121832571Y-133013469D01*
X115515986Y-139573000D01*
X115305609Y-139573000D01*
X115460706Y-139384014D01*
X115598599Y-139126033D01*
X115683513Y-138846110D01*
X115705000Y-138627949D01*
X115705000Y-138232050D01*
X115683513Y-138013889D01*
X115598599Y-137733966D01*
X115460706Y-137475986D01*
X115275134Y-137249866D01*
X115049013Y-137064294D01*
X114791033Y-136926401D01*
X114511110Y-136841487D01*
X114220000Y-136812815D01*
X113928889Y-136841487D01*
X113648966Y-136926401D01*
X113390986Y-137064294D01*
X113164866Y-137249866D01*
X112979294Y-137475987D01*
X112965538Y-137501722D01*
X112809049Y-137295571D01*
X112591193Y-137102504D01*
X112339858Y-136955648D01*
X112076890Y-136863524D01*
X111847000Y-136984845D01*
X111847000Y-138303000D01*
X111867000Y-138303000D01*
X111867000Y-138557000D01*
X111847000Y-138557000D01*
X111847000Y-138577000D01*
X111593000Y-138577000D01*
X111593000Y-138557000D01*
X111573000Y-138557000D01*
X111573000Y-138303000D01*
X111593000Y-138303000D01*
X111593000Y-136984845D01*
X111363110Y-136863524D01*
X111100142Y-136955648D01*
X110848807Y-137102504D01*
X110630951Y-137295571D01*
X110614714Y-137316961D01*
X110558405Y-137211614D01*
X110447962Y-137077038D01*
X110313386Y-136966595D01*
X110159850Y-136884528D01*
X109993254Y-136833992D01*
X109820000Y-136816928D01*
X108620000Y-136816928D01*
X108446746Y-136833992D01*
X108280150Y-136884528D01*
X108126614Y-136966595D01*
X107992038Y-137077038D01*
X107881595Y-137211614D01*
X107799528Y-137365150D01*
X107748992Y-137531746D01*
X107731928Y-137705000D01*
X107731928Y-139155000D01*
X107748992Y-139328254D01*
X107799528Y-139494850D01*
X107841300Y-139573000D01*
X102039802Y-139573000D01*
X99623804Y-137157003D01*
X99600001Y-137127999D01*
X99484276Y-137033026D01*
X99352247Y-136962454D01*
X99208986Y-136918997D01*
X99097333Y-136908000D01*
X99097322Y-136908000D01*
X99060000Y-136904324D01*
X99022678Y-136908000D01*
X90461322Y-136908000D01*
X90423999Y-136904324D01*
X90386676Y-136908000D01*
X90386667Y-136908000D01*
X90275014Y-136918997D01*
X90131753Y-136962454D01*
X89999724Y-137033026D01*
X89999722Y-137033027D01*
X89999723Y-137033027D01*
X89912996Y-137104201D01*
X89912992Y-137104205D01*
X89883999Y-137127999D01*
X89860205Y-137156992D01*
X88388998Y-138628201D01*
X88360000Y-138651999D01*
X88336202Y-138680997D01*
X88336201Y-138680998D01*
X88265026Y-138767724D01*
X88194454Y-138899754D01*
X88150998Y-139043015D01*
X88136324Y-139192000D01*
X88140001Y-139229332D01*
X88140001Y-139316944D01*
X88072073Y-139345081D01*
X88063428Y-139349702D01*
X87959411Y-139419208D01*
X87951835Y-139425426D01*
X87905460Y-139467460D01*
X87799920Y-139573000D01*
X87460080Y-139573000D01*
X87354540Y-139467460D01*
X87308165Y-139425426D01*
X87300589Y-139419208D01*
X87196572Y-139349702D01*
X87187927Y-139345081D01*
X87072351Y-139297208D01*
X87062972Y-139294363D01*
X86940311Y-139269963D01*
X86930556Y-139269002D01*
X86868000Y-139265928D01*
X85852000Y-139265928D01*
X85789444Y-139269002D01*
X85779689Y-139269963D01*
X85657028Y-139294363D01*
X85647649Y-139297208D01*
X85532073Y-139345081D01*
X85523428Y-139349702D01*
X85419411Y-139419208D01*
X85411835Y-139425426D01*
X85365460Y-139467460D01*
X85259920Y-139573000D01*
X84920080Y-139573000D01*
X84814540Y-139467460D01*
X84768165Y-139425426D01*
X84760589Y-139419208D01*
X84656572Y-139349702D01*
X84647927Y-139345081D01*
X84532351Y-139297208D01*
X84522972Y-139294363D01*
X84400311Y-139269963D01*
X84390556Y-139269002D01*
X84328000Y-139265928D01*
X83312000Y-139265928D01*
X83249444Y-139269002D01*
X83239689Y-139269963D01*
X83117028Y-139294363D01*
X83107649Y-139297208D01*
X82992073Y-139345081D01*
X82983428Y-139349702D01*
X82879411Y-139419208D01*
X82871835Y-139425426D01*
X82825460Y-139467460D01*
X82719920Y-139573000D01*
X82380080Y-139573000D01*
X82274540Y-139467460D01*
X82228165Y-139425426D01*
X82220589Y-139419208D01*
X82116572Y-139349702D01*
X82107927Y-139345081D01*
X81992351Y-139297208D01*
X81982972Y-139294363D01*
X81860311Y-139269963D01*
X81850556Y-139269002D01*
X81788000Y-139265928D01*
X80772000Y-139265928D01*
X80709444Y-139269002D01*
X80699689Y-139269963D01*
X80577028Y-139294363D01*
X80567649Y-139297208D01*
X80452073Y-139345081D01*
X80443428Y-139349702D01*
X80339411Y-139419208D01*
X80331835Y-139425426D01*
X80285460Y-139467460D01*
X80179920Y-139573000D01*
X77495000Y-139573000D01*
X77495000Y-124206000D01*
X79575928Y-124206000D01*
X79575928Y-126238000D01*
X79579002Y-126300556D01*
X79579963Y-126310311D01*
X79604363Y-126432972D01*
X79607208Y-126442351D01*
X79655081Y-126557927D01*
X79659702Y-126566572D01*
X79729208Y-126670589D01*
X79735426Y-126678165D01*
X79777460Y-126724540D01*
X80285460Y-127232540D01*
X80331835Y-127274574D01*
X80339411Y-127280792D01*
X80443428Y-127350298D01*
X80452073Y-127354919D01*
X80567649Y-127402792D01*
X80577028Y-127405637D01*
X80699689Y-127430037D01*
X80709444Y-127430998D01*
X80772000Y-127434072D01*
X81788000Y-127434072D01*
X81850556Y-127430998D01*
X81860311Y-127430037D01*
X81982972Y-127405637D01*
X81992351Y-127402792D01*
X82107927Y-127354919D01*
X82116572Y-127350298D01*
X82220589Y-127280792D01*
X82228165Y-127274574D01*
X82274540Y-127232540D01*
X82550000Y-126957080D01*
X82825460Y-127232540D01*
X82871835Y-127274574D01*
X82879411Y-127280792D01*
X82983428Y-127350298D01*
X82992073Y-127354919D01*
X83107649Y-127402792D01*
X83117028Y-127405637D01*
X83239689Y-127430037D01*
X83249444Y-127430998D01*
X83312000Y-127434072D01*
X84328000Y-127434072D01*
X84390556Y-127430998D01*
X84400311Y-127430037D01*
X84522972Y-127405637D01*
X84532351Y-127402792D01*
X84647927Y-127354919D01*
X84656572Y-127350298D01*
X84760589Y-127280792D01*
X84768165Y-127274574D01*
X84814540Y-127232540D01*
X85090000Y-126957080D01*
X85365460Y-127232540D01*
X85411835Y-127274574D01*
X85419411Y-127280792D01*
X85523428Y-127350298D01*
X85532073Y-127354919D01*
X85647649Y-127402792D01*
X85657028Y-127405637D01*
X85779689Y-127430037D01*
X85789444Y-127430998D01*
X85852000Y-127434072D01*
X86868000Y-127434072D01*
X86930556Y-127430998D01*
X86940311Y-127430037D01*
X87062972Y-127405637D01*
X87072351Y-127402792D01*
X87187927Y-127354919D01*
X87196572Y-127350298D01*
X87300589Y-127280792D01*
X87308165Y-127274574D01*
X87354540Y-127232540D01*
X87630000Y-126957080D01*
X87905460Y-127232540D01*
X87951835Y-127274574D01*
X87959411Y-127280792D01*
X88063428Y-127350298D01*
X88072073Y-127354919D01*
X88187649Y-127402792D01*
X88197028Y-127405637D01*
X88319689Y-127430037D01*
X88329444Y-127430998D01*
X88392000Y-127434072D01*
X89408000Y-127434072D01*
X89470556Y-127430998D01*
X89480311Y-127430037D01*
X89602972Y-127405637D01*
X89612351Y-127402792D01*
X89727927Y-127354919D01*
X89736572Y-127350298D01*
X89840589Y-127280792D01*
X89848165Y-127274574D01*
X89894540Y-127232540D01*
X90170000Y-126957080D01*
X90445460Y-127232540D01*
X90491835Y-127274574D01*
X90499411Y-127280792D01*
X90603428Y-127350298D01*
X90612073Y-127354919D01*
X90727649Y-127402792D01*
X90737028Y-127405637D01*
X90859689Y-127430037D01*
X90869444Y-127430998D01*
X90932000Y-127434072D01*
X91948000Y-127434072D01*
X92010556Y-127430998D01*
X92020311Y-127430037D01*
X92142972Y-127405637D01*
X92152351Y-127402792D01*
X92267927Y-127354919D01*
X92276572Y-127350298D01*
X92380589Y-127280792D01*
X92388165Y-127274574D01*
X92434540Y-127232540D01*
X92710000Y-126957080D01*
X92985460Y-127232540D01*
X93031835Y-127274574D01*
X93039411Y-127280792D01*
X93143428Y-127350298D01*
X93152073Y-127354919D01*
X93267649Y-127402792D01*
X93277028Y-127405637D01*
X93399689Y-127430037D01*
X93409444Y-127430998D01*
X93472000Y-127434072D01*
X94488000Y-127434072D01*
X94550556Y-127430998D01*
X94560311Y-127430037D01*
X94682972Y-127405637D01*
X94692351Y-127402792D01*
X94807927Y-127354919D01*
X94816572Y-127350298D01*
X94920589Y-127280792D01*
X94928165Y-127274574D01*
X94974540Y-127232540D01*
X95250000Y-126957080D01*
X95525460Y-127232540D01*
X95571835Y-127274574D01*
X95579411Y-127280792D01*
X95683428Y-127350298D01*
X95692073Y-127354919D01*
X95807649Y-127402792D01*
X95817028Y-127405637D01*
X95939689Y-127430037D01*
X95949444Y-127430998D01*
X96012000Y-127434072D01*
X97028000Y-127434072D01*
X97090556Y-127430998D01*
X97100311Y-127430037D01*
X97222972Y-127405637D01*
X97232351Y-127402792D01*
X97347927Y-127354919D01*
X97356572Y-127350298D01*
X97460589Y-127280792D01*
X97468165Y-127274574D01*
X97514540Y-127232540D01*
X98022540Y-126724540D01*
X98064574Y-126678165D01*
X98070792Y-126670589D01*
X98140298Y-126566572D01*
X98144919Y-126557927D01*
X98192792Y-126442351D01*
X98195637Y-126432972D01*
X98220037Y-126310311D01*
X98220998Y-126300556D01*
X98224072Y-126238000D01*
X98224072Y-124206000D01*
X98220998Y-124143444D01*
X98220037Y-124133689D01*
X98195637Y-124011028D01*
X98192792Y-124001649D01*
X98144919Y-123886073D01*
X98140298Y-123877428D01*
X98070792Y-123773411D01*
X98064574Y-123765835D01*
X98022540Y-123719460D01*
X97999080Y-123696000D01*
X100546678Y-123696000D01*
X100584000Y-123699676D01*
X100621322Y-123696000D01*
X100621333Y-123696000D01*
X100732986Y-123685003D01*
X100876247Y-123641546D01*
X101008276Y-123570974D01*
X101124001Y-123476001D01*
X101147804Y-123446998D01*
X102111003Y-122483799D01*
X102140001Y-122460001D01*
X102212057Y-122372201D01*
X102234974Y-122344277D01*
X102305546Y-122212247D01*
X102349003Y-122068986D01*
X102360000Y-121957333D01*
X102360000Y-121957323D01*
X102363676Y-121920000D01*
X102360000Y-121882678D01*
X102360000Y-119925000D01*
X107731928Y-119925000D01*
X107731928Y-121375000D01*
X107748992Y-121548254D01*
X107799528Y-121714850D01*
X107881595Y-121868386D01*
X107992038Y-122002962D01*
X108126614Y-122113405D01*
X108280150Y-122195472D01*
X108446746Y-122246008D01*
X108620000Y-122263072D01*
X109820000Y-122263072D01*
X109993254Y-122246008D01*
X110159850Y-122195472D01*
X110313386Y-122113405D01*
X110447962Y-122002962D01*
X110558405Y-121868386D01*
X110614714Y-121763039D01*
X110630951Y-121784429D01*
X110848807Y-121977496D01*
X111100142Y-122124352D01*
X111363110Y-122216476D01*
X111593000Y-122095155D01*
X111593000Y-120777000D01*
X111573000Y-120777000D01*
X111573000Y-120523000D01*
X111593000Y-120523000D01*
X111593000Y-119204845D01*
X111847000Y-119204845D01*
X111847000Y-120523000D01*
X111867000Y-120523000D01*
X111867000Y-120777000D01*
X111847000Y-120777000D01*
X111847000Y-122095155D01*
X112076890Y-122216476D01*
X112339858Y-122124352D01*
X112591193Y-121977496D01*
X112809049Y-121784429D01*
X112965538Y-121578278D01*
X112979294Y-121604014D01*
X113164866Y-121830134D01*
X113390987Y-122015706D01*
X113648967Y-122153599D01*
X113928890Y-122238513D01*
X114220000Y-122267185D01*
X114511111Y-122238513D01*
X114791034Y-122153599D01*
X115049014Y-122015706D01*
X115275134Y-121830134D01*
X115460706Y-121604014D01*
X115598599Y-121346033D01*
X115683513Y-121066110D01*
X115705000Y-120847949D01*
X115705000Y-120452050D01*
X115683513Y-120233889D01*
X115598599Y-119953966D01*
X115563340Y-119888000D01*
X121789928Y-119888000D01*
X121789928Y-121412000D01*
X121802188Y-121536482D01*
X121838498Y-121656180D01*
X121897463Y-121766494D01*
X121976815Y-121863185D01*
X122073506Y-121942537D01*
X122183820Y-122001502D01*
X122303518Y-122037812D01*
X122428000Y-122050072D01*
X123952000Y-122050072D01*
X124076482Y-122037812D01*
X124196180Y-122001502D01*
X124306494Y-121942537D01*
X124403185Y-121863185D01*
X124482537Y-121766494D01*
X124541502Y-121656180D01*
X124553822Y-121615565D01*
X124944040Y-121615565D01*
X125011020Y-121855656D01*
X125260048Y-121972756D01*
X125527135Y-122039023D01*
X125802017Y-122051910D01*
X126074133Y-122010922D01*
X126333023Y-121917636D01*
X126448980Y-121855656D01*
X126515960Y-121615565D01*
X125730000Y-120829605D01*
X124944040Y-121615565D01*
X124553822Y-121615565D01*
X124577812Y-121536482D01*
X124590072Y-121412000D01*
X124590072Y-121387317D01*
X124764435Y-121435960D01*
X125550395Y-120650000D01*
X125909605Y-120650000D01*
X126695565Y-121435960D01*
X126935656Y-121368980D01*
X126999485Y-121233240D01*
X127031995Y-121311727D01*
X127184880Y-121540535D01*
X127379465Y-121735120D01*
X127608273Y-121888005D01*
X127862510Y-121993314D01*
X128132408Y-122047000D01*
X128407592Y-122047000D01*
X128677490Y-121993314D01*
X128931727Y-121888005D01*
X129160535Y-121735120D01*
X129355120Y-121540535D01*
X129508005Y-121311727D01*
X129540000Y-121234485D01*
X129571995Y-121311727D01*
X129724880Y-121540535D01*
X129919465Y-121735120D01*
X130148273Y-121888005D01*
X130402510Y-121993314D01*
X130672408Y-122047000D01*
X130947592Y-122047000D01*
X131217490Y-121993314D01*
X131471727Y-121888005D01*
X131700535Y-121735120D01*
X131895120Y-121540535D01*
X132048005Y-121311727D01*
X132080000Y-121234485D01*
X132111995Y-121311727D01*
X132264880Y-121540535D01*
X132459465Y-121735120D01*
X132688273Y-121888005D01*
X132942510Y-121993314D01*
X133212408Y-122047000D01*
X133487592Y-122047000D01*
X133757490Y-121993314D01*
X134011727Y-121888005D01*
X134240535Y-121735120D01*
X134435120Y-121540535D01*
X134588005Y-121311727D01*
X134620000Y-121234485D01*
X134651995Y-121311727D01*
X134804880Y-121540535D01*
X134999465Y-121735120D01*
X135228273Y-121888005D01*
X135482510Y-121993314D01*
X135752408Y-122047000D01*
X136027592Y-122047000D01*
X136297490Y-121993314D01*
X136551727Y-121888005D01*
X136780535Y-121735120D01*
X136975120Y-121540535D01*
X137128005Y-121311727D01*
X137160000Y-121234485D01*
X137191995Y-121311727D01*
X137344880Y-121540535D01*
X137539465Y-121735120D01*
X137768273Y-121888005D01*
X138022510Y-121993314D01*
X138292408Y-122047000D01*
X138567592Y-122047000D01*
X138837490Y-121993314D01*
X139091727Y-121888005D01*
X139320535Y-121735120D01*
X139440090Y-121615565D01*
X140184040Y-121615565D01*
X140251020Y-121855656D01*
X140500048Y-121972756D01*
X140767135Y-122039023D01*
X141042017Y-122051910D01*
X141314133Y-122010922D01*
X141573023Y-121917636D01*
X141688980Y-121855656D01*
X141755960Y-121615565D01*
X140970000Y-120829605D01*
X140184040Y-121615565D01*
X139440090Y-121615565D01*
X139515120Y-121540535D01*
X139668005Y-121311727D01*
X139697692Y-121240057D01*
X139702364Y-121253023D01*
X139764344Y-121368980D01*
X140004435Y-121435960D01*
X140790395Y-120650000D01*
X141149605Y-120650000D01*
X141935565Y-121435960D01*
X142175656Y-121368980D01*
X142292756Y-121119952D01*
X142359023Y-120852865D01*
X142371910Y-120577983D01*
X142330922Y-120305867D01*
X142237636Y-120046977D01*
X142175656Y-119931020D01*
X142021451Y-119888000D01*
X145919928Y-119888000D01*
X145919928Y-121412000D01*
X145932188Y-121536482D01*
X145968498Y-121656180D01*
X146027463Y-121766494D01*
X146106815Y-121863185D01*
X146203506Y-121942537D01*
X146313820Y-122001502D01*
X146433518Y-122037812D01*
X146558000Y-122050072D01*
X148082000Y-122050072D01*
X148206482Y-122037812D01*
X148326180Y-122001502D01*
X148436494Y-121942537D01*
X148533185Y-121863185D01*
X148612537Y-121766494D01*
X148671502Y-121656180D01*
X148683822Y-121615565D01*
X149074040Y-121615565D01*
X149141020Y-121855656D01*
X149390048Y-121972756D01*
X149657135Y-122039023D01*
X149932017Y-122051910D01*
X150204133Y-122010922D01*
X150463023Y-121917636D01*
X150578980Y-121855656D01*
X150645960Y-121615565D01*
X149860000Y-120829605D01*
X149074040Y-121615565D01*
X148683822Y-121615565D01*
X148707812Y-121536482D01*
X148720072Y-121412000D01*
X148720072Y-121387317D01*
X148894435Y-121435960D01*
X149680395Y-120650000D01*
X150039605Y-120650000D01*
X150825565Y-121435960D01*
X151065656Y-121368980D01*
X151129485Y-121233240D01*
X151161995Y-121311727D01*
X151314880Y-121540535D01*
X151509465Y-121735120D01*
X151738273Y-121888005D01*
X151992510Y-121993314D01*
X152262408Y-122047000D01*
X152537592Y-122047000D01*
X152807490Y-121993314D01*
X153061727Y-121888005D01*
X153290535Y-121735120D01*
X153485120Y-121540535D01*
X153638005Y-121311727D01*
X153670000Y-121234485D01*
X153701995Y-121311727D01*
X153854880Y-121540535D01*
X154049465Y-121735120D01*
X154278273Y-121888005D01*
X154532510Y-121993314D01*
X154802408Y-122047000D01*
X155077592Y-122047000D01*
X155347490Y-121993314D01*
X155601727Y-121888005D01*
X155830535Y-121735120D01*
X156025120Y-121540535D01*
X156178005Y-121311727D01*
X156210000Y-121234485D01*
X156241995Y-121311727D01*
X156394880Y-121540535D01*
X156589465Y-121735120D01*
X156818273Y-121888005D01*
X157072510Y-121993314D01*
X157342408Y-122047000D01*
X157617592Y-122047000D01*
X157887490Y-121993314D01*
X158141727Y-121888005D01*
X158370535Y-121735120D01*
X158565120Y-121540535D01*
X158718005Y-121311727D01*
X158750000Y-121234485D01*
X158781995Y-121311727D01*
X158934880Y-121540535D01*
X159129465Y-121735120D01*
X159358273Y-121888005D01*
X159612510Y-121993314D01*
X159882408Y-122047000D01*
X160157592Y-122047000D01*
X160427490Y-121993314D01*
X160681727Y-121888005D01*
X160910535Y-121735120D01*
X161105120Y-121540535D01*
X161258005Y-121311727D01*
X161290000Y-121234485D01*
X161321995Y-121311727D01*
X161474880Y-121540535D01*
X161669465Y-121735120D01*
X161898273Y-121888005D01*
X162152510Y-121993314D01*
X162422408Y-122047000D01*
X162697592Y-122047000D01*
X162967490Y-121993314D01*
X163221727Y-121888005D01*
X163450535Y-121735120D01*
X163570090Y-121615565D01*
X164314040Y-121615565D01*
X164381020Y-121855656D01*
X164630048Y-121972756D01*
X164897135Y-122039023D01*
X165172017Y-122051910D01*
X165444133Y-122010922D01*
X165703023Y-121917636D01*
X165818980Y-121855656D01*
X165885960Y-121615565D01*
X165100000Y-120829605D01*
X164314040Y-121615565D01*
X163570090Y-121615565D01*
X163645120Y-121540535D01*
X163798005Y-121311727D01*
X163827692Y-121240057D01*
X163832364Y-121253023D01*
X163894344Y-121368980D01*
X164134435Y-121435960D01*
X164920395Y-120650000D01*
X165279605Y-120650000D01*
X166065565Y-121435960D01*
X166305656Y-121368980D01*
X166422756Y-121119952D01*
X166489023Y-120852865D01*
X166501910Y-120577983D01*
X166460922Y-120305867D01*
X166367636Y-120046977D01*
X166305656Y-119931020D01*
X166065565Y-119864040D01*
X165279605Y-120650000D01*
X164920395Y-120650000D01*
X164134435Y-119864040D01*
X163894344Y-119931020D01*
X163830515Y-120066760D01*
X163798005Y-119988273D01*
X163645120Y-119759465D01*
X163570090Y-119684435D01*
X164314040Y-119684435D01*
X165100000Y-120470395D01*
X165885960Y-119684435D01*
X165818980Y-119444344D01*
X165569952Y-119327244D01*
X165302865Y-119260977D01*
X165027983Y-119248090D01*
X164755867Y-119289078D01*
X164496977Y-119382364D01*
X164381020Y-119444344D01*
X164314040Y-119684435D01*
X163570090Y-119684435D01*
X163450535Y-119564880D01*
X163221727Y-119411995D01*
X162967490Y-119306686D01*
X162697592Y-119253000D01*
X162422408Y-119253000D01*
X162152510Y-119306686D01*
X161898273Y-119411995D01*
X161669465Y-119564880D01*
X161474880Y-119759465D01*
X161321995Y-119988273D01*
X161290000Y-120065515D01*
X161258005Y-119988273D01*
X161105120Y-119759465D01*
X160910535Y-119564880D01*
X160681727Y-119411995D01*
X160427490Y-119306686D01*
X160157592Y-119253000D01*
X159882408Y-119253000D01*
X159612510Y-119306686D01*
X159358273Y-119411995D01*
X159129465Y-119564880D01*
X158934880Y-119759465D01*
X158781995Y-119988273D01*
X158750000Y-120065515D01*
X158718005Y-119988273D01*
X158565120Y-119759465D01*
X158370535Y-119564880D01*
X158141727Y-119411995D01*
X157887490Y-119306686D01*
X157617592Y-119253000D01*
X157342408Y-119253000D01*
X157072510Y-119306686D01*
X156818273Y-119411995D01*
X156589465Y-119564880D01*
X156394880Y-119759465D01*
X156241995Y-119988273D01*
X156210000Y-120065515D01*
X156178005Y-119988273D01*
X156025120Y-119759465D01*
X155830535Y-119564880D01*
X155601727Y-119411995D01*
X155347490Y-119306686D01*
X155077592Y-119253000D01*
X154802408Y-119253000D01*
X154532510Y-119306686D01*
X154278273Y-119411995D01*
X154049465Y-119564880D01*
X153854880Y-119759465D01*
X153701995Y-119988273D01*
X153670000Y-120065515D01*
X153638005Y-119988273D01*
X153485120Y-119759465D01*
X153290535Y-119564880D01*
X153061727Y-119411995D01*
X152807490Y-119306686D01*
X152537592Y-119253000D01*
X152262408Y-119253000D01*
X151992510Y-119306686D01*
X151738273Y-119411995D01*
X151509465Y-119564880D01*
X151314880Y-119759465D01*
X151161995Y-119988273D01*
X151132308Y-120059943D01*
X151127636Y-120046977D01*
X151065656Y-119931020D01*
X150825565Y-119864040D01*
X150039605Y-120650000D01*
X149680395Y-120650000D01*
X148894435Y-119864040D01*
X148720072Y-119912683D01*
X148720072Y-119888000D01*
X148707812Y-119763518D01*
X148683823Y-119684435D01*
X149074040Y-119684435D01*
X149860000Y-120470395D01*
X150645960Y-119684435D01*
X150578980Y-119444344D01*
X150329952Y-119327244D01*
X150062865Y-119260977D01*
X149787983Y-119248090D01*
X149515867Y-119289078D01*
X149256977Y-119382364D01*
X149141020Y-119444344D01*
X149074040Y-119684435D01*
X148683823Y-119684435D01*
X148671502Y-119643820D01*
X148612537Y-119533506D01*
X148533185Y-119436815D01*
X148436494Y-119357463D01*
X148326180Y-119298498D01*
X148206482Y-119262188D01*
X148082000Y-119249928D01*
X146558000Y-119249928D01*
X146433518Y-119262188D01*
X146313820Y-119298498D01*
X146203506Y-119357463D01*
X146106815Y-119436815D01*
X146027463Y-119533506D01*
X145968498Y-119643820D01*
X145932188Y-119763518D01*
X145919928Y-119888000D01*
X142021451Y-119888000D01*
X141935565Y-119864040D01*
X141149605Y-120650000D01*
X140790395Y-120650000D01*
X140004435Y-119864040D01*
X139764344Y-119931020D01*
X139700515Y-120066760D01*
X139668005Y-119988273D01*
X139515120Y-119759465D01*
X139440090Y-119684435D01*
X140184040Y-119684435D01*
X140970000Y-120470395D01*
X141755960Y-119684435D01*
X141688980Y-119444344D01*
X141439952Y-119327244D01*
X141172865Y-119260977D01*
X140897983Y-119248090D01*
X140625867Y-119289078D01*
X140366977Y-119382364D01*
X140251020Y-119444344D01*
X140184040Y-119684435D01*
X139440090Y-119684435D01*
X139320535Y-119564880D01*
X139091727Y-119411995D01*
X138837490Y-119306686D01*
X138567592Y-119253000D01*
X138292408Y-119253000D01*
X138022510Y-119306686D01*
X137768273Y-119411995D01*
X137539465Y-119564880D01*
X137344880Y-119759465D01*
X137191995Y-119988273D01*
X137160000Y-120065515D01*
X137128005Y-119988273D01*
X136975120Y-119759465D01*
X136780535Y-119564880D01*
X136551727Y-119411995D01*
X136297490Y-119306686D01*
X136027592Y-119253000D01*
X135752408Y-119253000D01*
X135482510Y-119306686D01*
X135228273Y-119411995D01*
X134999465Y-119564880D01*
X134804880Y-119759465D01*
X134651995Y-119988273D01*
X134620000Y-120065515D01*
X134588005Y-119988273D01*
X134435120Y-119759465D01*
X134240535Y-119564880D01*
X134011727Y-119411995D01*
X133757490Y-119306686D01*
X133487592Y-119253000D01*
X133212408Y-119253000D01*
X132942510Y-119306686D01*
X132688273Y-119411995D01*
X132459465Y-119564880D01*
X132264880Y-119759465D01*
X132111995Y-119988273D01*
X132080000Y-120065515D01*
X132048005Y-119988273D01*
X131895120Y-119759465D01*
X131700535Y-119564880D01*
X131471727Y-119411995D01*
X131217490Y-119306686D01*
X130947592Y-119253000D01*
X130672408Y-119253000D01*
X130402510Y-119306686D01*
X130148273Y-119411995D01*
X129919465Y-119564880D01*
X129724880Y-119759465D01*
X129571995Y-119988273D01*
X129540000Y-120065515D01*
X129508005Y-119988273D01*
X129355120Y-119759465D01*
X129160535Y-119564880D01*
X128931727Y-119411995D01*
X128677490Y-119306686D01*
X128407592Y-119253000D01*
X128132408Y-119253000D01*
X127862510Y-119306686D01*
X127608273Y-119411995D01*
X127379465Y-119564880D01*
X127184880Y-119759465D01*
X127031995Y-119988273D01*
X127002308Y-120059943D01*
X126997636Y-120046977D01*
X126935656Y-119931020D01*
X126695565Y-119864040D01*
X125909605Y-120650000D01*
X125550395Y-120650000D01*
X124764435Y-119864040D01*
X124590072Y-119912683D01*
X124590072Y-119888000D01*
X124577812Y-119763518D01*
X124553823Y-119684435D01*
X124944040Y-119684435D01*
X125730000Y-120470395D01*
X126515960Y-119684435D01*
X126448980Y-119444344D01*
X126199952Y-119327244D01*
X125932865Y-119260977D01*
X125657983Y-119248090D01*
X125385867Y-119289078D01*
X125126977Y-119382364D01*
X125011020Y-119444344D01*
X124944040Y-119684435D01*
X124553823Y-119684435D01*
X124541502Y-119643820D01*
X124482537Y-119533506D01*
X124403185Y-119436815D01*
X124306494Y-119357463D01*
X124196180Y-119298498D01*
X124076482Y-119262188D01*
X123952000Y-119249928D01*
X122428000Y-119249928D01*
X122303518Y-119262188D01*
X122183820Y-119298498D01*
X122073506Y-119357463D01*
X121976815Y-119436815D01*
X121897463Y-119533506D01*
X121838498Y-119643820D01*
X121802188Y-119763518D01*
X121789928Y-119888000D01*
X115563340Y-119888000D01*
X115460706Y-119695986D01*
X115275134Y-119469866D01*
X115049013Y-119284294D01*
X114791033Y-119146401D01*
X114511110Y-119061487D01*
X114220000Y-119032815D01*
X113928889Y-119061487D01*
X113648966Y-119146401D01*
X113390986Y-119284294D01*
X113164866Y-119469866D01*
X112979294Y-119695987D01*
X112965538Y-119721722D01*
X112809049Y-119515571D01*
X112591193Y-119322504D01*
X112339858Y-119175648D01*
X112076890Y-119083524D01*
X111847000Y-119204845D01*
X111593000Y-119204845D01*
X111363110Y-119083524D01*
X111100142Y-119175648D01*
X110848807Y-119322504D01*
X110630951Y-119515571D01*
X110614714Y-119536961D01*
X110558405Y-119431614D01*
X110447962Y-119297038D01*
X110313386Y-119186595D01*
X110159850Y-119104528D01*
X109993254Y-119053992D01*
X109820000Y-119036928D01*
X108620000Y-119036928D01*
X108446746Y-119053992D01*
X108280150Y-119104528D01*
X108126614Y-119186595D01*
X107992038Y-119297038D01*
X107881595Y-119431614D01*
X107799528Y-119585150D01*
X107748992Y-119751746D01*
X107731928Y-119925000D01*
X102360000Y-119925000D01*
X102360000Y-113344801D01*
X103184802Y-112520000D01*
X107815375Y-112520000D01*
X107828992Y-112658254D01*
X107879528Y-112824850D01*
X107961595Y-112978386D01*
X108072038Y-113112962D01*
X108206614Y-113223405D01*
X108360150Y-113305472D01*
X108526746Y-113356008D01*
X108700000Y-113373072D01*
X109900000Y-113373072D01*
X110073254Y-113356008D01*
X110239850Y-113305472D01*
X110393386Y-113223405D01*
X110527962Y-113112962D01*
X110638405Y-112978386D01*
X110694714Y-112873039D01*
X110710951Y-112894429D01*
X110928807Y-113087496D01*
X111180142Y-113234352D01*
X111443110Y-113326476D01*
X111673000Y-113205155D01*
X111673000Y-111887000D01*
X111653000Y-111887000D01*
X111653000Y-111633000D01*
X111673000Y-111633000D01*
X111673000Y-110314845D01*
X111927000Y-110314845D01*
X111927000Y-111633000D01*
X111947000Y-111633000D01*
X111947000Y-111887000D01*
X111927000Y-111887000D01*
X111927000Y-113205155D01*
X112156890Y-113326476D01*
X112419858Y-113234352D01*
X112671193Y-113087496D01*
X112889049Y-112894429D01*
X113045538Y-112688278D01*
X113059294Y-112714014D01*
X113244866Y-112940134D01*
X113470987Y-113125706D01*
X113728967Y-113263599D01*
X114008890Y-113348513D01*
X114300000Y-113377185D01*
X114591111Y-113348513D01*
X114871034Y-113263599D01*
X115129014Y-113125706D01*
X115355134Y-112940134D01*
X115540706Y-112714014D01*
X115678599Y-112456033D01*
X115747165Y-112230000D01*
X120481928Y-112230000D01*
X120481928Y-113830000D01*
X120494188Y-113954482D01*
X120530498Y-114074180D01*
X120589463Y-114184494D01*
X120668815Y-114281185D01*
X120765506Y-114360537D01*
X120875820Y-114419502D01*
X120995518Y-114455812D01*
X121120000Y-114468072D01*
X122720000Y-114468072D01*
X122844482Y-114455812D01*
X122964180Y-114419502D01*
X123074494Y-114360537D01*
X123171185Y-114281185D01*
X123250537Y-114184494D01*
X123309502Y-114074180D01*
X123325117Y-114022702D01*
X124606903Y-114022702D01*
X124678486Y-114266671D01*
X124933996Y-114387571D01*
X125208184Y-114456300D01*
X125490512Y-114470217D01*
X125770130Y-114428787D01*
X126036292Y-114333603D01*
X126161514Y-114266671D01*
X126233097Y-114022702D01*
X125420000Y-113209605D01*
X124606903Y-114022702D01*
X123325117Y-114022702D01*
X123345812Y-113954482D01*
X123358072Y-113830000D01*
X123358072Y-113100512D01*
X123979783Y-113100512D01*
X124021213Y-113380130D01*
X124116397Y-113646292D01*
X124183329Y-113771514D01*
X124427298Y-113843097D01*
X125240395Y-113030000D01*
X125599605Y-113030000D01*
X126412702Y-113843097D01*
X126656671Y-113771514D01*
X126777571Y-113516004D01*
X126846300Y-113241816D01*
X126860217Y-112959488D01*
X126818787Y-112679870D01*
X126723603Y-112413708D01*
X126656671Y-112288486D01*
X126412702Y-112216903D01*
X125599605Y-113030000D01*
X125240395Y-113030000D01*
X124427298Y-112216903D01*
X124183329Y-112288486D01*
X124062429Y-112543996D01*
X123993700Y-112818184D01*
X123979783Y-113100512D01*
X123358072Y-113100512D01*
X123358072Y-112230000D01*
X123345812Y-112105518D01*
X123325118Y-112037298D01*
X124606903Y-112037298D01*
X125420000Y-112850395D01*
X126233097Y-112037298D01*
X126161514Y-111793329D01*
X125906004Y-111672429D01*
X125631816Y-111603700D01*
X125349488Y-111589783D01*
X125069870Y-111631213D01*
X124803708Y-111726397D01*
X124678486Y-111793329D01*
X124606903Y-112037298D01*
X123325118Y-112037298D01*
X123309502Y-111985820D01*
X123250537Y-111875506D01*
X123171185Y-111778815D01*
X123074494Y-111699463D01*
X122964180Y-111640498D01*
X122844482Y-111604188D01*
X122720000Y-111591928D01*
X121120000Y-111591928D01*
X120995518Y-111604188D01*
X120875820Y-111640498D01*
X120765506Y-111699463D01*
X120668815Y-111778815D01*
X120589463Y-111875506D01*
X120530498Y-111985820D01*
X120494188Y-112105518D01*
X120481928Y-112230000D01*
X115747165Y-112230000D01*
X115763513Y-112176110D01*
X115785000Y-111957949D01*
X115785000Y-111562050D01*
X115763513Y-111343889D01*
X115678599Y-111063966D01*
X115663117Y-111035000D01*
X130591928Y-111035000D01*
X130591928Y-112485000D01*
X130608992Y-112658254D01*
X130659528Y-112824850D01*
X130741595Y-112978386D01*
X130852038Y-113112962D01*
X130986614Y-113223405D01*
X131140150Y-113305472D01*
X131306746Y-113356008D01*
X131480000Y-113373072D01*
X132680000Y-113373072D01*
X132853254Y-113356008D01*
X133019850Y-113305472D01*
X133173386Y-113223405D01*
X133307962Y-113112962D01*
X133418405Y-112978386D01*
X133472777Y-112876663D01*
X133524866Y-112940134D01*
X133750987Y-113125706D01*
X134008967Y-113263599D01*
X134288890Y-113348513D01*
X134580000Y-113377185D01*
X134871111Y-113348513D01*
X135151034Y-113263599D01*
X135409014Y-113125706D01*
X135635134Y-112940134D01*
X135820706Y-112714014D01*
X135830000Y-112696626D01*
X135839294Y-112714014D01*
X136024866Y-112940134D01*
X136250987Y-113125706D01*
X136508967Y-113263599D01*
X136788890Y-113348513D01*
X137080000Y-113377185D01*
X137371111Y-113348513D01*
X137651034Y-113263599D01*
X137909014Y-113125706D01*
X138135134Y-112940134D01*
X138320706Y-112714014D01*
X138330000Y-112696626D01*
X138339294Y-112714014D01*
X138524866Y-112940134D01*
X138750987Y-113125706D01*
X139008967Y-113263599D01*
X139288890Y-113348513D01*
X139580000Y-113377185D01*
X139871111Y-113348513D01*
X140151034Y-113263599D01*
X140409014Y-113125706D01*
X140635134Y-112940134D01*
X140820706Y-112714014D01*
X140958599Y-112456033D01*
X141027165Y-112230000D01*
X144611928Y-112230000D01*
X144611928Y-113830000D01*
X144624188Y-113954482D01*
X144660498Y-114074180D01*
X144719463Y-114184494D01*
X144798815Y-114281185D01*
X144895506Y-114360537D01*
X145005820Y-114419502D01*
X145125518Y-114455812D01*
X145250000Y-114468072D01*
X146850000Y-114468072D01*
X146974482Y-114455812D01*
X147094180Y-114419502D01*
X147204494Y-114360537D01*
X147301185Y-114281185D01*
X147380537Y-114184494D01*
X147439502Y-114074180D01*
X147455117Y-114022702D01*
X148736903Y-114022702D01*
X148808486Y-114266671D01*
X149063996Y-114387571D01*
X149338184Y-114456300D01*
X149620512Y-114470217D01*
X149900130Y-114428787D01*
X150166292Y-114333603D01*
X150291514Y-114266671D01*
X150363097Y-114022702D01*
X149550000Y-113209605D01*
X148736903Y-114022702D01*
X147455117Y-114022702D01*
X147475812Y-113954482D01*
X147488072Y-113830000D01*
X147488072Y-113100512D01*
X148109783Y-113100512D01*
X148151213Y-113380130D01*
X148246397Y-113646292D01*
X148313329Y-113771514D01*
X148557298Y-113843097D01*
X149370395Y-113030000D01*
X149729605Y-113030000D01*
X150542702Y-113843097D01*
X150786671Y-113771514D01*
X150907571Y-113516004D01*
X150976300Y-113241816D01*
X150990217Y-112959488D01*
X150948787Y-112679870D01*
X150853603Y-112413708D01*
X150786671Y-112288486D01*
X150542702Y-112216903D01*
X149729605Y-113030000D01*
X149370395Y-113030000D01*
X148557298Y-112216903D01*
X148313329Y-112288486D01*
X148192429Y-112543996D01*
X148123700Y-112818184D01*
X148109783Y-113100512D01*
X147488072Y-113100512D01*
X147488072Y-112230000D01*
X147475812Y-112105518D01*
X147455118Y-112037298D01*
X148736903Y-112037298D01*
X149550000Y-112850395D01*
X150363097Y-112037298D01*
X150291514Y-111793329D01*
X150036004Y-111672429D01*
X149761816Y-111603700D01*
X149479488Y-111589783D01*
X149199870Y-111631213D01*
X148933708Y-111726397D01*
X148808486Y-111793329D01*
X148736903Y-112037298D01*
X147455118Y-112037298D01*
X147439502Y-111985820D01*
X147380537Y-111875506D01*
X147301185Y-111778815D01*
X147204494Y-111699463D01*
X147094180Y-111640498D01*
X146974482Y-111604188D01*
X146850000Y-111591928D01*
X145250000Y-111591928D01*
X145125518Y-111604188D01*
X145005820Y-111640498D01*
X144895506Y-111699463D01*
X144798815Y-111778815D01*
X144719463Y-111875506D01*
X144660498Y-111985820D01*
X144624188Y-112105518D01*
X144611928Y-112230000D01*
X141027165Y-112230000D01*
X141043513Y-112176110D01*
X141065000Y-111957949D01*
X141065000Y-111562050D01*
X141043513Y-111343889D01*
X140958599Y-111063966D01*
X140943117Y-111035000D01*
X154721928Y-111035000D01*
X154721928Y-112485000D01*
X154738992Y-112658254D01*
X154789528Y-112824850D01*
X154871595Y-112978386D01*
X154982038Y-113112962D01*
X155116614Y-113223405D01*
X155270150Y-113305472D01*
X155436746Y-113356008D01*
X155610000Y-113373072D01*
X156810000Y-113373072D01*
X156983254Y-113356008D01*
X157149850Y-113305472D01*
X157303386Y-113223405D01*
X157437962Y-113112962D01*
X157548405Y-112978386D01*
X157602777Y-112876663D01*
X157654866Y-112940134D01*
X157880987Y-113125706D01*
X158138967Y-113263599D01*
X158418890Y-113348513D01*
X158710000Y-113377185D01*
X159001111Y-113348513D01*
X159281034Y-113263599D01*
X159539014Y-113125706D01*
X159765134Y-112940134D01*
X159950706Y-112714014D01*
X159960000Y-112696626D01*
X159969294Y-112714014D01*
X160154866Y-112940134D01*
X160380987Y-113125706D01*
X160638967Y-113263599D01*
X160918890Y-113348513D01*
X161210000Y-113377185D01*
X161501111Y-113348513D01*
X161781034Y-113263599D01*
X162039014Y-113125706D01*
X162265134Y-112940134D01*
X162450706Y-112714014D01*
X162460000Y-112696626D01*
X162469294Y-112714014D01*
X162654866Y-112940134D01*
X162880987Y-113125706D01*
X163138967Y-113263599D01*
X163418890Y-113348513D01*
X163710000Y-113377185D01*
X164001111Y-113348513D01*
X164281034Y-113263599D01*
X164539014Y-113125706D01*
X164765134Y-112940134D01*
X164950706Y-112714014D01*
X165088599Y-112456033D01*
X165173513Y-112176110D01*
X165195000Y-111957949D01*
X165195000Y-111562050D01*
X165173513Y-111343889D01*
X165088599Y-111063966D01*
X164950706Y-110805986D01*
X164765134Y-110579866D01*
X164539013Y-110394294D01*
X164281033Y-110256401D01*
X164001110Y-110171487D01*
X163710000Y-110142815D01*
X163418889Y-110171487D01*
X163138966Y-110256401D01*
X162880986Y-110394294D01*
X162654866Y-110579866D01*
X162469294Y-110805987D01*
X162460000Y-110823374D01*
X162450706Y-110805986D01*
X162265134Y-110579866D01*
X162039013Y-110394294D01*
X161781033Y-110256401D01*
X161501110Y-110171487D01*
X161210000Y-110142815D01*
X160918889Y-110171487D01*
X160638966Y-110256401D01*
X160380986Y-110394294D01*
X160154866Y-110579866D01*
X159969294Y-110805987D01*
X159960000Y-110823374D01*
X159950706Y-110805986D01*
X159765134Y-110579866D01*
X159539013Y-110394294D01*
X159281033Y-110256401D01*
X159001110Y-110171487D01*
X158710000Y-110142815D01*
X158418889Y-110171487D01*
X158138966Y-110256401D01*
X157880986Y-110394294D01*
X157654866Y-110579866D01*
X157602777Y-110643337D01*
X157548405Y-110541614D01*
X157437962Y-110407038D01*
X157303386Y-110296595D01*
X157149850Y-110214528D01*
X156983254Y-110163992D01*
X156810000Y-110146928D01*
X155610000Y-110146928D01*
X155436746Y-110163992D01*
X155270150Y-110214528D01*
X155116614Y-110296595D01*
X154982038Y-110407038D01*
X154871595Y-110541614D01*
X154789528Y-110695150D01*
X154738992Y-110861746D01*
X154721928Y-111035000D01*
X140943117Y-111035000D01*
X140820706Y-110805986D01*
X140635134Y-110579866D01*
X140409013Y-110394294D01*
X140151033Y-110256401D01*
X139871110Y-110171487D01*
X139580000Y-110142815D01*
X139288889Y-110171487D01*
X139008966Y-110256401D01*
X138750986Y-110394294D01*
X138524866Y-110579866D01*
X138339294Y-110805987D01*
X138330000Y-110823374D01*
X138320706Y-110805986D01*
X138135134Y-110579866D01*
X137909013Y-110394294D01*
X137651033Y-110256401D01*
X137371110Y-110171487D01*
X137080000Y-110142815D01*
X136788889Y-110171487D01*
X136508966Y-110256401D01*
X136250986Y-110394294D01*
X136024866Y-110579866D01*
X135839294Y-110805987D01*
X135830000Y-110823374D01*
X135820706Y-110805986D01*
X135635134Y-110579866D01*
X135409013Y-110394294D01*
X135151033Y-110256401D01*
X134871110Y-110171487D01*
X134580000Y-110142815D01*
X134288889Y-110171487D01*
X134008966Y-110256401D01*
X133750986Y-110394294D01*
X133524866Y-110579866D01*
X133472777Y-110643337D01*
X133418405Y-110541614D01*
X133307962Y-110407038D01*
X133173386Y-110296595D01*
X133019850Y-110214528D01*
X132853254Y-110163992D01*
X132680000Y-110146928D01*
X131480000Y-110146928D01*
X131306746Y-110163992D01*
X131140150Y-110214528D01*
X130986614Y-110296595D01*
X130852038Y-110407038D01*
X130741595Y-110541614D01*
X130659528Y-110695150D01*
X130608992Y-110861746D01*
X130591928Y-111035000D01*
X115663117Y-111035000D01*
X115540706Y-110805986D01*
X115355134Y-110579866D01*
X115129013Y-110394294D01*
X114871033Y-110256401D01*
X114591110Y-110171487D01*
X114300000Y-110142815D01*
X114008889Y-110171487D01*
X113728966Y-110256401D01*
X113470986Y-110394294D01*
X113244866Y-110579866D01*
X113059294Y-110805987D01*
X113045538Y-110831722D01*
X112889049Y-110625571D01*
X112671193Y-110432504D01*
X112419858Y-110285648D01*
X112156890Y-110193524D01*
X111927000Y-110314845D01*
X111673000Y-110314845D01*
X111443110Y-110193524D01*
X111180142Y-110285648D01*
X110928807Y-110432504D01*
X110710951Y-110625571D01*
X110694714Y-110646961D01*
X110638405Y-110541614D01*
X110527962Y-110407038D01*
X110393386Y-110296595D01*
X110239850Y-110214528D01*
X110073254Y-110163992D01*
X109900000Y-110146928D01*
X108700000Y-110146928D01*
X108526746Y-110163992D01*
X108360150Y-110214528D01*
X108206614Y-110296595D01*
X108072038Y-110407038D01*
X107961595Y-110541614D01*
X107879528Y-110695150D01*
X107828992Y-110861746D01*
X107815375Y-111000000D01*
X102907322Y-111000000D01*
X102869999Y-110996324D01*
X102832676Y-111000000D01*
X102832667Y-111000000D01*
X102721014Y-111010997D01*
X102577753Y-111054454D01*
X102445724Y-111125026D01*
X102329999Y-111219999D01*
X102306201Y-111248997D01*
X101089003Y-112466196D01*
X101059999Y-112489999D01*
X101015685Y-112543996D01*
X100965026Y-112605724D01*
X100936948Y-112658254D01*
X100894454Y-112737754D01*
X100850997Y-112881015D01*
X100840000Y-112992668D01*
X100840000Y-112992678D01*
X100836324Y-113030000D01*
X100840000Y-113067322D01*
X100840001Y-121605197D01*
X100269199Y-122176000D01*
X91731322Y-122176000D01*
X91693999Y-122172324D01*
X91656676Y-122176000D01*
X91656667Y-122176000D01*
X91545014Y-122186997D01*
X91401753Y-122230454D01*
X91269724Y-122301026D01*
X91153999Y-122395999D01*
X91130196Y-122425003D01*
X90928998Y-122626201D01*
X90900000Y-122649999D01*
X90876202Y-122678997D01*
X90876201Y-122678998D01*
X90805026Y-122765724D01*
X90734454Y-122897754D01*
X90690998Y-123041015D01*
X90689419Y-123057043D01*
X90612073Y-123089081D01*
X90603428Y-123093702D01*
X90499411Y-123163208D01*
X90491835Y-123169426D01*
X90445460Y-123211460D01*
X90170000Y-123486920D01*
X89894540Y-123211460D01*
X89848165Y-123169426D01*
X89840589Y-123163208D01*
X89736572Y-123093702D01*
X89727927Y-123089081D01*
X89612351Y-123041208D01*
X89602972Y-123038363D01*
X89480311Y-123013963D01*
X89470556Y-123013002D01*
X89408000Y-123009928D01*
X88392000Y-123009928D01*
X88329444Y-123013002D01*
X88319689Y-123013963D01*
X88197028Y-123038363D01*
X88187649Y-123041208D01*
X88072073Y-123089081D01*
X88063428Y-123093702D01*
X87959411Y-123163208D01*
X87951835Y-123169426D01*
X87905460Y-123211460D01*
X87630000Y-123486920D01*
X87354540Y-123211460D01*
X87308165Y-123169426D01*
X87300589Y-123163208D01*
X87196572Y-123093702D01*
X87187927Y-123089081D01*
X87072351Y-123041208D01*
X87062972Y-123038363D01*
X86940311Y-123013963D01*
X86930556Y-123013002D01*
X86868000Y-123009928D01*
X85852000Y-123009928D01*
X85789444Y-123013002D01*
X85779689Y-123013963D01*
X85657028Y-123038363D01*
X85647649Y-123041208D01*
X85532073Y-123089081D01*
X85523428Y-123093702D01*
X85419411Y-123163208D01*
X85411835Y-123169426D01*
X85365460Y-123211460D01*
X85090000Y-123486920D01*
X84814540Y-123211460D01*
X84768165Y-123169426D01*
X84760589Y-123163208D01*
X84656572Y-123093702D01*
X84647927Y-123089081D01*
X84532351Y-123041208D01*
X84522972Y-123038363D01*
X84400311Y-123013963D01*
X84390556Y-123013002D01*
X84328000Y-123009928D01*
X83312000Y-123009928D01*
X83249444Y-123013002D01*
X83239689Y-123013963D01*
X83117028Y-123038363D01*
X83107649Y-123041208D01*
X82992073Y-123089081D01*
X82983428Y-123093702D01*
X82879411Y-123163208D01*
X82871835Y-123169426D01*
X82825460Y-123211460D01*
X82550000Y-123486920D01*
X82274540Y-123211460D01*
X82228165Y-123169426D01*
X82220589Y-123163208D01*
X82116572Y-123093702D01*
X82107927Y-123089081D01*
X81992351Y-123041208D01*
X81982972Y-123038363D01*
X81860311Y-123013963D01*
X81850556Y-123013002D01*
X81788000Y-123009928D01*
X80772000Y-123009928D01*
X80709444Y-123013002D01*
X80699689Y-123013963D01*
X80577028Y-123038363D01*
X80567649Y-123041208D01*
X80452073Y-123089081D01*
X80443428Y-123093702D01*
X80339411Y-123163208D01*
X80331835Y-123169426D01*
X80285460Y-123211460D01*
X79777460Y-123719460D01*
X79735426Y-123765835D01*
X79729208Y-123773411D01*
X79659702Y-123877428D01*
X79655081Y-123886073D01*
X79607208Y-124001649D01*
X79604363Y-124011028D01*
X79579963Y-124133689D01*
X79579002Y-124143444D01*
X79575928Y-124206000D01*
X77495000Y-124206000D01*
X77495000Y-121602702D01*
X86816903Y-121602702D01*
X86888486Y-121846671D01*
X87143996Y-121967571D01*
X87418184Y-122036300D01*
X87700512Y-122050217D01*
X87980130Y-122008787D01*
X88246292Y-121913603D01*
X88371514Y-121846671D01*
X88443097Y-121602702D01*
X91896903Y-121602702D01*
X91968486Y-121846671D01*
X92223996Y-121967571D01*
X92498184Y-122036300D01*
X92780512Y-122050217D01*
X93060130Y-122008787D01*
X93326292Y-121913603D01*
X93451514Y-121846671D01*
X93523097Y-121602702D01*
X92710000Y-120789605D01*
X91896903Y-121602702D01*
X88443097Y-121602702D01*
X87630000Y-120789605D01*
X86816903Y-121602702D01*
X77495000Y-121602702D01*
X77495000Y-120680512D01*
X86189783Y-120680512D01*
X86231213Y-120960130D01*
X86326397Y-121226292D01*
X86393329Y-121351514D01*
X86637298Y-121423097D01*
X87450395Y-120610000D01*
X87809605Y-120610000D01*
X88622702Y-121423097D01*
X88866671Y-121351514D01*
X88987571Y-121096004D01*
X89056300Y-120821816D01*
X89063265Y-120680512D01*
X91269783Y-120680512D01*
X91311213Y-120960130D01*
X91406397Y-121226292D01*
X91473329Y-121351514D01*
X91717298Y-121423097D01*
X92530395Y-120610000D01*
X92889605Y-120610000D01*
X93702702Y-121423097D01*
X93946671Y-121351514D01*
X94067571Y-121096004D01*
X94136300Y-120821816D01*
X94150217Y-120539488D01*
X94108787Y-120259870D01*
X94013603Y-119993708D01*
X93946671Y-119868486D01*
X93702702Y-119796903D01*
X92889605Y-120610000D01*
X92530395Y-120610000D01*
X91717298Y-119796903D01*
X91473329Y-119868486D01*
X91352429Y-120123996D01*
X91283700Y-120398184D01*
X91269783Y-120680512D01*
X89063265Y-120680512D01*
X89070217Y-120539488D01*
X89028787Y-120259870D01*
X88933603Y-119993708D01*
X88866671Y-119868486D01*
X88622702Y-119796903D01*
X87809605Y-120610000D01*
X87450395Y-120610000D01*
X86637298Y-119796903D01*
X86393329Y-119868486D01*
X86272429Y-120123996D01*
X86203700Y-120398184D01*
X86189783Y-120680512D01*
X77495000Y-120680512D01*
X77495000Y-119610000D01*
X79141928Y-119610000D01*
X79154188Y-119734482D01*
X79190498Y-119854180D01*
X79249463Y-119964494D01*
X79328815Y-120061185D01*
X79425506Y-120140537D01*
X79535820Y-120199502D01*
X79655518Y-120235812D01*
X79780000Y-120248072D01*
X80994250Y-120245000D01*
X81153000Y-120086250D01*
X81153000Y-118237000D01*
X81407000Y-118237000D01*
X81407000Y-120086250D01*
X81565750Y-120245000D01*
X82780000Y-120248072D01*
X82904482Y-120235812D01*
X83024180Y-120199502D01*
X83134494Y-120140537D01*
X83231185Y-120061185D01*
X83310537Y-119964494D01*
X83369502Y-119854180D01*
X83405812Y-119734482D01*
X83418072Y-119610000D01*
X83415000Y-118395750D01*
X83256250Y-118237000D01*
X81407000Y-118237000D01*
X81153000Y-118237000D01*
X79303750Y-118237000D01*
X79145000Y-118395750D01*
X79141928Y-119610000D01*
X77495000Y-119610000D01*
X77495000Y-116610000D01*
X79141928Y-116610000D01*
X79145000Y-117824250D01*
X79303750Y-117983000D01*
X81153000Y-117983000D01*
X81153000Y-116133750D01*
X81407000Y-116133750D01*
X81407000Y-117983000D01*
X83256250Y-117983000D01*
X83270585Y-117968665D01*
X86195000Y-117968665D01*
X86195000Y-118251335D01*
X86250147Y-118528574D01*
X86358320Y-118789727D01*
X86515363Y-119024759D01*
X86715241Y-119224637D01*
X86915869Y-119358692D01*
X86888486Y-119373329D01*
X86816903Y-119617298D01*
X87630000Y-120430395D01*
X88443097Y-119617298D01*
X88371514Y-119373329D01*
X88342659Y-119359676D01*
X88544759Y-119224637D01*
X88744637Y-119024759D01*
X88901680Y-118789727D01*
X89009853Y-118528574D01*
X89065000Y-118251335D01*
X89065000Y-117968665D01*
X91275000Y-117968665D01*
X91275000Y-118251335D01*
X91330147Y-118528574D01*
X91438320Y-118789727D01*
X91595363Y-119024759D01*
X91795241Y-119224637D01*
X91995869Y-119358692D01*
X91968486Y-119373329D01*
X91896903Y-119617298D01*
X92710000Y-120430395D01*
X93523097Y-119617298D01*
X93451514Y-119373329D01*
X93422659Y-119359676D01*
X93624759Y-119224637D01*
X93824637Y-119024759D01*
X93981680Y-118789727D01*
X94089853Y-118528574D01*
X94145000Y-118251335D01*
X94145000Y-117968665D01*
X94089853Y-117691426D01*
X93981680Y-117430273D01*
X93824637Y-117195241D01*
X93624759Y-116995363D01*
X93392242Y-116840000D01*
X94877319Y-116840000D01*
X94907970Y-117151204D01*
X94998745Y-117450449D01*
X95146155Y-117726235D01*
X95344537Y-117967963D01*
X95586265Y-118166345D01*
X95862051Y-118313755D01*
X96161296Y-118404530D01*
X96394514Y-118427500D01*
X96645486Y-118427500D01*
X96878704Y-118404530D01*
X97177949Y-118313755D01*
X97453735Y-118166345D01*
X97695463Y-117967963D01*
X97893845Y-117726235D01*
X98041255Y-117450449D01*
X98132030Y-117151204D01*
X98162681Y-116840000D01*
X98132030Y-116528796D01*
X98041255Y-116229551D01*
X97893845Y-115953765D01*
X97695463Y-115712037D01*
X97516101Y-115564837D01*
X97701315Y-115409437D01*
X97895969Y-115166923D01*
X98039571Y-114891094D01*
X98110563Y-114672980D01*
X97990594Y-114427000D01*
X96647000Y-114427000D01*
X96647000Y-114447000D01*
X96393000Y-114447000D01*
X96393000Y-114427000D01*
X95049406Y-114427000D01*
X94929437Y-114672980D01*
X95000429Y-114891094D01*
X95144031Y-115166923D01*
X95338685Y-115409437D01*
X95523899Y-115564837D01*
X95344537Y-115712037D01*
X95146155Y-115953765D01*
X94998745Y-116229551D01*
X94907970Y-116528796D01*
X94877319Y-116840000D01*
X93392242Y-116840000D01*
X93389727Y-116838320D01*
X93128574Y-116730147D01*
X92851335Y-116675000D01*
X92568665Y-116675000D01*
X92291426Y-116730147D01*
X92030273Y-116838320D01*
X91795241Y-116995363D01*
X91595363Y-117195241D01*
X91438320Y-117430273D01*
X91330147Y-117691426D01*
X91275000Y-117968665D01*
X89065000Y-117968665D01*
X89009853Y-117691426D01*
X88901680Y-117430273D01*
X88744637Y-117195241D01*
X88544759Y-116995363D01*
X88309727Y-116838320D01*
X88048574Y-116730147D01*
X87771335Y-116675000D01*
X87488665Y-116675000D01*
X87211426Y-116730147D01*
X86950273Y-116838320D01*
X86715241Y-116995363D01*
X86515363Y-117195241D01*
X86358320Y-117430273D01*
X86250147Y-117691426D01*
X86195000Y-117968665D01*
X83270585Y-117968665D01*
X83415000Y-117824250D01*
X83418072Y-116610000D01*
X83405812Y-116485518D01*
X83369502Y-116365820D01*
X83310537Y-116255506D01*
X83231185Y-116158815D01*
X83134494Y-116079463D01*
X83024180Y-116020498D01*
X82904482Y-115984188D01*
X82780000Y-115971928D01*
X81565750Y-115975000D01*
X81407000Y-116133750D01*
X81153000Y-116133750D01*
X80994250Y-115975000D01*
X79780000Y-115971928D01*
X79655518Y-115984188D01*
X79535820Y-116020498D01*
X79425506Y-116079463D01*
X79328815Y-116158815D01*
X79249463Y-116255506D01*
X79190498Y-116365820D01*
X79154188Y-116485518D01*
X79141928Y-116610000D01*
X77495000Y-116610000D01*
X77495000Y-112819721D01*
X79145000Y-112819721D01*
X79145000Y-113240279D01*
X79227047Y-113652756D01*
X79387988Y-114041302D01*
X79621637Y-114390983D01*
X79919017Y-114688363D01*
X80268698Y-114922012D01*
X80657244Y-115082953D01*
X81069721Y-115165000D01*
X81490279Y-115165000D01*
X81902756Y-115082953D01*
X82291302Y-114922012D01*
X82640983Y-114688363D01*
X82938363Y-114390983D01*
X83172012Y-114041302D01*
X83332953Y-113652756D01*
X83415000Y-113240279D01*
X83415000Y-112819721D01*
X83413041Y-112809872D01*
X87935000Y-112809872D01*
X87935000Y-113250128D01*
X88020890Y-113681925D01*
X88189369Y-114088669D01*
X88433962Y-114454729D01*
X88745271Y-114766038D01*
X89111331Y-115010631D01*
X89518075Y-115179110D01*
X89949872Y-115265000D01*
X90390128Y-115265000D01*
X90821925Y-115179110D01*
X91228669Y-115010631D01*
X91594729Y-114766038D01*
X91906038Y-114454729D01*
X92150631Y-114088669D01*
X92319110Y-113681925D01*
X92405000Y-113250128D01*
X92405000Y-112809872D01*
X92319110Y-112378075D01*
X92150631Y-111971331D01*
X91906038Y-111605271D01*
X91594729Y-111293962D01*
X91228669Y-111049369D01*
X90821925Y-110880890D01*
X90452970Y-110807500D01*
X94881928Y-110807500D01*
X94881928Y-112712500D01*
X94894188Y-112836982D01*
X94930498Y-112956680D01*
X94989463Y-113066994D01*
X95068815Y-113163685D01*
X95165506Y-113243037D01*
X95257219Y-113292059D01*
X95144031Y-113433077D01*
X95000429Y-113708906D01*
X94929437Y-113927020D01*
X95049406Y-114173000D01*
X96393000Y-114173000D01*
X96393000Y-114153000D01*
X96647000Y-114153000D01*
X96647000Y-114173000D01*
X97990594Y-114173000D01*
X98110563Y-113927020D01*
X98039571Y-113708906D01*
X97895969Y-113433077D01*
X97782781Y-113292059D01*
X97874494Y-113243037D01*
X97971185Y-113163685D01*
X98050537Y-113066994D01*
X98109502Y-112956680D01*
X98145812Y-112836982D01*
X98158072Y-112712500D01*
X98158072Y-110807500D01*
X98145812Y-110683018D01*
X98109502Y-110563320D01*
X98050537Y-110453006D01*
X97971185Y-110356315D01*
X97874494Y-110276963D01*
X97764180Y-110217998D01*
X97644482Y-110181688D01*
X97520000Y-110169428D01*
X95520000Y-110169428D01*
X95395518Y-110181688D01*
X95275820Y-110217998D01*
X95165506Y-110276963D01*
X95068815Y-110356315D01*
X94989463Y-110453006D01*
X94930498Y-110563320D01*
X94894188Y-110683018D01*
X94881928Y-110807500D01*
X90452970Y-110807500D01*
X90390128Y-110795000D01*
X89949872Y-110795000D01*
X89518075Y-110880890D01*
X89111331Y-111049369D01*
X88745271Y-111293962D01*
X88433962Y-111605271D01*
X88189369Y-111971331D01*
X88020890Y-112378075D01*
X87935000Y-112809872D01*
X83413041Y-112809872D01*
X83332953Y-112407244D01*
X83172012Y-112018698D01*
X82938363Y-111669017D01*
X82640983Y-111371637D01*
X82291302Y-111137988D01*
X81902756Y-110977047D01*
X81490279Y-110895000D01*
X81069721Y-110895000D01*
X80657244Y-110977047D01*
X80268698Y-111137988D01*
X79919017Y-111371637D01*
X79621637Y-111669017D01*
X79387988Y-112018698D01*
X79227047Y-112407244D01*
X79145000Y-112819721D01*
X77495000Y-112819721D01*
X77495000Y-109887277D01*
X77521815Y-109613796D01*
X77591867Y-109381774D01*
X77705650Y-109167778D01*
X77858832Y-108979959D01*
X78045577Y-108825470D01*
X78258769Y-108710199D01*
X78490300Y-108638528D01*
X78761725Y-108610000D01*
X165702723Y-108610000D01*
X165976204Y-108636815D01*
G37*
G04 #@! TD.AperFunction*
M02*
