G04 #@! TF.GenerationSoftware,KiCad,Pcbnew,(5.1.9)-1*
G04 #@! TF.CreationDate,2021-06-24T09:40:01+02:00*
G04 #@! TF.ProjectId,ercf-easy-brd,65726366-2d65-4617-9379-2d6272642e6b,v1.1*
G04 #@! TF.SameCoordinates,Original*
G04 #@! TF.FileFunction,Legend,Bot*
G04 #@! TF.FilePolarity,Positive*
%FSLAX46Y46*%
G04 Gerber Fmt 4.6, Leading zero omitted, Abs format (unit mm)*
G04 Created by KiCad (PCBNEW (5.1.9)-1) date 2021-06-24 09:40:01*
%MOMM*%
%LPD*%
G01*
G04 APERTURE LIST*
%ADD10C,0.150000*%
%ADD11C,0.120000*%
%ADD12C,0.200000*%
G04 APERTURE END LIST*
D10*
X158414404Y-137088571D02*
X158081071Y-137088571D01*
X157938214Y-137612380D02*
X158414404Y-137612380D01*
X158414404Y-136612380D01*
X157938214Y-136612380D01*
X156938214Y-137612380D02*
X157271547Y-137136190D01*
X157509642Y-137612380D02*
X157509642Y-136612380D01*
X157128690Y-136612380D01*
X157033452Y-136660000D01*
X156985833Y-136707619D01*
X156938214Y-136802857D01*
X156938214Y-136945714D01*
X156985833Y-137040952D01*
X157033452Y-137088571D01*
X157128690Y-137136190D01*
X157509642Y-137136190D01*
X155938214Y-137517142D02*
X155985833Y-137564761D01*
X156128690Y-137612380D01*
X156223928Y-137612380D01*
X156366785Y-137564761D01*
X156462023Y-137469523D01*
X156509642Y-137374285D01*
X156557261Y-137183809D01*
X156557261Y-137040952D01*
X156509642Y-136850476D01*
X156462023Y-136755238D01*
X156366785Y-136660000D01*
X156223928Y-136612380D01*
X156128690Y-136612380D01*
X155985833Y-136660000D01*
X155938214Y-136707619D01*
X155176309Y-137088571D02*
X155509642Y-137088571D01*
X155509642Y-137612380D02*
X155509642Y-136612380D01*
X155033452Y-136612380D01*
X153890595Y-137088571D02*
X153557261Y-137088571D01*
X153414404Y-137612380D02*
X153890595Y-137612380D01*
X153890595Y-136612380D01*
X153414404Y-136612380D01*
X153033452Y-137326666D02*
X152557261Y-137326666D01*
X153128690Y-137612380D02*
X152795357Y-136612380D01*
X152462023Y-137612380D01*
X152176309Y-137564761D02*
X152033452Y-137612380D01*
X151795357Y-137612380D01*
X151700119Y-137564761D01*
X151652500Y-137517142D01*
X151604880Y-137421904D01*
X151604880Y-137326666D01*
X151652500Y-137231428D01*
X151700119Y-137183809D01*
X151795357Y-137136190D01*
X151985833Y-137088571D01*
X152081071Y-137040952D01*
X152128690Y-136993333D01*
X152176309Y-136898095D01*
X152176309Y-136802857D01*
X152128690Y-136707619D01*
X152081071Y-136660000D01*
X151985833Y-136612380D01*
X151747738Y-136612380D01*
X151604880Y-136660000D01*
X150985833Y-137136190D02*
X150985833Y-137612380D01*
X151319166Y-136612380D02*
X150985833Y-137136190D01*
X150652500Y-136612380D01*
X149223928Y-137088571D02*
X149081071Y-137136190D01*
X149033452Y-137183809D01*
X148985833Y-137279047D01*
X148985833Y-137421904D01*
X149033452Y-137517142D01*
X149081071Y-137564761D01*
X149176309Y-137612380D01*
X149557261Y-137612380D01*
X149557261Y-136612380D01*
X149223928Y-136612380D01*
X149128690Y-136660000D01*
X149081071Y-136707619D01*
X149033452Y-136802857D01*
X149033452Y-136898095D01*
X149081071Y-136993333D01*
X149128690Y-137040952D01*
X149223928Y-137088571D01*
X149557261Y-137088571D01*
X147985833Y-137612380D02*
X148319166Y-137136190D01*
X148557261Y-137612380D02*
X148557261Y-136612380D01*
X148176309Y-136612380D01*
X148081071Y-136660000D01*
X148033452Y-136707619D01*
X147985833Y-136802857D01*
X147985833Y-136945714D01*
X148033452Y-137040952D01*
X148081071Y-137088571D01*
X148176309Y-137136190D01*
X148557261Y-137136190D01*
X147557261Y-137612380D02*
X147557261Y-136612380D01*
X147319166Y-136612380D01*
X147176309Y-136660000D01*
X147081071Y-136755238D01*
X147033452Y-136850476D01*
X146985833Y-137040952D01*
X146985833Y-137183809D01*
X147033452Y-137374285D01*
X147081071Y-137469523D01*
X147176309Y-137564761D01*
X147319166Y-137612380D01*
X147557261Y-137612380D01*
X145890595Y-136945714D02*
X145652500Y-137612380D01*
X145414404Y-136945714D01*
X144509642Y-137612380D02*
X145081071Y-137612380D01*
X144795357Y-137612380D02*
X144795357Y-136612380D01*
X144890595Y-136755238D01*
X144985833Y-136850476D01*
X145081071Y-136898095D01*
X144081071Y-137517142D02*
X144033452Y-137564761D01*
X144081071Y-137612380D01*
X144128690Y-137564761D01*
X144081071Y-137517142D01*
X144081071Y-137612380D01*
X143081071Y-137612380D02*
X143652500Y-137612380D01*
X143366785Y-137612380D02*
X143366785Y-136612380D01*
X143462023Y-136755238D01*
X143557261Y-136850476D01*
X143652500Y-136898095D01*
X157938214Y-141422380D02*
X158414404Y-141422380D01*
X158414404Y-140422380D01*
X157604880Y-141422380D02*
X157604880Y-140755714D01*
X157604880Y-140422380D02*
X157652500Y-140470000D01*
X157604880Y-140517619D01*
X157557261Y-140470000D01*
X157604880Y-140422380D01*
X157604880Y-140517619D01*
X156700119Y-141374761D02*
X156795357Y-141422380D01*
X156985833Y-141422380D01*
X157081071Y-141374761D01*
X157128690Y-141327142D01*
X157176309Y-141231904D01*
X157176309Y-140946190D01*
X157128690Y-140850952D01*
X157081071Y-140803333D01*
X156985833Y-140755714D01*
X156795357Y-140755714D01*
X156700119Y-140803333D01*
X155890595Y-141374761D02*
X155985833Y-141422380D01*
X156176309Y-141422380D01*
X156271547Y-141374761D01*
X156319166Y-141279523D01*
X156319166Y-140898571D01*
X156271547Y-140803333D01*
X156176309Y-140755714D01*
X155985833Y-140755714D01*
X155890595Y-140803333D01*
X155842976Y-140898571D01*
X155842976Y-140993809D01*
X156319166Y-141089047D01*
X155414404Y-140755714D02*
X155414404Y-141422380D01*
X155414404Y-140850952D02*
X155366785Y-140803333D01*
X155271547Y-140755714D01*
X155128690Y-140755714D01*
X155033452Y-140803333D01*
X154985833Y-140898571D01*
X154985833Y-141422380D01*
X154557261Y-141374761D02*
X154462023Y-141422380D01*
X154271547Y-141422380D01*
X154176309Y-141374761D01*
X154128690Y-141279523D01*
X154128690Y-141231904D01*
X154176309Y-141136666D01*
X154271547Y-141089047D01*
X154414404Y-141089047D01*
X154509642Y-141041428D01*
X154557261Y-140946190D01*
X154557261Y-140898571D01*
X154509642Y-140803333D01*
X154414404Y-140755714D01*
X154271547Y-140755714D01*
X154176309Y-140803333D01*
X153319166Y-141374761D02*
X153414404Y-141422380D01*
X153604880Y-141422380D01*
X153700119Y-141374761D01*
X153747738Y-141279523D01*
X153747738Y-140898571D01*
X153700119Y-140803333D01*
X153604880Y-140755714D01*
X153414404Y-140755714D01*
X153319166Y-140803333D01*
X153271547Y-140898571D01*
X153271547Y-140993809D01*
X153747738Y-141089047D01*
X152842976Y-141327142D02*
X152795357Y-141374761D01*
X152842976Y-141422380D01*
X152890595Y-141374761D01*
X152842976Y-141327142D01*
X152842976Y-141422380D01*
X152842976Y-140803333D02*
X152795357Y-140850952D01*
X152842976Y-140898571D01*
X152890595Y-140850952D01*
X152842976Y-140803333D01*
X152842976Y-140898571D01*
X151081071Y-140470000D02*
X151176309Y-140422380D01*
X151319166Y-140422380D01*
X151462023Y-140470000D01*
X151557261Y-140565238D01*
X151604880Y-140660476D01*
X151652500Y-140850952D01*
X151652500Y-140993809D01*
X151604880Y-141184285D01*
X151557261Y-141279523D01*
X151462023Y-141374761D01*
X151319166Y-141422380D01*
X151223928Y-141422380D01*
X151081071Y-141374761D01*
X151033452Y-141327142D01*
X151033452Y-140993809D01*
X151223928Y-140993809D01*
X150604880Y-141422380D02*
X150604880Y-140422380D01*
X150223928Y-140422380D01*
X150128690Y-140470000D01*
X150081071Y-140517619D01*
X150033452Y-140612857D01*
X150033452Y-140755714D01*
X150081071Y-140850952D01*
X150128690Y-140898571D01*
X150223928Y-140946190D01*
X150604880Y-140946190D01*
X149128690Y-141422380D02*
X149604880Y-141422380D01*
X149604880Y-140422380D01*
X148890595Y-140755714D02*
X148652500Y-141422380D01*
X148414404Y-140755714D01*
X148128690Y-140422380D02*
X147509642Y-140422380D01*
X147842976Y-140803333D01*
X147700119Y-140803333D01*
X147604880Y-140850952D01*
X147557261Y-140898571D01*
X147509642Y-140993809D01*
X147509642Y-141231904D01*
X147557261Y-141327142D01*
X147604880Y-141374761D01*
X147700119Y-141422380D01*
X147985833Y-141422380D01*
X148081071Y-141374761D01*
X148128690Y-141327142D01*
X158414404Y-139517380D02*
X158414404Y-138517380D01*
X158176309Y-138517380D01*
X158033452Y-138565000D01*
X157938214Y-138660238D01*
X157890595Y-138755476D01*
X157842976Y-138945952D01*
X157842976Y-139088809D01*
X157890595Y-139279285D01*
X157938214Y-139374523D01*
X158033452Y-139469761D01*
X158176309Y-139517380D01*
X158414404Y-139517380D01*
X157033452Y-139469761D02*
X157128690Y-139517380D01*
X157319166Y-139517380D01*
X157414404Y-139469761D01*
X157462023Y-139374523D01*
X157462023Y-138993571D01*
X157414404Y-138898333D01*
X157319166Y-138850714D01*
X157128690Y-138850714D01*
X157033452Y-138898333D01*
X156985833Y-138993571D01*
X156985833Y-139088809D01*
X157462023Y-139184047D01*
X156604880Y-139469761D02*
X156509642Y-139517380D01*
X156319166Y-139517380D01*
X156223928Y-139469761D01*
X156176309Y-139374523D01*
X156176309Y-139326904D01*
X156223928Y-139231666D01*
X156319166Y-139184047D01*
X156462023Y-139184047D01*
X156557261Y-139136428D01*
X156604880Y-139041190D01*
X156604880Y-138993571D01*
X156557261Y-138898333D01*
X156462023Y-138850714D01*
X156319166Y-138850714D01*
X156223928Y-138898333D01*
X155747738Y-139517380D02*
X155747738Y-138850714D01*
X155747738Y-138517380D02*
X155795357Y-138565000D01*
X155747738Y-138612619D01*
X155700119Y-138565000D01*
X155747738Y-138517380D01*
X155747738Y-138612619D01*
X154842976Y-138850714D02*
X154842976Y-139660238D01*
X154890595Y-139755476D01*
X154938214Y-139803095D01*
X155033452Y-139850714D01*
X155176309Y-139850714D01*
X155271547Y-139803095D01*
X154842976Y-139469761D02*
X154938214Y-139517380D01*
X155128690Y-139517380D01*
X155223928Y-139469761D01*
X155271547Y-139422142D01*
X155319166Y-139326904D01*
X155319166Y-139041190D01*
X155271547Y-138945952D01*
X155223928Y-138898333D01*
X155128690Y-138850714D01*
X154938214Y-138850714D01*
X154842976Y-138898333D01*
X154366785Y-138850714D02*
X154366785Y-139517380D01*
X154366785Y-138945952D02*
X154319166Y-138898333D01*
X154223928Y-138850714D01*
X154081071Y-138850714D01*
X153985833Y-138898333D01*
X153938214Y-138993571D01*
X153938214Y-139517380D01*
X152700119Y-139517380D02*
X152700119Y-138517380D01*
X152700119Y-138898333D02*
X152604880Y-138850714D01*
X152414404Y-138850714D01*
X152319166Y-138898333D01*
X152271547Y-138945952D01*
X152223928Y-139041190D01*
X152223928Y-139326904D01*
X152271547Y-139422142D01*
X152319166Y-139469761D01*
X152414404Y-139517380D01*
X152604880Y-139517380D01*
X152700119Y-139469761D01*
X151890595Y-138850714D02*
X151652500Y-139517380D01*
X151414404Y-138850714D02*
X151652500Y-139517380D01*
X151747738Y-139755476D01*
X151795357Y-139803095D01*
X151890595Y-139850714D01*
X151033452Y-139422142D02*
X150985833Y-139469761D01*
X151033452Y-139517380D01*
X151081071Y-139469761D01*
X151033452Y-139422142D01*
X151033452Y-139517380D01*
X151033452Y-138898333D02*
X150985833Y-138945952D01*
X151033452Y-138993571D01*
X151081071Y-138945952D01*
X151033452Y-138898333D01*
X151033452Y-138993571D01*
X149938214Y-138517380D02*
X149366785Y-138517380D01*
X149652500Y-139517380D02*
X149652500Y-138517380D01*
X149033452Y-139517380D02*
X149033452Y-138850714D01*
X149033452Y-138517380D02*
X149081071Y-138565000D01*
X149033452Y-138612619D01*
X148985833Y-138565000D01*
X149033452Y-138517380D01*
X149033452Y-138612619D01*
X148557261Y-139517380D02*
X148557261Y-138850714D01*
X148557261Y-139041190D02*
X148509642Y-138945952D01*
X148462023Y-138898333D01*
X148366785Y-138850714D01*
X148271547Y-138850714D01*
X147509642Y-139469761D02*
X147604880Y-139517380D01*
X147795357Y-139517380D01*
X147890595Y-139469761D01*
X147938214Y-139422142D01*
X147985833Y-139326904D01*
X147985833Y-139041190D01*
X147938214Y-138945952D01*
X147890595Y-138898333D01*
X147795357Y-138850714D01*
X147604880Y-138850714D01*
X147509642Y-138898333D01*
X146938214Y-139517380D02*
X147033452Y-139469761D01*
X147081071Y-139422142D01*
X147128690Y-139326904D01*
X147128690Y-139041190D01*
X147081071Y-138945952D01*
X147033452Y-138898333D01*
X146938214Y-138850714D01*
X146795357Y-138850714D01*
X146700119Y-138898333D01*
X146652500Y-138945952D01*
X146604880Y-139041190D01*
X146604880Y-139326904D01*
X146652500Y-139422142D01*
X146700119Y-139469761D01*
X146795357Y-139517380D01*
X146938214Y-139517380D01*
X146271547Y-138850714D02*
X146081071Y-139517380D01*
X145890595Y-139041190D01*
X145700119Y-139517380D01*
X145509642Y-138850714D01*
X145128690Y-138850714D02*
X145128690Y-139517380D01*
X145128690Y-138945952D02*
X145081071Y-138898333D01*
X144985833Y-138850714D01*
X144842976Y-138850714D01*
X144747738Y-138898333D01*
X144700119Y-138993571D01*
X144700119Y-139517380D01*
X133675238Y-127722380D02*
X133675238Y-128531904D01*
X133627619Y-128627142D01*
X133580000Y-128674761D01*
X133484761Y-128722380D01*
X133294285Y-128722380D01*
X133199047Y-128674761D01*
X133151428Y-128627142D01*
X133103809Y-128531904D01*
X133103809Y-127722380D01*
X132675238Y-128436666D02*
X132199047Y-128436666D01*
X132770476Y-128722380D02*
X132437142Y-127722380D01*
X132103809Y-128722380D01*
X131199047Y-128722380D02*
X131532380Y-128246190D01*
X131770476Y-128722380D02*
X131770476Y-127722380D01*
X131389523Y-127722380D01*
X131294285Y-127770000D01*
X131246666Y-127817619D01*
X131199047Y-127912857D01*
X131199047Y-128055714D01*
X131246666Y-128150952D01*
X131294285Y-128198571D01*
X131389523Y-128246190D01*
X131770476Y-128246190D01*
X130913333Y-127722380D02*
X130341904Y-127722380D01*
X130627619Y-128722380D02*
X130627619Y-127722380D01*
X157805238Y-127722380D02*
X157805238Y-128531904D01*
X157757619Y-128627142D01*
X157710000Y-128674761D01*
X157614761Y-128722380D01*
X157424285Y-128722380D01*
X157329047Y-128674761D01*
X157281428Y-128627142D01*
X157233809Y-128531904D01*
X157233809Y-127722380D01*
X156805238Y-128436666D02*
X156329047Y-128436666D01*
X156900476Y-128722380D02*
X156567142Y-127722380D01*
X156233809Y-128722380D01*
X155329047Y-128722380D02*
X155662380Y-128246190D01*
X155900476Y-128722380D02*
X155900476Y-127722380D01*
X155519523Y-127722380D01*
X155424285Y-127770000D01*
X155376666Y-127817619D01*
X155329047Y-127912857D01*
X155329047Y-128055714D01*
X155376666Y-128150952D01*
X155424285Y-128198571D01*
X155519523Y-128246190D01*
X155900476Y-128246190D01*
X155043333Y-127722380D02*
X154471904Y-127722380D01*
X154757619Y-128722380D02*
X154757619Y-127722380D01*
X82041904Y-120785000D02*
X82137142Y-120737380D01*
X82280000Y-120737380D01*
X82422857Y-120785000D01*
X82518095Y-120880238D01*
X82565714Y-120975476D01*
X82613333Y-121165952D01*
X82613333Y-121308809D01*
X82565714Y-121499285D01*
X82518095Y-121594523D01*
X82422857Y-121689761D01*
X82280000Y-121737380D01*
X82184761Y-121737380D01*
X82041904Y-121689761D01*
X81994285Y-121642142D01*
X81994285Y-121308809D01*
X82184761Y-121308809D01*
X81565714Y-121737380D02*
X81565714Y-120737380D01*
X80994285Y-121737380D01*
X80994285Y-120737380D01*
X80518095Y-121737380D02*
X80518095Y-120737380D01*
X80280000Y-120737380D01*
X80137142Y-120785000D01*
X80041904Y-120880238D01*
X79994285Y-120975476D01*
X79946666Y-121165952D01*
X79946666Y-121308809D01*
X79994285Y-121499285D01*
X80041904Y-121594523D01*
X80137142Y-121689761D01*
X80280000Y-121737380D01*
X80518095Y-121737380D01*
X83375238Y-110307380D02*
X83946666Y-110307380D01*
X83660952Y-110307380D02*
X83660952Y-109307380D01*
X83756190Y-109450238D01*
X83851428Y-109545476D01*
X83946666Y-109593095D01*
X82994285Y-109402619D02*
X82946666Y-109355000D01*
X82851428Y-109307380D01*
X82613333Y-109307380D01*
X82518095Y-109355000D01*
X82470476Y-109402619D01*
X82422857Y-109497857D01*
X82422857Y-109593095D01*
X82470476Y-109735952D01*
X83041904Y-110307380D01*
X82422857Y-110307380D01*
X81280000Y-109259761D02*
X82137142Y-110545476D01*
X80994285Y-109402619D02*
X80946666Y-109355000D01*
X80851428Y-109307380D01*
X80613333Y-109307380D01*
X80518095Y-109355000D01*
X80470476Y-109402619D01*
X80422857Y-109497857D01*
X80422857Y-109593095D01*
X80470476Y-109735952D01*
X81041904Y-110307380D01*
X80422857Y-110307380D01*
X79565714Y-109640714D02*
X79565714Y-110307380D01*
X79803809Y-109259761D02*
X80041904Y-109974047D01*
X79422857Y-109974047D01*
X79184761Y-109307380D02*
X78851428Y-110307380D01*
X78518095Y-109307380D01*
X150280380Y-111831333D02*
X150328000Y-111783714D01*
X150423238Y-111640857D01*
X150470857Y-111545619D01*
X150518476Y-111402761D01*
X150566095Y-111164666D01*
X150566095Y-110974190D01*
X150518476Y-110736095D01*
X150470857Y-110593238D01*
X150423238Y-110498000D01*
X150328000Y-110355142D01*
X150280380Y-110307523D01*
X149375619Y-111450380D02*
X149947047Y-111450380D01*
X149661333Y-111450380D02*
X149661333Y-110450380D01*
X149756571Y-110593238D01*
X149851809Y-110688476D01*
X149947047Y-110736095D01*
X148756571Y-110450380D02*
X148661333Y-110450380D01*
X148566095Y-110498000D01*
X148518476Y-110545619D01*
X148470857Y-110640857D01*
X148423238Y-110831333D01*
X148423238Y-111069428D01*
X148470857Y-111259904D01*
X148518476Y-111355142D01*
X148566095Y-111402761D01*
X148661333Y-111450380D01*
X148756571Y-111450380D01*
X148851809Y-111402761D01*
X148899428Y-111355142D01*
X148947047Y-111259904D01*
X148994666Y-111069428D01*
X148994666Y-110831333D01*
X148947047Y-110640857D01*
X148899428Y-110545619D01*
X148851809Y-110498000D01*
X148756571Y-110450380D01*
X147804190Y-110450380D02*
X147708952Y-110450380D01*
X147613714Y-110498000D01*
X147566095Y-110545619D01*
X147518476Y-110640857D01*
X147470857Y-110831333D01*
X147470857Y-111069428D01*
X147518476Y-111259904D01*
X147566095Y-111355142D01*
X147613714Y-111402761D01*
X147708952Y-111450380D01*
X147804190Y-111450380D01*
X147899428Y-111402761D01*
X147947047Y-111355142D01*
X147994666Y-111259904D01*
X148042285Y-111069428D01*
X148042285Y-110831333D01*
X147994666Y-110640857D01*
X147947047Y-110545619D01*
X147899428Y-110498000D01*
X147804190Y-110450380D01*
X146613714Y-110783714D02*
X146613714Y-111450380D01*
X147042285Y-110783714D02*
X147042285Y-111307523D01*
X146994666Y-111402761D01*
X146899428Y-111450380D01*
X146756571Y-111450380D01*
X146661333Y-111402761D01*
X146613714Y-111355142D01*
X145804190Y-110926571D02*
X146137523Y-110926571D01*
X146137523Y-111450380D02*
X146137523Y-110450380D01*
X145661333Y-110450380D01*
X145375619Y-111831333D02*
X145328000Y-111783714D01*
X145232761Y-111640857D01*
X145185142Y-111545619D01*
X145137523Y-111402761D01*
X145089904Y-111164666D01*
X145089904Y-110974190D01*
X145137523Y-110736095D01*
X145185142Y-110593238D01*
X145232761Y-110498000D01*
X145328000Y-110355142D01*
X145375619Y-110307523D01*
X126150380Y-111831333D02*
X126198000Y-111783714D01*
X126293238Y-111640857D01*
X126340857Y-111545619D01*
X126388476Y-111402761D01*
X126436095Y-111164666D01*
X126436095Y-110974190D01*
X126388476Y-110736095D01*
X126340857Y-110593238D01*
X126293238Y-110498000D01*
X126198000Y-110355142D01*
X126150380Y-110307523D01*
X125245619Y-111450380D02*
X125817047Y-111450380D01*
X125531333Y-111450380D02*
X125531333Y-110450380D01*
X125626571Y-110593238D01*
X125721809Y-110688476D01*
X125817047Y-110736095D01*
X124626571Y-110450380D02*
X124531333Y-110450380D01*
X124436095Y-110498000D01*
X124388476Y-110545619D01*
X124340857Y-110640857D01*
X124293238Y-110831333D01*
X124293238Y-111069428D01*
X124340857Y-111259904D01*
X124388476Y-111355142D01*
X124436095Y-111402761D01*
X124531333Y-111450380D01*
X124626571Y-111450380D01*
X124721809Y-111402761D01*
X124769428Y-111355142D01*
X124817047Y-111259904D01*
X124864666Y-111069428D01*
X124864666Y-110831333D01*
X124817047Y-110640857D01*
X124769428Y-110545619D01*
X124721809Y-110498000D01*
X124626571Y-110450380D01*
X123674190Y-110450380D02*
X123578952Y-110450380D01*
X123483714Y-110498000D01*
X123436095Y-110545619D01*
X123388476Y-110640857D01*
X123340857Y-110831333D01*
X123340857Y-111069428D01*
X123388476Y-111259904D01*
X123436095Y-111355142D01*
X123483714Y-111402761D01*
X123578952Y-111450380D01*
X123674190Y-111450380D01*
X123769428Y-111402761D01*
X123817047Y-111355142D01*
X123864666Y-111259904D01*
X123912285Y-111069428D01*
X123912285Y-110831333D01*
X123864666Y-110640857D01*
X123817047Y-110545619D01*
X123769428Y-110498000D01*
X123674190Y-110450380D01*
X122483714Y-110783714D02*
X122483714Y-111450380D01*
X122912285Y-110783714D02*
X122912285Y-111307523D01*
X122864666Y-111402761D01*
X122769428Y-111450380D01*
X122626571Y-111450380D01*
X122531333Y-111402761D01*
X122483714Y-111355142D01*
X121674190Y-110926571D02*
X122007523Y-110926571D01*
X122007523Y-111450380D02*
X122007523Y-110450380D01*
X121531333Y-110450380D01*
X121245619Y-111831333D02*
X121198000Y-111783714D01*
X121102761Y-111640857D01*
X121055142Y-111545619D01*
X121007523Y-111402761D01*
X120959904Y-111164666D01*
X120959904Y-110974190D01*
X121007523Y-110736095D01*
X121055142Y-110593238D01*
X121102761Y-110498000D01*
X121198000Y-110355142D01*
X121245619Y-110307523D01*
X91511333Y-117165714D02*
X91463714Y-117118095D01*
X91320857Y-117022857D01*
X91225619Y-116975238D01*
X91082761Y-116927619D01*
X90844666Y-116880000D01*
X90654190Y-116880000D01*
X90416095Y-116927619D01*
X90273238Y-116975238D01*
X90178000Y-117022857D01*
X90035142Y-117118095D01*
X89987523Y-117165714D01*
X90130380Y-117737142D02*
X90130380Y-117832380D01*
X90178000Y-117927619D01*
X90225619Y-117975238D01*
X90320857Y-118022857D01*
X90511333Y-118070476D01*
X90749428Y-118070476D01*
X90939904Y-118022857D01*
X91035142Y-117975238D01*
X91082761Y-117927619D01*
X91130380Y-117832380D01*
X91130380Y-117737142D01*
X91082761Y-117641904D01*
X91035142Y-117594285D01*
X90939904Y-117546666D01*
X90749428Y-117499047D01*
X90511333Y-117499047D01*
X90320857Y-117546666D01*
X90225619Y-117594285D01*
X90178000Y-117641904D01*
X90130380Y-117737142D01*
X91035142Y-118499047D02*
X91082761Y-118546666D01*
X91130380Y-118499047D01*
X91082761Y-118451428D01*
X91035142Y-118499047D01*
X91130380Y-118499047D01*
X91130380Y-119499047D02*
X91130380Y-118927619D01*
X91130380Y-119213333D02*
X90130380Y-119213333D01*
X90273238Y-119118095D01*
X90368476Y-119022857D01*
X90416095Y-118927619D01*
X90463714Y-120356190D02*
X91130380Y-120356190D01*
X90463714Y-119927619D02*
X90987523Y-119927619D01*
X91082761Y-119975238D01*
X91130380Y-120070476D01*
X91130380Y-120213333D01*
X91082761Y-120308571D01*
X91035142Y-120356190D01*
X90606571Y-121165714D02*
X90606571Y-120832380D01*
X91130380Y-120832380D02*
X90130380Y-120832380D01*
X90130380Y-121308571D01*
X91511333Y-121594285D02*
X91463714Y-121641904D01*
X91320857Y-121737142D01*
X91225619Y-121784761D01*
X91082761Y-121832380D01*
X90844666Y-121880000D01*
X90654190Y-121880000D01*
X90416095Y-121832380D01*
X90273238Y-121784761D01*
X90178000Y-121737142D01*
X90035142Y-121641904D01*
X89987523Y-121594285D01*
X86431333Y-116689523D02*
X86383714Y-116641904D01*
X86240857Y-116546666D01*
X86145619Y-116499047D01*
X86002761Y-116451428D01*
X85764666Y-116403809D01*
X85574190Y-116403809D01*
X85336095Y-116451428D01*
X85193238Y-116499047D01*
X85098000Y-116546666D01*
X84955142Y-116641904D01*
X84907523Y-116689523D01*
X85050380Y-117260952D02*
X85050380Y-117356190D01*
X85098000Y-117451428D01*
X85145619Y-117499047D01*
X85240857Y-117546666D01*
X85431333Y-117594285D01*
X85669428Y-117594285D01*
X85859904Y-117546666D01*
X85955142Y-117499047D01*
X86002761Y-117451428D01*
X86050380Y-117356190D01*
X86050380Y-117260952D01*
X86002761Y-117165714D01*
X85955142Y-117118095D01*
X85859904Y-117070476D01*
X85669428Y-117022857D01*
X85431333Y-117022857D01*
X85240857Y-117070476D01*
X85145619Y-117118095D01*
X85098000Y-117165714D01*
X85050380Y-117260952D01*
X85955142Y-118022857D02*
X86002761Y-118070476D01*
X86050380Y-118022857D01*
X86002761Y-117975238D01*
X85955142Y-118022857D01*
X86050380Y-118022857D01*
X85050380Y-118403809D02*
X85050380Y-119022857D01*
X85431333Y-118689523D01*
X85431333Y-118832380D01*
X85478952Y-118927619D01*
X85526571Y-118975238D01*
X85621809Y-119022857D01*
X85859904Y-119022857D01*
X85955142Y-118975238D01*
X86002761Y-118927619D01*
X86050380Y-118832380D01*
X86050380Y-118546666D01*
X86002761Y-118451428D01*
X85955142Y-118403809D01*
X85050380Y-119356190D02*
X85050380Y-119975238D01*
X85431333Y-119641904D01*
X85431333Y-119784761D01*
X85478952Y-119880000D01*
X85526571Y-119927619D01*
X85621809Y-119975238D01*
X85859904Y-119975238D01*
X85955142Y-119927619D01*
X86002761Y-119880000D01*
X86050380Y-119784761D01*
X86050380Y-119499047D01*
X86002761Y-119403809D01*
X85955142Y-119356190D01*
X85383714Y-120832380D02*
X86050380Y-120832380D01*
X85383714Y-120403809D02*
X85907523Y-120403809D01*
X86002761Y-120451428D01*
X86050380Y-120546666D01*
X86050380Y-120689523D01*
X86002761Y-120784761D01*
X85955142Y-120832380D01*
X85526571Y-121641904D02*
X85526571Y-121308571D01*
X86050380Y-121308571D02*
X85050380Y-121308571D01*
X85050380Y-121784761D01*
X86431333Y-122070476D02*
X86383714Y-122118095D01*
X86240857Y-122213333D01*
X86145619Y-122260952D01*
X86002761Y-122308571D01*
X85764666Y-122356190D01*
X85574190Y-122356190D01*
X85336095Y-122308571D01*
X85193238Y-122260952D01*
X85098000Y-122213333D01*
X84955142Y-122118095D01*
X84907523Y-122070476D01*
D11*
X123190000Y-126365000D02*
X123190000Y-127254000D01*
X101981000Y-133985000D02*
X102997000Y-132969000D01*
X101981000Y-139065000D02*
X101981000Y-133985000D01*
X85471000Y-139065000D02*
X101981000Y-139065000D01*
X85471000Y-133985000D02*
X85471000Y-139065000D01*
X101981000Y-133985000D02*
X85471000Y-133985000D01*
D10*
X101502547Y-134327380D02*
X101502547Y-134565476D01*
X101740642Y-134470238D02*
X101502547Y-134565476D01*
X101264452Y-134470238D01*
X101645404Y-134755952D02*
X101502547Y-134565476D01*
X101359690Y-134755952D01*
X100407309Y-134327380D02*
X100883500Y-134327380D01*
X100931119Y-134803571D01*
X100883500Y-134755952D01*
X100788261Y-134708333D01*
X100550166Y-134708333D01*
X100454928Y-134755952D01*
X100407309Y-134803571D01*
X100359690Y-134898809D01*
X100359690Y-135136904D01*
X100407309Y-135232142D01*
X100454928Y-135279761D01*
X100550166Y-135327380D01*
X100788261Y-135327380D01*
X100883500Y-135279761D01*
X100931119Y-135232142D01*
X99169214Y-134946428D02*
X98407309Y-134946428D01*
X97169214Y-134803571D02*
X96835880Y-134803571D01*
X96693023Y-135327380D02*
X97169214Y-135327380D01*
X97169214Y-134327380D01*
X96693023Y-134327380D01*
X96264452Y-135327380D02*
X96264452Y-134327380D01*
X95693023Y-135327380D01*
X95693023Y-134327380D01*
X95216833Y-135327380D02*
X95216833Y-134327380D01*
X94978738Y-134327380D01*
X94835880Y-134375000D01*
X94740642Y-134470238D01*
X94693023Y-134565476D01*
X94645404Y-134755952D01*
X94645404Y-134898809D01*
X94693023Y-135089285D01*
X94740642Y-135184523D01*
X94835880Y-135279761D01*
X94978738Y-135327380D01*
X95216833Y-135327380D01*
X94264452Y-135279761D02*
X94121595Y-135327380D01*
X93883500Y-135327380D01*
X93788261Y-135279761D01*
X93740642Y-135232142D01*
X93693023Y-135136904D01*
X93693023Y-135041666D01*
X93740642Y-134946428D01*
X93788261Y-134898809D01*
X93883500Y-134851190D01*
X94073976Y-134803571D01*
X94169214Y-134755952D01*
X94216833Y-134708333D01*
X94264452Y-134613095D01*
X94264452Y-134517857D01*
X94216833Y-134422619D01*
X94169214Y-134375000D01*
X94073976Y-134327380D01*
X93835880Y-134327380D01*
X93693023Y-134375000D01*
X93407309Y-134327380D02*
X92835880Y-134327380D01*
X93121595Y-135327380D02*
X93121595Y-134327380D01*
X92312071Y-134327380D02*
X92121595Y-134327380D01*
X92026357Y-134375000D01*
X91931119Y-134470238D01*
X91883500Y-134660714D01*
X91883500Y-134994047D01*
X91931119Y-135184523D01*
X92026357Y-135279761D01*
X92121595Y-135327380D01*
X92312071Y-135327380D01*
X92407309Y-135279761D01*
X92502547Y-135184523D01*
X92550166Y-134994047D01*
X92550166Y-134660714D01*
X92502547Y-134470238D01*
X92407309Y-134375000D01*
X92312071Y-134327380D01*
X91454928Y-135327380D02*
X91454928Y-134327380D01*
X91073976Y-134327380D01*
X90978738Y-134375000D01*
X90931119Y-134422619D01*
X90883500Y-134517857D01*
X90883500Y-134660714D01*
X90931119Y-134755952D01*
X90978738Y-134803571D01*
X91073976Y-134851190D01*
X91454928Y-134851190D01*
X101502547Y-135977380D02*
X101502547Y-136215476D01*
X101740642Y-136120238D02*
X101502547Y-136215476D01*
X101264452Y-136120238D01*
X101645404Y-136405952D02*
X101502547Y-136215476D01*
X101359690Y-136405952D01*
X100978738Y-135977380D02*
X100359690Y-135977380D01*
X100693023Y-136358333D01*
X100550166Y-136358333D01*
X100454928Y-136405952D01*
X100407309Y-136453571D01*
X100359690Y-136548809D01*
X100359690Y-136786904D01*
X100407309Y-136882142D01*
X100454928Y-136929761D01*
X100550166Y-136977380D01*
X100835880Y-136977380D01*
X100931119Y-136929761D01*
X100978738Y-136882142D01*
X99169214Y-136596428D02*
X98407309Y-136596428D01*
X97169214Y-136977380D02*
X97169214Y-135977380D01*
X96931119Y-135977380D01*
X96788261Y-136025000D01*
X96693023Y-136120238D01*
X96645404Y-136215476D01*
X96597785Y-136405952D01*
X96597785Y-136548809D01*
X96645404Y-136739285D01*
X96693023Y-136834523D01*
X96788261Y-136929761D01*
X96931119Y-136977380D01*
X97169214Y-136977380D01*
X96169214Y-136977380D02*
X96169214Y-135977380D01*
X95740642Y-136691666D02*
X95264452Y-136691666D01*
X95835880Y-136977380D02*
X95502547Y-135977380D01*
X95169214Y-136977380D01*
X94312071Y-136025000D02*
X94407309Y-135977380D01*
X94550166Y-135977380D01*
X94693023Y-136025000D01*
X94788261Y-136120238D01*
X94835880Y-136215476D01*
X94883500Y-136405952D01*
X94883500Y-136548809D01*
X94835880Y-136739285D01*
X94788261Y-136834523D01*
X94693023Y-136929761D01*
X94550166Y-136977380D01*
X94454928Y-136977380D01*
X94312071Y-136929761D01*
X94264452Y-136882142D01*
X94264452Y-136548809D01*
X94454928Y-136548809D01*
X93121595Y-136929761D02*
X92978738Y-136977380D01*
X92740642Y-136977380D01*
X92645404Y-136929761D01*
X92597785Y-136882142D01*
X92550166Y-136786904D01*
X92550166Y-136691666D01*
X92597785Y-136596428D01*
X92645404Y-136548809D01*
X92740642Y-136501190D01*
X92931119Y-136453571D01*
X93026357Y-136405952D01*
X93073976Y-136358333D01*
X93121595Y-136263095D01*
X93121595Y-136167857D01*
X93073976Y-136072619D01*
X93026357Y-136025000D01*
X92931119Y-135977380D01*
X92693023Y-135977380D01*
X92550166Y-136025000D01*
X92121595Y-136453571D02*
X91788261Y-136453571D01*
X91645404Y-136977380D02*
X92121595Y-136977380D01*
X92121595Y-135977380D01*
X91645404Y-135977380D01*
X90740642Y-136977380D02*
X91216833Y-136977380D01*
X91216833Y-135977380D01*
X90407309Y-136453571D02*
X90073976Y-136453571D01*
X89931119Y-136977380D02*
X90407309Y-136977380D01*
X90407309Y-135977380D01*
X89931119Y-135977380D01*
X88931119Y-136882142D02*
X88978738Y-136929761D01*
X89121595Y-136977380D01*
X89216833Y-136977380D01*
X89359690Y-136929761D01*
X89454928Y-136834523D01*
X89502547Y-136739285D01*
X89550166Y-136548809D01*
X89550166Y-136405952D01*
X89502547Y-136215476D01*
X89454928Y-136120238D01*
X89359690Y-136025000D01*
X89216833Y-135977380D01*
X89121595Y-135977380D01*
X88978738Y-136025000D01*
X88931119Y-136072619D01*
X88645404Y-135977380D02*
X88073976Y-135977380D01*
X88359690Y-136977380D02*
X88359690Y-135977380D01*
X87550166Y-135977380D02*
X87359690Y-135977380D01*
X87264452Y-136025000D01*
X87169214Y-136120238D01*
X87121595Y-136310714D01*
X87121595Y-136644047D01*
X87169214Y-136834523D01*
X87264452Y-136929761D01*
X87359690Y-136977380D01*
X87550166Y-136977380D01*
X87645404Y-136929761D01*
X87740642Y-136834523D01*
X87788261Y-136644047D01*
X87788261Y-136310714D01*
X87740642Y-136120238D01*
X87645404Y-136025000D01*
X87550166Y-135977380D01*
X86121595Y-136977380D02*
X86454928Y-136501190D01*
X86693023Y-136977380D02*
X86693023Y-135977380D01*
X86312071Y-135977380D01*
X86216833Y-136025000D01*
X86169214Y-136072619D01*
X86121595Y-136167857D01*
X86121595Y-136310714D01*
X86169214Y-136405952D01*
X86216833Y-136453571D01*
X86312071Y-136501190D01*
X86693023Y-136501190D01*
X101502547Y-137627380D02*
X101502547Y-137865476D01*
X101740642Y-137770238D02*
X101502547Y-137865476D01*
X101264452Y-137770238D01*
X101645404Y-138055952D02*
X101502547Y-137865476D01*
X101359690Y-138055952D01*
X100359690Y-138627380D02*
X100931119Y-138627380D01*
X100645404Y-138627380D02*
X100645404Y-137627380D01*
X100740642Y-137770238D01*
X100835880Y-137865476D01*
X100931119Y-137913095D01*
X99169214Y-138246428D02*
X98407309Y-138246428D01*
X97169214Y-138103571D02*
X96835880Y-138103571D01*
X96693023Y-138627380D02*
X97169214Y-138627380D01*
X97169214Y-137627380D01*
X96693023Y-137627380D01*
X96359690Y-137627380D02*
X95693023Y-138627380D01*
X95693023Y-137627380D02*
X96359690Y-138627380D01*
X95454928Y-137627380D02*
X94883500Y-137627380D01*
X95169214Y-138627380D02*
X95169214Y-137627380D01*
X93978738Y-138627380D02*
X94312071Y-138151190D01*
X94550166Y-138627380D02*
X94550166Y-137627380D01*
X94169214Y-137627380D01*
X94073976Y-137675000D01*
X94026357Y-137722619D01*
X93978738Y-137817857D01*
X93978738Y-137960714D01*
X94026357Y-138055952D01*
X94073976Y-138103571D01*
X94169214Y-138151190D01*
X94550166Y-138151190D01*
X93597785Y-138341666D02*
X93121595Y-138341666D01*
X93693023Y-138627380D02*
X93359690Y-137627380D01*
X93026357Y-138627380D01*
X101822095Y-131151380D02*
X101822095Y-131389476D01*
X102060190Y-131294238D02*
X101822095Y-131389476D01*
X101584000Y-131294238D01*
X101964952Y-131579952D02*
X101822095Y-131389476D01*
X101679238Y-131579952D01*
X100679238Y-132151380D02*
X101250666Y-132151380D01*
X100964952Y-132151380D02*
X100964952Y-131151380D01*
X101060190Y-131294238D01*
X101155428Y-131389476D01*
X101250666Y-131437095D01*
X101822095Y-120991380D02*
X101822095Y-121229476D01*
X102060190Y-121134238D02*
X101822095Y-121229476D01*
X101584000Y-121134238D01*
X101964952Y-121419952D02*
X101822095Y-121229476D01*
X101679238Y-121419952D01*
X100726857Y-120991380D02*
X101203047Y-120991380D01*
X101250666Y-121467571D01*
X101203047Y-121419952D01*
X101107809Y-121372333D01*
X100869714Y-121372333D01*
X100774476Y-121419952D01*
X100726857Y-121467571D01*
X100679238Y-121562809D01*
X100679238Y-121800904D01*
X100726857Y-121896142D01*
X100774476Y-121943761D01*
X100869714Y-121991380D01*
X101107809Y-121991380D01*
X101203047Y-121943761D01*
X101250666Y-121896142D01*
X101822095Y-126071380D02*
X101822095Y-126309476D01*
X102060190Y-126214238D02*
X101822095Y-126309476D01*
X101584000Y-126214238D01*
X101964952Y-126499952D02*
X101822095Y-126309476D01*
X101679238Y-126499952D01*
X101298285Y-126071380D02*
X100679238Y-126071380D01*
X101012571Y-126452333D01*
X100869714Y-126452333D01*
X100774476Y-126499952D01*
X100726857Y-126547571D01*
X100679238Y-126642809D01*
X100679238Y-126880904D01*
X100726857Y-126976142D01*
X100774476Y-127023761D01*
X100869714Y-127071380D01*
X101155428Y-127071380D01*
X101250666Y-127023761D01*
X101298285Y-126976142D01*
X122642380Y-124618809D02*
X122880476Y-124618809D01*
X122785238Y-124380714D02*
X122880476Y-124618809D01*
X122785238Y-124856904D01*
X123070952Y-124475952D02*
X122880476Y-124618809D01*
X123070952Y-124761666D01*
X122642380Y-125142619D02*
X122642380Y-125761666D01*
X123023333Y-125428333D01*
X123023333Y-125571190D01*
X123070952Y-125666428D01*
X123118571Y-125714047D01*
X123213809Y-125761666D01*
X123451904Y-125761666D01*
X123547142Y-125714047D01*
X123594761Y-125666428D01*
X123642380Y-125571190D01*
X123642380Y-125285476D01*
X123594761Y-125190238D01*
X123547142Y-125142619D01*
X101822095Y-124531380D02*
X101822095Y-123531380D01*
X101441142Y-123531380D01*
X101345904Y-123579000D01*
X101298285Y-123626619D01*
X101250666Y-123721857D01*
X101250666Y-123864714D01*
X101298285Y-123959952D01*
X101345904Y-124007571D01*
X101441142Y-124055190D01*
X101822095Y-124055190D01*
X100488761Y-124007571D02*
X100345904Y-124055190D01*
X100298285Y-124102809D01*
X100250666Y-124198047D01*
X100250666Y-124340904D01*
X100298285Y-124436142D01*
X100345904Y-124483761D01*
X100441142Y-124531380D01*
X100822095Y-124531380D01*
X100822095Y-123531380D01*
X100488761Y-123531380D01*
X100393523Y-123579000D01*
X100345904Y-123626619D01*
X100298285Y-123721857D01*
X100298285Y-123817095D01*
X100345904Y-123912333D01*
X100393523Y-123959952D01*
X100488761Y-124007571D01*
X100822095Y-124007571D01*
X99774476Y-124531380D02*
X99584000Y-124531380D01*
X99488761Y-124483761D01*
X99441142Y-124436142D01*
X99345904Y-124293285D01*
X99298285Y-124102809D01*
X99298285Y-123721857D01*
X99345904Y-123626619D01*
X99393523Y-123579000D01*
X99488761Y-123531380D01*
X99679238Y-123531380D01*
X99774476Y-123579000D01*
X99822095Y-123626619D01*
X99869714Y-123721857D01*
X99869714Y-123959952D01*
X99822095Y-124055190D01*
X99774476Y-124102809D01*
X99679238Y-124150428D01*
X99488761Y-124150428D01*
X99393523Y-124102809D01*
X99345904Y-124055190D01*
X99298285Y-123959952D01*
X101750666Y-129611380D02*
X101750666Y-128611380D01*
X101369714Y-128611380D01*
X101274476Y-128659000D01*
X101226857Y-128706619D01*
X101179238Y-128801857D01*
X101179238Y-128944714D01*
X101226857Y-129039952D01*
X101274476Y-129087571D01*
X101369714Y-129135190D01*
X101750666Y-129135190D01*
X100798285Y-129325666D02*
X100322095Y-129325666D01*
X100893523Y-129611380D02*
X100560190Y-128611380D01*
X100226857Y-129611380D01*
X99988761Y-128611380D02*
X99322095Y-128611380D01*
X99750666Y-129611380D01*
X114371428Y-113649285D02*
X114371428Y-114411190D01*
X114752380Y-114030238D02*
X113990476Y-114030238D01*
X113752380Y-115363571D02*
X113752380Y-114887380D01*
X114228571Y-114839761D01*
X114180952Y-114887380D01*
X114133333Y-114982619D01*
X114133333Y-115220714D01*
X114180952Y-115315952D01*
X114228571Y-115363571D01*
X114323809Y-115411190D01*
X114561904Y-115411190D01*
X114657142Y-115363571D01*
X114704761Y-115315952D01*
X114752380Y-115220714D01*
X114752380Y-114982619D01*
X114704761Y-114887380D01*
X114657142Y-114839761D01*
X113752380Y-115696904D02*
X114752380Y-116030238D01*
X113752380Y-116363571D01*
X111260000Y-114173095D02*
X111212380Y-114077857D01*
X111212380Y-113935000D01*
X111260000Y-113792142D01*
X111355238Y-113696904D01*
X111450476Y-113649285D01*
X111640952Y-113601666D01*
X111783809Y-113601666D01*
X111974285Y-113649285D01*
X112069523Y-113696904D01*
X112164761Y-113792142D01*
X112212380Y-113935000D01*
X112212380Y-114030238D01*
X112164761Y-114173095D01*
X112117142Y-114220714D01*
X111783809Y-114220714D01*
X111783809Y-114030238D01*
X112212380Y-114649285D02*
X111212380Y-114649285D01*
X112212380Y-115220714D01*
X111212380Y-115220714D01*
X112212380Y-115696904D02*
X111212380Y-115696904D01*
X111212380Y-115935000D01*
X111260000Y-116077857D01*
X111355238Y-116173095D01*
X111450476Y-116220714D01*
X111640952Y-116268333D01*
X111783809Y-116268333D01*
X111974285Y-116220714D01*
X112069523Y-116173095D01*
X112164761Y-116077857D01*
X112212380Y-115935000D01*
X112212380Y-115696904D01*
X109672380Y-113768333D02*
X108672380Y-113768333D01*
X108672380Y-114149285D01*
X108720000Y-114244523D01*
X108767619Y-114292142D01*
X108862857Y-114339761D01*
X109005714Y-114339761D01*
X109100952Y-114292142D01*
X109148571Y-114244523D01*
X109196190Y-114149285D01*
X109196190Y-113768333D01*
X109386666Y-114720714D02*
X109386666Y-115196904D01*
X109672380Y-114625476D02*
X108672380Y-114958809D01*
X109672380Y-115292142D01*
X108672380Y-116101666D02*
X108672380Y-115625476D01*
X109148571Y-115577857D01*
X109100952Y-115625476D01*
X109053333Y-115720714D01*
X109053333Y-115958809D01*
X109100952Y-116054047D01*
X109148571Y-116101666D01*
X109243809Y-116149285D01*
X109481904Y-116149285D01*
X109577142Y-116101666D01*
X109624761Y-116054047D01*
X109672380Y-115958809D01*
X109672380Y-115720714D01*
X109624761Y-115625476D01*
X109577142Y-115577857D01*
X101028333Y-111212380D02*
X100695000Y-112212380D01*
X100361666Y-111212380D01*
X100028333Y-112212380D02*
X100028333Y-111212380D01*
X99790238Y-111212380D01*
X99647380Y-111260000D01*
X99552142Y-111355238D01*
X99504523Y-111450476D01*
X99456904Y-111640952D01*
X99456904Y-111783809D01*
X99504523Y-111974285D01*
X99552142Y-112069523D01*
X99647380Y-112164761D01*
X99790238Y-112212380D01*
X100028333Y-112212380D01*
X98456904Y-112117142D02*
X98504523Y-112164761D01*
X98647380Y-112212380D01*
X98742619Y-112212380D01*
X98885476Y-112164761D01*
X98980714Y-112069523D01*
X99028333Y-111974285D01*
X99075952Y-111783809D01*
X99075952Y-111640952D01*
X99028333Y-111450476D01*
X98980714Y-111355238D01*
X98885476Y-111260000D01*
X98742619Y-111212380D01*
X98647380Y-111212380D01*
X98504523Y-111260000D01*
X98456904Y-111307619D01*
X100980714Y-116911428D02*
X100218809Y-116911428D01*
X100599761Y-117292380D02*
X100599761Y-116530476D01*
X99266428Y-116292380D02*
X99742619Y-116292380D01*
X99790238Y-116768571D01*
X99742619Y-116720952D01*
X99647380Y-116673333D01*
X99409285Y-116673333D01*
X99314047Y-116720952D01*
X99266428Y-116768571D01*
X99218809Y-116863809D01*
X99218809Y-117101904D01*
X99266428Y-117197142D01*
X99314047Y-117244761D01*
X99409285Y-117292380D01*
X99647380Y-117292380D01*
X99742619Y-117244761D01*
X99790238Y-117197142D01*
X98933095Y-116292380D02*
X98599761Y-117292380D01*
X98266428Y-116292380D01*
X100456904Y-113800000D02*
X100552142Y-113752380D01*
X100695000Y-113752380D01*
X100837857Y-113800000D01*
X100933095Y-113895238D01*
X100980714Y-113990476D01*
X101028333Y-114180952D01*
X101028333Y-114323809D01*
X100980714Y-114514285D01*
X100933095Y-114609523D01*
X100837857Y-114704761D01*
X100695000Y-114752380D01*
X100599761Y-114752380D01*
X100456904Y-114704761D01*
X100409285Y-114657142D01*
X100409285Y-114323809D01*
X100599761Y-114323809D01*
X99980714Y-114752380D02*
X99980714Y-113752380D01*
X99409285Y-114752380D01*
X99409285Y-113752380D01*
X98933095Y-114752380D02*
X98933095Y-113752380D01*
X98695000Y-113752380D01*
X98552142Y-113800000D01*
X98456904Y-113895238D01*
X98409285Y-113990476D01*
X98361666Y-114180952D01*
X98361666Y-114323809D01*
X98409285Y-114514285D01*
X98456904Y-114609523D01*
X98552142Y-114704761D01*
X98695000Y-114752380D01*
X98933095Y-114752380D01*
X108672380Y-140366904D02*
X108910476Y-140366904D01*
X108815238Y-140128809D02*
X108910476Y-140366904D01*
X108815238Y-140605000D01*
X109100952Y-140224047D02*
X108910476Y-140366904D01*
X109100952Y-140509761D01*
X109672380Y-141509761D02*
X109672380Y-140938333D01*
X109672380Y-141224047D02*
X108672380Y-141224047D01*
X108815238Y-141128809D01*
X108910476Y-141033571D01*
X108958095Y-140938333D01*
X111260000Y-140843095D02*
X111212380Y-140747857D01*
X111212380Y-140605000D01*
X111260000Y-140462142D01*
X111355238Y-140366904D01*
X111450476Y-140319285D01*
X111640952Y-140271666D01*
X111783809Y-140271666D01*
X111974285Y-140319285D01*
X112069523Y-140366904D01*
X112164761Y-140462142D01*
X112212380Y-140605000D01*
X112212380Y-140700238D01*
X112164761Y-140843095D01*
X112117142Y-140890714D01*
X111783809Y-140890714D01*
X111783809Y-140700238D01*
X112212380Y-141319285D02*
X111212380Y-141319285D01*
X112212380Y-141890714D01*
X111212380Y-141890714D01*
X112212380Y-142366904D02*
X111212380Y-142366904D01*
X111212380Y-142605000D01*
X111260000Y-142747857D01*
X111355238Y-142843095D01*
X111450476Y-142890714D01*
X111640952Y-142938333D01*
X111783809Y-142938333D01*
X111974285Y-142890714D01*
X112069523Y-142843095D01*
X112164761Y-142747857D01*
X112212380Y-142605000D01*
X112212380Y-142366904D01*
X113752380Y-140271666D02*
X114752380Y-140605000D01*
X113752380Y-140938333D01*
X114657142Y-141843095D02*
X114704761Y-141795476D01*
X114752380Y-141652619D01*
X114752380Y-141557380D01*
X114704761Y-141414523D01*
X114609523Y-141319285D01*
X114514285Y-141271666D01*
X114323809Y-141224047D01*
X114180952Y-141224047D01*
X113990476Y-141271666D01*
X113895238Y-141319285D01*
X113800000Y-141414523D01*
X113752380Y-141557380D01*
X113752380Y-141652619D01*
X113800000Y-141795476D01*
X113847619Y-141843095D01*
X114657142Y-142843095D02*
X114704761Y-142795476D01*
X114752380Y-142652619D01*
X114752380Y-142557380D01*
X114704761Y-142414523D01*
X114609523Y-142319285D01*
X114514285Y-142271666D01*
X114323809Y-142224047D01*
X114180952Y-142224047D01*
X113990476Y-142271666D01*
X113895238Y-142319285D01*
X113800000Y-142414523D01*
X113752380Y-142557380D01*
X113752380Y-142652619D01*
X113800000Y-142795476D01*
X113847619Y-142843095D01*
X109672380Y-131548333D02*
X108672380Y-131548333D01*
X108672380Y-131929285D01*
X108720000Y-132024523D01*
X108767619Y-132072142D01*
X108862857Y-132119761D01*
X109005714Y-132119761D01*
X109100952Y-132072142D01*
X109148571Y-132024523D01*
X109196190Y-131929285D01*
X109196190Y-131548333D01*
X109386666Y-132500714D02*
X109386666Y-132976904D01*
X109672380Y-132405476D02*
X108672380Y-132738809D01*
X109672380Y-133072142D01*
X108672380Y-133834047D02*
X108672380Y-133643571D01*
X108720000Y-133548333D01*
X108767619Y-133500714D01*
X108910476Y-133405476D01*
X109100952Y-133357857D01*
X109481904Y-133357857D01*
X109577142Y-133405476D01*
X109624761Y-133453095D01*
X109672380Y-133548333D01*
X109672380Y-133738809D01*
X109624761Y-133834047D01*
X109577142Y-133881666D01*
X109481904Y-133929285D01*
X109243809Y-133929285D01*
X109148571Y-133881666D01*
X109100952Y-133834047D01*
X109053333Y-133738809D01*
X109053333Y-133548333D01*
X109100952Y-133453095D01*
X109148571Y-133405476D01*
X109243809Y-133357857D01*
X111260000Y-131953095D02*
X111212380Y-131857857D01*
X111212380Y-131715000D01*
X111260000Y-131572142D01*
X111355238Y-131476904D01*
X111450476Y-131429285D01*
X111640952Y-131381666D01*
X111783809Y-131381666D01*
X111974285Y-131429285D01*
X112069523Y-131476904D01*
X112164761Y-131572142D01*
X112212380Y-131715000D01*
X112212380Y-131810238D01*
X112164761Y-131953095D01*
X112117142Y-132000714D01*
X111783809Y-132000714D01*
X111783809Y-131810238D01*
X112212380Y-132429285D02*
X111212380Y-132429285D01*
X112212380Y-133000714D01*
X111212380Y-133000714D01*
X112212380Y-133476904D02*
X111212380Y-133476904D01*
X111212380Y-133715000D01*
X111260000Y-133857857D01*
X111355238Y-133953095D01*
X111450476Y-134000714D01*
X111640952Y-134048333D01*
X111783809Y-134048333D01*
X111974285Y-134000714D01*
X112069523Y-133953095D01*
X112164761Y-133857857D01*
X112212380Y-133715000D01*
X112212380Y-133476904D01*
X113752380Y-131381666D02*
X114752380Y-131715000D01*
X113752380Y-132048333D01*
X114657142Y-132953095D02*
X114704761Y-132905476D01*
X114752380Y-132762619D01*
X114752380Y-132667380D01*
X114704761Y-132524523D01*
X114609523Y-132429285D01*
X114514285Y-132381666D01*
X114323809Y-132334047D01*
X114180952Y-132334047D01*
X113990476Y-132381666D01*
X113895238Y-132429285D01*
X113800000Y-132524523D01*
X113752380Y-132667380D01*
X113752380Y-132762619D01*
X113800000Y-132905476D01*
X113847619Y-132953095D01*
X114657142Y-133953095D02*
X114704761Y-133905476D01*
X114752380Y-133762619D01*
X114752380Y-133667380D01*
X114704761Y-133524523D01*
X114609523Y-133429285D01*
X114514285Y-133381666D01*
X114323809Y-133334047D01*
X114180952Y-133334047D01*
X113990476Y-133381666D01*
X113895238Y-133429285D01*
X113800000Y-133524523D01*
X113752380Y-133667380D01*
X113752380Y-133762619D01*
X113800000Y-133905476D01*
X113847619Y-133953095D01*
X113752380Y-122491666D02*
X114752380Y-122825000D01*
X113752380Y-123158333D01*
X114657142Y-124063095D02*
X114704761Y-124015476D01*
X114752380Y-123872619D01*
X114752380Y-123777380D01*
X114704761Y-123634523D01*
X114609523Y-123539285D01*
X114514285Y-123491666D01*
X114323809Y-123444047D01*
X114180952Y-123444047D01*
X113990476Y-123491666D01*
X113895238Y-123539285D01*
X113800000Y-123634523D01*
X113752380Y-123777380D01*
X113752380Y-123872619D01*
X113800000Y-124015476D01*
X113847619Y-124063095D01*
X114657142Y-125063095D02*
X114704761Y-125015476D01*
X114752380Y-124872619D01*
X114752380Y-124777380D01*
X114704761Y-124634523D01*
X114609523Y-124539285D01*
X114514285Y-124491666D01*
X114323809Y-124444047D01*
X114180952Y-124444047D01*
X113990476Y-124491666D01*
X113895238Y-124539285D01*
X113800000Y-124634523D01*
X113752380Y-124777380D01*
X113752380Y-124872619D01*
X113800000Y-125015476D01*
X113847619Y-125063095D01*
X111260000Y-123063095D02*
X111212380Y-122967857D01*
X111212380Y-122825000D01*
X111260000Y-122682142D01*
X111355238Y-122586904D01*
X111450476Y-122539285D01*
X111640952Y-122491666D01*
X111783809Y-122491666D01*
X111974285Y-122539285D01*
X112069523Y-122586904D01*
X112164761Y-122682142D01*
X112212380Y-122825000D01*
X112212380Y-122920238D01*
X112164761Y-123063095D01*
X112117142Y-123110714D01*
X111783809Y-123110714D01*
X111783809Y-122920238D01*
X112212380Y-123539285D02*
X111212380Y-123539285D01*
X112212380Y-124110714D01*
X111212380Y-124110714D01*
X112212380Y-124586904D02*
X111212380Y-124586904D01*
X111212380Y-124825000D01*
X111260000Y-124967857D01*
X111355238Y-125063095D01*
X111450476Y-125110714D01*
X111640952Y-125158333D01*
X111783809Y-125158333D01*
X111974285Y-125110714D01*
X112069523Y-125063095D01*
X112164761Y-124967857D01*
X112212380Y-124825000D01*
X112212380Y-124586904D01*
X108672380Y-122586904D02*
X108910476Y-122586904D01*
X108815238Y-122348809D02*
X108910476Y-122586904D01*
X108815238Y-122825000D01*
X109100952Y-122444047D02*
X108910476Y-122586904D01*
X109100952Y-122729761D01*
X108672380Y-123682142D02*
X108672380Y-123205952D01*
X109148571Y-123158333D01*
X109100952Y-123205952D01*
X109053333Y-123301190D01*
X109053333Y-123539285D01*
X109100952Y-123634523D01*
X109148571Y-123682142D01*
X109243809Y-123729761D01*
X109481904Y-123729761D01*
X109577142Y-123682142D01*
X109624761Y-123634523D01*
X109672380Y-123539285D01*
X109672380Y-123301190D01*
X109624761Y-123205952D01*
X109577142Y-123158333D01*
D12*
X139739666Y-113839714D02*
X139739666Y-114315904D01*
X140025380Y-113744476D02*
X139025380Y-114077809D01*
X140025380Y-114411142D01*
X140025380Y-115268285D02*
X140025380Y-114696857D01*
X140025380Y-114982571D02*
X139025380Y-114982571D01*
X139168238Y-114887333D01*
X139263476Y-114792095D01*
X139311095Y-114696857D01*
D10*
X131881571Y-114149238D02*
X131929190Y-114292095D01*
X131976809Y-114339714D01*
X132072047Y-114387333D01*
X132214904Y-114387333D01*
X132310142Y-114339714D01*
X132357761Y-114292095D01*
X132405380Y-114196857D01*
X132405380Y-113815904D01*
X131405380Y-113815904D01*
X131405380Y-114149238D01*
X131453000Y-114244476D01*
X131500619Y-114292095D01*
X131595857Y-114339714D01*
X131691095Y-114339714D01*
X131786333Y-114292095D01*
X131833952Y-114244476D01*
X131881571Y-114149238D01*
X131881571Y-113815904D01*
X132405380Y-115339714D02*
X132405380Y-114768285D01*
X132405380Y-115054000D02*
X131405380Y-115054000D01*
X131548238Y-114958761D01*
X131643476Y-114863523D01*
X131691095Y-114768285D01*
X137199666Y-113839714D02*
X137199666Y-114315904D01*
X137485380Y-113744476D02*
X136485380Y-114077809D01*
X137485380Y-114411142D01*
X136580619Y-114696857D02*
X136533000Y-114744476D01*
X136485380Y-114839714D01*
X136485380Y-115077809D01*
X136533000Y-115173047D01*
X136580619Y-115220666D01*
X136675857Y-115268285D01*
X136771095Y-115268285D01*
X136913952Y-115220666D01*
X137485380Y-114649238D01*
X137485380Y-115268285D01*
X134421571Y-114149238D02*
X134469190Y-114292095D01*
X134516809Y-114339714D01*
X134612047Y-114387333D01*
X134754904Y-114387333D01*
X134850142Y-114339714D01*
X134897761Y-114292095D01*
X134945380Y-114196857D01*
X134945380Y-113815904D01*
X133945380Y-113815904D01*
X133945380Y-114149238D01*
X133993000Y-114244476D01*
X134040619Y-114292095D01*
X134135857Y-114339714D01*
X134231095Y-114339714D01*
X134326333Y-114292095D01*
X134373952Y-114244476D01*
X134421571Y-114149238D01*
X134421571Y-113815904D01*
X134040619Y-114768285D02*
X133993000Y-114815904D01*
X133945380Y-114911142D01*
X133945380Y-115149238D01*
X133993000Y-115244476D01*
X134040619Y-115292095D01*
X134135857Y-115339714D01*
X134231095Y-115339714D01*
X134373952Y-115292095D01*
X134945380Y-114720666D01*
X134945380Y-115339714D01*
X156138571Y-114276238D02*
X156186190Y-114419095D01*
X156233809Y-114466714D01*
X156329047Y-114514333D01*
X156471904Y-114514333D01*
X156567142Y-114466714D01*
X156614761Y-114419095D01*
X156662380Y-114323857D01*
X156662380Y-113942904D01*
X155662380Y-113942904D01*
X155662380Y-114276238D01*
X155710000Y-114371476D01*
X155757619Y-114419095D01*
X155852857Y-114466714D01*
X155948095Y-114466714D01*
X156043333Y-114419095D01*
X156090952Y-114371476D01*
X156138571Y-114276238D01*
X156138571Y-113942904D01*
X156662380Y-115466714D02*
X156662380Y-114895285D01*
X156662380Y-115181000D02*
X155662380Y-115181000D01*
X155805238Y-115085761D01*
X155900476Y-114990523D01*
X155948095Y-114895285D01*
X158678571Y-114276238D02*
X158726190Y-114419095D01*
X158773809Y-114466714D01*
X158869047Y-114514333D01*
X159011904Y-114514333D01*
X159107142Y-114466714D01*
X159154761Y-114419095D01*
X159202380Y-114323857D01*
X159202380Y-113942904D01*
X158202380Y-113942904D01*
X158202380Y-114276238D01*
X158250000Y-114371476D01*
X158297619Y-114419095D01*
X158392857Y-114466714D01*
X158488095Y-114466714D01*
X158583333Y-114419095D01*
X158630952Y-114371476D01*
X158678571Y-114276238D01*
X158678571Y-113942904D01*
X158297619Y-114895285D02*
X158250000Y-114942904D01*
X158202380Y-115038142D01*
X158202380Y-115276238D01*
X158250000Y-115371476D01*
X158297619Y-115419095D01*
X158392857Y-115466714D01*
X158488095Y-115466714D01*
X158630952Y-115419095D01*
X159202380Y-114847666D01*
X159202380Y-115466714D01*
X161456666Y-113966714D02*
X161456666Y-114442904D01*
X161742380Y-113871476D02*
X160742380Y-114204809D01*
X161742380Y-114538142D01*
X160837619Y-114823857D02*
X160790000Y-114871476D01*
X160742380Y-114966714D01*
X160742380Y-115204809D01*
X160790000Y-115300047D01*
X160837619Y-115347666D01*
X160932857Y-115395285D01*
X161028095Y-115395285D01*
X161170952Y-115347666D01*
X161742380Y-114776238D01*
X161742380Y-115395285D01*
D12*
X163996666Y-113966714D02*
X163996666Y-114442904D01*
X164282380Y-113871476D02*
X163282380Y-114204809D01*
X164282380Y-114538142D01*
X164282380Y-115395285D02*
X164282380Y-114823857D01*
X164282380Y-115109571D02*
X163282380Y-115109571D01*
X163425238Y-115014333D01*
X163520476Y-114919095D01*
X163568095Y-114823857D01*
D11*
X131110000Y-129664000D02*
X130510000Y-129664000D01*
X131810000Y-131764000D02*
X131810000Y-130364000D01*
X130510000Y-132464000D02*
X131110000Y-132464000D01*
X129810000Y-130364000D02*
X129810000Y-131764000D01*
X130510000Y-129664000D02*
G75*
G03*
X129810000Y-130364000I0J-700000D01*
G01*
X131810000Y-130364000D02*
G75*
G03*
X131110000Y-129664000I-700000J0D01*
G01*
X131110000Y-132464000D02*
G75*
G03*
X131810000Y-131764000I0J700000D01*
G01*
X129810000Y-131764000D02*
G75*
G03*
X130510000Y-132464000I700000J0D01*
G01*
X133050000Y-132464000D02*
X133650000Y-132464000D01*
X132350000Y-130364000D02*
X132350000Y-131764000D01*
X133650000Y-129664000D02*
X133050000Y-129664000D01*
X134350000Y-131764000D02*
X134350000Y-130364000D01*
X133650000Y-132464000D02*
G75*
G03*
X134350000Y-131764000I0J700000D01*
G01*
X132350000Y-131764000D02*
G75*
G03*
X133050000Y-132464000I700000J0D01*
G01*
X133050000Y-129664000D02*
G75*
G03*
X132350000Y-130364000I0J-700000D01*
G01*
X134350000Y-130364000D02*
G75*
G03*
X133650000Y-129664000I-700000J0D01*
G01*
X153940000Y-130364000D02*
X153940000Y-131764000D01*
X154640000Y-132464000D02*
X155240000Y-132464000D01*
X155940000Y-131764000D02*
X155940000Y-130364000D01*
X155240000Y-129664000D02*
X154640000Y-129664000D01*
X153940000Y-131764000D02*
G75*
G03*
X154640000Y-132464000I700000J0D01*
G01*
X155240000Y-132464000D02*
G75*
G03*
X155940000Y-131764000I0J700000D01*
G01*
X155940000Y-130364000D02*
G75*
G03*
X155240000Y-129664000I-700000J0D01*
G01*
X154640000Y-129664000D02*
G75*
G03*
X153940000Y-130364000I0J-700000D01*
G01*
X157180000Y-132464000D02*
X157780000Y-132464000D01*
X156480000Y-130364000D02*
X156480000Y-131764000D01*
X157780000Y-129664000D02*
X157180000Y-129664000D01*
X158480000Y-131764000D02*
X158480000Y-130364000D01*
X157780000Y-132464000D02*
G75*
G03*
X158480000Y-131764000I0J700000D01*
G01*
X156480000Y-131764000D02*
G75*
G03*
X157180000Y-132464000I700000J0D01*
G01*
X157180000Y-129664000D02*
G75*
G03*
X156480000Y-130364000I0J-700000D01*
G01*
X158480000Y-130364000D02*
G75*
G03*
X157780000Y-129664000I-700000J0D01*
G01*
M02*
