G04 #@! TF.GenerationSoftware,KiCad,Pcbnew,(5.1.9)-1*
G04 #@! TF.CreationDate,2021-05-31T21:29:52+02:00*
G04 #@! TF.ProjectId,ercf-ez-board,65726366-2d65-47a2-9d62-6f6172642e6b,rev?*
G04 #@! TF.SameCoordinates,Original*
G04 #@! TF.FileFunction,Soldermask,Bot*
G04 #@! TF.FilePolarity,Negative*
%FSLAX46Y46*%
G04 Gerber Fmt 4.6, Leading zero omitted, Abs format (unit mm)*
G04 Created by KiCad (PCBNEW (5.1.9)-1) date 2021-05-31 21:29:52*
%MOMM*%
%LPD*%
G01*
G04 APERTURE LIST*
%ADD10C,0.100000*%
%ADD11O,1.700000X1.700000*%
%ADD12R,1.700000X1.700000*%
%ADD13C,3.000000*%
%ADD14R,3.000000X3.000000*%
%ADD15R,1.524000X1.524000*%
%ADD16C,1.524000*%
%ADD17O,1.700000X1.950000*%
%ADD18C,3.200000*%
%ADD19C,1.600000*%
%ADD20O,2.000000X1.905000*%
%ADD21R,2.000000X1.905000*%
%ADD22O,1.600000X1.600000*%
%ADD23R,1.600000X1.600000*%
G04 APERTURE END LIST*
D10*
G36*
X80214961Y-124196245D02*
G01*
X80217806Y-124186866D01*
X80222427Y-124178221D01*
X80228645Y-124170645D01*
X80736645Y-123662645D01*
X80744221Y-123656427D01*
X80752866Y-123651806D01*
X80762245Y-123648961D01*
X80772000Y-123648000D01*
X81788000Y-123648000D01*
X81797755Y-123648961D01*
X81807134Y-123651806D01*
X81815779Y-123656427D01*
X81823355Y-123662645D01*
X82331355Y-124170645D01*
X82337573Y-124178221D01*
X82342194Y-124186866D01*
X82345039Y-124196245D01*
X82346000Y-124206000D01*
X82346000Y-126238000D01*
X82345039Y-126247755D01*
X82342194Y-126257134D01*
X82337573Y-126265779D01*
X82331355Y-126273355D01*
X81823355Y-126781355D01*
X81815779Y-126787573D01*
X81807134Y-126792194D01*
X81797755Y-126795039D01*
X81788000Y-126796000D01*
X80772000Y-126796000D01*
X80762245Y-126795039D01*
X80752866Y-126792194D01*
X80744221Y-126787573D01*
X80736645Y-126781355D01*
X80228645Y-126273355D01*
X80222427Y-126265779D01*
X80217806Y-126257134D01*
X80214961Y-126247755D01*
X80214000Y-126238000D01*
X80214000Y-124206000D01*
X80214961Y-124196245D01*
G37*
G36*
X85294961Y-124196245D02*
G01*
X85297806Y-124186866D01*
X85302427Y-124178221D01*
X85308645Y-124170645D01*
X85816645Y-123662645D01*
X85824221Y-123656427D01*
X85832866Y-123651806D01*
X85842245Y-123648961D01*
X85852000Y-123648000D01*
X86868000Y-123648000D01*
X86877755Y-123648961D01*
X86887134Y-123651806D01*
X86895779Y-123656427D01*
X86903355Y-123662645D01*
X87411355Y-124170645D01*
X87417573Y-124178221D01*
X87422194Y-124186866D01*
X87425039Y-124196245D01*
X87426000Y-124206000D01*
X87426000Y-126238000D01*
X87425039Y-126247755D01*
X87422194Y-126257134D01*
X87417573Y-126265779D01*
X87411355Y-126273355D01*
X86903355Y-126781355D01*
X86895779Y-126787573D01*
X86887134Y-126792194D01*
X86877755Y-126795039D01*
X86868000Y-126796000D01*
X85852000Y-126796000D01*
X85842245Y-126795039D01*
X85832866Y-126792194D01*
X85824221Y-126787573D01*
X85816645Y-126781355D01*
X85308645Y-126273355D01*
X85302427Y-126265779D01*
X85297806Y-126257134D01*
X85294961Y-126247755D01*
X85294000Y-126238000D01*
X85294000Y-124206000D01*
X85294961Y-124196245D01*
G37*
G36*
X82754961Y-124196245D02*
G01*
X82757806Y-124186866D01*
X82762427Y-124178221D01*
X82768645Y-124170645D01*
X83276645Y-123662645D01*
X83284221Y-123656427D01*
X83292866Y-123651806D01*
X83302245Y-123648961D01*
X83312000Y-123648000D01*
X84328000Y-123648000D01*
X84337755Y-123648961D01*
X84347134Y-123651806D01*
X84355779Y-123656427D01*
X84363355Y-123662645D01*
X84871355Y-124170645D01*
X84877573Y-124178221D01*
X84882194Y-124186866D01*
X84885039Y-124196245D01*
X84886000Y-124206000D01*
X84886000Y-126238000D01*
X84885039Y-126247755D01*
X84882194Y-126257134D01*
X84877573Y-126265779D01*
X84871355Y-126273355D01*
X84363355Y-126781355D01*
X84355779Y-126787573D01*
X84347134Y-126792194D01*
X84337755Y-126795039D01*
X84328000Y-126796000D01*
X83312000Y-126796000D01*
X83302245Y-126795039D01*
X83292866Y-126792194D01*
X83284221Y-126787573D01*
X83276645Y-126781355D01*
X82768645Y-126273355D01*
X82762427Y-126265779D01*
X82757806Y-126257134D01*
X82754961Y-126247755D01*
X82754000Y-126238000D01*
X82754000Y-124206000D01*
X82754961Y-124196245D01*
G37*
G36*
X87834961Y-124196245D02*
G01*
X87837806Y-124186866D01*
X87842427Y-124178221D01*
X87848645Y-124170645D01*
X88356645Y-123662645D01*
X88364221Y-123656427D01*
X88372866Y-123651806D01*
X88382245Y-123648961D01*
X88392000Y-123648000D01*
X89408000Y-123648000D01*
X89417755Y-123648961D01*
X89427134Y-123651806D01*
X89435779Y-123656427D01*
X89443355Y-123662645D01*
X89951355Y-124170645D01*
X89957573Y-124178221D01*
X89962194Y-124186866D01*
X89965039Y-124196245D01*
X89966000Y-124206000D01*
X89966000Y-126238000D01*
X89965039Y-126247755D01*
X89962194Y-126257134D01*
X89957573Y-126265779D01*
X89951355Y-126273355D01*
X89443355Y-126781355D01*
X89435779Y-126787573D01*
X89427134Y-126792194D01*
X89417755Y-126795039D01*
X89408000Y-126796000D01*
X88392000Y-126796000D01*
X88382245Y-126795039D01*
X88372866Y-126792194D01*
X88364221Y-126787573D01*
X88356645Y-126781355D01*
X87848645Y-126273355D01*
X87842427Y-126265779D01*
X87837806Y-126257134D01*
X87834961Y-126247755D01*
X87834000Y-126238000D01*
X87834000Y-124206000D01*
X87834961Y-124196245D01*
G37*
G36*
X95454961Y-124196245D02*
G01*
X95457806Y-124186866D01*
X95462427Y-124178221D01*
X95468645Y-124170645D01*
X95976645Y-123662645D01*
X95984221Y-123656427D01*
X95992866Y-123651806D01*
X96002245Y-123648961D01*
X96012000Y-123648000D01*
X97028000Y-123648000D01*
X97037755Y-123648961D01*
X97047134Y-123651806D01*
X97055779Y-123656427D01*
X97063355Y-123662645D01*
X97571355Y-124170645D01*
X97577573Y-124178221D01*
X97582194Y-124186866D01*
X97585039Y-124196245D01*
X97586000Y-124206000D01*
X97586000Y-126238000D01*
X97585039Y-126247755D01*
X97582194Y-126257134D01*
X97577573Y-126265779D01*
X97571355Y-126273355D01*
X97063355Y-126781355D01*
X97055779Y-126787573D01*
X97047134Y-126792194D01*
X97037755Y-126795039D01*
X97028000Y-126796000D01*
X96012000Y-126796000D01*
X96002245Y-126795039D01*
X95992866Y-126792194D01*
X95984221Y-126787573D01*
X95976645Y-126781355D01*
X95468645Y-126273355D01*
X95462427Y-126265779D01*
X95457806Y-126257134D01*
X95454961Y-126247755D01*
X95454000Y-126238000D01*
X95454000Y-124206000D01*
X95454961Y-124196245D01*
G37*
G36*
X92914961Y-124196245D02*
G01*
X92917806Y-124186866D01*
X92922427Y-124178221D01*
X92928645Y-124170645D01*
X93436645Y-123662645D01*
X93444221Y-123656427D01*
X93452866Y-123651806D01*
X93462245Y-123648961D01*
X93472000Y-123648000D01*
X94488000Y-123648000D01*
X94497755Y-123648961D01*
X94507134Y-123651806D01*
X94515779Y-123656427D01*
X94523355Y-123662645D01*
X95031355Y-124170645D01*
X95037573Y-124178221D01*
X95042194Y-124186866D01*
X95045039Y-124196245D01*
X95046000Y-124206000D01*
X95046000Y-126238000D01*
X95045039Y-126247755D01*
X95042194Y-126257134D01*
X95037573Y-126265779D01*
X95031355Y-126273355D01*
X94523355Y-126781355D01*
X94515779Y-126787573D01*
X94507134Y-126792194D01*
X94497755Y-126795039D01*
X94488000Y-126796000D01*
X93472000Y-126796000D01*
X93462245Y-126795039D01*
X93452866Y-126792194D01*
X93444221Y-126787573D01*
X93436645Y-126781355D01*
X92928645Y-126273355D01*
X92922427Y-126265779D01*
X92917806Y-126257134D01*
X92914961Y-126247755D01*
X92914000Y-126238000D01*
X92914000Y-124206000D01*
X92914961Y-124196245D01*
G37*
G36*
X90374961Y-124196245D02*
G01*
X90377806Y-124186866D01*
X90382427Y-124178221D01*
X90388645Y-124170645D01*
X90896645Y-123662645D01*
X90904221Y-123656427D01*
X90912866Y-123651806D01*
X90922245Y-123648961D01*
X90932000Y-123648000D01*
X91948000Y-123648000D01*
X91957755Y-123648961D01*
X91967134Y-123651806D01*
X91975779Y-123656427D01*
X91983355Y-123662645D01*
X92491355Y-124170645D01*
X92497573Y-124178221D01*
X92502194Y-124186866D01*
X92505039Y-124196245D01*
X92506000Y-124206000D01*
X92506000Y-126238000D01*
X92505039Y-126247755D01*
X92502194Y-126257134D01*
X92497573Y-126265779D01*
X92491355Y-126273355D01*
X91983355Y-126781355D01*
X91975779Y-126787573D01*
X91967134Y-126792194D01*
X91957755Y-126795039D01*
X91948000Y-126796000D01*
X90932000Y-126796000D01*
X90922245Y-126795039D01*
X90912866Y-126792194D01*
X90904221Y-126787573D01*
X90896645Y-126781355D01*
X90388645Y-126273355D01*
X90382427Y-126265779D01*
X90377806Y-126257134D01*
X90374961Y-126247755D01*
X90374000Y-126238000D01*
X90374000Y-124206000D01*
X90374961Y-124196245D01*
G37*
G36*
X95454961Y-140452245D02*
G01*
X95457806Y-140442866D01*
X95462427Y-140434221D01*
X95468645Y-140426645D01*
X95976645Y-139918645D01*
X95984221Y-139912427D01*
X95992866Y-139907806D01*
X96002245Y-139904961D01*
X96012000Y-139904000D01*
X97028000Y-139904000D01*
X97037755Y-139904961D01*
X97047134Y-139907806D01*
X97055779Y-139912427D01*
X97063355Y-139918645D01*
X97571355Y-140426645D01*
X97577573Y-140434221D01*
X97582194Y-140442866D01*
X97585039Y-140452245D01*
X97586000Y-140462000D01*
X97586000Y-142494000D01*
X97585039Y-142503755D01*
X97582194Y-142513134D01*
X97577573Y-142521779D01*
X97571355Y-142529355D01*
X97063355Y-143037355D01*
X97055779Y-143043573D01*
X97047134Y-143048194D01*
X97037755Y-143051039D01*
X97028000Y-143052000D01*
X96012000Y-143052000D01*
X96002245Y-143051039D01*
X95992866Y-143048194D01*
X95984221Y-143043573D01*
X95976645Y-143037355D01*
X95468645Y-142529355D01*
X95462427Y-142521779D01*
X95457806Y-142513134D01*
X95454961Y-142503755D01*
X95454000Y-142494000D01*
X95454000Y-140462000D01*
X95454961Y-140452245D01*
G37*
G36*
X92914961Y-140452245D02*
G01*
X92917806Y-140442866D01*
X92922427Y-140434221D01*
X92928645Y-140426645D01*
X93436645Y-139918645D01*
X93444221Y-139912427D01*
X93452866Y-139907806D01*
X93462245Y-139904961D01*
X93472000Y-139904000D01*
X94488000Y-139904000D01*
X94497755Y-139904961D01*
X94507134Y-139907806D01*
X94515779Y-139912427D01*
X94523355Y-139918645D01*
X95031355Y-140426645D01*
X95037573Y-140434221D01*
X95042194Y-140442866D01*
X95045039Y-140452245D01*
X95046000Y-140462000D01*
X95046000Y-142494000D01*
X95045039Y-142503755D01*
X95042194Y-142513134D01*
X95037573Y-142521779D01*
X95031355Y-142529355D01*
X94523355Y-143037355D01*
X94515779Y-143043573D01*
X94507134Y-143048194D01*
X94497755Y-143051039D01*
X94488000Y-143052000D01*
X93472000Y-143052000D01*
X93462245Y-143051039D01*
X93452866Y-143048194D01*
X93444221Y-143043573D01*
X93436645Y-143037355D01*
X92928645Y-142529355D01*
X92922427Y-142521779D01*
X92917806Y-142513134D01*
X92914961Y-142503755D01*
X92914000Y-142494000D01*
X92914000Y-140462000D01*
X92914961Y-140452245D01*
G37*
G36*
X90374961Y-140452245D02*
G01*
X90377806Y-140442866D01*
X90382427Y-140434221D01*
X90388645Y-140426645D01*
X90896645Y-139918645D01*
X90904221Y-139912427D01*
X90912866Y-139907806D01*
X90922245Y-139904961D01*
X90932000Y-139904000D01*
X91948000Y-139904000D01*
X91957755Y-139904961D01*
X91967134Y-139907806D01*
X91975779Y-139912427D01*
X91983355Y-139918645D01*
X92491355Y-140426645D01*
X92497573Y-140434221D01*
X92502194Y-140442866D01*
X92505039Y-140452245D01*
X92506000Y-140462000D01*
X92506000Y-142494000D01*
X92505039Y-142503755D01*
X92502194Y-142513134D01*
X92497573Y-142521779D01*
X92491355Y-142529355D01*
X91983355Y-143037355D01*
X91975779Y-143043573D01*
X91967134Y-143048194D01*
X91957755Y-143051039D01*
X91948000Y-143052000D01*
X90932000Y-143052000D01*
X90922245Y-143051039D01*
X90912866Y-143048194D01*
X90904221Y-143043573D01*
X90896645Y-143037355D01*
X90388645Y-142529355D01*
X90382427Y-142521779D01*
X90377806Y-142513134D01*
X90374961Y-142503755D01*
X90374000Y-142494000D01*
X90374000Y-140462000D01*
X90374961Y-140452245D01*
G37*
G36*
X80214961Y-140452245D02*
G01*
X80217806Y-140442866D01*
X80222427Y-140434221D01*
X80228645Y-140426645D01*
X80736645Y-139918645D01*
X80744221Y-139912427D01*
X80752866Y-139907806D01*
X80762245Y-139904961D01*
X80772000Y-139904000D01*
X81788000Y-139904000D01*
X81797755Y-139904961D01*
X81807134Y-139907806D01*
X81815779Y-139912427D01*
X81823355Y-139918645D01*
X82331355Y-140426645D01*
X82337573Y-140434221D01*
X82342194Y-140442866D01*
X82345039Y-140452245D01*
X82346000Y-140462000D01*
X82346000Y-142494000D01*
X82345039Y-142503755D01*
X82342194Y-142513134D01*
X82337573Y-142521779D01*
X82331355Y-142529355D01*
X81823355Y-143037355D01*
X81815779Y-143043573D01*
X81807134Y-143048194D01*
X81797755Y-143051039D01*
X81788000Y-143052000D01*
X80772000Y-143052000D01*
X80762245Y-143051039D01*
X80752866Y-143048194D01*
X80744221Y-143043573D01*
X80736645Y-143037355D01*
X80228645Y-142529355D01*
X80222427Y-142521779D01*
X80217806Y-142513134D01*
X80214961Y-142503755D01*
X80214000Y-142494000D01*
X80214000Y-140462000D01*
X80214961Y-140452245D01*
G37*
G36*
X82754961Y-140452245D02*
G01*
X82757806Y-140442866D01*
X82762427Y-140434221D01*
X82768645Y-140426645D01*
X83276645Y-139918645D01*
X83284221Y-139912427D01*
X83292866Y-139907806D01*
X83302245Y-139904961D01*
X83312000Y-139904000D01*
X84328000Y-139904000D01*
X84337755Y-139904961D01*
X84347134Y-139907806D01*
X84355779Y-139912427D01*
X84363355Y-139918645D01*
X84871355Y-140426645D01*
X84877573Y-140434221D01*
X84882194Y-140442866D01*
X84885039Y-140452245D01*
X84886000Y-140462000D01*
X84886000Y-142494000D01*
X84885039Y-142503755D01*
X84882194Y-142513134D01*
X84877573Y-142521779D01*
X84871355Y-142529355D01*
X84363355Y-143037355D01*
X84355779Y-143043573D01*
X84347134Y-143048194D01*
X84337755Y-143051039D01*
X84328000Y-143052000D01*
X83312000Y-143052000D01*
X83302245Y-143051039D01*
X83292866Y-143048194D01*
X83284221Y-143043573D01*
X83276645Y-143037355D01*
X82768645Y-142529355D01*
X82762427Y-142521779D01*
X82757806Y-142513134D01*
X82754961Y-142503755D01*
X82754000Y-142494000D01*
X82754000Y-140462000D01*
X82754961Y-140452245D01*
G37*
G36*
X85294961Y-140452245D02*
G01*
X85297806Y-140442866D01*
X85302427Y-140434221D01*
X85308645Y-140426645D01*
X85816645Y-139918645D01*
X85824221Y-139912427D01*
X85832866Y-139907806D01*
X85842245Y-139904961D01*
X85852000Y-139904000D01*
X86868000Y-139904000D01*
X86877755Y-139904961D01*
X86887134Y-139907806D01*
X86895779Y-139912427D01*
X86903355Y-139918645D01*
X87411355Y-140426645D01*
X87417573Y-140434221D01*
X87422194Y-140442866D01*
X87425039Y-140452245D01*
X87426000Y-140462000D01*
X87426000Y-142494000D01*
X87425039Y-142503755D01*
X87422194Y-142513134D01*
X87417573Y-142521779D01*
X87411355Y-142529355D01*
X86903355Y-143037355D01*
X86895779Y-143043573D01*
X86887134Y-143048194D01*
X86877755Y-143051039D01*
X86868000Y-143052000D01*
X85852000Y-143052000D01*
X85842245Y-143051039D01*
X85832866Y-143048194D01*
X85824221Y-143043573D01*
X85816645Y-143037355D01*
X85308645Y-142529355D01*
X85302427Y-142521779D01*
X85297806Y-142513134D01*
X85294961Y-142503755D01*
X85294000Y-142494000D01*
X85294000Y-140462000D01*
X85294961Y-140452245D01*
G37*
G36*
X87834961Y-140452245D02*
G01*
X87837806Y-140442866D01*
X87842427Y-140434221D01*
X87848645Y-140426645D01*
X88356645Y-139918645D01*
X88364221Y-139912427D01*
X88372866Y-139907806D01*
X88382245Y-139904961D01*
X88392000Y-139904000D01*
X89408000Y-139904000D01*
X89417755Y-139904961D01*
X89427134Y-139907806D01*
X89435779Y-139912427D01*
X89443355Y-139918645D01*
X89951355Y-140426645D01*
X89957573Y-140434221D01*
X89962194Y-140442866D01*
X89965039Y-140452245D01*
X89966000Y-140462000D01*
X89966000Y-142494000D01*
X89965039Y-142503755D01*
X89962194Y-142513134D01*
X89957573Y-142521779D01*
X89951355Y-142529355D01*
X89443355Y-143037355D01*
X89435779Y-143043573D01*
X89427134Y-143048194D01*
X89417755Y-143051039D01*
X89408000Y-143052000D01*
X88392000Y-143052000D01*
X88382245Y-143051039D01*
X88372866Y-143048194D01*
X88364221Y-143043573D01*
X88356645Y-143037355D01*
X87848645Y-142529355D01*
X87842427Y-142521779D01*
X87837806Y-142513134D01*
X87834961Y-142503755D01*
X87834000Y-142494000D01*
X87834000Y-140462000D01*
X87834961Y-140452245D01*
G37*
D11*
X104140000Y-121539000D03*
X104140000Y-124079000D03*
X104140000Y-126619000D03*
X104140000Y-129159000D03*
D12*
X104140000Y-131699000D03*
D13*
X81280000Y-113030000D03*
D14*
X81280000Y-118110000D03*
D15*
X140970000Y-133350000D03*
D16*
X138430000Y-133350000D03*
X135890000Y-133350000D03*
X133350000Y-133350000D03*
X130810000Y-133350000D03*
X128270000Y-133350000D03*
X125730000Y-133350000D03*
X123190000Y-133350000D03*
D15*
X123190000Y-120650000D03*
D16*
X125730000Y-120650000D03*
X128270000Y-120650000D03*
X130810000Y-120650000D03*
X133350000Y-120650000D03*
X135890000Y-120650000D03*
X138430000Y-120650000D03*
X140970000Y-120650000D03*
X123190000Y-130810000D03*
X123190000Y-128270000D03*
X124841000Y-129540000D03*
D15*
X165100000Y-133350000D03*
D16*
X162560000Y-133350000D03*
X160020000Y-133350000D03*
X157480000Y-133350000D03*
X154940000Y-133350000D03*
X152400000Y-133350000D03*
X149860000Y-133350000D03*
X147320000Y-133350000D03*
D15*
X147320000Y-120650000D03*
D16*
X149860000Y-120650000D03*
X152400000Y-120650000D03*
X154940000Y-120650000D03*
X157480000Y-120650000D03*
X160020000Y-120650000D03*
X162560000Y-120650000D03*
X165100000Y-120650000D03*
X147320000Y-130810000D03*
X147320000Y-128270000D03*
X148971000Y-129540000D03*
D17*
X114220000Y-129540000D03*
X111720000Y-129540000D03*
G36*
G01*
X108370000Y-130265000D02*
X108370000Y-128815000D01*
G75*
G02*
X108620000Y-128565000I250000J0D01*
G01*
X109820000Y-128565000D01*
G75*
G02*
X110070000Y-128815000I0J-250000D01*
G01*
X110070000Y-130265000D01*
G75*
G02*
X109820000Y-130515000I-250000J0D01*
G01*
X108620000Y-130515000D01*
G75*
G02*
X108370000Y-130265000I0J250000D01*
G01*
G37*
D10*
G36*
X130060000Y-130914000D02*
G01*
X130060000Y-130414000D01*
X130060602Y-130414000D01*
X130060602Y-130389466D01*
X130065412Y-130340635D01*
X130074984Y-130292510D01*
X130089228Y-130245555D01*
X130108005Y-130200222D01*
X130131136Y-130156949D01*
X130158396Y-130116150D01*
X130189524Y-130078221D01*
X130224221Y-130043524D01*
X130262150Y-130012396D01*
X130302949Y-129985136D01*
X130346222Y-129962005D01*
X130391555Y-129943228D01*
X130438510Y-129928984D01*
X130486635Y-129919412D01*
X130535466Y-129914602D01*
X130560000Y-129914602D01*
X130560000Y-129914000D01*
X131060000Y-129914000D01*
X131060000Y-129914602D01*
X131084534Y-129914602D01*
X131133365Y-129919412D01*
X131181490Y-129928984D01*
X131228445Y-129943228D01*
X131273778Y-129962005D01*
X131317051Y-129985136D01*
X131357850Y-130012396D01*
X131395779Y-130043524D01*
X131430476Y-130078221D01*
X131461604Y-130116150D01*
X131488864Y-130156949D01*
X131511995Y-130200222D01*
X131530772Y-130245555D01*
X131545016Y-130292510D01*
X131554588Y-130340635D01*
X131559398Y-130389466D01*
X131559398Y-130414000D01*
X131560000Y-130414000D01*
X131560000Y-130914000D01*
X130060000Y-130914000D01*
G37*
G36*
X131559398Y-131714000D02*
G01*
X131559398Y-131738534D01*
X131554588Y-131787365D01*
X131545016Y-131835490D01*
X131530772Y-131882445D01*
X131511995Y-131927778D01*
X131488864Y-131971051D01*
X131461604Y-132011850D01*
X131430476Y-132049779D01*
X131395779Y-132084476D01*
X131357850Y-132115604D01*
X131317051Y-132142864D01*
X131273778Y-132165995D01*
X131228445Y-132184772D01*
X131181490Y-132199016D01*
X131133365Y-132208588D01*
X131084534Y-132213398D01*
X131060000Y-132213398D01*
X131060000Y-132214000D01*
X130560000Y-132214000D01*
X130560000Y-132213398D01*
X130535466Y-132213398D01*
X130486635Y-132208588D01*
X130438510Y-132199016D01*
X130391555Y-132184772D01*
X130346222Y-132165995D01*
X130302949Y-132142864D01*
X130262150Y-132115604D01*
X130224221Y-132084476D01*
X130189524Y-132049779D01*
X130158396Y-132011850D01*
X130131136Y-131971051D01*
X130108005Y-131927778D01*
X130089228Y-131882445D01*
X130074984Y-131835490D01*
X130065412Y-131787365D01*
X130060602Y-131738534D01*
X130060602Y-131714000D01*
X130060000Y-131714000D01*
X130060000Y-131214000D01*
X131560000Y-131214000D01*
X131560000Y-131714000D01*
X131559398Y-131714000D01*
G37*
G36*
X132600000Y-130914000D02*
G01*
X132600000Y-130414000D01*
X132600602Y-130414000D01*
X132600602Y-130389466D01*
X132605412Y-130340635D01*
X132614984Y-130292510D01*
X132629228Y-130245555D01*
X132648005Y-130200222D01*
X132671136Y-130156949D01*
X132698396Y-130116150D01*
X132729524Y-130078221D01*
X132764221Y-130043524D01*
X132802150Y-130012396D01*
X132842949Y-129985136D01*
X132886222Y-129962005D01*
X132931555Y-129943228D01*
X132978510Y-129928984D01*
X133026635Y-129919412D01*
X133075466Y-129914602D01*
X133100000Y-129914602D01*
X133100000Y-129914000D01*
X133600000Y-129914000D01*
X133600000Y-129914602D01*
X133624534Y-129914602D01*
X133673365Y-129919412D01*
X133721490Y-129928984D01*
X133768445Y-129943228D01*
X133813778Y-129962005D01*
X133857051Y-129985136D01*
X133897850Y-130012396D01*
X133935779Y-130043524D01*
X133970476Y-130078221D01*
X134001604Y-130116150D01*
X134028864Y-130156949D01*
X134051995Y-130200222D01*
X134070772Y-130245555D01*
X134085016Y-130292510D01*
X134094588Y-130340635D01*
X134099398Y-130389466D01*
X134099398Y-130414000D01*
X134100000Y-130414000D01*
X134100000Y-130914000D01*
X132600000Y-130914000D01*
G37*
G36*
X134099398Y-131714000D02*
G01*
X134099398Y-131738534D01*
X134094588Y-131787365D01*
X134085016Y-131835490D01*
X134070772Y-131882445D01*
X134051995Y-131927778D01*
X134028864Y-131971051D01*
X134001604Y-132011850D01*
X133970476Y-132049779D01*
X133935779Y-132084476D01*
X133897850Y-132115604D01*
X133857051Y-132142864D01*
X133813778Y-132165995D01*
X133768445Y-132184772D01*
X133721490Y-132199016D01*
X133673365Y-132208588D01*
X133624534Y-132213398D01*
X133600000Y-132213398D01*
X133600000Y-132214000D01*
X133100000Y-132214000D01*
X133100000Y-132213398D01*
X133075466Y-132213398D01*
X133026635Y-132208588D01*
X132978510Y-132199016D01*
X132931555Y-132184772D01*
X132886222Y-132165995D01*
X132842949Y-132142864D01*
X132802150Y-132115604D01*
X132764221Y-132084476D01*
X132729524Y-132049779D01*
X132698396Y-132011850D01*
X132671136Y-131971051D01*
X132648005Y-131927778D01*
X132629228Y-131882445D01*
X132614984Y-131835490D01*
X132605412Y-131787365D01*
X132600602Y-131738534D01*
X132600602Y-131714000D01*
X132600000Y-131714000D01*
X132600000Y-131214000D01*
X134100000Y-131214000D01*
X134100000Y-131714000D01*
X134099398Y-131714000D01*
G37*
G36*
X154190000Y-130914000D02*
G01*
X154190000Y-130414000D01*
X154190602Y-130414000D01*
X154190602Y-130389466D01*
X154195412Y-130340635D01*
X154204984Y-130292510D01*
X154219228Y-130245555D01*
X154238005Y-130200222D01*
X154261136Y-130156949D01*
X154288396Y-130116150D01*
X154319524Y-130078221D01*
X154354221Y-130043524D01*
X154392150Y-130012396D01*
X154432949Y-129985136D01*
X154476222Y-129962005D01*
X154521555Y-129943228D01*
X154568510Y-129928984D01*
X154616635Y-129919412D01*
X154665466Y-129914602D01*
X154690000Y-129914602D01*
X154690000Y-129914000D01*
X155190000Y-129914000D01*
X155190000Y-129914602D01*
X155214534Y-129914602D01*
X155263365Y-129919412D01*
X155311490Y-129928984D01*
X155358445Y-129943228D01*
X155403778Y-129962005D01*
X155447051Y-129985136D01*
X155487850Y-130012396D01*
X155525779Y-130043524D01*
X155560476Y-130078221D01*
X155591604Y-130116150D01*
X155618864Y-130156949D01*
X155641995Y-130200222D01*
X155660772Y-130245555D01*
X155675016Y-130292510D01*
X155684588Y-130340635D01*
X155689398Y-130389466D01*
X155689398Y-130414000D01*
X155690000Y-130414000D01*
X155690000Y-130914000D01*
X154190000Y-130914000D01*
G37*
G36*
X155689398Y-131714000D02*
G01*
X155689398Y-131738534D01*
X155684588Y-131787365D01*
X155675016Y-131835490D01*
X155660772Y-131882445D01*
X155641995Y-131927778D01*
X155618864Y-131971051D01*
X155591604Y-132011850D01*
X155560476Y-132049779D01*
X155525779Y-132084476D01*
X155487850Y-132115604D01*
X155447051Y-132142864D01*
X155403778Y-132165995D01*
X155358445Y-132184772D01*
X155311490Y-132199016D01*
X155263365Y-132208588D01*
X155214534Y-132213398D01*
X155190000Y-132213398D01*
X155190000Y-132214000D01*
X154690000Y-132214000D01*
X154690000Y-132213398D01*
X154665466Y-132213398D01*
X154616635Y-132208588D01*
X154568510Y-132199016D01*
X154521555Y-132184772D01*
X154476222Y-132165995D01*
X154432949Y-132142864D01*
X154392150Y-132115604D01*
X154354221Y-132084476D01*
X154319524Y-132049779D01*
X154288396Y-132011850D01*
X154261136Y-131971051D01*
X154238005Y-131927778D01*
X154219228Y-131882445D01*
X154204984Y-131835490D01*
X154195412Y-131787365D01*
X154190602Y-131738534D01*
X154190602Y-131714000D01*
X154190000Y-131714000D01*
X154190000Y-131214000D01*
X155690000Y-131214000D01*
X155690000Y-131714000D01*
X155689398Y-131714000D01*
G37*
G36*
X156730000Y-130914000D02*
G01*
X156730000Y-130414000D01*
X156730602Y-130414000D01*
X156730602Y-130389466D01*
X156735412Y-130340635D01*
X156744984Y-130292510D01*
X156759228Y-130245555D01*
X156778005Y-130200222D01*
X156801136Y-130156949D01*
X156828396Y-130116150D01*
X156859524Y-130078221D01*
X156894221Y-130043524D01*
X156932150Y-130012396D01*
X156972949Y-129985136D01*
X157016222Y-129962005D01*
X157061555Y-129943228D01*
X157108510Y-129928984D01*
X157156635Y-129919412D01*
X157205466Y-129914602D01*
X157230000Y-129914602D01*
X157230000Y-129914000D01*
X157730000Y-129914000D01*
X157730000Y-129914602D01*
X157754534Y-129914602D01*
X157803365Y-129919412D01*
X157851490Y-129928984D01*
X157898445Y-129943228D01*
X157943778Y-129962005D01*
X157987051Y-129985136D01*
X158027850Y-130012396D01*
X158065779Y-130043524D01*
X158100476Y-130078221D01*
X158131604Y-130116150D01*
X158158864Y-130156949D01*
X158181995Y-130200222D01*
X158200772Y-130245555D01*
X158215016Y-130292510D01*
X158224588Y-130340635D01*
X158229398Y-130389466D01*
X158229398Y-130414000D01*
X158230000Y-130414000D01*
X158230000Y-130914000D01*
X156730000Y-130914000D01*
G37*
G36*
X158229398Y-131714000D02*
G01*
X158229398Y-131738534D01*
X158224588Y-131787365D01*
X158215016Y-131835490D01*
X158200772Y-131882445D01*
X158181995Y-131927778D01*
X158158864Y-131971051D01*
X158131604Y-132011850D01*
X158100476Y-132049779D01*
X158065779Y-132084476D01*
X158027850Y-132115604D01*
X157987051Y-132142864D01*
X157943778Y-132165995D01*
X157898445Y-132184772D01*
X157851490Y-132199016D01*
X157803365Y-132208588D01*
X157754534Y-132213398D01*
X157730000Y-132213398D01*
X157730000Y-132214000D01*
X157230000Y-132214000D01*
X157230000Y-132213398D01*
X157205466Y-132213398D01*
X157156635Y-132208588D01*
X157108510Y-132199016D01*
X157061555Y-132184772D01*
X157016222Y-132165995D01*
X156972949Y-132142864D01*
X156932150Y-132115604D01*
X156894221Y-132084476D01*
X156859524Y-132049779D01*
X156828396Y-132011850D01*
X156801136Y-131971051D01*
X156778005Y-131927778D01*
X156759228Y-131882445D01*
X156744984Y-131835490D01*
X156735412Y-131787365D01*
X156730602Y-131738534D01*
X156730602Y-131714000D01*
X156730000Y-131714000D01*
X156730000Y-131214000D01*
X158230000Y-131214000D01*
X158230000Y-131714000D01*
X158229398Y-131714000D01*
G37*
D18*
X126365000Y-139700000D03*
D19*
X92710000Y-120610000D03*
X92710000Y-118110000D03*
D20*
X96520000Y-116840000D03*
X96520000Y-114300000D03*
D21*
X96520000Y-111760000D03*
D22*
X135890000Y-124460000D03*
D19*
X128270000Y-124460000D03*
D22*
X160020000Y-124460000D03*
D19*
X152400000Y-124460000D03*
D22*
X128270000Y-129540000D03*
D19*
X135890000Y-129540000D03*
D22*
X152400000Y-129540000D03*
D19*
X160020000Y-129540000D03*
G36*
G01*
X131230000Y-112485000D02*
X131230000Y-111035000D01*
G75*
G02*
X131480000Y-110785000I250000J0D01*
G01*
X132680000Y-110785000D01*
G75*
G02*
X132930000Y-111035000I0J-250000D01*
G01*
X132930000Y-112485000D01*
G75*
G02*
X132680000Y-112735000I-250000J0D01*
G01*
X131480000Y-112735000D01*
G75*
G02*
X131230000Y-112485000I0J250000D01*
G01*
G37*
D17*
X134580000Y-111760000D03*
X137080000Y-111760000D03*
X139580000Y-111760000D03*
X163710000Y-111760000D03*
X161210000Y-111760000D03*
X158710000Y-111760000D03*
G36*
G01*
X155360000Y-112485000D02*
X155360000Y-111035000D01*
G75*
G02*
X155610000Y-110785000I250000J0D01*
G01*
X156810000Y-110785000D01*
G75*
G02*
X157060000Y-111035000I0J-250000D01*
G01*
X157060000Y-112485000D01*
G75*
G02*
X156810000Y-112735000I-250000J0D01*
G01*
X155610000Y-112735000D01*
G75*
G02*
X155360000Y-112485000I0J250000D01*
G01*
G37*
X114220000Y-120650000D03*
X111720000Y-120650000D03*
G36*
G01*
X108370000Y-121375000D02*
X108370000Y-119925000D01*
G75*
G02*
X108620000Y-119675000I250000J0D01*
G01*
X109820000Y-119675000D01*
G75*
G02*
X110070000Y-119925000I0J-250000D01*
G01*
X110070000Y-121375000D01*
G75*
G02*
X109820000Y-121625000I-250000J0D01*
G01*
X108620000Y-121625000D01*
G75*
G02*
X108370000Y-121375000I0J250000D01*
G01*
G37*
X114220000Y-138430000D03*
X111720000Y-138430000D03*
G36*
G01*
X108370000Y-139155000D02*
X108370000Y-137705000D01*
G75*
G02*
X108620000Y-137455000I250000J0D01*
G01*
X109820000Y-137455000D01*
G75*
G02*
X110070000Y-137705000I0J-250000D01*
G01*
X110070000Y-139155000D01*
G75*
G02*
X109820000Y-139405000I-250000J0D01*
G01*
X108620000Y-139405000D01*
G75*
G02*
X108370000Y-139155000I0J250000D01*
G01*
G37*
X114300000Y-111760000D03*
X111800000Y-111760000D03*
G36*
G01*
X108450000Y-112485000D02*
X108450000Y-111035000D01*
G75*
G02*
X108700000Y-110785000I250000J0D01*
G01*
X109900000Y-110785000D01*
G75*
G02*
X110150000Y-111035000I0J-250000D01*
G01*
X110150000Y-112485000D01*
G75*
G02*
X109900000Y-112735000I-250000J0D01*
G01*
X108700000Y-112735000D01*
G75*
G02*
X108450000Y-112485000I0J250000D01*
G01*
G37*
D18*
X90170000Y-113030000D03*
X163830000Y-139700000D03*
D19*
X125420000Y-113030000D03*
D23*
X121920000Y-113030000D03*
D19*
X149550000Y-113030000D03*
D23*
X146050000Y-113030000D03*
D19*
X87630000Y-120610000D03*
X87630000Y-118110000D03*
M02*
